<svg width="36" height="36" viewBox="0 0 36 36" fill="none" xmlns="http://www.w3.org/2000/svg">
<path d="M17.483 30.971C17.2059 30.9967 16.9296 30.9143 16.7119 30.7409C16.4942 30.5676 16.352 30.3168 16.315 30.041L13.427 5.136C13.358 4.566 14.103 4.003 15.084 3.916C16.065 3.829 16.895 4.252 16.928 4.825L18.469 29.849C18.4808 30.127 18.3849 30.3989 18.2012 30.6079C18.0175 30.817 17.7602 30.947 17.483 30.971ZM21.682 30.825C21.4041 30.8202 21.1388 30.7081 20.9417 30.5122C20.7445 30.3164 20.6307 30.0519 20.624 29.774L20.432 4.703C20.425 4.129 21.223 3.649 22.205 3.669C23.187 3.688 23.965 4.197 23.936 4.771L22.779 29.816C22.762 30.0934 22.6383 30.3534 22.4337 30.5415C22.2292 30.7296 21.9598 30.8312 21.682 30.825ZM25.867 31.131C25.5913 31.0964 25.3397 30.9565 25.1647 30.7407C24.9898 30.5249 24.9049 30.2499 24.928 29.973L27.429 5.026C27.483 4.454 28.328 4.063 29.302 4.188C30.276 4.312 30.996 4.902 30.905 5.469L27.066 30.245C27.0192 30.5189 26.8683 30.7641 26.6448 30.9293C26.4213 31.0944 26.1426 31.1667 25.867 31.131Z" fill="#FFE8B6"/>
<path d="M19.582 30.841C19.3042 30.8514 19.0331 30.754 18.8255 30.5691C18.6178 30.3842 18.4898 30.1262 18.468 29.849L16.927 4.825C16.889 4.252 17.661 3.73 18.644 3.697C19.627 3.663 20.432 4.13 20.433 4.704L20.625 29.775C20.6221 30.0529 20.5119 30.3188 20.3176 30.5175C20.1233 30.7161 19.8597 30.832 19.582 30.841ZM23.779 30.922C23.5019 30.9022 23.2432 30.7761 23.057 30.57C22.8708 30.3638 22.7716 30.0937 22.78 29.816L23.937 4.771C23.961 4.197 24.783 3.761 25.762 3.833C26.741 3.904 27.491 4.455 27.431 5.026L24.93 29.973C24.8973 30.249 24.7593 30.5017 24.5449 30.6784C24.3305 30.8552 24.0561 30.9425 23.779 30.922Z" fill="#D99E82"/>
<path d="M29.781 31.803L28.748 31.644C28.201 31.5583 27.7102 31.2595 27.3828 30.8129C27.0555 30.3664 26.9182 29.8084 27.001 29.261L30.496 6.546C30.5817 5.99901 30.8805 5.5082 31.3271 5.18085C31.7736 4.85349 32.3316 4.71621 32.879 4.799L33.912 4.958C34.459 5.04375 34.9498 5.34253 35.2771 5.78906C35.6045 6.23559 35.7418 6.79355 35.659 7.341L32.164 30.056C32.078 30.6029 31.7792 31.0935 31.3327 31.4208C30.8862 31.7481 30.3284 31.8855 29.781 31.803Z" fill="#BE1931"/>
<path d="M33.276 10.133C33.8531 10.133 34.321 9.66514 34.321 9.088C34.321 8.51086 33.8531 8.043 33.276 8.043C32.6989 8.043 32.231 8.51086 32.231 9.088C32.231 9.66514 32.6989 10.133 33.276 10.133Z" fill="#F5F8FA"/>
<path d="M33.276 10.133C33.8531 10.133 34.321 9.66514 34.321 9.088C34.321 8.51086 33.8531 8.043 33.276 8.043C32.6989 8.043 32.231 8.51086 32.231 9.088C32.231 9.66514 32.6989 10.133 33.276 10.133Z" fill="#F5F8FA"/>
<path d="M32.799 13.231C33.3761 13.231 33.844 12.7631 33.844 12.186C33.844 11.6089 33.3761 11.141 32.799 11.141C32.2219 11.141 31.754 11.6089 31.754 12.186C31.754 12.7631 32.2219 13.231 32.799 13.231Z" fill="#F5F8FA"/>
<path d="M32.322 16.328C32.8991 16.328 33.367 15.8601 33.367 15.283C33.367 14.7059 32.8991 14.238 32.322 14.238C31.7449 14.238 31.277 14.7059 31.277 15.283C31.277 15.8601 31.7449 16.328 32.322 16.328Z" fill="#F5F8FA"/>
<path d="M31.846 19.426C32.4231 19.426 32.891 18.9581 32.891 18.381C32.891 17.8039 32.4231 17.336 31.846 17.336C31.2689 17.336 30.801 17.8039 30.801 18.381C30.801 18.9581 31.2689 19.426 31.846 19.426Z" fill="#F5F8FA"/>
<path d="M31.369 22.523C31.9461 22.523 32.414 22.0551 32.414 21.478C32.414 20.9009 31.9461 20.433 31.369 20.433C30.7919 20.433 30.324 20.9009 30.324 21.478C30.324 22.0551 30.7919 22.523 31.369 22.523Z" fill="#F5F8FA"/>
<path d="M30.893 25.621C31.4701 25.621 31.938 25.1531 31.938 24.576C31.938 23.9989 31.4701 23.531 30.893 23.531C30.3159 23.531 29.848 23.9989 29.848 24.576C29.848 25.1531 30.3159 25.621 30.893 25.621Z" fill="#F5F8FA"/>
<path d="M30.416 28.718C30.9931 28.718 31.461 28.2501 31.461 27.673C31.461 27.0959 30.9931 26.628 30.416 26.628C29.8389 26.628 29.371 27.0959 29.371 27.673C29.371 28.2501 29.8389 28.718 30.416 28.718Z" fill="#F5F8FA"/>
<path d="M14.591 31.252L5.25 32.318C4.69974 32.3791 4.14766 32.22 3.7143 31.8754C3.28094 31.5309 3.00151 31.0289 2.937 30.479L0.331002 7.64499C0.269643 7.09469 0.428642 6.54246 0.773244 6.10904C1.11785 5.67562 1.62002 5.39625 2.17 5.33199L11.511 4.26599C12.0613 4.20491 12.6133 4.36401 13.0467 4.70856C13.4801 5.05311 13.7595 5.55513 13.824 6.10499L16.43 28.939C16.4914 29.4893 16.3324 30.0415 15.9878 30.4749C15.6432 30.9084 15.141 31.1877 14.591 31.252Z" fill="#BE1931"/>
<path d="M7.891 7.833L2.349 8.466C2.12051 8.49133 1.89128 8.42519 1.7114 8.28203C1.53152 8.13888 1.41561 7.93035 1.389 7.702L1.349 7.35C1.32368 7.12151 1.38982 6.89228 1.53297 6.7124C1.67612 6.53252 1.88466 6.41661 2.113 6.39L7.654 5.758C7.88249 5.73267 8.11172 5.79881 8.2916 5.94197C8.47148 6.08512 8.58739 6.29365 8.614 6.522L8.654 6.874C8.67906 7.10218 8.61293 7.33101 8.47001 7.51064C8.32709 7.69027 8.11897 7.80614 7.891 7.833ZM8.246 10.947L2.705 11.58C2.47651 11.6053 2.24728 11.5392 2.0674 11.396C1.88752 11.2529 1.77161 11.0443 1.745 10.816L1.705 10.464C1.67939 10.2356 1.7453 10.0064 1.88829 9.82646C2.03129 9.64655 2.23973 9.5306 2.468 9.504L8.009 8.872C8.23749 8.84667 8.46672 8.91281 8.6466 9.05597C8.82648 9.19912 8.94239 9.40765 8.969 9.636L9.009 9.988C9.0346 10.2163 8.96867 10.4454 8.82565 10.6252C8.68263 10.8049 8.4742 10.9206 8.246 10.947ZM8.601 14.061L3.06 14.693C2.83151 14.7183 2.60228 14.6522 2.4224 14.509C2.24252 14.3659 2.12661 14.1573 2.1 13.929L2.06 13.577C2.03468 13.3485 2.10082 13.1193 2.24397 12.9394C2.38712 12.7595 2.59566 12.6436 2.824 12.617L8.365 11.985C8.59349 11.9597 8.82272 12.0258 9.0026 12.169C9.18248 12.3121 9.29839 12.5207 9.325 12.749L9.365 13.101C9.39033 13.3295 9.32419 13.5587 9.18104 13.7386C9.03788 13.9185 8.82935 14.0344 8.601 14.061ZM8.957 17.175L3.416 17.807C3.18751 17.8323 2.95828 17.7662 2.7784 17.623C2.59852 17.4799 2.48261 17.2713 2.456 17.043L2.416 16.691C2.39068 16.4625 2.45682 16.2333 2.59997 16.0534C2.74312 15.8735 2.95166 15.7576 3.18 15.731L8.721 15.099C8.94949 15.0737 9.17872 15.1398 9.3586 15.283C9.53848 15.4261 9.65439 15.6347 9.681 15.863L9.721 16.215C9.74633 16.4435 9.68019 16.6727 9.53704 16.8526C9.39388 17.0325 9.18535 17.1484 8.957 17.175ZM9.312 20.288L3.771 20.92C3.54251 20.9453 3.31328 20.8792 3.1334 20.736C2.95352 20.5929 2.83761 20.3843 2.811 20.156L2.771 19.804C2.74568 19.5755 2.81182 19.3463 2.95497 19.1664C3.09812 18.9865 3.30666 18.8706 3.535 18.844L9.076 18.212C9.3045 18.1867 9.53372 18.2528 9.7136 18.396C9.89348 18.5391 10.0094 18.7477 10.036 18.976L10.076 19.328C10.1013 19.5565 10.0352 19.7857 9.89204 19.9656C9.74888 20.1455 9.54035 20.2614 9.312 20.288ZM9.667 23.402L4.126 24.034C3.89751 24.0593 3.66828 23.9932 3.4884 23.85C3.30852 23.7069 3.19261 23.4983 3.166 23.27L3.126 22.918C3.10068 22.6895 3.16682 22.4603 3.30997 22.2804C3.45312 22.1005 3.66166 21.9846 3.89 21.958L9.431 21.326C9.65949 21.3007 9.88872 21.3668 10.0686 21.51C10.2485 21.6531 10.3644 21.8617 10.391 22.09L10.431 22.442C10.4563 22.6705 10.3902 22.8997 10.247 23.0796C10.1039 23.2595 9.89535 23.3754 9.667 23.402ZM10.023 26.516L4.482 27.148C4.25351 27.1733 4.02428 27.1072 3.8444 26.964C3.66452 26.8209 3.54861 26.6123 3.522 26.384L3.482 26.032C3.45668 25.8035 3.52282 25.5743 3.66597 25.3944C3.80912 25.2145 4.01766 25.0986 4.246 25.072L9.787 24.44C10.0155 24.4147 10.2447 24.4808 10.4246 24.624C10.6045 24.7671 10.7204 24.9757 10.747 25.204L10.787 25.556C10.8123 25.7845 10.7462 26.0137 10.603 26.1936C10.4599 26.3735 10.2513 26.4894 10.023 26.516ZM10.378 29.63L4.837 30.262C4.60851 30.2873 4.37928 30.2212 4.1994 30.078C4.01952 29.9349 3.90361 29.7263 3.877 29.498L3.837 29.146C3.81168 28.9175 3.87782 28.6883 4.02097 28.5084C4.16412 28.3285 4.37266 28.2126 4.601 28.186L10.142 27.554C10.3705 27.5287 10.5997 27.5948 10.7796 27.738C10.9595 27.8811 11.0754 28.0897 11.102 28.318L11.142 28.67C11.1673 28.8985 11.1012 29.1277 10.958 29.3076C10.8149 29.4875 10.6063 29.6034 10.378 29.63Z" fill="#F5F8FA"/>
<path d="M5.582 9.148L8.009 8.871C8.23734 8.84439 8.44588 8.72848 8.58903 8.5486C8.73219 8.36872 8.79832 8.13949 8.773 7.911L8.733 7.559C8.70639 7.33066 8.59048 7.12212 8.4106 6.97897C8.23072 6.83581 8.00149 6.76968 7.773 6.795L5.345 7.072C5.11665 7.09861 4.90812 7.21452 4.76496 7.3944C4.62181 7.57428 4.55567 7.80351 4.581 8.032L4.621 8.384C4.6476 8.61254 4.76365 8.82124 4.94375 8.96442C5.12386 9.1076 5.35334 9.17361 5.582 9.148ZM5.937 12.262L8.364 11.985C8.59234 11.9584 8.80088 11.8425 8.94403 11.6626C9.08719 11.4827 9.15333 11.2535 9.128 11.025L9.088 10.673C9.06139 10.4447 8.94548 10.2361 8.7656 10.093C8.58572 9.94981 8.35649 9.88368 8.128 9.909L5.7 10.186C5.47165 10.2126 5.26312 10.3285 5.11996 10.5084C4.97681 10.6883 4.91067 10.9175 4.936 11.146L4.976 11.498C5.00285 11.7264 5.11897 11.935 5.29901 12.0781C5.47905 12.2212 5.7084 12.2873 5.937 12.262ZM6.648 18.49L9.075 18.213C9.30334 18.1864 9.51188 18.0705 9.65503 17.8906C9.79819 17.7107 9.86432 17.4815 9.839 17.253L9.799 16.9C9.77239 16.6717 9.65648 16.4631 9.4766 16.32C9.29672 16.1768 9.06749 16.1107 8.839 16.136L6.412 16.413C6.18365 16.4396 5.97512 16.5555 5.83196 16.7354C5.68881 16.9153 5.62267 17.1445 5.648 17.373L5.688 17.725C5.71437 17.9535 5.83017 18.1623 6.01008 18.3057C6.18999 18.449 6.41935 18.5153 6.648 18.49ZM7.003 21.603L9.43 21.326C9.65834 21.2994 9.86688 21.1835 10.01 21.0036C10.1532 20.8237 10.2193 20.5945 10.194 20.366L10.154 20.014C10.1274 19.7857 10.0115 19.5771 9.8316 19.434C9.65172 19.2908 9.42249 19.2247 9.194 19.25L6.767 19.527C6.53865 19.5536 6.33012 19.6695 6.18696 19.8494C6.04381 20.0293 5.97767 20.2585 6.003 20.487L6.043 20.839C6.06961 21.0673 6.18552 21.2759 6.3654 21.419C6.54528 21.5622 6.77451 21.6283 7.003 21.603ZM7.358 24.717L9.785 24.44C10.0133 24.4134 10.2219 24.2975 10.365 24.1176C10.5082 23.9377 10.5743 23.7085 10.549 23.48L10.509 23.128C10.4824 22.8997 10.3665 22.6911 10.1866 22.548C10.0067 22.4048 9.77749 22.3387 9.549 22.364L7.122 22.641C6.89365 22.6676 6.68512 22.7835 6.54196 22.9634C6.39881 23.1433 6.33267 23.3725 6.358 23.601L6.398 23.953C6.42461 24.1813 6.54052 24.3899 6.7204 24.533C6.90028 24.6762 7.12951 24.7423 7.358 24.717ZM8.069 30.945L10.496 30.668C10.7243 30.6414 10.9329 30.5255 11.076 30.3456C11.2192 30.1657 11.2853 29.9365 11.26 29.708L11.22 29.356C11.1934 29.1277 11.0775 28.9191 10.8976 28.776C10.7177 28.6328 10.4885 28.5667 10.26 28.592L7.833 28.869C7.60465 28.8956 7.39612 29.0115 7.25296 29.1914C7.10981 29.3713 7.04367 29.6005 7.069 29.829L7.109 30.181C7.13561 30.4093 7.25152 30.6179 7.4314 30.761C7.61128 30.9042 7.84051 30.9703 8.069 30.945Z" fill="#292F33"/>
<path d="M10.103 6.529L12.355 6.272C12.4692 6.2587 12.5734 6.20074 12.645 6.1108C12.7166 6.02086 12.7497 5.90625 12.737 5.792L12.717 5.616C12.7037 5.50183 12.6457 5.39756 12.5558 5.32599C12.4659 5.25441 12.3513 5.22134 12.237 5.234L9.98501 5.492C9.87083 5.50531 9.76657 5.56326 9.69499 5.6532C9.62341 5.74314 9.59034 5.85776 9.60301 5.972L9.62301 6.148C9.6363 6.2621 9.69429 6.36628 9.78427 6.4377C9.87424 6.50912 9.98886 6.54195 10.103 6.529ZM10.34 8.605L12.592 8.348C12.7062 8.3347 12.8104 8.27674 12.882 8.1868C12.9536 8.09686 12.9867 7.98225 12.974 7.868L12.954 7.692C12.9407 7.57783 12.8827 7.47356 12.7928 7.40199C12.7029 7.33041 12.5883 7.29734 12.474 7.31L10.222 7.567C10.1078 7.58055 10.0035 7.63872 9.93193 7.72882C9.86037 7.81892 9.82733 7.93365 9.84001 8.048L9.86001 8.224C9.87355 8.33799 9.93161 8.44201 10.0215 8.51338C10.1114 8.58475 10.2259 8.61768 10.34 8.605ZM10.577 10.681L12.829 10.424C12.9432 10.4107 13.0474 10.3527 13.119 10.2628C13.1906 10.1729 13.2237 10.0582 13.211 9.944L13.191 9.768C13.1777 9.65383 13.1197 9.54956 13.0298 9.47799C12.9399 9.40641 12.8253 9.37334 12.711 9.386L10.459 9.643C10.3448 9.65631 10.2406 9.71426 10.169 9.8042C10.0974 9.89414 10.0643 10.0088 10.077 10.123L10.097 10.299C10.1103 10.4132 10.1683 10.5174 10.2582 10.589C10.3481 10.6606 10.4628 10.6937 10.577 10.681ZM10.814 12.757L13.066 12.5C13.1802 12.4867 13.2844 12.4287 13.356 12.3388C13.4276 12.2489 13.4607 12.1342 13.448 12.02L13.428 11.844C13.4147 11.7298 13.3567 11.6256 13.2668 11.554C13.1769 11.4824 13.0623 11.4493 12.948 11.462L10.696 11.719C10.5818 11.7323 10.4776 11.7903 10.406 11.8802C10.3344 11.9701 10.3013 12.0848 10.314 12.199L10.334 12.375C10.3473 12.4892 10.4053 12.5934 10.4952 12.665C10.5851 12.7366 10.6998 12.7697 10.814 12.757ZM11.051 14.833L13.303 14.576C13.4172 14.5627 13.5214 14.5047 13.593 14.4148C13.6646 14.3249 13.6977 14.2102 13.685 14.096L13.665 13.92C13.6517 13.8058 13.5937 13.7016 13.5038 13.63C13.4139 13.5584 13.2993 13.5253 13.185 13.538L10.933 13.795C10.8188 13.8083 10.7146 13.8663 10.643 13.9562C10.5714 14.0461 10.5383 14.1608 10.551 14.275L10.571 14.451C10.5843 14.5652 10.6423 14.6694 10.7322 14.741C10.8221 14.8126 10.9368 14.8457 11.051 14.833ZM11.288 16.909L13.54 16.652C13.6542 16.6387 13.7584 16.5807 13.83 16.4908C13.9016 16.4009 13.9347 16.2863 13.922 16.172L13.902 15.996C13.8887 15.8818 13.8307 15.7776 13.7408 15.706C13.6509 15.6344 13.5363 15.6013 13.422 15.614L11.17 15.871C11.0558 15.8843 10.9516 15.9423 10.88 16.0322C10.8084 16.1221 10.7753 16.2368 10.788 16.351L10.808 16.527C10.8213 16.6412 10.8793 16.7454 10.9692 16.817C11.0591 16.8886 11.1738 16.9217 11.288 16.909ZM11.525 18.984L13.777 18.727C13.8912 18.7137 13.9954 18.6557 14.067 18.5658C14.1386 18.4759 14.1717 18.3612 14.159 18.247L14.139 18.071C14.1257 17.9568 14.0677 17.8526 13.9778 17.781C13.8879 17.7094 13.7733 17.6763 13.659 17.689L11.407 17.946C11.2928 17.9593 11.1886 18.0173 11.117 18.1072C11.0454 18.1971 11.0123 18.3118 11.025 18.426L11.045 18.602C11.071 18.84 11.288 19.012 11.525 18.984ZM11.762 21.06L14.014 20.803C14.1282 20.7897 14.2324 20.7317 14.304 20.6418C14.3756 20.5519 14.4087 20.4372 14.396 20.323L14.376 20.147C14.3627 20.0328 14.3047 19.9286 14.2148 19.857C14.1249 19.7854 14.0103 19.7523 13.896 19.765L11.644 20.022C11.5298 20.0353 11.4256 20.0933 11.354 20.1832C11.2824 20.2731 11.2493 20.3878 11.262 20.502L11.282 20.678C11.2883 20.7346 11.3058 20.7895 11.3334 20.8394C11.3609 20.8892 11.3981 20.9332 11.4427 20.9687C11.4873 21.0042 11.5384 21.0305 11.5932 21.0462C11.648 21.0618 11.7054 21.0665 11.762 21.06ZM11.998 23.136L14.25 22.879C14.3642 22.8657 14.4684 22.8077 14.54 22.7178C14.6116 22.6279 14.6447 22.5133 14.632 22.399L14.612 22.223C14.5987 22.1088 14.5407 22.0046 14.4508 21.933C14.3609 21.8614 14.2463 21.8283 14.132 21.841L11.88 22.098C11.7658 22.1113 11.6616 22.1693 11.59 22.2592C11.5184 22.3491 11.4853 22.4638 11.498 22.578L11.518 22.754C11.5313 22.8682 11.5893 22.9724 11.6792 23.044C11.7691 23.1156 11.8838 23.1487 11.998 23.136ZM12.235 25.212L14.487 24.955C14.6012 24.9417 14.7054 24.8837 14.777 24.7938C14.8486 24.7039 14.8817 24.5893 14.869 24.475L14.849 24.299C14.8357 24.1848 14.7777 24.0806 14.6878 24.009C14.5979 23.9374 14.4833 23.9043 14.369 23.917L12.117 24.174C12.0028 24.1873 11.8986 24.2453 11.827 24.3352C11.7554 24.4251 11.7223 24.5398 11.735 24.654L11.755 24.83C11.7683 24.9442 11.8263 25.0484 11.9162 25.12C12.0061 25.1916 12.1208 25.2247 12.235 25.212ZM12.472 27.288L14.724 27.031C14.8382 27.0177 14.9424 26.9597 15.014 26.8698C15.0856 26.7799 15.1187 26.6653 15.106 26.551L15.086 26.375C15.0727 26.2608 15.0147 26.1566 14.9248 26.085C14.8349 26.0134 14.7203 25.9803 14.606 25.993L12.354 26.25C12.2398 26.2633 12.1356 26.3213 12.064 26.4112C11.9924 26.5011 11.9593 26.6158 11.972 26.73L11.992 26.906C12.0053 27.0202 12.0633 27.1244 12.1532 27.196C12.2431 27.2676 12.3578 27.3007 12.472 27.288ZM12.709 29.364L14.961 29.107C15.0752 29.0937 15.1794 29.0357 15.251 28.9458C15.3226 28.8559 15.3557 28.7413 15.343 28.627L15.323 28.451C15.3097 28.3368 15.2517 28.2326 15.1618 28.161C15.0719 28.0894 14.9573 28.0563 14.843 28.069L12.591 28.326C12.4768 28.3393 12.3726 28.3973 12.301 28.4872C12.2294 28.5771 12.1963 28.6918 12.209 28.806L12.229 28.982C12.2423 29.0962 12.3003 29.2004 12.3902 29.272C12.4801 29.3436 12.5948 29.3767 12.709 29.364Z" fill="#A0041E"/>
</svg>
