<svg width="36" height="36" viewBox="0 0 36 36" fill="none" xmlns="http://www.w3.org/2000/svg">
<g clip-path="url(#clip0_2_2)">
<path d="M20 6.042C20 7.154 19.097 8.056 18 8.056C16.903 8.056 16 7.154 16 6.042V2.014C16 0.901 16.903 0 18 0C19.097 0 20 0.901 20 2.014V6.042Z" fill="#FFCC4D"/>
<path d="M9.18 36C8.956 36 8.728 35.948 8.514 35.841C8.15905 35.6583 7.89017 35.3433 7.76539 34.9641C7.6406 34.5849 7.66992 34.1718 7.847 33.814L16.787 15.687C17.039 15.175 17.555 14.852 18.12 14.852C18.685 14.852 19.201 15.175 19.453 15.687L28.394 33.814C28.5714 34.1716 28.601 34.5847 28.4764 34.964C28.3518 35.3433 28.083 35.6583 27.728 35.841C27.5526 35.9292 27.3614 35.9818 27.1656 35.9955C26.9697 36.0092 26.7731 35.9839 26.5871 35.921C26.4011 35.8581 26.2295 35.7589 26.0822 35.6291C25.9349 35.4993 25.8148 35.3416 25.729 35.165L18.121 19.74L10.514 35.165C10.3917 35.4148 10.202 35.6254 9.96624 35.773C9.73048 35.9206 9.45813 35.9992 9.18 36Z" fill="#FFAC33"/>
<path d="M18.121 20.392C17.9903 20.3919 17.8609 20.3657 17.7403 20.3151C17.6198 20.2644 17.5106 20.1903 17.419 20.097L3.512 5.99799C3.124 5.60399 3.124 4.96699 3.512 4.57399C3.9 4.18099 4.529 4.18099 4.916 4.57399L18.121 17.96L31.324 4.57299C31.4157 4.47972 31.525 4.40563 31.6456 4.35506C31.7662 4.30449 31.8957 4.27844 32.0265 4.27844C32.1573 4.27844 32.2868 4.30449 32.4074 4.35506C32.528 4.40563 32.6373 4.47972 32.729 4.57299C32.9154 4.76311 33.0198 5.01874 33.0198 5.28499C33.0198 5.55125 32.9154 5.80688 32.729 5.99699L18.824 20.097C18.7321 20.1901 18.6226 20.2641 18.502 20.3147C18.3813 20.3654 18.2518 20.3916 18.121 20.392Z" fill="#58595B"/>
<path d="M34.015 19.385C34.015 28.283 26.9 35.496 18.121 35.496C9.344 35.496 2.228 28.283 2.228 19.385C2.228 10.485 9.344 3.272 18.121 3.272C26.899 3.271 34.015 10.485 34.015 19.385Z" fill="#DD2E44"/>
<path d="M30.041 19.385C30.041 26.059 24.706 31.469 18.121 31.469C11.538 31.469 6.202 26.059 6.202 19.385C6.202 12.71 11.538 7.3 18.121 7.3C24.706 7.299 30.041 12.71 30.041 19.385Z" fill="#E6E7E8"/>
<path d="M30.04 1.257C29.2552 1.25687 28.4782 1.41336 27.7546 1.71729C27.031 2.02122 26.3753 2.46648 25.826 3.027L34.255 11.571C35.3769 10.4326 36.0041 8.89733 36 7.299C36 3.963 33.331 1.257 30.04 1.257ZM5.96 1.257C6.74482 1.25693 7.52178 1.41344 8.24536 1.71736C8.96895 2.02129 9.62462 2.46653 10.174 3.027L1.745 11.571C0.623065 10.4326 -0.00406284 8.89733 5.50097e-07 7.299C5.50097e-07 3.963 2.668 1.257 5.96 1.257Z" fill="#FFCC4D"/>
<path d="M23 20H18C17.7348 20 17.4804 19.8946 17.2929 19.7071C17.1054 19.5196 17 19.2652 17 19V10C17 9.73478 17.1054 9.48043 17.2929 9.29289C17.4804 9.10536 17.7348 9 18 9C18.2652 9 18.5196 9.10536 18.7071 9.29289C18.8946 9.48043 19 9.73478 19 10V18H23C23.2652 18 23.5196 18.1054 23.7071 18.2929C23.8946 18.4804 24 18.7348 24 19C24 19.2652 23.8946 19.5196 23.7071 19.7071C23.5196 19.8946 23.2652 20 23 20Z" fill="#414042"/>
</g>
<defs>
<clipPath id="clip0_2_2">
<rect width="36" height="36" fill="white"/>
</clipPath>
</defs>
</svg>
