<svg width="36" height="36" viewBox="0 0 36 36" fill="none" xmlns="http://www.w3.org/2000/svg">
<path d="M35 17C35 26.389 21.777 36 18 36C14.222 36 1 26.389 1 17C1 7.611 8.611 0 18 0C27.389 0 35 7.611 35 17Z" fill="#CCD6DD"/>
<path d="M13.503 14.845C16.627 17.969 17.893 21.768 16.331 23.33C14.769 24.892 10.97 23.627 7.846 20.502C4.721 17.378 3.455 13.579 5.018 12.017C6.581 10.455 10.379 11.721 13.503 14.845ZM22.497 14.845C19.373 17.969 18.107 21.768 19.669 23.33C21.231 24.892 25.03 23.627 28.154 20.502C31.279 17.377 32.545 13.579 30.982 12.017C29.42 10.455 25.621 11.72 22.497 14.845ZM18 31C15.653 31 14.425 29.84 14.293 29.707C14.1042 29.5208 13.997 29.2672 13.9952 29.0021C13.9933 28.7369 14.0968 28.4818 14.283 28.293C14.4692 28.1042 14.7228 27.997 14.9879 27.9951C15.2531 27.9933 15.5082 28.0968 15.697 28.283C15.748 28.33 16.503 29 18 29C19.519 29 20.273 28.311 20.305 28.281C20.4969 28.1008 20.7517 28.003 21.0149 28.0084C21.2781 28.0139 21.5287 28.1221 21.713 28.31C21.8959 28.4967 21.9978 28.7479 21.9967 29.0092C21.9956 29.2706 21.8915 29.5209 21.707 29.706C21.575 29.84 20.347 31 18 31Z" fill="#292F33"/>
</svg>
