<svg width="36" height="36" viewBox="0 0 36 36" fill="none" xmlns="http://www.w3.org/2000/svg">
<path d="M23.6842 7.57847C20.8421 7.57847 20.8421 8.52584 18 8.52584C15.1579 8.52584 15.1579 7.57847 12.3158 7.57847C8.5263 7.57847 3.78946 9.47321 3.78946 16.1048C3.78946 26.5258 9.47367 35.0522 13.2631 35.0522C16.1052 35.0522 16.1052 34.1048 18 34.1048C19.8947 34.1048 19.8947 35.0522 22.7368 35.0522C26.5263 35.0522 32.2105 26.5258 32.2105 16.1048C32.2105 9.47321 27.4737 7.57847 23.6842 7.57847Z" fill="#77B255"/>
<path d="M17.3472 8.41301C17.3472 8.41301 15.6657 3.98501 11.1136 2.67196C7.47282 1.62227 5.12808 2.91827 5.12808 2.91827C5.12808 2.91827 7.98156 6.69827 10.7128 7.48554C13.4431 8.2728 17.3472 8.41301 17.3472 8.41301Z" fill="#3E721D"/>
<path d="M17.9995 10.4206C17.4766 10.4206 17.0521 9.99616 17.0521 9.47321C17.0521 6.21332 18.189 3.20637 20.1718 1.22447C20.5422 0.854053 21.1419 0.854053 21.5124 1.22447C21.8818 1.59489 21.8818 2.19458 21.5124 2.56405C19.8819 4.19353 18.9469 6.71163 18.9469 9.47321C18.9469 9.99616 18.5225 10.4206 17.9995 10.4206Z" fill="#662113"/>
</svg>
