<svg width="36" height="36" viewBox="0 0 36 36" fill="none" xmlns="http://www.w3.org/2000/svg">
<path d="M34.0433 26.2201C34.0433 19.9192 26.8462 14.8119 17.9693 14.8119C9.09152 14.8119 1.89436 19.9192 1.89436 26.2201C1.89436 32.5192 9.09152 33.9525 17.9693 33.9525C26.8462 33.9525 34.0433 32.5192 34.0433 26.2201Z" fill="#D99E82"/>
<path d="M34.0433 20.7089C34.0433 14.408 26.8462 9.30069 17.9693 9.30069C9.09152 9.30069 1.89436 14.408 1.89436 20.7089C1.89436 27.008 9.09152 28.4413 17.9693 28.4413C26.8462 28.4413 34.0433 27.008 34.0433 20.7089Z" fill="#662113"/>
<path d="M19.1056 26.0064C18.1923 26.5094 17.8854 26.5076 16.974 26.0036C16.974 26.0036 10.3424 22.5788 2.09179 20.0133C0.987161 19.461 1.83884 17.5265 2.8819 17.5265L33.0793 17.5653C34.1214 17.5653 34.9787 19.7547 34.1451 19.9736C28.2628 21.513 19.1056 26.0064 19.1056 26.0064Z" fill="#FFCC4D"/>
<path d="M34.0433 15.1972C34.0433 8.89626 26.8462 3.789 17.9693 3.789C9.09152 3.789 1.89436 8.89626 1.89436 15.1972C1.89436 21.4972 9.09152 22.1841 17.9693 22.1841C26.8462 22.1841 34.0433 21.4972 34.0433 15.1972Z" fill="#D99E82"/>
<path d="M10.1764 8.54895C9.70456 8.24863 9.56625 7.62147 9.86751 7.14968C10.1697 6.67789 10.7959 6.53958 11.2677 6.84179C11.7395 7.14305 12.4462 8.13305 12.1459 8.60484C11.8437 9.07663 10.6481 8.85116 10.1764 8.54895Z" fill="#FFE8B6"/>
<path d="M20.4887 5.86137C21.0202 5.688 21.5915 5.97979 21.7648 6.51126C21.9373 7.04369 21.6474 7.6159 21.114 7.78832C20.5816 7.96169 19.3671 7.87926 19.1946 7.34684C19.0213 6.81442 19.9563 6.03379 20.4887 5.86137Z" fill="#FFE8B6"/>
<path d="M30.5128 14.471C30.1528 14.9001 29.5134 14.956 29.0852 14.5951C28.6569 14.2351 28.6011 13.5965 28.9611 13.1674C29.322 12.7392 30.3954 12.1651 30.8236 12.526C31.2527 12.886 30.8738 14.0418 30.5128 14.471Z" fill="#FFE8B6"/>
<path d="M26.2821 9.49632C25.8103 9.196 25.671 8.56885 25.9732 8.09706C26.2745 7.62527 26.9007 7.48695 27.3725 7.78916C27.8443 8.09042 28.552 9.08042 28.2507 9.55221C27.9495 10.024 26.7539 9.79853 26.2821 9.49632Z" fill="#FFE8B6"/>
<path d="M12.0716 16.1274C11.5998 15.8271 11.4605 15.2 11.7627 14.7291C12.064 14.2573 12.6902 14.119 13.162 14.4203C13.6338 14.7225 14.3415 15.7125 14.0402 16.1833C13.7389 16.6561 12.5434 16.4296 12.0716 16.1274Z" fill="#FFE8B6"/>
<path d="M16.048 9.86599C16.3653 9.40557 16.9963 9.28904 17.4567 9.60736C17.9181 9.92567 18.0336 10.5566 17.7153 11.017C17.397 11.4775 16.3824 12.1501 15.922 11.8318C15.4606 11.5135 15.7296 10.3264 16.048 9.86599Z" fill="#FFE8B6"/>
<path d="M22.4926 16.1274C22.0208 15.8281 21.8816 15.2 22.1838 14.7291C22.485 14.2573 23.1112 14.119 23.583 14.4203C24.0548 14.7225 24.7625 15.7125 24.4612 16.1833C24.16 16.6561 22.9644 16.4296 22.4926 16.1274Z" fill="#FFE8B6"/>
<path d="M5.73878 10.7388C6.11204 10.322 6.75246 10.286 7.16931 10.6592C7.58615 11.0334 7.62215 11.6729 7.24794 12.0907C6.87468 12.5075 5.78331 13.0466 5.36741 12.6733C4.94962 12.2991 5.36457 11.1556 5.73878 10.7388Z" fill="#FFE8B6"/>
</svg>
