<svg width="36" height="36" viewBox="0 0 36 36" fill="none" xmlns="http://www.w3.org/2000/svg">
<path d="M19.0166 0H16.1462C12.5301 0 9.06207 1.16232 6.5051 3.23127C3.94812 5.30022 2.51163 8.10632 2.51163 11.0323C2.51163 11.1863 2.58723 11.3339 2.72181 11.4428C2.85639 11.5517 3.03891 11.6129 3.22924 11.6129H31.9336C32.1239 11.6129 32.3064 11.5517 32.441 11.4428C32.5756 11.3339 32.6512 11.1863 32.6512 11.0323C32.6512 8.10632 31.2147 5.30022 28.6577 3.23127C26.1007 1.16232 22.6327 0 19.0166 0Z" fill="#FFD15C"/>
<path d="M8.9701 13.3548H4.66445C4.09349 13.3548 3.54591 13.5384 3.14217 13.865C2.73844 14.1917 2.51163 14.6348 2.51163 15.0968C2.51163 15.5588 2.73844 16.0018 3.14217 16.3285C3.54591 16.6552 4.09349 16.8387 4.66445 16.8387H8.9701C9.54106 16.8387 10.0886 16.6552 10.4924 16.3285C10.8961 16.0018 11.1229 15.5588 11.1229 15.0968C11.1229 14.6348 10.8961 14.1917 10.4924 13.865C10.0886 13.5384 9.54106 13.3548 8.9701 13.3548Z" fill="#36AEB7"/>
<path d="M19.7342 13.3548H15.4286C14.8576 13.3548 14.31 13.5384 13.9063 13.865C13.5026 14.1917 13.2758 14.6348 13.2758 15.0968C13.2758 15.5588 13.5026 16.0018 13.9063 16.3285C14.31 16.6552 14.8576 16.8387 15.4286 16.8387H19.7342C20.3052 16.8387 20.8528 16.6552 21.2565 16.3285C21.6602 16.0018 21.8871 15.5588 21.8871 15.0968C21.8871 14.6348 21.6602 14.1917 21.2565 13.865C20.8528 13.5384 20.3052 13.3548 19.7342 13.3548Z" fill="#36AEB7"/>
<path d="M30.4983 13.3548H26.1927C25.6217 13.3548 25.0741 13.5384 24.6704 13.865C24.2667 14.1917 24.0399 14.6348 24.0399 15.0968C24.0399 15.5588 24.2667 16.0018 24.6704 16.3285C25.0741 16.6552 25.6217 16.8387 26.1927 16.8387H30.4983C31.0693 16.8387 31.6169 16.6552 32.0206 16.3285C32.4243 16.0018 32.6512 15.5588 32.6512 15.0968C32.6512 14.6348 32.4243 14.1917 32.0206 13.865C31.6169 13.5384 31.0693 13.3548 30.4983 13.3548Z" fill="#36AEB7"/>
<path d="M29.7807 18H5.38206C4.62077 18 3.89067 18.2447 3.35236 18.6803C2.81405 19.1158 2.51163 19.7066 2.51163 20.3226C2.51163 20.9386 2.81405 21.5293 3.35236 21.9649C3.89067 22.4005 4.62077 22.6452 5.38206 22.6452H29.7807C30.542 22.6452 31.2721 22.4005 31.8104 21.9649C32.3487 21.5293 32.6512 20.9386 32.6512 20.3226C32.6512 19.7066 32.3487 19.1158 31.8104 18.6803C31.2721 18.2447 30.542 18 29.7807 18Z" fill="#F24463"/>
<path d="M30.4983 24.3871H4.66445C4.09349 24.3871 3.54591 24.5706 3.14217 24.8973C2.73844 25.224 2.51163 25.667 2.51163 26.129V29.0323C2.51163 30.8802 3.41889 32.6525 5.03382 33.9592C6.64875 35.2659 8.83907 36 11.1229 36H24.0399C26.3237 36 28.514 35.2659 30.129 33.9592C31.7439 32.6525 32.6512 30.8802 32.6512 29.0323V26.129C32.6512 25.667 32.4243 25.224 32.0206 24.8973C31.6169 24.5706 31.0693 24.3871 30.4983 24.3871Z" fill="#FFD15C"/>
<path d="M32.6512 26.129V29.0323C32.6507 29.4214 32.6098 29.8099 32.5292 30.1936H31.9336C30.5414 30.1936 29.8525 29.4155 29.2999 28.7884C28.7474 28.1613 28.4532 27.871 27.8288 27.871C27.2045 27.871 26.8816 28.2019 26.3577 28.7884C25.8339 29.3748 25.1235 30.1936 23.7241 30.1936C22.3248 30.1936 21.6431 29.4155 21.0905 28.7884C20.5379 28.1613 20.2509 27.871 19.6266 27.871C19.0023 27.871 18.6793 28.2019 18.1914 28.7884C17.7034 29.3748 16.9212 30.1936 15.529 30.1936C14.1369 30.1936 13.448 29.4155 12.8954 28.7884C12.3429 28.1613 12.0486 27.871 11.4243 27.871C10.8 27.871 10.4771 28.2019 9.9891 28.7884C9.50113 29.3748 8.71894 30.1936 7.32678 30.1936C5.93462 30.1936 5.24571 29.4155 4.69316 28.7884C4.1406 28.1613 3.85355 27.871 3.22924 27.871H2.51163V26.129C2.51163 25.667 2.73844 25.224 3.14217 24.8973C3.54591 24.5706 4.09349 24.3871 4.66445 24.3871H30.4983C31.0693 24.3871 31.6169 24.5706 32.0206 24.8973C32.4243 25.224 32.6512 25.667 32.6512 26.129Z" fill="#F8B64C"/>
</svg>
