<svg width="36" height="36" viewBox="0 0 36 36" fill="none" xmlns="http://www.w3.org/2000/svg">
<g clip-path="url(#clip0_2_566)">
<path d="M18.0439 14.2234C16.573 12.1138 13.8102 8.37638 11.6621 7.29786C7.68001 5.2986 2.81362 6.91185 0.81443 10.8941C-0.134997 12.785 -0.258676 14.9447 0.466173 16.9749C0.94936 18.3285 1.79198 19.5883 2.89891 20.6359C1.79198 21.6835 0.94936 22.9433 0.466173 24.2969C-0.258676 26.3272 -0.134997 28.4867 0.81443 30.3777C2.23129 33.2 5.08766 34.8322 8.0495 34.8322C9.26667 34.8322 10.5023 34.5562 11.6621 33.9739C13.81 32.8956 16.573 29.1581 18.0439 27.0485V14.2234Z" fill="#FF318F"/>
<path d="M33.101 20.6359C34.208 19.5883 35.0506 18.3285 35.5338 16.9749C36.2586 14.9446 36.1349 12.7851 35.1855 10.8941C33.1863 6.91192 28.3202 5.29853 24.3378 7.29786C22.7867 8.07664 20.6583 10.3842 18 14.1656V27.1061C20.6584 30.8877 22.7867 33.1951 24.3378 33.9738C25.4979 34.5563 26.733 34.8321 27.9505 34.8321C30.9121 34.8321 33.7689 33.1996 35.1856 30.3775C36.135 28.4866 36.2587 26.3271 35.5339 24.2968C35.0506 22.9433 34.208 21.6835 33.101 20.6359Z" fill="#BF256B"/>
<path d="M21.9521 16.9764H19.3173V6.24212C19.3173 3.44418 21.5937 1.16782 24.3916 1.16782V3.80256C23.0465 3.80256 21.9522 4.89697 21.9522 6.24212V16.9764H21.9521Z" fill="#FF9900"/>
<path d="M16.6826 16.9764H14.0479V6.24212C14.0479 4.89697 12.9534 3.80256 11.6082 3.80256V1.16788C14.4062 1.16788 16.6826 3.44425 16.6826 6.24219V16.9764Z" fill="#FF9900"/>
<path d="M18 9.65775C15.8208 9.65775 14.0479 11.4307 14.0479 13.6099V27.6084C14.0479 29.6832 15.6427 31.437 17.6786 31.6011C17.7837 31.6096 17.8887 31.6138 17.9933 31.6138C18.9814 31.6138 19.9449 31.2404 20.6765 30.5654C21.4871 29.8175 21.952 28.7593 21.952 27.6619V13.6099C21.9521 11.4306 20.1793 9.65775 18 9.65775Z" fill="#FFDB2D"/>
<path d="M18 9.65775V31.6136C18.9858 31.6118 19.9465 31.2389 20.6766 30.5654C21.4872 29.8174 21.9521 28.7592 21.9521 27.6619V13.6098C21.9521 11.4306 20.1793 9.65775 18 9.65775Z" fill="#FFAE33"/>
</g>
<defs>
<clipPath id="clip0_2_566">
<rect width="36" height="36" fill="white"/>
</clipPath>
</defs>
</svg>
