<svg width="36" height="36" viewBox="0 0 36 36" fill="none" xmlns="http://www.w3.org/2000/svg">
<path d="M25.9 32.6805C24.4202 34.1603 22.0205 34.1603 20.5407 32.6805L2.45359 14.5934C0.973803 13.1136 0.973803 12.0535 2.45359 10.5737L10.492 2.53526C11.9718 1.05547 13.0319 1.05547 14.5117 2.53526L32.5989 20.6215C34.0786 22.1022 34.0786 24.5009 32.5989 25.9817L25.9 32.6805Z" fill="#C1694F"/>
<path d="M31.2595 30.0003L12.0288 10.7697L17.5833 5.21432L16.2437 3.87474L10.6893 9.43011L6.47252 5.21432L5.13295 6.5539L9.34968 10.7697L2.17621 17.9422L3.51579 19.2827L10.6893 12.1093L29.9199 31.3399L31.2595 30.0003Z" fill="#8A4B38"/>
<path d="M25.9 34.0202C24.4202 35.5 22.0205 35.5 20.5408 34.0202L11.1628 24.6422C9.68297 23.1615 9.68297 20.7627 11.1628 19.282L19.2012 11.2436C20.681 9.76377 23.0797 9.76377 24.5604 11.2436L33.9384 20.6216C35.4182 22.1023 35.4182 24.501 33.9384 25.9818L25.9 34.0202Z" fill="#DD2E44"/>
<path d="M25.5789 10.4211L17.0526 32.2105L11.3684 29.3684L23.6842 9.47368L25.5789 10.4211Z" fill="#BE1931"/>
<path d="M22.5509 9.2341L24.5602 11.2435C23.8905 13.2538 16.5218 25.9817 15.1813 28.6608C15.1813 28.6608 14.5115 30.6702 12.8375 28.9953C11.6609 27.8196 9.3294 25.4881 7.81266 23.9714C7.1694 23.3281 7.16371 21.9411 7.81266 21.2922C11.1995 17.9063 19.309 9.79589 19.8708 9.2341C21.2103 7.89357 22.5509 9.2341 22.5509 9.2341Z" fill="#CCD6DD"/>
</svg>
