<svg width="36" height="36" viewBox="0 0 36 36" fill="none" xmlns="http://www.w3.org/2000/svg">
<path d="M18.9474 20.1362C18.9474 20.1362 29.8023 9.67633 30.8681 8.76307C31.9339 7.8498 30.1974 6.63149 28.0667 6.63149H18.4756H17.4098H16.344H6.75379C5.688 6.63149 2.50674 7.32306 4.10495 8.92128C5.24558 10.061 16.1053 20.1362 16.1053 20.1362V29.7264C16.1053 29.7264 11.7625 31.9433 10.8966 32.4577C9.96442 32.9901 10.584 33.8427 10.9563 33.9896C11.5787 34.234 13.0917 35.0336 17.3804 35.0336C21.7762 35.0336 23.256 34.1677 23.7884 33.9896C23.994 33.9214 25.0645 33.1066 23.7988 32.3573C21.546 31.0234 18.9474 29.7264 18.9474 29.7264V20.1362Z" fill="#8899A6"/>
<path d="M31.2632 7.99806C31.2632 9.53375 25.0607 10.7786 17.4098 10.7786C9.75884 10.7786 3.55642 9.53375 3.55642 7.99806C3.55642 6.46143 9.75884 5.21754 17.4098 5.21754C25.0607 5.21754 31.2632 6.46143 31.2632 7.99806Z" fill="#CCD6DD"/>
<path d="M5.17121 8.13174C6.36963 9.2989 13.2589 14.9859 16.2545 17.4491C17.1071 18.1521 18.2762 18.0393 18.908 17.5656C19.5399 17.0919 29.4873 8.487 29.4873 8.487L5.17121 8.13174Z" fill="#CCD6DD"/>
<path d="M16.9273 16.6095C16.7028 16.491 16.8799 15.8516 17.1632 15.3513L24.2192 1.59745C24.5034 1.0963 25.1381 0.920086 25.6383 1.20335C26.1395 1.48661 26.3148 2.12135 26.0324 2.62251L17.8207 15.7767C17.6786 16.0268 17.1831 16.743 16.9273 16.6095Z" fill="#662113"/>
<path d="M21.548 8.38942C22.6214 8.99479 23.4389 10.8867 22.6848 12.2225C21.9298 13.5592 19.8863 13.8321 18.8129 13.2248C17.7405 12.6194 16.8566 10.8431 17.677 9.39268C18.4965 7.94131 20.4746 7.7831 21.548 8.38942Z" fill="#5C913B"/>
<path d="M16.8602 11.1422C13.2839 11.1422 9.88664 10.678 6.68833 9.74861L6.56612 9.71356C6.06401 9.56766 5.77412 9.04282 5.91906 8.53977C6.06401 8.03766 6.58696 7.74777 7.09191 7.89272L7.21696 7.92872C13.4061 9.72777 20.4261 9.68608 28.0761 7.80366C28.5905 7.68051 29.0983 7.98935 29.2224 8.49714C29.3475 9.00587 29.0377 9.51935 28.529 9.64345C24.4666 10.6429 20.5682 11.1422 16.8602 11.1422Z" fill="white"/>
</svg>
