<svg width="36" height="36" viewBox="0 0 36 36" fill="none" xmlns="http://www.w3.org/2000/svg">
<path d="M35.0526 25.5789C35.0526 30.8103 27.4178 35.0526 18 35.0526C8.58221 35.0526 0.947365 30.8103 0.947365 25.5789C0.947365 20.3476 8.58221 16.1053 18 16.1053C27.4178 16.1053 35.0526 20.3476 35.0526 25.5789Z" fill="#99AAB5"/>
<path d="M35.0526 23.6842C35.0526 28.9156 27.4178 33.1579 18 33.1579C8.58221 33.1579 0.947365 28.9156 0.947365 23.6842C0.947365 18.4528 8.58221 14.2105 18 14.2105C27.4178 14.2105 35.0526 18.4528 35.0526 23.6842Z" fill="#CCD6DD"/>
<path d="M18 30.3158C3.82926 30.3158 1.89473 16.1053 1.89473 12.3158H34.1053C34.1053 14.2105 32.2503 30.3158 18 30.3158Z" fill="#F5F8FA"/>
<path d="M31.1512 7.53319C29.8656 6.64456 28.2115 5.92835 26.2997 5.40161C28.076 4.85593 30.6112 5.10888 31.1512 7.53319ZM33.5224 10.0835C35.8359 0.494244 24.2562 2.78309 21.9608 4.59067C20.6913 4.44951 19.3688 4.36898 17.9998 4.36898C9.10497 4.36898 1.89455 7.42708 1.89455 12.3686C1.89455 17.31 9.10497 21.3155 17.9998 21.3155C26.8947 21.3155 34.1051 17.31 34.1051 12.3686C34.1051 11.5519 33.8919 10.7921 33.5224 10.0835Z" fill="#CCD6DD"/>
<path d="M32.2105 13.2632C32.2105 16.9257 25.848 19.8947 18 19.8947C10.152 19.8947 3.78947 16.9257 3.78947 13.2632C3.78947 9.60063 10.152 6.63158 18 6.63158C25.848 6.63158 32.2105 9.60063 32.2105 13.2632Z" fill="#8A4B38"/>
<path d="M19.8947 17.0526C19.6522 17.0526 19.4097 16.9598 19.2249 16.775C17.0109 14.561 16.974 12.1472 19.1065 8.94789C19.8066 7.89726 19.9592 6.82105 19.5594 5.74863C19.1226 4.57863 18.197 3.85768 17.9195 3.78189C17.3956 3.78189 17.0119 3.36126 17.0119 2.83831C17.0119 2.31442 17.477 1.89473 18 1.89473C18.9445 1.89473 20.2689 2.98705 21.0155 4.38158C21.995 6.21284 21.8776 8.208 20.6829 9.99947C18.8252 12.7866 19.2325 14.1035 20.5645 15.4355C20.9349 15.8059 20.9349 16.4046 20.5645 16.775C20.3798 16.9598 20.1373 17.0526 19.8947 17.0526Z" fill="#D99E82"/>
<path d="M14.2105 15.1579C13.968 15.1579 13.7255 15.0651 13.5407 14.8803C11.3267 12.6663 11.2898 10.2524 13.4223 7.05316C14.111 6.01958 14.2693 5.08074 13.8903 4.26127C13.4697 3.35085 12.5346 2.86958 12.2949 2.84116C11.772 2.84116 11.358 2.41769 11.358 1.89474C11.358 1.37084 11.7928 0.947371 12.3158 0.947371C13.2603 0.947371 14.7638 1.87011 15.4989 3.24285C15.9546 4.09453 16.4965 5.85853 14.9987 8.10474C13.1409 10.8919 13.5483 12.2087 14.8803 13.5407C15.2507 13.9112 15.2507 14.5099 14.8803 14.8803C14.6956 15.0651 14.453 15.1579 14.2105 15.1579Z" fill="#D99E82"/>
</svg>
