<svg width="36" height="36" viewBox="0 0 36 36" fill="none" xmlns="http://www.w3.org/2000/svg">
<path d="M34.1053 18C34.1053 26.8948 26.8948 34.1053 18 34.1053C9.10517 34.1053 1.89474 26.8948 1.89474 18C1.89474 9.10516 9.10517 1.89474 18 1.89474C26.8948 1.89474 34.1053 9.10516 34.1053 18Z" fill="#D99E82"/>
<path d="M22.3936 17.0022C23.5087 16.6375 24.709 17.2495 25.0718 18.3664C25.4356 19.4843 24.8255 20.6847 23.7067 21.0484C22.5878 21.4122 20.0394 21.2389 19.6756 20.1219C19.3128 19.0031 21.2738 17.3641 22.3936 17.0022Z" fill="#8A4B38"/>
<path d="M30.5129 16.3662C30.1529 16.7944 29.5134 16.8512 29.0852 16.4903C28.657 16.1293 28.6011 15.4908 28.9611 15.0616C29.322 14.6344 30.3954 14.0603 30.8236 14.4203C31.2527 14.7803 30.8738 15.937 30.5129 16.3662Z" fill="#8A4B38"/>
<path d="M9.67075 9.7346C9.31075 10.1628 8.67128 10.2197 8.24307 9.8587C7.81486 9.49776 7.75896 8.85923 8.11896 8.43007C8.47991 8.00281 9.55328 7.4287 9.98149 7.7887C10.4106 8.1487 10.0317 9.30544 9.67075 9.7346Z" fill="#8A4B38"/>
<path d="M21.1271 7.94018C20.4184 7.48734 20.2091 6.54566 20.6629 5.83702C21.1157 5.12745 22.0574 4.91997 22.767 5.37281C23.4766 5.8266 24.5414 7.31492 24.0876 8.02355C23.6338 8.73313 21.8367 8.39397 21.1271 7.94018Z" fill="#8A4B38"/>
<path d="M13.618 13.8298C13.1301 12.8199 13.5573 11.6025 14.5701 11.1165C15.5838 10.6315 16.7973 11.0587 17.2833 12.0715C17.7693 13.0851 17.9294 15.5227 16.9167 16.0068C15.903 16.4938 14.103 14.8444 13.618 13.8298Z" fill="#8A4B38"/>
<path d="M14.5889 27.1869C15.1592 26.3589 16.2942 26.1486 17.1203 26.7208C17.9483 27.294 18.1567 28.427 17.5845 29.255C17.0132 30.083 15.1895 31.289 14.3634 30.7178C13.5345 30.1455 14.0167 28.014 14.5889 27.1869Z" fill="#8A4B38"/>
<path d="M24.0746 26.802C23.4238 26.3889 23.2324 25.5249 23.6493 24.875C24.0642 24.2252 24.9263 24.0357 25.5772 24.4516C26.2261 24.8665 27.2019 26.2298 26.786 26.8787C26.3711 27.5305 24.7245 27.2188 24.0746 26.802Z" fill="#8A4B38"/>
<path d="M6.19164 18.3983C6.91354 17.5902 8.15364 17.521 8.9608 18.2438C9.76701 18.9676 9.83617 20.2068 9.11238 21.0121C8.39048 21.8221 6.27785 22.8642 5.47259 22.1413C4.66448 21.4175 5.46785 19.2045 6.19164 18.3983Z" fill="#8A4B38"/>
</svg>
