<svg width="36" height="36" viewBox="0 0 36 36" fill="none" xmlns="http://www.w3.org/2000/svg">
<path d="M35.0526 22.7368C35.0526 27.9682 27.4178 32.2105 18 32.2105C8.58221 32.2105 0.947365 27.9682 0.947365 22.7368C0.947365 17.5055 8.58221 13.2632 18 13.2632C27.4178 13.2632 35.0526 17.5055 35.0526 22.7368Z" fill="#939598"/>
<path d="M35.0526 20.8421C35.0526 26.0735 27.4178 30.3158 18 30.3158C8.58221 30.3158 0.947365 26.0735 0.947365 20.8421C0.947365 15.6107 8.58221 11.3684 18 11.3684C27.4178 11.3684 35.0526 15.6107 35.0526 20.8421Z" fill="#F1F2F2"/>
<path d="M32.0209 20.4739C32.0209 24.4547 25.7436 27.6843 17.9998 27.6843C10.256 27.6843 3.97875 24.4547 3.97875 20.4739C3.97875 16.4921 10.256 13.2634 17.9998 13.2634C25.7436 13.2634 32.0209 16.4921 32.0209 20.4739Z" fill="#F4900C"/>
<path d="M13.2632 23.6842C9.71052 23.6842 3.78947 21.7298 3.78947 18.4737C3.78947 14.5658 7.41599 10.0061 13.2632 10.0061C19.1103 10.0061 22.7368 15.2166 22.7368 18.4737C22.7368 21.7298 17.4079 23.6842 13.2632 23.6842Z" fill="#EEEEEE"/>
<path d="M5.34325 18.7776C5.0164 18.645 4.85914 18.2717 4.99272 17.9449C5.1263 17.619 5.49956 17.4617 5.82546 17.5943L7.00872 18.0765C7.33556 18.2092 7.49188 18.5815 7.35925 18.9093C7.22567 19.2361 6.85335 19.3934 6.52651 19.2598L5.34325 18.7776Z" fill="#CCD6DD"/>
<path d="M8.8524 15.5252C8.56155 15.7251 8.16366 15.6512 7.96471 15.3594C7.76577 15.0686 7.83966 14.6707 8.12956 14.4717L9.18492 13.7489C9.47482 13.5499 9.87271 13.6238 10.0726 13.9147C10.2716 14.2055 10.1967 14.6034 9.90587 14.8033L8.8524 15.5252Z" fill="#CCD6DD"/>
<path d="M17.3787 20.262C17.0879 20.4619 16.69 20.388 16.491 20.0962C16.2921 19.8063 16.366 19.4075 16.6559 19.2086L17.7112 18.4857C18.0011 18.2868 18.399 18.3607 18.5989 18.6515C18.7979 18.9423 18.723 19.3402 18.4322 19.5392L17.3787 20.262Z" fill="#CCD6DD"/>
<path d="M12.0281 18.5186C11.543 18.3215 11.31 17.7683 11.508 17.2832C11.706 16.8001 12.2592 16.5661 12.7433 16.7631L14.4979 17.4793C14.982 17.6764 15.215 18.2287 15.018 18.7137C14.8209 19.1978 14.2676 19.4309 13.7835 19.2329L12.0281 18.5186Z" fill="#CCD6DD"/>
<path d="M16.7121 14.9881C16.3843 14.8555 16.2271 14.4822 16.3616 14.1554C16.4942 13.8295 16.8675 13.6722 17.1934 13.8049L18.3776 14.2871C18.7035 14.4197 18.8608 14.792 18.7272 15.1198C18.5936 15.4457 18.2222 15.603 17.8945 15.4703L16.7121 14.9881Z" fill="#CCD6DD"/>
<path d="M11.28 20.4461C11.6097 20.3201 11.9792 20.4859 12.1052 20.8165C12.2293 21.1443 12.0635 21.5147 11.7338 21.6388L10.5392 22.0936C10.2114 22.2196 9.84193 22.0538 9.71687 21.7241C9.58993 21.3935 9.75572 21.0249 10.0863 20.8989L11.28 20.4461Z" fill="#CCD6DD"/>
<path d="M29.3684 18.9474C29.3684 19.9933 28.5196 20.8421 27.4737 20.8421H26.5263C25.4804 20.8421 24.6316 19.9933 24.6316 18.9474C24.6316 17.9015 25.4804 17.0526 26.5263 17.0526H27.4737C28.5196 17.0526 29.3684 17.9015 29.3684 18.9474Z" fill="#FFD983"/>
<path d="M26.5263 23.2105C26.5263 23.9949 25.8897 24.6316 25.1053 24.6316H24.1579C23.3735 24.6316 22.7368 23.9949 22.7368 23.2105C22.7368 22.4261 23.3735 21.7895 24.1579 21.7895H25.1053C25.8897 21.7895 26.5263 22.4261 26.5263 23.2105Z" fill="#FFD983"/>
<path d="M20.8421 25.5789C20.8421 26.1028 20.4186 26.5263 19.8947 26.5263H18.9474C18.4235 26.5263 18 26.1028 18 25.5789C18 25.0551 18.4235 24.6316 18.9474 24.6316H19.8947C20.4186 24.6316 20.8421 25.0551 20.8421 25.5789Z" fill="#FFD983"/>
</svg>
