<svg width="36" height="36" viewBox="0 0 36 36" fill="none" xmlns="http://www.w3.org/2000/svg">
<path d="M34.4244 23.2568C33.4335 29.1977 27.1089 33.1577 18.0871 33.1577C9.06527 33.1577 2.74159 29.1977 1.75159 23.2568C1.51759 21.8556 1.89938 15.5641 2.75012 14.3458C5.17443 10.8756 6.04127 24.1653 18.0871 24.1653C31.2062 24.1653 31.0101 10.8756 33.4335 14.3458C34.2852 15.5641 34.6575 21.8556 34.4244 23.2568Z" fill="#FFAC33"/>
<path d="M18.0874 19.297C15.0805 19.297 12.642 18.632 12.642 17.8116C12.642 16.9911 15.0805 16.327 18.0874 16.327C21.0934 16.327 23.5329 16.9911 23.5329 17.8116C23.5329 18.632 21.0934 19.297 18.0874 19.297ZM18.0874 6.62599C9.24755 6.62599 2.08165 10.9687 2.08165 16.327C2.08165 21.6844 9.24755 26.0271 18.0874 26.0271C26.9264 26.0271 34.0932 21.6844 34.0932 16.327C34.0932 10.9687 26.9264 6.62599 18.0874 6.62599Z" fill="#8A4B38"/>
<path d="M2.57656 14.8004C1.95793 15.7904 1.70498 20.0052 3.03035 21.9786C5.05203 24.9903 6.04108 23.4631 7.52656 23.9178C9.73866 24.5943 9.90256 26.3422 11.6523 27.2175C13.6323 28.2075 14.7834 27.9195 17.5923 27.2175C21.5533 26.2275 24.0695 28.2483 26.5023 27.2175C28.4975 26.3715 29.6391 23.2983 30.7522 22.9278C34.284 21.7503 35.0296 16.1788 32.4016 13.8928C31.5774 15.6255 27.535 21.8545 24.9363 22.1434C22.3358 22.4324 14.5399 23.0908 11.2402 21.4007C7.93961 19.7096 4.59824 17.6055 4.18519 17.0286C3.77308 16.4507 2.57656 14.8004 2.57656 14.8004Z" fill="#8A4B38"/>
<path d="M18.0874 14.099C14.5329 14.099 11.652 15.2624 11.652 16.6976C11.652 17.2566 12.0906 17.771 12.8314 18.1945C12.7121 18.0713 12.642 17.9444 12.642 17.8118C12.642 16.9913 15.0805 16.3272 18.0874 16.3272C21.0934 16.3272 23.5329 16.9913 23.5329 17.8118C23.5329 17.9444 23.4628 18.0713 23.3425 18.1945C24.0843 17.771 24.5229 17.2566 24.5229 16.6976C24.5229 15.2624 21.641 14.099 18.0874 14.099Z" fill="#F4900C"/>
<path d="M5.13464 18.1425C4.77938 18.1425 4.43643 17.9502 4.25833 17.6148C4.00254 17.1316 4.18727 16.532 4.67138 16.2771L6.8579 15.1213C7.34011 14.8636 7.9398 15.0493 8.19559 15.5334C8.45138 16.0166 8.26664 16.6163 7.78254 16.8711L5.59601 18.0269C5.44917 18.1055 5.29096 18.1425 5.13464 18.1425Z" fill="#F4ABBA"/>
<path d="M16.3962 25.5262C16.0078 25.5262 15.6393 25.2969 15.481 24.9142L14.78 23.2222C14.5706 22.7172 14.8113 22.1384 15.3162 21.929C15.8221 21.7206 16.4 21.9593 16.6094 22.4662L17.3104 24.1582C17.5198 24.6631 17.2801 25.242 16.7742 25.4513C16.651 25.5025 16.5222 25.5262 16.3962 25.5262Z" fill="#F4ABBA"/>
<path d="M27.6171 21.5656C27.4456 21.5656 27.2723 21.5211 27.115 21.4273C26.6442 21.1507 26.4879 20.5425 26.7664 20.0726L27.8379 18.2574C28.1154 17.7875 28.7265 17.6312 29.1935 17.9088C29.6644 18.1873 29.8207 18.7936 29.5422 19.2645L28.4697 21.0787C28.286 21.3913 27.9553 21.5656 27.6171 21.5656Z" fill="#55ACEE"/>
<path d="M29.2667 14.2105C28.7361 14.2105 28.2975 13.7548 28.2786 13.2196C28.2596 12.6739 28.6869 12.1974 29.2326 12.1775L30.3865 12.1282C30.9426 12.1216 31.3916 12.5327 31.4106 13.0794C31.4295 13.6251 31.0023 14.1167 30.4566 14.1366L29.3027 14.2105H29.2667Z" fill="#F4ABBA"/>
<path d="M19.6977 10.304C19.2771 10.304 18.8877 10.034 18.7532 9.61247C18.5893 9.09047 18.8782 8.53436 19.3993 8.36952L20.1818 8.12226C20.7076 7.95647 21.2589 8.24636 21.4238 8.76741C21.5896 9.28941 21.2997 9.84552 20.7796 10.0104L19.9961 10.2576C19.8966 10.2889 19.7962 10.304 19.6977 10.304Z" fill="#F4ABBA"/>
<path d="M14.2083 11.9124C14.0595 11.9124 13.9089 11.8783 13.7668 11.8082L13.024 11.4368C12.5352 11.1924 12.3363 10.5975 12.5807 10.1086C12.8251 9.61977 13.42 9.42082 13.9098 9.66524L14.6516 10.0366C15.1405 10.281 15.3394 10.875 15.095 11.3648C14.9216 11.7116 14.572 11.9124 14.2083 11.9124Z" fill="#88C9F9"/>
<path d="M22.8312 24.4928C22.6834 24.4928 22.5328 24.4596 22.3907 24.3895L21.6479 24.0191C21.1581 23.7747 20.9592 23.1807 21.2027 22.6918C21.4461 22.2011 22.0401 22.0031 22.5309 22.2466L23.2736 22.617C23.7625 22.8605 23.9614 23.4545 23.7189 23.9443C23.5455 24.2919 23.195 24.4928 22.8312 24.4928Z" fill="#88C9F9"/>
<path d="M9.87755 22.3085C9.74681 22.3085 9.61513 22.2839 9.48723 22.228C8.98513 22.013 8.75302 21.4303 8.96807 20.9282L9.33944 20.0623C9.55544 19.5612 10.1381 19.3243 10.6402 19.5432C11.1423 19.7592 11.3753 20.3408 11.1593 20.843L10.788 21.7088C10.6269 22.084 10.2612 22.3085 9.87755 22.3085Z" fill="#55ACEE"/>
<path d="M24.6483 12.944C24.2665 12.944 23.9027 12.7223 23.7407 12.3509C23.5218 11.8498 23.7501 11.2662 24.2504 11.0464L24.9097 10.7575C25.4128 10.5377 25.9954 10.7669 26.2133 11.2681C26.4331 11.7692 26.2048 12.3528 25.7036 12.5717L25.0443 12.8606C24.9145 12.9175 24.7809 12.944 24.6483 12.944Z" fill="#55ACEE"/>
<path d="M8.55919 12.9028C8.4853 12.9028 8.41045 12.8943 8.33656 12.8772L7.80035 12.754C7.26698 12.6309 6.93445 12.0994 7.05761 11.567C7.17982 11.0336 7.71224 10.702 8.24372 10.8243L8.77993 10.9474C9.3133 11.0706 9.64582 11.602 9.52361 12.1345C9.41751 12.593 9.01014 12.9028 8.55919 12.9028Z" fill="#55ACEE"/>
</svg>
