<svg width="36" height="36" viewBox="0 0 36 36" fill="none" xmlns="http://www.w3.org/2000/svg">
<path d="M22.0125 34.7325C21.6165 34.7325 21.2262 34.616 20.8927 34.3905L18.0885 32.4891L15.2852 34.3905C14.9508 34.616 14.5595 34.7325 14.1645 34.7325C13.9911 34.7325 13.8187 34.7117 13.6463 34.6643C13.0883 34.5156 12.6193 34.1309 12.3673 33.6089L10.7369 31.3428L7.51112 30.8047C7.46375 30.8066 7.41638 30.8085 7.36807 30.8085C6.83943 30.8085 6.3307 30.5991 5.95649 30.224C5.54628 29.8119 5.33407 29.2463 5.3748 28.6694L5.61733 25.2891L2.57154 23.8112C2.05049 23.5592 1.66491 23.0894 1.51428 22.5295C1.36365 21.9696 1.46501 21.3727 1.78996 20.8924L2.88133 18.1185L1.78996 15.2849C1.46501 14.8046 1.36365 14.2078 1.51428 13.6469C1.66491 13.088 2.05049 12.62 2.57154 12.367L5.61733 10.8891L5.3748 7.51178C5.33407 6.93199 5.54628 6.36357 5.95649 5.9562C6.32975 5.58009 6.83943 5.37072 7.36807 5.37072C7.41638 5.37072 7.46375 5.37072 7.51112 5.37451L10.6185 4.89514L12.3673 2.5722C12.6193 2.0502 13.0883 1.66462 13.6463 1.51493C13.8187 1.46946 13.9911 1.44577 14.1645 1.44577C14.5595 1.44577 14.9508 1.56325 15.2852 1.78967L18.0885 3.68914L20.8927 1.78967C21.2262 1.56325 21.6165 1.44577 22.0125 1.44577C22.1859 1.44577 22.3621 1.46946 22.5288 1.51493C23.0896 1.66462 23.5595 2.0502 23.8106 2.5722L25.5793 4.77672L28.6687 5.37451C28.7142 5.37072 28.7634 5.37072 28.8099 5.37072C29.3375 5.37072 29.8463 5.58009 30.2243 5.9562C30.6326 6.36357 30.8458 6.93199 30.8041 7.51178L30.5587 10.8891L33.6092 12.367C34.1312 12.62 34.5159 13.088 34.6637 13.6469C34.8143 14.2078 34.7158 14.8056 34.3899 15.2849L33.5135 18.0399L34.3899 20.8924C34.7158 21.3727 34.8143 21.9696 34.6637 22.5295C34.5159 23.0894 34.1312 23.5592 33.6092 23.8112L30.5587 25.2891L30.8041 28.6694C30.8458 29.2463 30.6326 29.8119 30.2243 30.224C29.8463 30.5991 29.3375 30.8085 28.8099 30.8085C28.7634 30.8085 28.7142 30.8066 28.6687 30.8047L25.6191 31.303L23.8106 33.6089C23.5595 34.1309 23.0896 34.5156 22.5288 34.6643C22.3611 34.7117 22.1859 34.7325 22.0125 34.7325Z" fill="#E1E8ED"/>
<path d="M18.4737 28.1454C14.9608 28.1842 10.7365 25.4217 11.0918 20.2159C11.2178 18.36 11.9463 16.6358 13.3096 15.3692C15.7187 13.1277 19.5035 13.266 21.744 15.6761C22.6781 16.6813 23.1651 17.9905 23.1148 19.3623C23.0665 20.7332 22.4848 22.0036 21.4797 22.9377C20.61 23.7458 19.4864 24.1712 18.2918 24.1247C17.1047 24.0812 16.0058 23.5781 15.1977 22.7084C14.454 21.9088 14.1944 20.771 14.5033 19.6636C14.8168 18.5372 15.6572 17.6788 16.7533 17.3662C17.2573 17.2222 17.8172 17.1426 17.9602 17.6447C18.1042 18.1478 17.6002 18.3619 16.9342 18.8289C16.1451 19.3822 15.7102 20.4082 16.5856 21.4181C17.0318 21.9335 17.6798 22.2054 18.36 22.2309C19.0393 22.2527 19.6911 22.014 20.1903 21.5498C20.8232 20.9605 21.1907 20.1581 21.222 19.2922C21.2542 18.4273 20.9454 17.6012 20.3561 16.9664C18.8271 15.3208 16.2445 15.2261 14.599 16.757C13.608 17.6788 13.0339 18.9313 12.9856 20.2841C12.9354 21.6379 13.4166 22.9282 14.3384 23.9201C15.4772 25.1451 17.0242 25.8527 18.6954 25.9143C20.3665 25.9806 21.9619 25.3819 23.1868 24.2422C24.6903 22.8439 25.56 20.9425 25.6358 18.8905C25.7106 16.8385 24.9812 14.8794 23.5828 13.3759C20.0539 9.57884 15.4345 8.68452 10.6579 11.5664C9.93506 12.0022 9.33063 12.6426 8.92137 12.3158C8.72337 12.1585 8.62295 11.8601 9.00663 11.5039C13.5682 7.26157 20.7313 7.52399 24.9698 12.0856C26.7129 13.9595 27.7352 16.4075 27.5286 18.9606C26.8816 26.9214 21.3158 28.3026 18.4737 28.1454Z" fill="#D372B8"/>
</svg>
