<svg width="36" height="36" viewBox="0 0 36 36" fill="none" xmlns="http://www.w3.org/2000/svg">
<path d="M7.75399 7.754C4.06799 11.44 1.63999 16.37 0.842986 21.335L14.665 35.157C19.63 34.36 24.56 31.932 28.246 28.246C31.932 24.56 34.36 19.63 35.157 14.665L21.335 0.843001C16.37 1.64 11.44 4.068 7.75399 7.754ZM33.369 2.631C30.707 1.152 27.634 0.510001 24.472 0.564001L35.437 11.528C35.49 8.366 34.848 5.293 33.369 2.631ZM2.63099 33.369C5.29299 34.848 8.36699 35.49 11.529 35.436L0.563986 24.472C0.509986 27.633 1.15199 30.707 2.63099 33.369Z" fill="#662113"/>
<path d="M22.828 11.757L20.414 14.171L19.707 13.464C19.5195 13.2765 19.2652 13.1711 19 13.1711C18.7348 13.1711 18.4805 13.2765 18.293 13.464C18.1055 13.6515 18.0001 13.9058 18.0001 14.171C18.0001 14.4362 18.1055 14.6905 18.293 14.878L19 15.586L15.586 19L14.879 18.293C14.6915 18.1055 14.4372 18.0001 14.172 18.0001C13.9068 18.0001 13.6525 18.1055 13.465 18.293C13.2775 18.4805 13.1721 18.7348 13.1721 19C13.1721 19.2652 13.2775 19.5195 13.465 19.707L14.172 20.414L11.758 22.828L11.051 22.121C10.9581 22.0282 10.8479 21.9545 10.7266 21.9043C10.6053 21.854 10.4753 21.8281 10.344 21.8281C10.2127 21.8281 10.0827 21.854 9.96137 21.9043C9.84006 21.9545 9.72984 22.0282 9.637 22.121C9.54415 22.2138 9.4705 22.3241 9.42026 22.4454C9.37001 22.5667 9.34415 22.6967 9.34415 22.828C9.34415 22.9593 9.37001 23.0893 9.42026 23.2106C9.4705 23.3319 9.54415 23.4422 9.637 23.535L10.344 24.242L9.344 25.242C9.15635 25.4295 9.05089 25.6839 9.05079 25.9491C9.0507 26.2144 9.15599 26.4689 9.3435 26.6565C9.531 26.8441 9.78537 26.9496 10.0506 26.9497C10.3159 26.9498 10.5704 26.8445 10.758 26.657L11.758 25.657L12.465 26.364C12.5578 26.4568 12.6681 26.5305 12.7894 26.5807C12.9107 26.631 13.0407 26.6568 13.172 26.6568C13.3033 26.6568 13.4333 26.631 13.5546 26.5807C13.6759 26.5305 13.7861 26.4568 13.879 26.364C13.9718 26.2712 14.0455 26.1609 14.0957 26.0396C14.146 25.9183 14.1718 25.7883 14.1718 25.657C14.1718 25.5257 14.146 25.3957 14.0957 25.2744C14.0455 25.1531 13.9718 25.0428 13.879 24.95L13.172 24.243L15.586 21.829L16.293 22.536C16.3858 22.6288 16.4961 22.7025 16.6174 22.7527C16.7387 22.803 16.8687 22.8288 17 22.8288C17.1313 22.8288 17.2613 22.803 17.3826 22.7527C17.5039 22.7025 17.6142 22.6288 17.707 22.536C17.7998 22.4432 17.8735 22.3329 17.9237 22.2116C17.974 22.0903 17.9998 21.9603 17.9998 21.829C17.9998 21.6977 17.974 21.5677 17.9237 21.4464C17.8735 21.3251 17.7998 21.2148 17.707 21.122L17 20.414L20.414 17L21.121 17.707C21.2138 17.7998 21.3241 17.8735 21.4454 17.9237C21.5667 17.974 21.6967 17.9998 21.828 17.9998C21.9593 17.9998 22.0893 17.974 22.2106 17.9237C22.3319 17.8735 22.4422 17.7998 22.535 17.707C22.6278 17.6142 22.7015 17.5039 22.7517 17.3826C22.802 17.2613 22.8278 17.1313 22.8278 17C22.8278 16.8687 22.802 16.7387 22.7517 16.6174C22.7015 16.4961 22.6278 16.3858 22.535 16.293L21.828 15.586L24.242 13.172L24.949 13.879C25.0412 13.9745 25.1516 14.0507 25.2736 14.1031C25.3956 14.1555 25.5268 14.1831 25.6596 14.1842C25.7924 14.1854 25.9241 14.1601 26.0469 14.1098C26.1698 14.0595 26.2815 13.9853 26.3754 13.8914C26.4693 13.7975 26.5435 13.6858 26.5938 13.5629C26.6441 13.4401 26.6694 13.3084 26.6682 13.1756C26.6671 13.0428 26.6395 12.9116 26.5871 12.7896C26.5347 12.6676 26.4585 12.5572 26.363 12.465L25.656 11.758L26.656 10.758C26.8435 10.5704 26.9488 10.3159 26.9487 10.0506C26.9486 9.78537 26.8431 9.531 26.6555 9.3435C26.4679 9.15599 26.2134 9.0507 25.9481 9.05079C25.6829 9.05089 25.4285 9.15635 25.241 9.344L24.241 10.344L23.534 9.637C23.4412 9.54415 23.3309 9.4705 23.2096 9.42026C23.0883 9.37001 22.9583 9.34415 22.827 9.34415C22.6957 9.34415 22.5657 9.37001 22.4444 9.42026C22.3231 9.4705 22.2128 9.54415 22.12 9.637C22.0272 9.72984 21.9535 9.84006 21.9033 9.96137C21.853 10.0827 21.8271 10.2127 21.8271 10.344C21.8271 10.4753 21.853 10.6053 21.9033 10.7266C21.9535 10.8479 22.0272 10.9581 22.12 11.051L22.828 11.757ZM0.563995 24.472L11.529 35.437C12.5796 35.4182 13.6276 35.3249 14.665 35.158L0.842995 21.335C0.676051 22.3728 0.582818 23.4211 0.563995 24.472ZM24.472 0.563995C23.432 0.581995 22.384 0.674995 21.336 0.842995L35.158 14.665C35.3249 13.6276 35.4181 12.5796 35.437 11.529L24.472 0.563995Z" fill="#E1E8ED"/>
</svg>
