<svg width="36" height="36" viewBox="0 0 36 36" fill="none" xmlns="http://www.w3.org/2000/svg">
<path d="M18.9474 2.36842C18.9474 1.58305 18.3107 0.947369 17.5263 0.947369C16.7409 0.947369 16.1053 1.58305 16.1053 2.36842V7.83947V10.8947V11.3684C16.1053 11.8914 15.6808 12.3158 15.1579 12.3158C14.6349 12.3158 14.2105 11.8914 14.2105 11.3684V10.8947V7.57895V2.36842C14.2105 1.58305 13.5748 0.947369 12.7895 0.947369C12.0041 0.947369 11.3684 1.58305 11.3684 2.36842V7.57895V10.8947V11.3684C11.3684 11.8914 10.944 12.3158 10.4211 12.3158C9.8981 12.3158 9.47368 11.8914 9.47368 11.3684V10.8947V7.83947V2.36842C9.47368 1.58305 8.838 0.947369 8.05263 0.947369C7.26726 0.947369 6.63158 1.58305 6.63158 2.36842V10.8947C6.63158 11.0151 6.65147 11.1306 6.67989 11.2424C6.65147 11.4385 6.63158 11.6375 6.63158 11.8421C6.63158 14.0362 8.28947 17.4856 10.4211 17.9451V32.6842C10.4211 33.9925 11.4812 35.0526 12.7895 35.0526C14.0978 35.0526 15.1579 33.9925 15.1579 32.6842V17.9451C17.2895 17.4856 18.9474 14.0362 18.9474 11.8421C18.9474 11.6375 18.9275 11.4385 18.8991 11.2424C18.9275 11.1306 18.9474 11.0151 18.9474 10.8947V2.36842Z" fill="#99AAB5"/>
<path d="M27 0.947369C26.9015 0.947369 26.8067 0.965366 26.7101 0.976738C26.6495 0.967262 26.5898 0.947369 26.5263 0.947369C24.4336 0.947369 21.7895 6.13611 21.7895 11.3684C21.7895 15.7813 22.9974 19.4788 24.6316 20.5314V32.6842C24.6316 33.9925 25.6917 35.0526 27 35.0526C28.3083 35.0526 29.3684 33.9925 29.3684 32.6842V3.31579C29.3684 2.00747 28.3083 0.947369 27 0.947369Z" fill="#99AAB5"/>
</svg>
