<svg width="36" height="36" viewBox="0 0 36 36" fill="none" xmlns="http://www.w3.org/2000/svg">
<path d="M32.2105 15.1579C32.2105 15.0916 32.1935 15.0291 32.1906 14.9627C32.1935 14.8708 32.2105 14.7761 32.2105 14.6842C32.2105 7.09768 25.848 2.84211 18 2.84211C10.152 2.84211 3.78947 7.09768 3.78947 14.6842C3.78947 14.7875 3.80368 14.8945 3.80557 14.9987C3.80368 15.0527 3.78947 15.1029 3.78947 15.1579L3.8302 15.4857C3.87189 16.2152 3.9562 16.9513 4.10589 17.6912L5.6842 30.3158C5.6842 32.4085 7.38094 34.1053 9.47368 34.1053H26.5263C28.619 34.1053 30.3158 32.4085 30.3158 30.3158L32.058 16.3772C32.0912 16.1725 32.112 15.9707 32.1347 15.768L32.2105 15.1579Z" fill="#DD2E44"/>
<path d="M2.8421 1.89474V17.0526C2.8421 16.0067 3.69094 16.1053 4.73684 16.1053C5.78273 16.1053 7.57894 16.0067 7.57894 17.0526C7.57894 19.6693 11.7218 21.7895 18 21.7895C24.2782 21.7895 28.421 19.6693 28.421 17.0526C28.421 16.0067 30.2173 16.1053 31.2632 16.1053C32.309 16.1053 33.1579 16.0067 33.1579 17.0526H34.1053V1.89474H2.8421Z" fill="#BE1931"/>
<path d="M10.4225 30.7895C10.3135 30.7895 10.2027 30.7772 10.0918 30.7506C9.32826 30.5697 8.85742 29.8023 9.03932 29.0387L13.7762 9.144C13.9571 8.38137 14.7245 7.91148 15.4871 8.09148C16.2507 8.27337 16.7215 9.03979 16.5406 9.80337L11.8037 29.6981C11.6474 30.3499 11.0648 30.7895 10.4225 30.7895Z" fill="#F4900C"/>
<path d="M24.6316 10.421C23.6842 11.3684 20.8421 14.2105 22.7368 16.1053C24.6316 18 21.7895 23.6842 24.6316 21.7895C27.4737 19.8947 28.4211 17.0526 28.4211 15.1579C28.4211 13.2632 29.3684 10.421 27.4737 10.421H24.6316Z" fill="#F4900C"/>
<path d="M17.0526 9.47368C16.1053 9.47368 14.2105 11.3684 14.2105 12.3158C14.2105 13.2632 14.2105 18 17.0526 17.0526C19.8947 16.1053 19.8947 14.2105 18.9474 12.3158C18 10.4211 17.0526 9.47368 17.0526 9.47368Z" fill="#F4900C"/>
<path d="M19.8928 29.8421C19.1719 29.8421 18.5542 29.2955 18.4803 28.5622L16.5856 9.61484C16.5079 8.83421 17.0773 8.13789 17.8588 8.05926C18.6319 7.98063 19.3348 8.55094 19.4135 9.33252L21.3082 28.2799C21.3868 29.0605 20.8175 29.7568 20.0359 29.8345C19.9885 29.8402 19.9402 29.8421 19.8928 29.8421Z" fill="#F4900C"/>
<path d="M20.844 29.8421C20.7805 29.8421 20.7152 29.8383 20.6498 29.8288C19.8729 29.7227 19.3273 29.0065 19.4343 28.2287L22.2764 7.38663C22.3816 6.60979 23.0893 6.06505 23.8765 6.17115C24.6534 6.27631 25.1991 6.99347 25.092 7.77126L22.2499 28.6134C22.1533 29.3258 21.5432 29.8421 20.844 29.8421Z" fill="#F4900C"/>
<path d="M18 30.7895C17.4193 30.7895 16.8745 30.4314 16.6642 29.8544L9.08526 9.01232C8.81715 8.27432 9.198 7.45958 9.93505 7.19053C10.6721 6.92242 11.4878 7.30232 11.7568 8.04032L19.3358 28.8824C19.6029 29.6204 19.223 30.4361 18.486 30.7042C18.3249 30.7629 18.161 30.7895 18 30.7895Z" fill="#F4900C"/>
<path d="M21.7895 27.9474C21.6407 27.9474 21.4892 27.9246 21.3395 27.8744C20.5948 27.6262 20.1932 26.8219 20.4414 26.0763L26.1256 9.02463C26.3728 8.27905 27.1791 7.87452 27.9237 8.12558C28.6683 8.37379 29.07 9.1781 28.8218 9.92274L23.1376 26.9763C22.9396 27.5713 22.3844 27.9474 21.7895 27.9474Z" fill="#F4900C"/>
<path d="M18.9474 26.0526C18.3666 26.0526 17.8219 25.6945 17.6116 25.1176L13.8221 14.6965C13.554 13.9585 13.9348 13.1438 14.6719 12.8747C15.4089 12.6076 16.2246 12.9865 16.4937 13.7245L20.2832 24.1456C20.5503 24.8836 20.1704 25.6993 19.4334 25.9674C19.2733 26.0261 19.1084 26.0526 18.9474 26.0526Z" fill="#F4900C"/>
<path d="M9.47179 26.0526C8.78968 26.0526 8.1881 25.56 8.07158 24.8656L6.17684 13.4972C6.048 12.7222 6.57095 11.9908 7.34495 11.862C8.11705 11.7294 8.85126 12.2552 8.9801 13.0292L10.8748 24.3976C11.0046 25.1716 10.4817 25.9048 9.70768 26.0327C9.6281 26.046 9.54947 26.0526 9.47179 26.0526Z" fill="#F4900C"/>
<path d="M28.4229 23.2105C28.3699 23.2105 28.3178 23.2077 28.2638 23.202C27.4841 23.1148 26.9223 22.4119 27.0085 21.6322L27.9559 13.1059C28.0431 12.3262 28.7432 11.7625 29.5257 11.8506C30.3054 11.9378 30.8672 12.6398 30.7809 13.4204L29.8336 21.9467C29.7521 22.6734 29.1373 23.2105 28.4229 23.2105Z" fill="#F4900C"/>
<path d="M28.4192 30.7895C27.72 30.7895 27.1099 30.2732 27.0133 29.5607L24.1712 8.71863C24.0641 7.94084 24.6098 7.22368 25.3866 7.11853C26.1682 7.00958 26.8806 7.55621 26.9867 8.334L29.8288 29.1761C29.9359 29.9539 29.3902 30.6701 28.6134 30.7762C28.548 30.7857 28.4826 30.7895 28.4192 30.7895Z" fill="#FFCC4D"/>
<path d="M21.7876 25.1053C21.0496 25.1053 20.4262 24.5331 20.3722 23.7846L19.4248 10.5224C19.368 9.73989 19.9573 9.05968 20.7417 9.00379C21.5204 8.94126 22.2025 9.53716 22.2594 10.3197L23.2067 23.5838C23.2636 24.3663 22.6743 25.0465 21.8899 25.1015C21.8558 25.1043 21.8217 25.1053 21.7876 25.1053Z" fill="#FFCC4D"/>
<path d="M9.47558 27C9.42063 27 9.36473 26.9972 9.30884 26.9905C8.52916 26.8996 7.97116 26.1938 8.0621 25.4141L9.52295 12.9003C9.61389 12.1206 10.3216 11.5636 11.0984 11.6536C11.8781 11.7445 12.4361 12.4503 12.3452 13.23L10.8853 25.7438C10.8009 26.4676 10.1861 27 9.47558 27Z" fill="#FFCC4D"/>
<path d="M17.9986 27C17.3345 27 16.7414 26.5329 16.6069 25.8575L12.8174 6.9101C12.663 6.14084 13.1623 5.39147 13.9325 5.238C14.7036 5.08263 15.4502 5.58379 15.6036 6.35305L19.3931 25.3004C19.5475 26.0706 19.0483 26.8191 18.278 26.9725C18.1843 26.9905 18.0905 27 17.9986 27Z" fill="#FFCC4D"/>
<path d="M21.7895 27.4737C21.7895 29.5664 20.0927 31.2632 18 31.2632C15.9073 31.2632 14.2105 29.5664 14.2105 27.4737C14.2105 25.3809 15.9073 23.6842 18 23.6842C20.0927 23.6842 21.7895 25.3809 21.7895 27.4737Z" fill="#BE1931"/>
</svg>
