<svg width="36" height="36" viewBox="0 0 36 36" fill="none" xmlns="http://www.w3.org/2000/svg">
<path d="M31.5 13.5V33.75C31.5 34.1976 31.3222 34.6268 31.0057 34.9432C30.6893 35.2597 30.2601 35.4375 29.8125 35.4375H6.1875C5.73995 35.4375 5.31072 35.2597 4.99426 34.9432C4.67779 34.6268 4.5 34.1976 4.5 33.75V13.5C4.5 13.3508 4.55926 13.2077 4.66475 13.1023C4.77024 12.9968 4.91332 12.9375 5.0625 12.9375H30.9375C31.0867 12.9375 31.2298 12.9968 31.3352 13.1023C31.4407 13.2077 31.5 13.3508 31.5 13.5Z" fill="#FFD15C"/>
<path d="M21.9375 13.5V35.4375H14.0625V13.5C14.0625 13.3508 14.1218 13.2077 14.2273 13.1023C14.3327 12.9968 14.4758 12.9375 14.625 12.9375H21.375C21.4657 12.9364 21.5551 12.9597 21.6337 13.005C21.7246 13.0521 21.8009 13.123 21.8545 13.2103C21.908 13.2975 21.9367 13.3977 21.9375 13.5Z" fill="#EB3A5C"/>
<path d="M21.9375 13.5V14.2988L14.0625 22.1738V20.5763L21.6337 13.005C21.7246 13.0521 21.8009 13.123 21.8545 13.2103C21.908 13.2975 21.9367 13.3977 21.9375 13.5Z" fill="#EFF3FE"/>
<path d="M26.2125 4.05L21.7125 0.675004C21.6459 0.620476 21.5676 0.581977 21.4837 0.562472C21.3998 0.542967 21.3126 0.542978 21.2288 0.562504C21.1461 0.58503 21.0697 0.626131 21.0054 0.682671C20.941 0.739211 20.8905 0.809697 20.8575 0.888754L17.4825 8.76375C17.4359 8.87191 17.4243 8.99197 17.4496 9.10702C17.4748 9.22207 17.5355 9.3263 17.6231 9.405C17.7246 9.50287 17.8591 9.55908 18 9.5625C18.0985 9.56318 18.1955 9.53797 18.2813 9.48938L26.1563 4.98938C26.2373 4.94297 26.3055 4.87713 26.3547 4.79779C26.4039 4.71844 26.4326 4.62809 26.4382 4.53489C26.4438 4.44169 26.4261 4.34856 26.3867 4.26391C26.3473 4.17926 26.2874 4.10575 26.2125 4.05Z" fill="#D51D48"/>
<path d="M18.4781 8.70187L15.6656 4.20187C15.6235 4.13484 15.5677 4.07745 15.5019 4.03346C15.4361 3.98947 15.3617 3.95987 15.2836 3.94659C15.2056 3.93332 15.1256 3.93667 15.049 3.95643C14.9723 3.97618 14.9007 4.0119 14.8387 4.06125L12.0262 6.31125C11.9493 6.37254 11.8898 6.45293 11.8536 6.54441C11.8174 6.6359 11.8059 6.73526 11.8201 6.8326C11.8344 6.92994 11.8739 7.02184 11.9347 7.09914C11.9956 7.17643 12.0756 7.23643 12.1669 7.27312L17.7919 9.52312C17.8581 9.54931 17.9288 9.56267 18 9.5625C18.0826 9.56263 18.1643 9.54456 18.2391 9.50956C18.314 9.47456 18.3802 9.42349 18.4331 9.36C18.509 9.26901 18.5541 9.1564 18.5622 9.03822C18.5703 8.92005 18.5409 8.80234 18.4781 8.70187Z" fill="#EB3A5C"/>
<path d="M30.375 8.4375H5.625C4.87908 8.4375 4.16371 8.73382 3.63626 9.26126C3.10882 9.78871 2.8125 10.5041 2.8125 11.25C2.8125 11.9959 3.10882 12.7113 3.63626 13.2387C4.16371 13.7662 4.87908 14.0625 5.625 14.0625H30.375C31.1209 14.0625 31.8363 13.7662 32.3637 13.2387C32.8912 12.7113 33.1875 11.9959 33.1875 11.25C33.1875 10.5041 32.8912 9.78871 32.3637 9.26126C31.8363 8.73382 31.1209 8.4375 30.375 8.4375Z" fill="#F8B64C"/>
<path d="M21.9375 18.3319V19.9181L14.0625 27.7931V26.2069L21.9375 18.3319Z" fill="#EFF3FE"/>
<path d="M21.9375 23.9569V25.5431L14.0625 33.4181V31.8319L21.9375 23.9569Z" fill="#EFF3FE"/>
</svg>
