<svg width="36" height="36" viewBox="0 0 36 36" fill="none" xmlns="http://www.w3.org/2000/svg">
<path d="M10.4201 12.3158C10.278 12.3158 10.133 12.2836 9.99757 12.2163C5.84715 10.1406 2.90747 5.08547 1.94305 2.1941C1.77726 1.69768 2.04631 1.16147 2.54273 0.995683C3.0401 0.828945 3.57536 1.09989 3.74115 1.59537C4.572 4.08789 7.23505 8.71674 10.8445 10.5205C11.3125 10.7555 11.5029 11.3239 11.2689 11.7919C11.1022 12.1244 10.7678 12.3158 10.4201 12.3158Z" fill="#77B255"/>
<path d="M25.5789 28.4211C25.5789 32.0826 22.6089 35.0526 18.9474 35.0526C15.2858 35.0526 12.3158 32.0826 12.3158 28.4211C12.3158 24.7595 15.2858 21.7895 18.9474 21.7895C22.6089 21.7895 25.5789 24.7595 25.5789 28.4211Z" fill="#553788"/>
<path d="M17.0526 15.1579C17.0526 18.8195 14.0826 21.7895 10.421 21.7895C6.75947 21.7895 3.78947 18.8195 3.78947 15.1579C3.78947 11.4963 6.75947 8.52632 10.421 8.52632C14.0826 8.52632 17.0526 11.4963 17.0526 15.1579Z" fill="#9266CC"/>
<path d="M25.5789 12.3158C25.5789 15.9774 22.6089 18.9474 18.9474 18.9474C15.2858 18.9474 12.3158 15.9774 12.3158 12.3158C12.3158 8.65421 15.2858 5.68421 18.9474 5.68421C22.6089 5.68421 25.5789 8.65421 25.5789 12.3158Z" fill="#AA8DD8"/>
<path d="M33.1579 18C33.1579 21.6616 30.1879 24.6316 26.5263 24.6316C22.8647 24.6316 19.8947 21.6616 19.8947 18C19.8947 14.3384 22.8647 11.3684 26.5263 11.3684C30.1879 11.3684 33.1579 14.3384 33.1579 18Z" fill="#744EAA"/>
<path d="M16.1053 25.5789C16.1053 29.2405 13.1353 32.2105 9.47368 32.2105C5.8121 32.2105 2.8421 29.2405 2.8421 25.5789C2.8421 21.9174 5.8121 18.9474 9.47368 18.9474C13.1353 18.9474 16.1053 21.9174 16.1053 25.5789Z" fill="#744EAA"/>
<path d="M24.6316 20.8421C24.6316 24.5037 21.6616 27.4737 18 27.4737C14.3384 27.4737 11.3684 24.5037 11.3684 20.8421C11.3684 17.1805 14.3384 14.2105 18 14.2105C21.6616 14.2105 24.6316 17.1805 24.6316 20.8421Z" fill="#9266CC"/>
<path d="M35.0526 28.4211C35.0526 32.0826 32.0826 35.0526 28.4211 35.0526C24.7595 35.0526 21.7895 32.0826 21.7895 28.4211C21.7895 24.7595 24.7595 21.7895 28.4211 21.7895C32.0826 21.7895 35.0526 24.7595 35.0526 28.4211Z" fill="#9266CC"/>
</svg>
