<svg width="36" height="36" viewBox="0 0 36 36" fill="none" xmlns="http://www.w3.org/2000/svg">
<path d="M30.3158 21.7895C27.4737 32.2105 25.5609 35.0526 18 35.0526C10.4211 35.0526 8.52632 32.2105 5.68421 21.7895C3.75632 14.7221 7.57895 8.52632 18 8.52632C28.4211 8.52632 32.2427 14.7221 30.3158 21.7895Z" fill="#F4900C"/>
<path d="M28.4211 11.3684C30.3158 15.1579 25.5789 18.9474 18 18.9474C10.4211 18.9474 5.68421 15.1579 7.57895 11.3684C8.98295 8.56042 11.7218 5.68421 18 5.68421C24.2782 5.68421 27.018 8.56042 28.4211 11.3684Z" fill="#BE1931"/>
<path d="M29.3684 11.3684C29.3684 15.1579 24.2782 17.0526 18 17.0526C11.7218 17.0526 6.63158 15.1579 6.63158 11.3684C6.63158 8.22979 11.7218 5.68421 18 5.68421C24.2782 5.68421 29.3684 8.22979 29.3684 11.3684Z" fill="#FFAC33"/>
<path d="M26.5263 10.4211C27.4737 11.3684 28.4211 12.3158 28.4211 13.2632C28.4211 14.2105 27.4737 16.1053 26.5263 15.1579C26.5263 15.1579 29.3192 16.2512 28.4211 18.9474C27.4737 21.7895 24.6316 20.8421 24.6316 18.9474C24.6316 17.0526 23.1603 15.7813 22.7368 17.0526C21.7895 19.8947 19.8947 19.8947 18.9474 18.9474C18 18 18 17.0526 18 17.0526C18 17.0526 15.1579 17.0526 16.1053 15.1579C17.0526 13.2632 16.1053 13.2632 16.1053 13.2632C16.1053 13.2632 16.1053 12.3158 17.0526 12.3158C18 12.3158 23.6842 11.3684 24.6316 10.4211C25.5789 9.47368 26.5263 10.4211 26.5263 10.4211Z" fill="#FFE8B6"/>
<path d="M27.4737 9.73686C27.4737 12.2076 23.2323 14.2103 18 14.2103C12.7677 14.2103 8.52632 12.2076 8.52632 9.73686C8.52632 7.26612 12.7677 5.68402 18 5.68402C23.2323 5.68402 27.4737 7.26612 27.4737 9.73686Z" fill="#662113"/>
<path d="M18 14.2105C22.3086 14.2105 25.938 12.8511 27.0881 10.9933C26.9053 10.8019 26.7167 10.6115 26.5263 10.4211C26.5263 10.4211 24.6316 8.52631 23.6842 9.47368C22.7368 10.4211 18 10.4211 17.0526 10.4211C16.1053 10.4211 15.1579 11.3684 15.1579 11.3684C15.1579 11.3684 16.6614 13.2736 16.4814 14.148C16.9768 14.1859 17.4818 14.2105 18 14.2105Z" fill="#F4900C"/>
<path d="M25.5789 9C25.5789 10.8313 22.1855 12.3158 18 12.3158C13.8145 12.3158 10.4211 10.8313 10.4211 9C10.4211 7.16874 13.8145 3.78947 18 3.78947C22.1855 3.78947 25.5789 7.16874 25.5789 9Z" fill="#FFCC4D"/>
<path d="M19.8947 3.31579C19.8947 4.10022 19.0459 4.73685 18 4.73685C16.9541 4.73685 16.1053 4.10022 16.1053 3.31579C16.1053 2.53137 16.9541 1.89474 18 1.89474C19.0459 1.89474 19.8947 2.53137 19.8947 3.31579Z" fill="#F4900C"/>
<path d="M6.33325 24.0728C7.02009 26.4005 7.68325 28.2753 8.42125 29.7693C11.3685 32.2107 16.1054 32.2107 18.0001 32.2107C19.8948 32.2107 24.6317 32.2107 27.5742 29.7703C28.3141 28.2763 28.9791 26.4015 29.666 24.0728C27.1034 25.5526 22.843 26.5265 18.0001 26.5265C13.1571 26.5265 8.89588 25.5526 6.33325 24.0728Z" fill="#FFCC4D"/>
</svg>
