<svg width="36" height="36" viewBox="0 0 36 36" fill="none" xmlns="http://www.w3.org/2000/svg">
<path d="M19.8947 28.0658C19.8947 28.0658 29.9946 25.4842 32.5478 15.84C32.9239 14.4237 31.1097 13.2632 28.8834 13.2632H18.8687H17.7565H16.6434H6.63158C5.51748 13.2632 3.08842 13.7302 3.72127 16.0058C6.35779 25.4842 16.1053 28.0658 16.1053 28.0658V29.1771C16.1053 29.1771 11.7152 31.4915 10.8114 32.0286C9.83842 32.5857 10.5584 33.4743 10.9478 33.6278C11.5958 33.8836 13.2111 34.7173 17.6883 34.7173C22.2812 34.7173 24.7907 33.8135 25.3468 33.6278C25.5609 33.5567 26.4808 32.706 25.1593 31.9235C22.806 30.5318 19.8947 29.1771 19.8947 29.1771V28.0658Z" fill="#55ACEE"/>
<path d="M32.4862 15.3928C32.4862 16.9958 26.011 18.2946 18.0209 18.2946C10.0326 18.2946 3.55643 16.9958 3.55643 15.3928C3.55643 13.7889 10.0326 12.4901 18.0209 12.4901C26.011 12.4901 32.4862 13.7889 32.4862 15.3928Z" fill="#3B88C3"/>
<path d="M25.5623 7.49198C25.5623 9.02009 22.5942 11.9872 18.1425 11.9872C14.0451 11.9872 10.7236 10.0091 10.7236 7.49198C10.7236 3.39461 14.0451 1.06219 18.1425 1.06219C22.2408 1.06219 25.5623 3.39461 25.5623 7.49198Z" fill="#F4ABBA"/>
<path d="M32.4862 14.4159C32.4862 15.944 29.5191 18.4167 25.0683 18.4167C20.97 18.4167 17.6476 19.7363 17.6476 14.4159C17.6476 10.3185 20.97 6.99707 25.0683 6.99707C29.1657 6.99707 32.4862 10.3185 32.4862 14.4159Z" fill="#FFE8B6"/>
<path d="M18.637 14.4159C18.637 19.3252 15.6699 18.5 11.2182 18.5C7.12177 18.5 3.80029 16.9331 3.80029 14.4159C3.80029 10.3185 7.12177 6.99707 11.2182 6.99707C15.3156 6.99707 18.637 10.3185 18.637 14.4159Z" fill="#8A4B38"/>
<path d="M3.55264 17.2636C5.36685 17.8406 18.8858 22.2506 33.1873 16.7691C33.2697 17.5516 32.9798 20.3141 31.8269 20.5197C30.673 20.7243 18.3439 24.7791 4.57864 20.3283C4.20727 19.9162 3.55264 17.2636 3.55264 17.2636Z" fill="#3B88C3"/>
<path d="M3.63496 15.3258C4.95748 15.8942 18.3078 20.1062 32.5278 15.4082C32.5278 16.0268 32.1384 17.7548 31.9092 18.417C31.5387 19.4895 17.3187 22.9919 4.54159 18.6643C4.17022 18.4995 3.05801 15.0785 3.63496 15.3258Z" fill="#55ACEE"/>
</svg>
