<svg width="36" height="36" viewBox="0 0 36 36" fill="none" xmlns="http://www.w3.org/2000/svg">
<path d="M11.7524 4.11054C17.8913 2.90264 19.7605 5.30896 22.794 4.19012C25.8274 3.07127 22.8821 6.8617 22.0882 7.51349C21.2924 8.16622 14.3766 12.0694 11.3772 10.6379C8.37691 9.20643 8.36081 4.77843 11.7524 4.11054Z" fill="#5C913B"/>
<path d="M15.1588 16.1053C14.8708 16.1053 14.5866 15.9745 14.4 15.7263C13.7492 14.8585 13.1608 13.8742 12.5384 12.8312C10.3898 9.23589 7.9541 5.15937 1.68916 3.76674C1.17853 3.65305 0.856421 3.14716 0.970105 2.63653C1.08379 2.12589 1.58968 1.80474 2.10032 1.91747C9.162 3.48632 11.9359 8.12937 14.1651 11.8601C14.7619 12.8586 15.3246 13.8013 15.9158 14.5895C16.2294 15.0082 16.1451 15.6022 15.7263 15.9158C15.5558 16.0437 15.3559 16.1053 15.1588 16.1053Z" fill="#77B255"/>
<path d="M33.4419 30.8219C33.4438 30.8058 33.4391 30.7953 33.4391 30.7811C36.0671 25.7269 35.9477 16.4636 30.2692 10.785C24.7744 5.29029 17.3101 5.2704 12.4899 6.93208C10.995 7.51377 9.72739 6.99461 8.8757 7.84629C8.04107 8.68092 8.54317 10.4222 8.19928 11.4643C5.19707 16.3925 4.97349 23.8038 10.7449 29.5751C15.4457 34.276 20.6335 36.0561 29.6733 34.1718C29.6752 34.1699 29.678 34.1708 29.6809 34.1699C30.7694 33.9633 32.4756 34.6663 33.0601 34.0808C34.089 33.0529 33.3529 31.8479 33.4419 30.8219Z" fill="#FFCC4D"/>
<path d="M8.72337 7.18342C8.72337 7.18342 4.67811 6.62447 2.22727 11.5404C-0.224521 16.4553 2.77864 20.1842 2.50106 23.5265C2.22348 26.8716 3.98464 24.7249 4.98411 23.1049C5.98358 21.4849 8.99148 18.4685 9.66222 14.3237C10.333 10.1799 9.59685 8.20753 8.72337 7.18342Z" fill="#77B255"/>
</svg>
