<svg width="36" height="36" viewBox="0 0 36 36" fill="none" xmlns="http://www.w3.org/2000/svg">
<path d="M35.0526 22.7368C35.0526 27.9682 27.4178 32.2105 18 32.2105C8.58221 32.2105 0.947365 27.9682 0.947365 22.7368C0.947365 17.5055 8.58221 13.2632 18 13.2632C27.4178 13.2632 35.0526 17.5055 35.0526 22.7368Z" fill="#939598"/>
<path d="M35.0526 20.8421C35.0526 26.0735 27.4178 30.3158 18 30.3158C8.58221 30.3158 0.947365 26.0735 0.947365 20.8421C0.947365 15.6107 8.58221 11.3684 18 11.3684C27.4178 11.3684 35.0526 15.6107 35.0526 20.8421Z" fill="#F1F2F2"/>
<path d="M30.3158 19.8947C30.3158 23.6728 24.8021 26.7376 18 26.7376C11.1979 26.7376 5.6842 23.6728 5.6842 19.8947C5.6842 16.1166 11.1979 13.0528 18 13.0528C24.8021 13.0528 30.3158 16.1166 30.3158 19.8947Z" fill="#C1694F"/>
<path d="M28.421 19.8947C28.421 22.8013 23.7543 25.1583 18 25.1583C12.2447 25.1583 7.57894 22.8013 7.57894 19.8947C7.57894 16.9882 12.2447 14.6312 18 14.6312C23.7543 14.6312 28.421 16.9882 28.421 19.8947Z" fill="#8A4B38"/>
<path d="M18 7.57895C21.2049 7.57895 22.4754 9.47369 23.6094 9.47369C25.2114 9.47369 26.0128 11.3684 27.6148 18C28.2761 20.7332 23.6094 23.6842 18 23.6842C12.3916 23.6842 7.72484 20.7332 8.38515 18C9.98715 11.3684 10.7886 9.47369 12.3916 9.47369C13.5237 9.47369 14.795 7.57895 18 7.57895Z" fill="#FFCC4D"/>
<path d="M25.2116 11.3684C25.2116 13.4612 21.983 15.1579 18.0003 15.1579C14.0175 15.1579 10.7889 13.4612 10.7889 11.3684C10.7889 9.27569 14.0175 7.57895 18.0003 7.57895C21.983 7.57895 25.2116 9.27569 25.2116 11.3684Z" fill="#662113"/>
</svg>
