<svg width="36" height="36" viewBox="0 0 36 36" fill="none" xmlns="http://www.w3.org/2000/svg">
<g clip-path="url(#clip0_2_220)">
<path d="M29.7607 9.73876C27.614 6.76876 23.5602 3.16971 16.435 2.8874L16.0826 2.87223L15.9633 3.20476C15.9036 3.3715 15.6771 3.69645 15.4593 4.01097C14.816 4.93845 13.934 6.20792 14.3101 7.34571C14.5204 7.9795 15.0822 8.45508 15.9813 8.75824C17.7746 9.3636 21.5035 12.417 22.2358 16.0956C22.4385 17.115 22.3826 18.0955 22.0984 19.0372C20.5599 16.1657 17.7727 14.3591 14.3698 14.3591C8.86178 14.3591 5.3442 18.8941 5.3442 24.4675C5.3442 29.282 8.86178 34.5769 14.3698 34.5769C14.3982 34.5769 14.4247 34.5731 14.4522 34.5731L14.5384 34.5788C15.1087 34.6195 16.0627 34.6858 17.2157 34.6858C22.9814 34.6858 30.3254 33.0478 32.564 25.2434C34.0371 20.1087 32.9638 14.1677 29.7607 9.73876Z" fill="#FFAC33"/>
<path d="M6.09726 11.6797C4.80884 11.6797 3.73168 11.0223 3.4181 10.0427C3.16326 9.24594 3.47116 8.41605 4.22337 7.87889C4.98221 7.33794 5.23895 6.88605 5.22947 6.66342C5.2181 6.42942 4.89979 6.10826 4.37779 5.80415C2.64126 4.79142 2.72274 3.58447 2.83926 3.11363C3.08558 2.11131 4.11442 1.42447 5.46158 1.36289L5.64631 1.3591C7.90484 1.3591 18.4917 2.963 20.0018 3.31163C20.4044 3.40542 20.7028 3.74363 20.7426 4.15384C20.8099 4.80468 17.2989 5.93489 19.8066 9.52352C20.1524 10.018 18.8782 10.2075 18.2918 10.2075H18.2908C17.9725 10.2075 17.6362 10.1355 17.2933 9.99436C16.6131 9.71394 15.7557 9.57184 14.7458 9.57184C12.6976 9.57184 10.1529 10.1829 8.262 11.1284C7.53063 11.494 6.8021 11.6797 6.09726 11.6797Z" fill="#FF839B"/>
<path d="M21.511 17.889C23.6767 21.1394 25.5222 28.1584 18.8631 30.1242C18.7021 30.7268 21.6153 31.5169 24.1779 28.7401C27.0664 25.611 27.2474 17.7289 20.5883 12.3535C16.256 11.1096 21.511 17.889 21.511 17.889Z" fill="#F4900C"/>
<path d="M30.5563 22.7831C32.1242 22.0707 34.3477 20.2564 35.0696 18.5114C35.7915 16.7663 37.4162 19.8946 35.7915 21.399C34.7683 22.4221 31.6998 23.7466 30.1954 23.9266C28.691 24.1066 29.2329 23.3856 30.5563 22.7831Z" fill="#F4900C"/>
<path d="M30.1955 7.0183C30.5564 10.0271 31.4593 14.1785 29.3523 16.1045C27.2473 18.0296 29.448 17.3674 30.6767 16.5858C32.6624 15.322 33.2043 12.4941 32.5421 10.8087C31.8799 9.1243 30.1955 7.0183 30.1955 7.0183Z" fill="#F4900C"/>
<path d="M2.6964 4.25018C4.92272 7.74028 14.6105 5.49407 2.89724 9.62555C-1.93718 10.8088 2.6964 4.25018 2.6964 4.25018Z" fill="#EA596E"/>
</g>
<defs>
<clipPath id="clip0_2_220">
<rect width="36" height="36" fill="white"/>
</clipPath>
</defs>
</svg>
