<svg width="36" height="36" viewBox="0 0 36 36" fill="none" xmlns="http://www.w3.org/2000/svg">
<path d="M33.0395 34.3208C32.742 34.3208 32.4445 34.2071 32.2171 33.9807L3.18883 4.95237C2.73409 4.49763 2.73409 3.76153 3.18883 3.30679C3.64262 2.853 4.37967 2.853 4.83346 3.30679L33.8618 32.3351C34.3165 32.7898 34.3165 33.5259 33.8618 33.9807C33.6344 34.2071 33.3369 34.3208 33.0395 34.3208Z" fill="#D99E82"/>
<path d="M15.3989 9.12069C15.3989 12.6534 12.535 15.5173 9.00227 15.5173C5.46953 15.5173 2.60564 12.6534 2.60564 9.12069C2.60564 5.58795 5.46953 2.72406 9.00227 2.72406C12.535 2.72406 15.3989 5.58795 15.3989 9.12069Z" fill="#FCB1E3"/>
<path d="M22.3779 16.0993C22.3779 19.632 19.514 22.4959 15.9812 22.4959C12.4476 22.4959 9.58366 19.632 9.58366 16.0993C9.58366 12.5666 12.4476 9.70266 15.9812 9.70266C19.514 9.70266 22.3779 12.5666 22.3779 16.0993Z" fill="#FFD983"/>
<path d="M29.3564 23.0773C29.3564 26.6101 26.4915 29.4749 22.9588 29.4749C19.427 29.4749 16.5622 26.6101 16.5622 23.0773C16.5622 19.5446 19.427 16.6807 22.9588 16.6807C26.4915 16.6807 29.3564 19.5446 29.3564 23.0773Z" fill="#A6D388"/>
<path d="M33.0395 34.3208C32.742 34.3208 32.4445 34.2071 32.2171 33.9807L25.0929 26.8565C24.6391 26.4027 24.6391 25.6656 25.0929 25.2118C25.5486 24.7581 26.2828 24.7581 26.7385 25.2118L33.8618 32.3351C34.3165 32.7898 34.3165 33.5259 33.8618 33.9807C33.6344 34.2071 33.3369 34.3208 33.0395 34.3208Z" fill="#D99E82"/>
</svg>
