<svg width="36" height="36" viewBox="0 0 36 36" fill="none" xmlns="http://www.w3.org/2000/svg">
<path d="M35.0954 16.5364L28.9508 13.464L31.1233 6.94658C31.3193 6.35858 31.1663 5.71025 30.728 5.27204C30.2896 4.83382 29.641 4.68076 29.0534 4.87669L22.5359 7.04945L19.4636 0.904582C19.1865 0.350182 18.6199 0 18 0C17.3801 0 16.8135 0.350182 16.5364 0.904582L13.4641 7.04945L6.94658 4.8768C6.35836 4.68076 5.71025 4.83382 5.27204 5.27214C4.83371 5.71047 4.68065 6.35869 4.87669 6.94669L7.04913 13.4641L0.904582 16.5364C0.350073 16.8136 0 17.3803 0 18C0 18.6199 0.350073 19.1865 0.904582 19.4637L7.04913 22.536L4.87669 29.0534C4.68065 29.6414 4.83371 30.2896 5.27204 30.728C5.71025 31.1663 6.35858 31.3192 6.94658 31.1233L13.4641 28.951L16.5364 35.0955C16.8135 35.6498 17.3801 36 18 36C18.6199 36 19.1865 35.6498 19.4636 35.0955L22.5359 28.951L29.0534 31.1233C29.6412 31.3193 30.2897 31.1663 30.728 30.728C31.1663 30.2896 31.3193 29.6414 31.1233 29.0534L28.9508 22.536L35.0954 19.4637C35.6497 19.1865 36 18.6199 36 18C36 17.3803 35.6497 16.8136 35.0954 16.5364Z" fill="#FFB65B"/>
<path d="M35.0954 16.5364L28.9508 13.464L31.1233 6.94659C31.3193 6.35859 31.1663 5.71026 30.728 5.27204C30.2896 4.83383 29.641 4.68077 29.0534 4.8767L22.5359 7.04946L19.4636 0.90459C19.1865 0.35019 18.6199 7.62939e-06 18 7.62939e-06V8.18183V27.8182V36C18.6199 36 19.1865 35.6498 19.4636 35.0955L22.5359 28.951L29.0534 31.1233C29.6412 31.3194 30.2897 31.1663 30.728 30.728C31.1663 30.2896 31.3193 29.6414 31.1233 29.0534L28.9508 22.536L35.0954 19.4637C35.6497 19.1865 36 18.6199 36 18C36 17.3803 35.6497 16.8136 35.0954 16.5364Z" fill="#FFA828"/>
<path d="M18 8.18182C12.5861 8.18182 8.18182 12.5863 8.18182 18C8.18182 23.4138 12.5861 27.8182 18 27.8182C23.4136 27.8182 27.8182 23.4138 27.8182 18C27.8182 12.5863 23.4136 8.18182 18 8.18182Z" fill="#FFDE51"/>
<path d="M18 8.18182V27.8182C23.4136 27.8182 27.8182 23.4138 27.8182 18C27.8182 12.5863 23.4136 8.18182 18 8.18182Z" fill="#FFD400"/>
<path d="M20.5337 20.5942C19.1867 21.9412 16.9952 21.9412 15.6482 20.5943C15.2932 20.2393 14.7176 20.2393 14.3625 20.5943C14.0075 20.9493 14.0075 21.5249 14.3625 21.8799C15.3906 22.908 16.7405 23.4218 18.091 23.4218C19.441 23.4218 20.7916 22.9078 21.8194 21.8799C22.1744 21.525 22.1744 20.9493 21.8194 20.5943C21.4643 20.2392 20.8887 20.2393 20.5337 20.5942Z" fill="black"/>
<path d="M15.0691 17.0691C15.2952 16.8436 15.4242 16.5309 15.4242 16.2121C15.4242 15.8933 15.2952 15.5806 15.0691 15.3552C14.8436 15.1297 14.5309 15 14.2121 15C13.8927 15 13.5806 15.1297 13.3551 15.3552C13.1291 15.5806 13 15.8933 13 16.2121C13 16.5309 13.1291 16.8436 13.3551 17.0691C13.5806 17.2952 13.8933 17.4242 14.2121 17.4242C14.5309 17.4242 14.8436 17.2952 15.0691 17.0691Z" fill="black"/>
<path d="M21.9697 15C21.6509 15 21.3382 15.1297 21.1127 15.3552C20.8873 15.5806 20.7576 15.8927 20.7576 16.2121C20.7576 16.5315 20.8873 16.8436 21.1127 17.0691C21.3382 17.2952 21.6509 17.4242 21.9697 17.4242C22.2885 17.4242 22.6012 17.2952 22.8267 17.0691C23.0521 16.8436 23.1818 16.5315 23.1818 16.2121C23.1818 15.8933 23.0521 15.5806 22.8267 15.3552C22.6012 15.1297 22.2885 15 21.9697 15Z" fill="black"/>
</svg>
