<svg width="36" height="36" viewBox="0 0 36 36" fill="none" xmlns="http://www.w3.org/2000/svg">
<path d="M19 12V5H17V12H14V15H22V12H19Z" fill="#58595B"/>
<path d="M33.213 10.977L3.27 2.954C3.0203 2.87947 2.8095 2.7105 2.6824 2.483C2.55531 2.25551 2.52195 1.98741 2.5894 1.7357C2.65685 1.48399 2.8198 1.26851 3.04363 1.13505C3.26745 1.00159 3.53449 0.960674 3.788 1.021L33.73 9.045C33.8574 9.07845 33.9769 9.13674 34.0817 9.21653C34.1865 9.29631 34.2745 9.39601 34.3407 9.5099C34.4069 9.62379 34.4499 9.74963 34.4673 9.8802C34.4846 10.0108 34.4761 10.1435 34.442 10.2707C34.408 10.3979 34.3491 10.5172 34.2689 10.6216C34.1886 10.7261 34.0885 10.8136 33.9743 10.8792C33.8601 10.9449 33.734 10.9873 33.6034 11.0041C33.4727 11.0208 33.3401 11.0116 33.213 10.977Z" fill="#6D6E71"/>
<path d="M23.348 4.361L21.415 3.843L21.674 2.878L15.879 1.325L15.62 2.291L13.688 1.773C13.1756 1.63561 12.6296 1.70741 12.1701 1.97259C11.7107 2.23776 11.3754 2.6746 11.238 3.187C11.1006 3.6994 11.1724 4.24538 11.4376 4.70485C11.7028 5.16431 12.1396 5.49962 12.652 5.637L22.312 8.225C22.8244 8.36238 23.3704 8.29059 23.8298 8.02541C24.2893 7.76023 24.6246 7.3234 24.762 6.811C24.8994 6.2986 24.8276 5.75261 24.5624 5.29315C24.2972 4.83368 23.8604 4.49838 23.348 4.361Z" fill="#A7A9AC"/>
<path d="M13.877 4.931C13.7274 5.42939 13.3896 5.8499 12.9351 6.10336C12.4807 6.35681 11.9454 6.42327 11.4427 6.28864C10.9401 6.15401 10.5097 5.82887 10.2428 5.38219C9.97585 4.93551 9.89344 4.40243 10.013 3.896C10.1626 3.39761 10.5004 2.97709 10.9549 2.72364C11.4093 2.47018 11.9446 2.40372 12.4473 2.53836C12.9499 2.67299 13.3803 2.99813 13.6472 3.44481C13.9142 3.89148 13.9966 4.42457 13.877 4.931ZM25.469 8.036C25.4052 8.29413 25.2905 8.53694 25.1317 8.75023C24.9729 8.96352 24.7732 9.14301 24.5442 9.27819C24.3153 9.41337 24.0616 9.50153 23.7982 9.53752C23.5347 9.57351 23.2667 9.55661 23.0099 9.48779C22.753 9.41897 22.5125 9.29963 22.3023 9.13674C22.0921 8.97386 21.9166 8.77069 21.7858 8.53914C21.6551 8.30758 21.5719 8.05229 21.541 7.78818C21.5101 7.52407 21.5322 7.25646 21.606 7.001C21.7513 6.49784 22.0882 6.07175 22.5443 5.81429C23.0003 5.55683 23.5392 5.48853 24.0451 5.62406C24.551 5.7596 24.9835 6.08817 25.2497 6.53916C25.516 6.99015 25.5947 7.52759 25.469 8.036Z" fill="#808285"/>
<path d="M6 32C6 33.0609 6.42143 34.0783 7.17157 34.8284C7.92172 35.5786 8.93913 36 10 36H26C27.0609 36 28.0783 35.5786 28.8284 34.8284C29.5786 34.0783 30 33.0609 30 32V27H6V32ZM26 14H10C8.523 14 7.248 14.809 6.555 16H29.445C28.752 14.809 27.477 14 26 14Z" fill="#DD2E44"/>
<path d="M6 18H30V27H6V18Z" fill="#88C9F9"/>
<path d="M6.555 16C6.19525 16.6054 6.00365 17.2958 6 18H30C30 17.268 29.789 16.59 29.445 16H6.555Z" fill="#55ACEE"/>
<path d="M12 16H14V27H12V16ZM21 16H23V27H21V16Z" fill="#231F20"/>
</svg>
