<svg width="36" height="36" viewBox="0 0 36 36" fill="none" xmlns="http://www.w3.org/2000/svg">
<g clip-path="url(#clip0_2_33)">
<path d="M22 33C22 35.209 20.209 36 18 36C15.791 36 14 35.209 14 33L15 24C15 21.791 15.791 22 18 22C20.209 22 21 21.791 21 24L22 33Z" fill="#662113"/>
<path d="M34 17C34 25.837 26.837 29 18 29C9.164 29 2 25.837 2 17C2 8.164 11 0 18 0C25 0 34 8.164 34 17Z" fill="#5C913B"/>
<path d="M6 22C7.10457 22 8 21.5523 8 21C8 20.4477 7.10457 20 6 20C4.89543 20 4 20.4477 4 21C4 21.5523 4.89543 22 6 22Z" fill="#3E721D"/>
<path d="M30 22C31.1046 22 32 21.5523 32 21C32 20.4477 31.1046 20 30 20C28.8954 20 28 20.4477 28 21C28 21.5523 28.8954 22 30 22Z" fill="#3E721D"/>
<path d="M10 26C11.1046 26 12 25.5523 12 25C12 24.4477 11.1046 24 10 24C8.89543 24 8 24.4477 8 25C8 25.5523 8.89543 26 10 26Z" fill="#3E721D"/>
<path d="M14 23C15.1046 23 16 22.5523 16 22C16 21.4477 15.1046 21 14 21C12.8954 21 12 21.4477 12 22C12 22.5523 12.8954 23 14 23Z" fill="#3E721D"/>
<path d="M10 17C11.1046 17 12 16.5523 12 16C12 15.4477 11.1046 15 10 15C8.89543 15 8 15.4477 8 16C8 16.5523 8.89543 17 10 17Z" fill="#3E721D"/>
<path d="M7 13C8.10457 13 9 12.5523 9 12C9 11.4477 8.10457 11 7 11C5.89543 11 5 11.4477 5 12C5 12.5523 5.89543 13 7 13Z" fill="#3E721D"/>
<path d="M29 13C30.1046 13 31 12.5523 31 12C31 11.4477 30.1046 11 29 11C27.8954 11 27 11.4477 27 12C27 12.5523 27.8954 13 29 13Z" fill="#3E721D"/>
<path d="M14 11C15.1046 11 16 10.5523 16 10C16 9.44772 15.1046 9 14 9C12.8954 9 12 9.44772 12 10C12 10.5523 12.8954 11 14 11Z" fill="#3E721D"/>
<path d="M22 11C23.1046 11 24 10.5523 24 10C24 9.44772 23.1046 9 22 9C20.8954 9 20 9.44772 20 10C20 10.5523 20.8954 11 22 11Z" fill="#3E721D"/>
<path d="M26 17C27.1046 17 28 16.5523 28 16C28 15.4477 27.1046 15 26 15C24.8954 15 24 15.4477 24 16C24 16.5523 24.8954 17 26 17Z" fill="#3E721D"/>
<path d="M18 18C19.1046 18 20 17.5523 20 17C20 16.4477 19.1046 16 18 16C16.8954 16 16 16.4477 16 17C16 17.5523 16.8954 18 18 18Z" fill="#3E721D"/>
<path d="M22 23C23.1046 23 24 22.5523 24 22C24 21.4477 23.1046 21 22 21C20.8954 21 20 21.4477 20 22C20 22.5523 20.8954 23 22 23Z" fill="#3E721D"/>
<path d="M18 27C19.1046 27 20 26.5523 20 26C20 25.4477 19.1046 25 18 25C16.8954 25 16 25.4477 16 26C16 26.5523 16.8954 27 18 27Z" fill="#3E721D"/>
<path d="M26 26C27.1046 26 28 25.5523 28 25C28 24.4477 27.1046 24 26 24C24.8954 24 24 24.4477 24 25C24 25.5523 24.8954 26 26 26Z" fill="#3E721D"/>
</g>
<defs>
<clipPath id="clip0_2_33">
<rect width="36" height="36" fill="white"/>
</clipPath>
</defs>
</svg>
