<svg width="36" height="36" viewBox="0 0 36 36" fill="none" xmlns="http://www.w3.org/2000/svg">
<path d="M26.2602 16.758C25.9438 15.1332 25.2446 13.6226 24.2383 12.3893C23.7685 11.8136 23.9303 10.953 24.5762 10.5867L27.777 8.77163C29.6415 7.71321 32.0205 8.36944 33.0796 10.235C34.1367 12.1027 33.4796 14.4812 31.6154 15.5384L28.0304 17.5724C27.3205 17.9752 26.4175 17.5659 26.2602 16.758Z" fill="#F3B73F"/>
<path d="M27.5465 29.0286L24.4079 27.1524C23.7706 26.7714 23.6293 25.908 24.1107 25.3436C25.1429 24.1335 25.8723 22.6379 26.2199 21.0184C26.3923 20.2156 27.3042 19.8186 28.0092 20.2403L31.5382 22.3506C33.3787 23.451 33.9811 25.8443 32.8809 27.6857C32.8808 27.6858 32.8807 27.686 32.8807 27.6861C31.7805 29.5252 29.3879 30.1288 27.5465 29.0286Z" fill="#F3B73F"/>
<path d="M20.7989 9.83524C19.0437 9.14407 17.055 9.10519 15.2013 9.83524C14.414 10.1454 13.5614 9.56334 13.5614 8.71861V4.43855C13.5614 1.99118 15.5526 0 18.0001 0C20.4477 0 22.4387 1.99118 22.4387 4.43855V8.71861C22.4387 9.56348 21.5859 10.1454 20.7989 9.83524Z" fill="#FFC843"/>
<path d="M18.0001 0C18 0 18 0 17.9999 0V9.30305C18.961 9.30326 19.9098 9.48523 20.7989 9.83531C21.5859 10.1454 22.4388 9.56355 22.4388 8.71868V4.43855C22.4387 1.99118 20.4476 0 18.0001 0Z" fill="#F3B73F"/>
<path d="M7.96977 17.5724L4.38461 15.5383C2.5207 14.4813 1.86349 12.1028 2.91986 10.2364C3.97968 8.36958 6.35863 7.71328 8.22374 8.77198L11.424 10.5867C12.0705 10.9534 12.2313 11.8141 11.7619 12.3893C10.7555 13.6226 10.0564 15.1332 9.74003 16.758C9.58232 17.5671 8.67803 17.9743 7.96977 17.5724Z" fill="#FFC843"/>
<path d="M3.11962 27.686C2.01916 25.8443 2.62153 23.451 4.46217 22.3505L7.99101 20.2403C8.69569 19.8189 9.60785 20.2152 9.78026 21.0184C10.1279 22.638 10.8572 24.1336 11.8896 25.3436C12.3715 25.9085 12.2291 26.7718 11.5924 27.1524L8.45409 29.0285C6.61275 30.1284 4.22008 29.5261 3.11962 27.686Z" fill="#FFC843"/>
<path d="M16.9086 35.3002L14.2943 29.5797C13.8641 28.6384 14.7532 27.6275 15.7419 27.9349C17.1859 28.3837 18.7649 28.399 20.2581 27.9349C21.2467 27.6279 22.1361 28.6379 21.7058 29.5797L19.0914 35.3002C18.6656 36.2323 17.3354 36.2343 16.9086 35.3002Z" fill="#FFC843"/>
<path d="M20.2582 27.9349C19.5176 28.1651 18.7559 28.2771 18 28.277V36C18.4393 35.9999 18.8786 35.7664 19.0915 35.3002L21.7059 29.5797C22.1363 28.6379 21.2468 27.628 20.2582 27.9349Z" fill="#F3B73F"/>
<path d="M18.0002 30.6774C11.9909 30.6774 7.14537 25.3429 7.14537 18.79C7.14537 10.5489 14.6219 4.82309 21.6784 7.60226C25.8533 9.24848 28.8549 13.6247 28.8549 18.79C28.8549 25.3666 23.9878 30.6774 18.0002 30.6774Z" fill="#95D600"/>
<path d="M17.9999 6.89302V30.6774C18 30.6774 18 30.6774 18.0001 30.6774C23.9877 30.6774 28.8548 25.3666 28.8548 18.79C28.8548 12.0702 23.8394 6.89449 17.9999 6.89302Z" fill="#7EC60F"/>
<path d="M27.0304 25.3893C27.4461 24.7077 27.7953 23.9801 28.074 23.2204L23.4811 20.5687V17.0111L28.0739 14.3594C27.7952 13.6001 27.4449 12.8732 27.0292 12.1913L22.281 14.9327L19.2 13.1539V6.97444C18.4244 6.88099 17.6194 6.87572 16.7999 6.97444V13.1537L13.719 14.9325L8.97082 12.1911C8.55506 12.873 8.20476 13.5998 7.92597 14.3592L12.5189 17.0109V20.5685L7.9259 23.2203C8.20469 23.98 8.55386 24.7075 8.96948 25.3891L13.7189 22.647L16.7998 24.4257V30.6041C17.6069 30.7014 18.3918 30.7015 19.2 30.6041V24.4257L22.2809 22.647L27.0304 25.3893ZM21.081 20.5687L18.0001 22.3475L14.9191 20.5687V17.0111L18.0001 15.2323L21.081 17.0111V20.5687Z" fill="#7EC60F"/>
<path d="M23.4811 20.5687V17.0111L28.074 14.3594C27.7953 13.6 27.4449 12.8731 27.0293 12.1912L22.281 14.9326L19.2001 13.1539V6.97444C18.807 6.92705 18.4062 6.90258 17.9999 6.90258V15.2324L18 15.2323L21.081 17.0111V20.5687L18 22.3474L17.9999 22.3474V30.6773C18.3979 30.6773 18.7961 30.653 19.2001 30.6043V24.4259L22.281 22.6472L27.0304 25.3892C27.4461 24.7076 27.7953 23.98 28.074 23.2204L23.4811 20.5687Z" fill="#77BC1F"/>
</svg>
