<svg width="36" height="36" viewBox="0 0 36 36" fill="none" xmlns="http://www.w3.org/2000/svg">
<g clip-path="url(#clip0_2_18)">
<path d="M31 25H11V24C11 22.9391 10.5786 21.9217 9.82843 21.1716C9.07828 20.4214 8.06087 20 7 20H4C2.93913 20 1.92172 20.4214 1.17157 21.1716C0.421427 21.9217 0 22.9391 0 24L0 27C0 28.0609 0.421427 29.0783 1.17157 29.8284C1.92172 30.5786 2.93913 31 4 31H32C33.0609 31 34.0783 30.5786 34.8284 29.8284C35.5786 29.0783 36 28.0609 36 27V25H31Z" fill="#99AAB5"/>
<path d="M10 12H7.146C4 12 3 14 3 14L0 19.959V25H13V15C13 14.2044 12.6839 13.4413 12.1213 12.8787C11.5587 12.3161 10.7956 12 10 12Z" fill="#FFCC4D"/>
<path d="M9 20H2L4 16C4 16 5 14 7 14H9V20Z" fill="#55ACEE"/>
<path d="M6 35C8.20914 35 10 33.2091 10 31C10 28.7909 8.20914 27 6 27C3.79086 27 2 28.7909 2 31C2 33.2091 3.79086 35 6 35Z" fill="#292F33"/>
<path d="M6 33C7.10457 33 8 32.1046 8 31C8 29.8954 7.10457 29 6 29C4.89543 29 4 29.8954 4 31C4 32.1046 4.89543 33 6 33Z" fill="#CCD6DD"/>
<path d="M30 35C32.2091 35 34 33.2091 34 31C34 28.7909 32.2091 27 30 27C27.7909 27 26 28.7909 26 31C26 33.2091 27.7909 35 30 35Z" fill="#292F33"/>
<path d="M30 33C31.1046 33 32 32.1046 32 31C32 29.8954 31.1046 29 30 29C28.8954 29 28 29.8954 28 31C28 32.1046 28.8954 33 30 33Z" fill="#CCD6DD"/>
<path d="M20 35C22.2091 35 24 33.2091 24 31C24 28.7909 22.2091 27 20 27C17.7909 27 16 28.7909 16 31C16 33.2091 17.7909 35 20 35Z" fill="#292F33"/>
<path d="M20 33C21.1046 33 22 32.1046 22 31C22 29.8954 21.1046 29 20 29C18.8954 29 18 29.8954 18 31C18 32.1046 18.8954 33 20 33Z" fill="#CCD6DD"/>
<path d="M32 8H19C17.9391 8 16.9217 8.42143 16.1716 9.17157C15.4214 9.92172 15 10.9391 15 12V25H36V12C36 10.9391 35.5786 9.92172 34.8284 9.17157C34.0783 8.42143 33.0609 8 32 8Z" fill="#77B255"/>
</g>
<defs>
<clipPath id="clip0_2_18">
<rect width="36" height="36" fill="white"/>
</clipPath>
</defs>
</svg>
