<svg width="36" height="36" viewBox="0 0 36 36" fill="none" xmlns="http://www.w3.org/2000/svg">
<path d="M27.843 11.9C28.048 11.529 28.233 11.134 28.391 10.717C29.6 7.53 28.858 4.294 26.733 3.488C25.145 2.886 23.234 3.814 21.865 5.652C21.468 4.511 21.317 3.443 21.773 3H13.545C14 3.443 13.849 4.511 13.452 5.652C12.083 3.814 10.172 2.886 8.58399 3.488C6.45899 4.294 5.71599 7.53 6.92499 10.717C7.08299 11.135 7.26899 11.529 7.47299 11.9C6.28899 13.066 5.31599 14.779 5.31599 17.463C5.31599 23.633 13.543 30.853 14.572 32.91C14.446 32.955 20.869 32.955 20.743 32.91C21.773 30.852 30 23.633 30 17.462C30 14.779 29.027 13.066 27.843 11.9ZM11.488 9.214C11.106 9.596 10.155 9.982 9.11099 10.632C8.99562 10.4295 8.89567 10.2185 8.81199 10.001C8.19499 8.377 8.57499 6.729 9.65699 6.318C10.588 5.964 11.733 6.647 12.429 7.877C12.094 8.462 11.756 8.946 11.488 9.214ZM26.505 10.001C26.4211 10.2188 26.3212 10.43 26.206 10.633C25.162 9.983 24.211 9.597 23.829 9.215C23.561 8.947 23.223 8.462 22.889 7.878C23.584 6.648 24.73 5.965 25.661 6.319C26.742 6.729 27.122 8.377 26.505 10.001Z" fill="#C1694F"/>
<path d="M18.546 31.747H16.63C14.573 31.747 11.488 32.718 11.488 34.774C11.488 35.803 15.43 35.917 17.573 35.917H17.605C19.748 35.917 23.689 35.804 23.689 34.774C23.688 32.718 20.604 31.747 18.546 31.747ZM30 17.462C30 14.851 29.077 13.163 27.937 12H7.38C6.24 13.163 5.317 14.852 5.317 17.462C5.317 18.943 5.798 20.484 6.533 22H28.784C29.519 20.484 30 18.943 30 17.462ZM23.688 1.373C23.688 0.362 19.88 0.214 17.716 0.209H17.6C15.436 0.214 11.628 0.361 11.628 1.373C11.628 3.386 15.424 4.315 17.515 4.355H17.8C19.893 4.314 23.688 3.385 23.688 1.373Z" fill="#272B2B"/>
<path d="M13.031 20H10.46C10.176 20 9.946 19.784 9.946 19.5C9.946 19.216 10.176 19 10.46 19H13V15H9V16H11.488C11.772 16 12.002 16.216 12.002 16.5C12.002 16.784 11.772 17 11.488 17H9.062C8.521 17 8 16.854 8 16.229V14.914C8 14.188 8.604 14 8.888 14H13.031C13.729 14 14 14.479 14 14.915V19.029C14 19.646 13.542 20 13.031 20ZM27.031 20H24.459C24.176 20 23.945 19.784 23.945 19.5C23.945 19.216 24.176 19 24.459 19H27V15H23V16H25.488C25.771 16 26.002 16.216 26.002 16.5C26.002 16.784 25.771 17 25.488 17H23.062C22.521 17 22 16.854 22 16.229V14.914C22 14.188 22.604 14 22.889 14H27.032C27.729 14 28 14.479 28 14.915V19.029C28 19.646 27.542 20 27.031 20ZM20.031 20H17.459C17.176 20 16.945 19.784 16.945 19.5C16.945 19.216 17.176 19 17.459 19H20V15H16V16H18.488C18.771 16 19.002 16.216 19.002 16.5C19.002 16.784 18.771 17 18.488 17H16.062C15.521 17 15 16.854 15 16.229V14.914C15 14.188 15.604 14 15.889 14H20.032C20.729 14 21 14.479 21 14.915V19.029C21 19.646 20.542 20 20.031 20Z" fill="#C1694F"/>
</svg>
