<svg width="64" height="64" viewBox="0 0 64 64" fill="none" xmlns="http://www.w3.org/2000/svg">
<path d="M55.52 39.84C55.52 52.21 44.37 60 32 60C19.63 60 8.48 52.21 8.48 39.84C8.48 27.47 19.63 4 32 4C44.37 4 55.52 27.47 55.52 39.84Z" fill="black"/>
<path d="M34.87 23.11C35.2428 22.7259 35.689 22.4206 36.1819 22.2121C36.6749 22.0037 37.2047 21.8962 37.74 21.8962C38.2753 21.8962 38.8051 22.0037 39.2981 22.2121C39.791 22.4206 40.2372 22.7259 40.61 23.11L47.53 30C48.4863 30.958 49.0234 32.2564 49.0234 33.61C49.0234 34.9636 48.4863 36.262 47.53 37.22L43.17 41.57C41.7352 43.0129 40.9298 44.9651 40.93 47C40.93 49.2022 40.0559 51.3144 38.4996 52.8725C36.9433 54.4307 34.8322 55.3073 32.63 55.31H31.37C29.1678 55.3073 27.0567 54.4307 25.5004 52.8725C23.9441 51.3144 23.07 49.2022 23.07 47C23.0675 44.9686 22.2624 43.0205 20.83 41.58L16.47 37.23C15.5137 36.272 14.9766 34.9736 14.9766 33.62C14.9766 32.2664 15.5137 30.968 16.47 30.01L23.39 23.1C23.7628 22.7159 24.209 22.4106 24.7019 22.2021C25.1949 21.9937 25.7247 21.8862 26.26 21.8862C26.7953 21.8862 27.3251 21.9937 27.8181 22.2021C28.311 22.4106 28.7572 22.7159 29.13 23.1C29.8913 23.8598 30.9224 24.2873 31.9979 24.2892C33.0735 24.291 34.1061 23.8671 34.87 23.11Z" fill="#87868A"/>
<path d="M25.5 35C26.3284 35 27 34.3284 27 33.5C27 32.6716 26.3284 32 25.5 32C24.6716 32 24 32.6716 24 33.5C24 34.3284 24.6716 35 25.5 35Z" fill="#2D2D2D"/>
<path d="M38.5 35C39.3284 35 40 34.3284 40 33.5C40 32.6716 39.3284 32 38.5 32C37.6716 32 37 32.6716 37 33.5C37 34.3284 37.6716 35 38.5 35Z" fill="#2D2D2D"/>
<path d="M36 51H28C27.7348 51 27.4804 50.8946 27.2929 50.7071C27.1054 50.5196 27 50.2652 27 50C27 49.7348 27.1054 49.4804 27.2929 49.2929C27.4804 49.1054 27.7348 49 28 49H36C36.2652 49 36.5196 49.1054 36.7071 49.2929C36.8946 49.4804 37 49.7348 37 50C37 50.2652 36.8946 50.5196 36.7071 50.7071C36.5196 50.8946 36.2652 51 36 51ZM30 45C29.7348 45 29.4804 44.8946 29.2929 44.7071C29.1054 44.5196 29 44.2652 29 44V43C29 42.7348 29.1054 42.4804 29.2929 42.2929C29.4804 42.1054 29.7348 42 30 42C30.2652 42 30.5196 42.1054 30.7071 42.2929C30.8946 42.4804 31 42.7348 31 43V44C31 44.2652 30.8946 44.5196 30.7071 44.7071C30.5196 44.8946 30.2652 45 30 45ZM34 45C33.7348 45 33.4804 44.8946 33.2929 44.7071C33.1054 44.5196 33 44.2652 33 44V43C33 42.7348 33.1054 42.4804 33.2929 42.2929C33.4804 42.1054 33.7348 42 34 42C34.2652 42 34.5196 42.1054 34.7071 42.2929C34.8946 42.4804 35 42.7348 35 43V44C35 44.2652 34.8946 44.5196 34.7071 44.7071C34.5196 44.8946 34.2652 45 34 45Z" fill="#434347"/>
</svg>
