<svg width="64" height="64" viewBox="0 0 64 64" fill="none" xmlns="http://www.w3.org/2000/svg">
<path d="M53 56L32 61L11 56L13.27 33.91C13.6823 29.8559 15.4 26.0453 18.1647 23.0516C20.9294 20.0579 24.5915 18.043 28.6 17.31C30.8478 16.8967 33.1522 16.8967 35.4 17.31C39.4085 18.043 43.0706 20.0579 45.8353 23.0516C48.6 26.0453 50.3177 29.8559 50.73 33.91L53 56Z" fill="#EAEAEA"/>
<path d="M24.5 35C25.3284 35 26 34.3284 26 33.5C26 32.6716 25.3284 32 24.5 32C23.6716 32 23 32.6716 23 33.5C23 34.3284 23.6716 35 24.5 35Z" fill="#2D2D2D"/>
<path d="M39.5 35C40.3284 35 41 34.3284 41 33.5C41 32.6716 40.3284 32 39.5 32C38.6716 32 38 32.6716 38 33.5C38 34.3284 38.6716 35 39.5 35Z" fill="#2D2D2D"/>
<path d="M28.6 17.31C25.6978 17.8421 22.9613 19.0488 20.6112 20.8327C18.261 22.6166 16.3629 24.9278 15.07 27.58C15.02 26.58 15 25.58 15 24.5C15 12.63 18.13 3 22 3C25.05 3 27.64 9 28.6 17.31ZM49 24.5C49 25.5 49 26.57 48.93 27.58C47.6384 24.9269 45.7407 22.6148 43.3903 20.8308C41.0399 19.0467 38.3027 17.8406 35.4 17.31C36.36 9 39 3 42 3C45.87 3 49 12.63 49 24.5ZM28 56C27.1958 55.9847 26.4083 55.768 25.7095 55.3697C25.0107 54.9714 24.4229 54.4042 24 53.72L21.19 49.23C20.9572 48.858 20.6347 48.5504 20.252 48.3355C19.8694 48.1205 19.4388 48.0052 19 48C18.7348 48 18.4804 47.8946 18.2929 47.7071C18.1054 47.5196 18 47.2652 18 47C18 46.7348 18.1054 46.4804 18.2929 46.2929C18.4804 46.1054 18.7348 46 19 46C19.7829 45.9974 20.5533 46.1955 21.2378 46.5754C21.9224 46.9553 22.4981 47.5043 22.91 48.17L25.72 52.66C25.9615 53.0527 26.2957 53.3802 26.6932 53.6138C27.0907 53.8475 27.5394 53.98 28 54C28.2652 54 28.5196 54.1054 28.7071 54.2929C28.8946 54.4804 29 54.7348 29 55C29 55.2652 28.8946 55.5196 28.7071 55.7071C28.5196 55.8946 28.2652 56 28 56ZM32 56C31.7348 56 31.4804 55.8946 31.2929 55.7071C31.1054 55.5196 31 55.2652 31 55V51C31 50.7348 31.1054 50.4804 31.2929 50.2929C31.4804 50.1054 31.7348 50 32 50C32.2652 50 32.5196 50.1054 32.7071 50.2929C32.8946 50.4804 33 50.7348 33 51V55C33 55.2652 32.8946 55.5196 32.7071 55.7071C32.5196 55.8946 32.2652 56 32 56ZM36 56C35.7348 56 35.4804 55.8946 35.2929 55.7071C35.1054 55.5196 35 55.2652 35 55C35 54.7348 35.1054 54.4804 35.2929 54.2929C35.4804 54.1054 35.7348 54 36 54C36.4649 53.986 36.919 53.8572 37.3221 53.6252C37.7251 53.3931 38.0645 53.065 38.31 52.67L41.12 48.18C41.5281 47.5167 42.0985 46.9685 42.7774 46.587C43.4563 46.2056 44.2213 46.0035 45 46C45.2652 46 45.5196 46.1054 45.7071 46.2929C45.8946 46.4804 46 46.7348 46 47C46 47.2652 45.8946 47.5196 45.7071 47.7071C45.5196 47.8946 45.2652 48 45 48C44.5578 48.0018 44.1232 48.1156 43.7367 48.3307C43.3503 48.5457 43.0246 48.8551 42.79 49.23L40 53.72C39.5771 54.4042 38.9893 54.9714 38.2905 55.3697C37.5917 55.768 36.8042 55.9847 36 56V56Z" fill="#AEADB3"/>
<path d="M28.14 56H28C27.8687 55.9908 27.7405 55.9558 27.6226 55.8971C27.5048 55.8383 27.3998 55.757 27.3134 55.6576C27.227 55.5582 27.1611 55.4428 27.1193 55.318C27.0776 55.1932 27.0608 55.0613 27.07 54.93C27.0792 54.7987 27.1142 54.6704 27.1729 54.5526C27.2317 54.4348 27.313 54.3297 27.4124 54.2434C27.5117 54.157 27.6271 54.0911 27.752 54.0493C27.8768 54.0076 28.0087 53.9908 28.14 54V54H28.34C28.5748 54.0405 28.7874 54.1634 28.9396 54.3468C29.0918 54.5301 29.1735 54.7618 29.17 55C29.1701 55.1339 29.1432 55.2664 29.0911 55.3897C29.039 55.5131 28.9626 55.6247 28.8666 55.7179C28.7705 55.8112 28.6567 55.8842 28.5319 55.9327C28.4071 55.9811 28.2738 56.004 28.14 56V56ZM36 56H35.86C35.5948 56 35.3404 55.8946 35.1529 55.7071C34.9654 55.5196 34.86 55.2652 34.86 55C34.86 54.7348 34.9654 54.4804 35.1529 54.2929C35.3404 54.1053 35.5948 54 35.86 54C36.0005 53.9709 36.1458 53.9747 36.2846 54.0112C36.4234 54.0476 36.5519 54.1156 36.66 54.21C36.7719 54.3081 36.8604 54.4299 36.9193 54.5666C36.9781 54.7032 37.0057 54.8513 37 55C37 55.2652 36.8946 55.5196 36.7071 55.7071C36.5196 55.8946 36.2652 56 36 56Z" fill="#AEADB3"/>
<path d="M36 56H28C27.7348 56 27.4804 55.8946 27.2929 55.7071C27.1054 55.5196 27 55.2652 27 55C27 54.7348 27.1054 54.4804 27.2929 54.2929C27.4804 54.1054 27.7348 54 28 54H36C36.2652 54 36.5196 54.1054 36.7071 54.2929C36.8946 54.4804 37 54.7348 37 55C37 55.2652 36.8946 55.5196 36.7071 55.7071C36.5196 55.8946 36.2652 56 36 56Z" fill="#AEADB3"/>
<path d="M36 48.33C36 48.97 35.36 49.56 34.55 49.98C33.7618 50.3966 32.8907 50.6323 32 50.67C30.53 50.67 28 49.62 28 48.33C28.0023 48.0153 28.0744 47.7049 28.211 47.4214C28.3476 47.1378 28.5453 46.888 28.79 46.69C29.3102 46.2361 29.9797 45.9904 30.67 46H33.33C33.9921 45.9587 34.6439 46.1802 35.1437 46.6164C35.6436 47.0526 35.9513 47.6684 36 48.33V48.33Z" fill="#3E2C27"/>
</svg>
