<svg width="64" height="64" viewBox="0 0 64 64" fill="none" xmlns="http://www.w3.org/2000/svg">
<path d="M57 40.26C57 54.07 45.81 57 32 57C18.19 57 7 54.07 7 40.26C7 34.17 9.18 23.76 12.81 18.49C13.24 17.86 13.69 17.25 14.16 16.65C16.0294 14.273 18.2638 12.2073 20.78 10.53C21.7652 9.87395 22.8019 9.29874 23.88 8.81001C26.421 7.61804 29.1933 7.00012 32 7.00012C34.8067 7.00012 37.579 7.61804 40.12 8.81001C41.1981 9.29874 42.2348 9.87395 43.22 10.53C45.7362 12.2073 47.9706 14.273 49.84 16.65C50.31 17.25 50.76 17.86 51.19 18.49C54.82 23.76 57 34.17 57 40.26Z" fill="#965500"/>
<path d="M53 12C53.0002 13.0026 52.699 13.982 52.1355 14.8112C51.572 15.6404 50.7722 16.2811 49.84 16.65C47.9706 14.273 45.7362 12.2073 43.22 10.53C43.5714 9.38487 44.3223 8.40393 45.3359 7.7657C46.3496 7.12746 47.5587 6.87433 48.7432 7.05238C49.9277 7.23042 51.009 7.8278 51.7902 8.73583C52.5715 9.64385 53.0008 10.8022 53 12V12ZM20.78 10.53C18.2638 12.2073 16.0294 14.273 14.16 16.65C13.374 16.3386 12.6798 15.8331 12.1422 15.1805C11.6047 14.528 11.2414 13.7498 11.0863 12.9187C10.9312 12.0877 10.9893 11.2308 11.2553 10.4283C11.5213 9.62583 11.9865 8.90388 12.6073 8.32997C13.228 7.75607 13.9842 7.34895 14.8051 7.14666C15.626 6.94438 16.4847 6.95355 17.3011 7.17331C18.1175 7.39307 18.8648 7.81625 19.4732 8.40327C20.0816 8.9903 20.5312 9.72202 20.78 10.53V10.53ZM36.53 51H27.47C26.9056 51.0034 26.3468 50.8874 25.8304 50.6594C25.314 50.4315 24.8517 50.0968 24.4739 49.6774C24.0961 49.258 23.8113 48.7635 23.6383 48.2262C23.4652 47.6889 23.4079 47.121 23.47 46.56L24.21 39.96C24.3652 38.5587 24.8959 37.2253 25.746 36.1006C26.5962 34.9759 27.7342 34.1016 29.04 33.57C29.0474 33.6258 29.0643 33.6799 29.09 33.73C29.2269 34.015 29.4609 34.2419 29.75 34.37L31.98 35.37L34.21 34.37C34.4991 34.2419 34.7331 34.015 34.87 33.73C34.8788 33.677 34.8788 33.623 34.87 33.57C36.1932 34.0965 37.3482 34.9731 38.2114 36.1057C39.0745 37.2384 39.6133 38.5846 39.77 40L40.51 46.6C40.5659 47.1562 40.5046 47.718 40.33 48.2491C40.1555 48.7801 39.8715 49.2687 39.4965 49.6833C39.1215 50.0979 38.6638 50.4293 38.1528 50.6561C37.6419 50.8828 37.089 51 36.53 51V51Z" fill="#703F00"/>
<path d="M32 46C31.7348 46 31.4804 45.8946 31.2929 45.7071C31.1054 45.5196 31 45.2652 31 45V34C31 33.7348 31.1054 33.4804 31.2929 33.2929C31.4804 33.1054 31.7348 33 32 33C32.2652 33 32.5196 33.1054 32.7071 33.2929C32.8946 33.4804 33 33.7348 33 34V45C33 45.2652 32.8946 45.5196 32.7071 45.7071C32.5196 45.8946 32.2652 46 32 46Z" fill="#3E2C27"/>
<path d="M29 48C28.7864 47.9983 28.5788 47.9283 28.4079 47.8001C28.2369 47.672 28.1115 47.4925 28.05 47.2878C27.9885 47.0832 27.9942 46.8643 28.0662 46.6631C28.1381 46.462 28.2727 46.2891 28.45 46.17L31.45 44.17C31.6696 44.0522 31.9252 44.0206 32.1668 44.0815C32.4084 44.1423 32.6187 44.2911 32.7563 44.4988C32.8939 44.7065 32.9491 44.9581 32.9109 45.2044C32.8727 45.4506 32.744 45.6737 32.55 45.83L29.55 47.83C29.389 47.9428 29.1966 48.0022 29 48V48Z" fill="#3E2C27"/>
<path d="M35 48C34.8034 48.0022 34.611 47.9428 34.45 47.83L31.45 45.83C31.256 45.6737 31.1273 45.4506 31.0891 45.2043C31.0509 44.9581 31.1061 44.7065 31.2437 44.4988C31.3813 44.2911 31.5916 44.1423 31.8332 44.0815C32.0748 44.0206 32.3304 44.0522 32.55 44.17L35.55 46.17C35.7273 46.2891 35.8619 46.462 35.9338 46.6631C36.0058 46.8643 36.0115 47.0832 35.95 47.2878C35.8885 47.4924 35.7631 47.672 35.5921 47.8001C35.4212 47.9283 35.2137 47.9983 35 48ZM35 33.26C34.9995 33.3661 34.9792 33.4713 34.94 33.57C34.9488 33.6229 34.9488 33.677 34.94 33.73C34.8031 34.015 34.5691 34.2419 34.28 34.37L32.05 35.37L29.82 34.37C29.5309 34.2419 29.2969 34.015 29.16 33.73C29.1343 33.6799 29.1174 33.6258 29.11 33.57C29.0708 33.4713 29.0505 33.3661 29.05 33.26C29.068 32.9178 29.2174 32.5957 29.4671 32.361C29.7167 32.1262 30.0473 31.9969 30.39 32H33.61C33.9612 31.9836 34.3045 32.107 34.565 32.3431C34.8255 32.5792 34.9819 32.9089 35 33.26V33.26Z" fill="#3E2C27"/>
</svg>
