<svg width="64" height="64" viewBox="0 0 64 64" fill="none" xmlns="http://www.w3.org/2000/svg">
<path d="M56.92 48.75L55.35 43.65C53.7914 38.5795 52.9993 33.3046 53 28V28C53 27.28 53 26.56 52.89 25.85C52.7334 24.2802 52.3979 22.7335 51.89 21.24C51.507 20.1226 51.0321 19.0389 50.47 18C48.8554 15.0273 46.5466 12.4886 43.74 10.6C43.18 10.22 42.61 9.86998 42.01 9.53998C38.937 7.884 35.5008 7.01709 32.01 7.01709C28.5192 7.01709 25.083 7.884 22.01 9.53998C21.41 9.86998 20.84 10.22 20.28 10.6C19.1624 11.35 18.1208 12.2074 17.17 13.16C15.2517 15.0743 13.7234 17.343 12.67 19.84C11.8559 21.7505 11.3366 23.7735 11.13 25.84C11 26.56 11 27.28 11 28C11.0007 33.3046 10.2086 38.5795 8.65 43.65L7.08 48.75C7.0291 48.9153 7.00216 49.087 7 49.26C7 49.4885 7.04501 49.7147 7.13245 49.9258C7.21989 50.137 7.34806 50.3288 7.50963 50.4903C7.67121 50.6519 7.86302 50.7801 8.07413 50.8675C8.28524 50.955 8.5115 51 8.74 51H11C12.2396 50.9986 13.4483 50.6132 14.46 49.897C15.4718 49.1807 16.2368 48.1687 16.65 47C16.8834 46.3591 17.0018 45.682 17 45V51C16.9997 51.782 17.3048 52.5331 17.8502 53.0935C18.3956 53.6539 19.1383 53.9791 19.92 54C20.846 54.0106 21.7648 53.8373 22.6234 53.4903C23.4819 53.1432 24.263 52.6293 24.9215 51.9782C25.5801 51.3272 26.1028 50.5519 26.4596 49.6974C26.8164 48.8428 27.0001 47.926 27 47V51.78C26.9751 53.0532 27.4219 54.2908 28.2545 55.2544C29.0871 56.2181 30.2466 56.8398 31.51 57C32.2066 57.0686 32.9098 56.9902 33.5742 56.7698C34.2386 56.5494 34.8493 56.192 35.3668 55.7207C35.8843 55.2494 36.2971 54.6747 36.5784 54.0337C36.8597 53.3928 37.0034 52.6999 37 52V47C36.9999 47.926 37.1836 48.8428 37.5404 49.6974C37.8972 50.5519 38.4199 51.3272 39.0785 51.9782C39.737 52.6293 40.5181 53.1432 41.3766 53.4903C42.2352 53.8373 43.154 54.0106 44.08 54C44.8617 53.9791 45.6044 53.6539 46.1498 53.0935C46.6952 52.5331 47.0003 51.782 47 51V45C46.9982 45.682 47.1166 46.3591 47.35 47C47.7632 48.1687 48.5282 49.1807 49.54 49.897C50.5517 50.6132 51.7604 50.9986 53 51H55.26C55.7215 51 56.1641 50.8167 56.4904 50.4903C56.8167 50.164 57 49.7215 57 49.26C56.9978 49.087 56.9709 48.9153 56.92 48.75Z" fill="#EAEAEA"/>
<path d="M38.3717 31.356L39.7506 32.7348C39.9381 32.9224 40.0435 33.1767 40.0435 33.4419C40.0435 33.7071 39.9381 33.9615 39.7506 34.149L31.9724 41.9272L24.2296 34.1844C24.042 33.9969 23.9367 33.7425 23.9367 33.4773C23.9367 33.2121 24.042 32.9577 24.2296 32.7702L25.6438 31.356C27.3316 29.6681 29.6208 28.7199 32.0078 28.7199C34.3947 28.7199 36.6839 29.6681 38.3717 31.356V31.356Z" fill="#BD7F00"/>
</svg>
