<svg width="64" height="64" viewBox="0 0 64 64" fill="none" xmlns="http://www.w3.org/2000/svg">
<path d="M24.31 12.46C20.3861 14.0042 17.0179 16.6939 14.644 20.179C12.27 23.6641 11.0003 27.7832 11 32V7.00002C15.9834 6.99211 20.7678 8.95476 24.31 12.46V12.46ZM53 7.00002V32C52.9997 27.7832 51.73 23.6641 49.356 20.179C46.9821 16.6939 43.6139 14.0042 39.69 12.46C43.2322 8.95476 48.0166 6.99211 53 7.00002V7.00002Z" fill="#BD7F00"/>
<path d="M53 32V41C53 45.2435 51.3143 49.3131 48.3137 52.3137C45.3131 55.3143 41.2435 57 37 57H27C22.7565 57 18.6869 55.3143 15.6863 52.3137C12.6857 49.3131 11 45.2435 11 41V32C11.0003 27.7832 12.27 23.6641 14.644 20.179C17.0179 16.6939 20.3861 14.0042 24.31 12.46L25 12.2C25.629 11.972 26.2699 11.7783 26.92 11.62C28.2565 11.2807 29.623 11.073 31 11H32H33C34.3763 11.0665 35.7428 11.2674 37.08 11.6C37.7304 11.7649 38.3714 11.9652 39 12.2L39.69 12.46C43.6139 14.0042 46.9821 16.6939 49.356 20.179C51.73 23.6641 52.9997 27.7832 53 32Z" fill="#FFAB00"/>
<path d="M43 40C42.7348 40.0385 42.4652 39.97 42.2504 39.8096C42.0357 39.6493 41.8935 39.4102 41.855 39.145C41.8165 38.8798 41.885 38.6102 42.0454 38.3954C42.2057 38.1807 42.4448 38.0385 42.71 38L55.71 34C55.8413 33.9619 55.9789 33.9501 56.1148 33.9651C56.2507 33.9802 56.3823 34.0219 56.502 34.0878C56.6218 34.1538 56.7275 34.2426 56.8129 34.3494C56.8983 34.4561 56.9619 34.5787 57 34.71C57.0381 34.8413 57.0499 34.9789 57.0349 35.1148C57.0198 35.2507 56.9781 35.3823 56.9122 35.502C56.8462 35.6218 56.7574 35.7275 56.6506 35.8129C56.5439 35.8983 56.4213 35.9619 56.29 36L43.29 40C43.1939 40.0153 43.0961 40.0153 43 40V40ZM21 40C20.9106 40.0146 20.8194 40.0146 20.73 40L6.73 36C6.59868 35.9645 6.47563 35.9036 6.36787 35.8206C6.26011 35.7375 6.16976 35.6341 6.10198 35.5162C6.03419 35.3983 5.99029 35.2681 5.9728 35.1332C5.9553 34.9983 5.96454 34.8613 6 34.73C6.03546 34.5987 6.09643 34.4756 6.17945 34.3679C6.26246 34.2601 6.36588 34.1698 6.48381 34.102C6.60174 34.0342 6.73187 33.9903 6.86677 33.9728C7.00166 33.9553 7.13868 33.9645 7.27 34L21.27 38C21.5352 38.0358 21.7753 38.1755 21.9376 38.3884C22.0998 38.6012 22.1708 38.8698 22.135 39.135C22.0992 39.4002 21.9595 39.6404 21.7466 39.8026C21.5338 39.9648 21.2652 40.0358 21 40V40ZM56 50C55.9039 50.0153 55.8061 50.0153 55.71 50L42.71 46C42.4448 45.9231 42.221 45.744 42.0878 45.502C41.9547 45.2601 41.9231 44.9752 42 44.71C42.0769 44.4448 42.256 44.221 42.498 44.0878C42.7399 43.9547 43.0248 43.9231 43.29 44L56.29 48C56.5552 48.0385 56.7943 48.1807 56.9546 48.3954C57.115 48.6102 57.1835 48.8798 57.145 49.145C57.1065 49.4102 56.9643 49.6493 56.7496 49.8096C56.5348 49.97 56.2652 50.0385 56 50V50ZM7 50C6.73479 50.0358 6.46621 49.9648 6.25335 49.8026C6.0405 49.6404 5.90081 49.4002 5.865 49.135C5.8292 48.8698 5.90022 48.6012 6.06244 48.3884C6.22465 48.1755 6.46479 48.0358 6.73 48L20.73 44C20.9952 43.9284 21.278 43.9651 21.5162 44.102C21.7544 44.2389 21.9284 44.4648 22 44.73C22.0716 44.9952 22.0349 45.278 21.898 45.5162C21.7611 45.7544 21.5352 45.9284 21.27 46L7.27 50C7.18059 50.0146 7.08941 50.0146 7 50V50ZM21 43H7C6.73479 43 6.48043 42.8946 6.2929 42.7071C6.10536 42.5196 6 42.2652 6 42C6 41.7348 6.10536 41.4804 6.2929 41.2929C6.48043 41.1054 6.73479 41 7 41H21C21.2652 41 21.5196 41.1054 21.7071 41.2929C21.8946 41.4804 22 41.7348 22 42C22 42.2652 21.8946 42.5196 21.7071 42.7071C21.5196 42.8946 21.2652 43 21 43ZM57 43H43C42.7348 43 42.4804 42.8946 42.2929 42.7071C42.1054 42.5196 42 42.2652 42 42C42 41.7348 42.1054 41.4804 42.2929 41.2929C42.4804 41.1054 42.7348 41 43 41H57C57.2652 41 57.5196 41.1054 57.7071 41.2929C57.8946 41.4804 58 41.7348 58 42C58 42.2652 57.8946 42.5196 57.7071 42.7071C57.5196 42.8946 57.2652 43 57 43Z" fill="#646467"/>
<path d="M32 48C31.7348 48 31.4804 47.8946 31.2929 47.7071C31.1054 47.5196 31 47.2652 31 47V42C31 41.7348 31.1054 41.4804 31.2929 41.2929C31.4804 41.1054 31.7348 41 32 41C32.2652 41 32.5196 41.1054 32.7071 41.2929C32.8946 41.4804 33 41.7348 33 42V47C33 47.2652 32.8946 47.5196 32.7071 47.7071C32.5196 47.8946 32.2652 48 32 48Z" fill="#BD7F00"/>
<path d="M32 43L29.77 41.81C29.5329 41.6792 29.336 41.4863 29.2003 41.2519C29.0646 41.0176 28.9954 40.7507 29 40.48V40.48C28.9933 40.2914 29.0241 40.1033 29.0905 39.9266C29.1568 39.7499 29.2575 39.5881 29.3868 39.4505C29.516 39.3129 29.6712 39.2023 29.8433 39.1249C30.0155 39.0476 30.2013 39.0052 30.39 39H33.61C33.7987 39.0052 33.9845 39.0476 34.1567 39.1249C34.3289 39.2023 34.484 39.3129 34.6133 39.4505C34.7425 39.5881 34.8432 39.7499 34.9096 39.9266C34.9759 40.1033 35.0067 40.2914 35 40.48V40.48C35.0046 40.7507 34.9354 41.0176 34.7997 41.2519C34.664 41.4863 34.4671 41.6792 34.23 41.81L32 43Z" fill="#3E2C27"/>
</svg>
