<svg width="64" height="64" viewBox="0 0 64 64" fill="none" xmlns="http://www.w3.org/2000/svg">
<path d="M51 47.5V49.5C51 51.4891 50.2098 53.3968 48.8033 54.8033C47.3968 56.2098 45.4891 57 43.5 57H20.5C18.5109 57 16.6032 56.2098 15.1967 54.8033C13.7902 53.3968 13 51.4891 13 49.5V47.5C13.0053 45.5125 13.7972 43.6079 15.2025 42.2025C16.6079 40.7971 18.5125 40.0053 20.5 40H43.5C45.4875 40.0053 47.3921 40.7971 48.7975 42.2025C50.2029 43.6079 50.9947 45.5125 51 47.5V47.5Z" fill="#EDCAD4"/>
<path d="M23.5 51C24.8807 51 26 49.8807 26 48.5C26 47.1193 24.8807 46 23.5 46C22.1193 46 21 47.1193 21 48.5C21 49.8807 22.1193 51 23.5 51Z" fill="#9D5B6E"/>
<path d="M40.5 51C41.8807 51 43 49.8807 43 48.5C43 47.1193 41.8807 46 40.5 46C39.1193 46 38 47.1193 38 48.5C38 49.8807 39.1193 51 40.5 51Z" fill="#9D5B6E"/>
<path d="M21.5 16L21.32 17.07C19.8729 18.2272 18.6698 19.6601 17.7806 21.2857C16.8914 22.9113 16.3338 24.6973 16.14 26.54C15.1216 26.8465 14.0636 27.0015 13 27H7C7 24.0826 8.15893 21.2847 10.2218 19.2218C12.2847 17.1589 15.0826 16 18 16H21.5Z" fill="#AEADB3"/>
<path d="M21.5 16L21.32 17.07C19.8729 18.2272 18.6698 19.6601 17.7806 21.2857C16.8914 22.9113 16.3338 24.6973 16.14 26.54C15.1216 26.8465 14.0636 27.0015 13 27H7C7 24.0826 8.15893 21.2847 10.2218 19.2218C12.2847 17.1589 15.0826 16 18 16H21.5ZM57 27H51C49.9364 27.0015 48.8784 26.8465 47.86 26.54C47.6662 24.6973 47.1086 22.9113 46.2194 21.2857C45.3302 19.6601 44.1271 18.2272 42.68 17.07L42.5 16H46C48.9174 16 51.7153 17.1589 53.7782 19.2218C55.8411 21.2847 57 24.0826 57 27Z" fill="#AEADB3"/>
<path d="M28.19 14.13C26.3041 14.3819 24.49 15.0184 22.86 16C22.3227 16.3209 21.8082 16.6784 21.32 17.07L21.5 16L22.67 8.99998C22.7592 8.44621 23.0426 7.9423 23.4696 7.57857C23.8966 7.21484 24.4391 7.01508 25 7.01508C25.5609 7.01508 26.1035 7.21484 26.5304 7.57857C26.9574 7.9423 27.2409 8.44621 27.33 8.99998L28.19 14.13Z" fill="#3E2C27"/>
<path d="M47.93 28V41.46C46.6493 40.5085 45.0955 39.9964 43.5 40H20.5C18.9046 39.9964 17.3507 40.5085 16.07 41.46V28C16.07 27.51 16.07 27 16.14 26.54C16.3338 24.6972 16.8914 22.9113 17.7806 21.2857C18.6698 19.6601 19.8729 18.2272 21.32 17.07C21.8082 16.6784 22.3227 16.3209 22.86 16C24.49 15.0184 26.3041 14.382 28.19 14.13C28.8127 14.0409 29.441 13.9974 30.07 14H33.93C34.559 13.9974 35.1873 14.0409 35.81 14.13C37.6959 14.382 39.5101 15.0184 41.14 16C41.6773 16.3209 42.1918 16.6784 42.68 17.07C44.1271 18.2272 45.3302 19.6601 46.2194 21.2857C47.1086 22.9113 47.6662 24.6972 47.86 26.54C47.9 27 47.93 27.51 47.93 28Z" fill="#EAEAEA"/>
<path d="M42.68 17.07C42.1918 16.6784 41.6773 16.3209 41.14 16C39.51 15.0184 37.6959 14.3819 35.81 14.13L36.67 8.99998C36.7591 8.44621 37.0426 7.9423 37.4696 7.57857C37.8965 7.21484 38.4391 7.01508 39 7.01508C39.5609 7.01508 40.1034 7.21484 40.5304 7.57857C40.9574 7.9423 41.2408 8.44621 41.33 8.99998L42.5 16L42.68 17.07Z" fill="#3E2C27"/>
</svg>
