<svg width="64" height="64" viewBox="0 0 64 64" fill="none" xmlns="http://www.w3.org/2000/svg">
<path d="M24 21H16C12.5522 21 9.24558 19.6304 6.80761 17.1924C4.36964 14.7544 3 11.4478 3 8C3 7.46957 3.21071 6.96086 3.58579 6.58579C3.96086 6.21071 4.46957 6 5 6C5.53043 6 6.03914 6.21071 6.41421 6.58579C6.78929 6.96086 7 7.46957 7 8C7 10.3869 7.94821 12.6761 9.63604 14.364C11.3239 16.0518 13.6131 17 16 17H24C24.5304 17 25.0391 17.2107 25.4142 17.5858C25.7893 17.9609 26 18.4696 26 19C26 19.5304 25.7893 20.0391 25.4142 20.4142C25.0391 20.7893 24.5304 21 24 21Z" fill="#3E2C27"/>
<path d="M24 21H16C12.5522 21 9.24558 19.6304 6.80761 17.1924C4.36964 14.7544 3 11.4478 3 8C3 7.46957 3.21071 6.96086 3.58579 6.58579C3.96086 6.21071 4.46957 6 5 6C5.53043 6 6.03914 6.21071 6.41421 6.58579C6.78929 6.96086 7 7.46957 7 8C7 10.3869 7.94821 12.6761 9.63604 14.364C11.3239 16.0518 13.6131 17 16 17H24C24.5304 17 25.0391 17.2107 25.4142 17.5858C25.7893 17.9609 26 18.4696 26 19C26 19.5304 25.7893 20.0391 25.4142 20.4142C25.0391 20.7893 24.5304 21 24 21Z" fill="#3E2C27"/>
<path d="M24 21C20.5522 21 17.2456 19.6304 14.8076 17.1924C12.3696 14.7544 11 11.4478 11 8C11 7.46957 11.2107 6.96086 11.5858 6.58579C11.9609 6.21071 12.4696 6 13 6C13.5304 6 14.0391 6.21071 14.4142 6.58579C14.7893 6.96086 15 7.46957 15 8C15 10.3869 15.9482 12.6761 17.636 14.364C19.3239 16.0518 21.6131 17 24 17C24.5304 17 25.0391 17.2107 25.4142 17.5858C25.7893 17.9609 26 18.4696 26 19C26 19.5304 25.7893 20.0391 25.4142 20.4142C25.0391 20.7893 24.5304 21 24 21Z" fill="#3E2C27"/>
<path d="M24 21C20.5522 21 17.2456 19.6304 14.8076 17.1924C12.3696 14.7544 11 11.4478 11 8C11 7.46957 11.2107 6.96086 11.5858 6.58579C11.9609 6.21071 12.4696 6 13 6C13.5304 6 14.0391 6.21071 14.4142 6.58579C14.7893 6.96086 15 7.46957 15 8C15 10.3869 15.9482 12.6761 17.636 14.364C19.3239 16.0518 21.6131 17 24 17C24.5304 17 25.0391 17.2107 25.4142 17.5858C25.7893 17.9609 26 18.4696 26 19C26 19.5304 25.7893 20.0391 25.4142 20.4142C25.0391 20.7893 24.5304 21 24 21Z" fill="#3E2C27"/>
<path d="M27 24C26.4696 24 25.9609 23.7893 25.5858 23.4142C25.2107 23.0391 25 22.5304 25 22C25 21.7348 24.8946 21.4804 24.7071 21.2929C24.5196 21.1054 24.2652 21 24 21C23.4696 21 22.9609 20.7893 22.5858 20.4142C22.2107 20.0391 22 19.5304 22 19C22 18.4696 22.2107 17.9609 22.5858 17.5858C22.9609 17.2107 23.4696 17 24 17C25.3261 17 26.5979 17.5268 27.5355 18.4645C28.4732 19.4021 29 20.6739 29 22C29 22.5304 28.7893 23.0391 28.4142 23.4142C28.0391 23.7893 27.5304 24 27 24ZM48 21H40C39.4696 21 38.9609 20.7893 38.5858 20.4142C38.2107 20.0391 38 19.5304 38 19C38 18.4696 38.2107 17.9609 38.5858 17.5858C38.9609 17.2107 39.4696 17 40 17H48C50.3869 17 52.6761 16.0518 54.364 14.364C56.0518 12.6761 57 10.3869 57 8C57 7.46957 57.2107 6.96086 57.5858 6.58579C57.9609 6.21071 58.4696 6 59 6C59.5304 6 60.0391 6.21071 60.4142 6.58579C60.7893 6.96086 61 7.46957 61 8C61 11.4478 59.6304 14.7544 57.1924 17.1924C54.7544 19.6304 51.4478 21 48 21V21Z" fill="#3E2C27"/>
<path d="M48 21H40C39.4696 21 38.9609 20.7893 38.5858 20.4142C38.2107 20.0391 38 19.5304 38 19C38 18.4696 38.2107 17.9609 38.5858 17.5858C38.9609 17.2107 39.4696 17 40 17H48C50.3869 17 52.6761 16.0518 54.364 14.364C56.0518 12.6761 57 10.3869 57 8C57 7.46957 57.2107 6.96086 57.5858 6.58579C57.9609 6.21071 58.4696 6 59 6C59.5304 6 60.0391 6.21071 60.4142 6.58579C60.7893 6.96086 61 7.46957 61 8C61 11.4478 59.6304 14.7544 57.1924 17.1924C54.7544 19.6304 51.4478 21 48 21V21Z" fill="#3E2C27"/>
<path d="M40 21C39.4696 21 38.9609 20.7893 38.5858 20.4142C38.2107 20.0391 38 19.5304 38 19C38 18.4696 38.2107 17.9609 38.5858 17.5858C38.9609 17.2107 39.4696 17 40 17C42.3869 17 44.6761 16.0518 46.364 14.364C48.0518 12.6761 49 10.3869 49 8C49 7.46957 49.2107 6.96086 49.5858 6.58579C49.9609 6.21071 50.4696 6 51 6C51.5304 6 52.0391 6.21071 52.4142 6.58579C52.7893 6.96086 53 7.46957 53 8C53 9.70718 52.6637 11.3977 52.0104 12.9749C51.3571 14.5521 50.3995 15.9852 49.1924 17.1924C47.9852 18.3996 46.5521 19.3571 44.9749 20.0104C43.3977 20.6637 41.7072 21 40 21V21Z" fill="#3E2C27"/>
<path d="M40 21C39.4696 21 38.9609 20.7893 38.5858 20.4142C38.2107 20.0391 38 19.5304 38 19C38 18.4696 38.2107 17.9609 38.5858 17.5858C38.9609 17.2107 39.4696 17 40 17C42.3869 17 44.6761 16.0518 46.364 14.364C48.0518 12.6761 49 10.3869 49 8C49 7.46957 49.2107 6.96086 49.5858 6.58579C49.9609 6.21071 50.4696 6 51 6C51.5304 6 52.0391 6.21071 52.4142 6.58579C52.7893 6.96086 53 7.46957 53 8C53 9.70718 52.6637 11.3977 52.0104 12.9749C51.3571 14.5521 50.3995 15.9852 49.1924 17.1924C47.9852 18.3996 46.5521 19.3571 44.9749 20.0104C43.3977 20.6637 41.7072 21 40 21V21Z" fill="#3E2C27"/>
<path d="M37 24C36.4696 24 35.9609 23.7893 35.5858 23.4142C35.2107 23.0391 35 22.5304 35 22C35 20.6739 35.5268 19.4021 36.4645 18.4645C37.4021 17.5268 38.6739 17 40 17C40.5304 17 41.0391 17.2107 41.4142 17.5858C41.7893 17.9609 42 18.4696 42 19C42 19.5304 41.7893 20.0391 41.4142 20.4142C41.0391 20.7893 40.5304 21 40 21C39.7348 21 39.4804 21.1054 39.2929 21.2929C39.1054 21.4804 39 21.7348 39 22C39 22.5304 38.7893 23.0391 38.4142 23.4142C38.0391 23.7893 37.5304 24 37 24Z" fill="#3E2C27"/>
<path d="M57 22C57 24.6522 55.9464 27.1957 54.0711 29.0711C52.1957 30.9464 49.6522 32 47 32H46V29C46.0022 27.5995 45.5841 26.2305 44.8 25.07L44.93 24.93C46.8049 23.0545 49.3481 22.0006 52 22H57Z" fill="#703F00"/>
<path d="M46 29V37.1C46.0134 38.9494 45.2944 40.729 44 42.05V42.05C42.0732 43.9729 40.7254 46.3983 40.11 49.05L38.94 54.11C38.6861 55.2258 38.057 56.2207 37.158 56.9287C36.2589 57.6367 35.1442 58.0148 34 58H30C28.8691 57.9993 27.7718 57.6153 26.8873 56.9106C26.0028 56.2059 25.3833 55.2222 25.13 54.12L23.96 49.06C23.3446 46.4083 21.9968 43.9829 20.07 42.06C19.4152 41.4104 18.8952 40.6378 18.54 39.7866C18.1848 38.9354 18.0012 38.0224 18 37.1V29C18 27.1435 18.7375 25.363 20.0503 24.0503C21.363 22.7375 23.1435 22 25 22H39C40.8565 22 42.637 22.7375 43.9497 24.0503C45.2625 25.363 46 27.1435 46 29Z" fill="#965500"/>
<path d="M35 55.49C34.9983 55.6819 34.961 55.8717 34.89 56.05C34.7648 56.3722 34.5315 56.6409 34.23 56.81L32 58L29.77 56.81C29.4685 56.6409 29.2352 56.3722 29.11 56.05C29.039 55.8717 29.0017 55.6819 29 55.49C28.9933 55.3009 29.024 55.1123 29.0902 54.935C29.1565 54.7577 29.2571 54.5953 29.3861 54.4569C29.5152 54.3185 29.6703 54.2069 29.8426 54.1285C30.0148 54.0501 30.2009 54.0065 30.39 54H33.61C33.7991 54.0065 33.9852 54.0501 34.1574 54.1285C34.3296 54.2069 34.4848 54.3185 34.6139 54.4569C34.7429 54.5953 34.8435 54.7577 34.9098 54.935C34.976 55.1123 35.0067 55.3009 35 55.49V55.49Z" fill="#3E2C27"/>
<path d="M19.2 25.07C18.4159 26.2305 17.9978 27.5995 18 29V32H17C14.3478 32 11.8043 30.9464 9.92893 29.0711C8.05357 27.1957 7 24.6522 7 22H12C14.6519 22.0006 17.1951 23.0545 19.07 24.93L19.2 25.07Z" fill="#703F00"/>
</svg>
