<svg width="64" height="64" viewBox="0 0 64 64" fill="none" xmlns="http://www.w3.org/2000/svg">
<path d="M25 13V17C25 20.1826 23.7357 23.2348 21.4853 25.4853C19.2348 27.7357 16.1826 29 13 29C11.4087 29 9.88258 28.3679 8.75736 27.2426C7.63214 26.1174 7 24.5913 7 23V19C7 15.8174 8.26428 12.7652 10.5147 10.5147C12.7652 8.26428 15.8174 7 19 7C20.4531 7.00188 21.8562 7.53105 22.9486 8.48924C24.0411 9.44743 24.7487 10.7695 24.94 12.21C24.9802 12.4714 25.0003 12.7355 25 13V13ZM57 19V23C57 24.5913 56.3679 26.1174 55.2426 27.2426C54.1174 28.3679 52.5913 29 51 29C47.8174 29 44.7652 27.7357 42.5147 25.4853C40.2643 23.2348 39 20.1826 39 17V13C38.9997 12.7355 39.0198 12.4714 39.06 12.21C39.2513 10.7695 39.9589 9.44743 41.0514 8.48924C42.1438 7.53105 43.5469 7.00188 45 7C48.1826 7 51.2348 8.26428 53.4853 10.5147C55.7357 12.7652 57 15.8174 57 19Z" fill="#965500"/>
<path d="M53 32V49C53 51.1217 52.1571 53.1565 50.6569 54.6568C49.1566 56.1571 47.1217 57 45 57H19C16.8783 57 14.8434 56.1571 13.3431 54.6568C11.8429 53.1565 11 51.1217 11 49V32C11.0018 30.9086 11.0853 29.8189 11.25 28.74C11.8173 28.9126 12.407 29.0003 13 29C16.1826 29 19.2348 27.7357 21.4853 25.4853C23.7357 23.2348 25 20.1826 25 17V13C25.0003 12.7355 24.9802 12.4714 24.94 12.21C29.5084 10.5965 34.4916 10.5965 39.06 12.21C39.0198 12.4714 38.9997 12.7355 39 13V17C39 20.1826 40.2643 23.2348 42.5147 25.4853C44.7652 27.7357 47.8174 29 51 29C51.593 29.0003 52.1827 28.9126 52.75 28.74C52.9147 29.8189 52.9982 30.9086 53 32V32Z" fill="#EFC589"/>
<path d="M43 48V51C43 52.5913 42.3679 54.1174 41.2426 55.2426C40.1174 56.3678 38.5913 57 37 57H27C25.4087 57 23.8826 56.3678 22.7574 55.2426C21.6321 54.1174 21 52.5913 21 51V48C21.0007 45.6062 21.7822 43.2779 23.2259 41.3685C24.6697 39.4591 26.6969 38.0728 29 37.42C28.9953 37.4397 28.9953 37.4603 29 37.48C28.9954 37.7507 29.0646 38.0176 29.2003 38.2519C29.336 38.4863 29.5329 38.6792 29.77 38.81L32 40L34.23 38.81C34.4671 38.6792 34.664 38.4863 34.7997 38.2519C34.9354 38.0176 35.0046 37.7507 35 37.48C35.0047 37.4603 35.0047 37.4397 35 37.42C37.3031 38.0728 39.3303 39.4591 40.7741 41.3685C42.2178 43.2779 42.9993 45.6062 43 48V48Z" fill="#B19267"/>
<path d="M32 52C31.7348 52 31.4804 51.8946 31.2929 51.7071C31.1054 51.5196 31 51.2652 31 51V39C31 38.7348 31.1054 38.4804 31.2929 38.2929C31.4804 38.1054 31.7348 38 32 38C32.2652 38 32.5196 38.1054 32.7071 38.2929C32.8946 38.4804 33 38.7348 33 39V51C33 51.2652 32.8946 51.5196 32.7071 51.7071C32.5196 51.8946 32.2652 52 32 52Z" fill="#3E2C27"/>
<path d="M35 37.48C35.0046 37.7507 34.9354 38.0176 34.7997 38.2519C34.664 38.4863 34.4671 38.6792 34.23 38.81L32 40L29.77 38.81C29.5329 38.6792 29.336 38.4863 29.2003 38.2519C29.0646 38.0176 28.9954 37.7507 29 37.48C28.9953 37.4603 28.9953 37.4397 29 37.42C28.9999 37.0485 29.1454 36.6918 29.4052 36.4264C29.6651 36.1609 30.0186 36.0078 30.39 36H33.61C33.9814 36.0078 34.3349 36.1609 34.5948 36.4264C34.8546 36.6918 35.0001 37.0485 35 37.42C35.0047 37.4397 35.0047 37.4603 35 37.48V37.48Z" fill="#3E2C27"/>
</svg>
