<svg width="64" height="64" viewBox="0 0 64 64" fill="none" xmlns="http://www.w3.org/2000/svg">
<path d="M27.5 40C28.3284 40 29 39.3284 29 38.5C29 37.6716 28.3284 37 27.5 37C26.6716 37 26 37.6716 26 38.5C26 39.3284 26.6716 40 27.5 40Z" fill="#2D2D2D"/>
<path d="M49 22V29C48.9996 30.8081 48.7541 32.6079 48.27 34.35L48.12 34.88L45.43 43.6C45.3022 44.0063 45.048 44.3613 44.7045 44.6131C44.3609 44.8649 43.946 45.0005 43.52 45H43V43.5C43 42.837 42.7366 42.2011 42.2678 41.7322C41.7989 41.2634 41.163 41 40.5 41C39.837 41 39.2011 41.2634 38.7322 41.7322C38.2634 42.2011 38 42.837 38 43.5V47C38 50.1826 36.7357 53.2348 34.4853 55.4853C32.2348 57.7357 29.1826 59 26 59H23C21.4087 59 19.8826 58.3679 18.7574 57.2426C17.6321 56.1174 17 54.5913 17 53H20C20 53.7956 20.3161 54.5587 20.8787 55.1213C21.4413 55.6839 22.2044 56 23 56C23.7956 56 24.5587 55.6839 25.1213 55.1213C25.6839 54.5587 26 53.7956 26 53V43.5C26 42.837 25.7366 42.2011 25.2678 41.7322C24.7989 41.2634 24.163 41 23.5 41C22.837 41 22.2011 41.2634 21.7322 41.7322C21.2634 42.2011 21 42.837 21 43.5V45H20.48C20.0528 44.9998 19.6369 44.8628 19.2932 44.6091C18.9495 44.3553 18.696 43.9982 18.57 43.59L15.88 34.87L15.73 34.34C15.2468 32.6011 15.0013 30.8048 15 29V22C15 17.4913 16.7911 13.1673 19.9792 9.97919C23.1673 6.79107 27.4913 5 32 5C36.5087 5 40.8327 6.79107 44.0208 9.97919C47.2089 13.1673 49 17.4913 49 22V22Z" fill="#87868A"/>
<path d="M61 13V20C60.9979 20.5546 60.9205 21.1063 60.77 21.64L58.24 30.64C57.8828 31.897 57.125 33.0031 56.0817 33.79C55.0385 34.577 53.7668 35.0018 52.46 35H51C50.0506 34.9991 49.115 34.7729 48.27 34.34C48.7532 32.6011 48.9987 30.8048 49 29V22C49.0066 18.1206 47.679 14.3568 45.24 11.34C45.5999 10.09 46.3562 8.99078 47.3951 8.208C48.434 7.42521 49.6992 7.00126 51 7H55C56.5913 7 58.1174 7.63214 59.2426 8.75736C60.3679 9.88258 61 11.4087 61 13ZM15 29C15.0004 30.8081 15.2459 32.6079 15.73 34.35C14.8842 34.7794 13.9486 35.0022 13 35H11.54C10.2319 35.0012 8.95925 34.5749 7.91582 33.7861C6.87239 32.9972 6.11536 31.8889 5.75999 30.63L3.22999 21.68C3.07587 21.1334 2.99846 20.568 2.99999 20V13C2.99999 11.4087 3.63213 9.88258 4.75735 8.75736C5.88257 7.63214 7.40869 7 8.99999 7H13C14.3008 7.00126 15.5659 7.42521 16.6048 8.208C17.6437 8.99078 18.4001 10.09 18.76 11.34C16.321 14.3568 14.9934 18.1206 15 22V29Z" fill="#646467"/>
<path d="M43 43.5V51C41.6739 51 40.4021 50.4732 39.4645 49.5355C38.5268 48.5979 38 47.3261 38 46V43.5C38 43.1717 38.0647 42.8466 38.1903 42.5433C38.3159 42.24 38.5001 41.9644 38.7322 41.7322C38.9644 41.5001 39.24 41.3159 39.5433 41.1903C39.8466 41.0647 40.1717 41 40.5 41C40.8283 41 41.1534 41.0647 41.4567 41.1903C41.76 41.3159 42.0356 41.5001 42.2678 41.7322C42.4999 41.9644 42.6841 42.24 42.8097 42.5433C42.9353 42.8466 43 43.1717 43 43.5V43.5ZM26 43.5V46C26 47.3261 25.4732 48.5979 24.5355 49.5355C23.5979 50.4732 22.3261 51 21 51V43.5C21 42.837 21.2634 42.2011 21.7322 41.7322C22.2011 41.2634 22.837 41 23.5 41C24.163 41 24.7989 41.2634 25.2678 41.7322C25.7366 42.2011 26 42.837 26 43.5V43.5Z" fill="#EAEAEA"/>
</svg>
