<svg width="64" height="64" viewBox="0 0 64 64" fill="none" xmlns="http://www.w3.org/2000/svg">
<path d="M57 35L45.78 28.69C44.6791 28.0695 43.4347 27.7484 42.171 27.7587C40.9073 27.769 39.6683 28.1104 38.5777 28.7488C37.487 29.3872 36.5827 30.3004 35.955 31.3972C35.3272 32.494 34.998 33.7363 35 35V52.48C35.0067 52.2914 34.9759 52.1033 34.9096 51.9266C34.8432 51.7499 34.7425 51.5881 34.6133 51.4505C34.484 51.3129 34.3289 51.2023 34.1567 51.125C33.9845 51.0477 33.7987 51.0052 33.61 51H30.39C30.2013 51.0052 30.0155 51.0477 29.8433 51.125C29.6711 51.2023 29.516 51.3129 29.3867 51.4505C29.2575 51.5881 29.1568 51.7499 29.0904 51.9266C29.0241 52.1033 28.9933 52.2914 29 52.48V35C29.002 33.7363 28.6728 32.494 28.045 31.3972C27.4173 30.3004 26.513 29.3872 25.4223 28.7488C24.3317 28.1104 23.0927 27.769 21.829 27.7587C20.5653 27.7484 19.3209 28.0695 18.22 28.69L7 35L15 23C16.8621 20.2049 19.3917 17.9181 22.36 16.3466C25.3283 14.7752 28.6415 13.9687 32 14C35.3585 13.9687 38.6717 14.7752 41.64 16.3466C44.6083 17.9181 47.1379 20.2049 49 23L57 35Z" fill="#FFAB00"/>
<path d="M57 35L53 37.08C49.6015 38.6879 46.4794 40.8244 43.75 43.41C41.1623 46.0271 39.4204 49.3611 38.75 52.98C38.5195 54.1093 37.9058 55.1244 37.0129 55.8533C36.12 56.5822 35.0027 56.9802 33.85 56.98H30.1C28.9473 56.9802 27.83 56.5822 26.9371 55.8533C26.0442 55.1244 25.4305 54.1093 25.2 52.98C23.57 44.85 18.35 40.9 11 37.08L7 35L18.22 28.69C19.3209 28.0695 20.5653 27.7483 21.829 27.7587C23.0927 27.769 24.3317 28.1104 25.4223 28.7488C26.513 29.3872 27.4173 30.3003 28.045 31.3972C28.6728 32.494 29.002 33.7362 29 35V52.48C28.9933 52.2913 29.0241 52.1033 29.0904 51.9266C29.1568 51.7499 29.2575 51.5881 29.3867 51.4505C29.516 51.3129 29.6711 51.2022 29.8433 51.1249C30.0155 51.0476 30.2013 51.0051 30.39 51H33.61C33.7987 51.0051 33.9845 51.0476 34.1567 51.1249C34.3289 51.2022 34.484 51.3129 34.6133 51.4505C34.7425 51.5881 34.8432 51.7499 34.9096 51.9266C34.9759 52.1033 35.0067 52.2913 35 52.48V35C34.998 33.7362 35.3272 32.494 35.955 31.3972C36.5827 30.3003 37.487 29.3872 38.5777 28.7488C39.6683 28.1104 40.9073 27.769 42.171 27.7587C43.4347 27.7483 44.6791 28.0695 45.78 28.69L57 35Z" fill="#EFC589"/>
<path d="M35 52.48C35.0046 52.7507 34.9354 53.0176 34.7997 53.2519C34.664 53.4863 34.4671 53.6792 34.23 53.81L32 55L29.77 53.81C29.5329 53.6792 29.336 53.4863 29.2003 53.2519C29.0646 53.0176 28.9954 52.7507 29 52.48C28.9933 52.2914 29.0241 52.1033 29.0905 51.9266C29.1568 51.7499 29.2575 51.5881 29.3868 51.4505C29.516 51.3129 29.6712 51.2023 29.8433 51.1249C30.0155 51.0476 30.2013 51.0052 30.39 51H33.61C33.7987 51.0052 33.9845 51.0476 34.1567 51.1249C34.3289 51.2023 34.484 51.3129 34.6133 51.4505C34.7425 51.5881 34.8432 51.7499 34.9096 51.9266C34.9759 52.1033 35.0067 52.2914 35 52.48V52.48Z" fill="#3E2C27"/>
<path d="M21.09 17.09C18.6629 18.6046 16.5867 20.6194 15 23L14.48 23.78C13.4033 23.0757 12.5206 22.1125 11.9126 20.9786C11.3046 19.8448 10.9909 18.5765 11 17.29V7L21.09 17.09ZM53 7V17.29C53.002 18.5733 52.6827 19.8367 52.0714 20.965C51.4601 22.0934 50.5761 23.0508 49.5 23.75L49 23C47.4158 20.6324 45.3468 18.6282 42.93 17.12L53 7Z" fill="#BD7F00"/>
</svg>
