<svg width="64" height="64" viewBox="0 0 64 64" fill="none" xmlns="http://www.w3.org/2000/svg">
<path d="M47 27V32L41 51V55C41 56.5913 40.3679 58.1174 39.2426 59.2427C38.1174 60.3679 36.5913 61 35 61H29C27.4087 61 25.8826 60.3679 24.7574 59.2427C23.6321 58.1174 23 56.5913 23 55V51L17 32V27C17 26.74 17 26.48 17 26.22C17.1249 24.027 17.7693 21.8951 18.88 20C19.6405 18.6912 20.6061 17.5129 21.74 16.51C21.8282 16.4317 21.9117 16.3482 21.99 16.26C22.502 15.6908 22.8371 14.9848 22.9543 14.2283C23.0715 13.4717 22.9658 12.6974 22.65 12L21.32 9.00002C21.21 9.00002 21.11 9.00002 21 9.00002C20.2044 8.94433 19.4634 8.57484 18.9402 7.97285C18.417 7.37086 18.1543 6.58567 18.21 5.79002C18.2657 4.99437 18.6352 4.25344 19.2372 3.73021C19.8392 3.20698 20.6244 2.94433 21.42 3.00002C22.0115 3.08675 22.5636 3.34822 23.0055 3.7509C23.4474 4.15358 23.7589 4.67909 23.9 5.26002C24.0117 5.63933 24.0457 6.03727 24 6.43002C23.8566 7.18975 23.9365 7.97475 24.23 8.69002L25.46 11.47C25.7312 12.0728 26.1938 12.5692 26.7761 12.8821C27.3584 13.1949 28.0277 13.3067 28.68 13.2C29.1857 13.1038 29.6966 13.037 30.21 13H33.79C34.3129 13.0259 34.8338 13.0827 35.35 13.17C36.0023 13.2767 36.6716 13.1649 37.2539 12.8521C37.8362 12.5392 38.2988 12.0428 38.57 11.44L39.76 8.75002C40.0584 7.99762 40.1415 7.17699 40 6.38002C39.9897 6.25357 39.9897 6.12648 40 6.00002C40 5.40668 40.1759 4.82666 40.5056 4.33331C40.8352 3.83996 41.3038 3.45545 41.852 3.22838C42.4001 3.00132 43.0033 2.94191 43.5853 3.05767C44.1672 3.17342 44.7018 3.45915 45.1213 3.8787C45.5409 4.29826 45.8266 4.83281 45.9424 5.41475C46.0581 5.9967 45.9987 6.59989 45.7716 7.14807C45.5446 7.69625 45.1601 8.16479 44.6667 8.49443C44.1734 8.82408 43.5933 9.00002 43 9.00002C42.89 9.00002 42.79 9.00002 42.68 9.00002L41.35 12C41.0329 12.6965 40.9256 13.4703 41.041 14.2268C41.1564 14.9833 41.4897 15.6898 42 16.26L42.25 16.51C43.3874 17.5121 44.3565 18.6905 45.12 20C46.2307 21.8951 46.8751 24.027 47 26.22C47 26.48 47 26.74 47 27Z" fill="#FFAB00"/>
<path d="M35 47H29C25.6863 47 23 49.6863 23 53V55C23 58.3137 25.6863 61 29 61H35C38.3137 61 41 58.3137 41 55V53C41 49.6863 38.3137 47 35 47Z" fill="#EFC589"/>
<path d="M29 56C28.7348 56 28.4804 55.8946 28.2929 55.7071C28.1054 55.5196 28 55.2652 28 55V53C28 52.7348 28.1054 52.4804 28.2929 52.2929C28.4804 52.1054 28.7348 52 29 52C29.2652 52 29.5196 52.1054 29.7071 52.2929C29.8946 52.4804 30 52.7348 30 53V55C30 55.2652 29.8946 55.5196 29.7071 55.7071C29.5196 55.8946 29.2652 56 29 56ZM35 56C34.7348 56 34.4804 55.8946 34.2929 55.7071C34.1054 55.5196 34 55.2652 34 55V53C34 52.7348 34.1054 52.4804 34.2929 52.2929C34.4804 52.1054 34.7348 52 35 52C35.2652 52 35.5196 52.1054 35.7071 52.2929C35.8946 52.4804 36 52.7348 36 53V55C36 55.2652 35.8946 55.5196 35.7071 55.7071C35.5196 55.8946 35.2652 56 35 56Z" fill="#3E2C27"/>
<path d="M57 29H55C52.0966 28.9993 49.2782 28.0199 47 26.22C46.8751 24.027 46.2307 21.8951 45.12 20C44.3595 18.6912 43.3939 17.5129 42.26 16.51L42 16.26C41.995 16.1734 41.995 16.0866 42 16H44C47.4478 16 50.7544 17.3696 53.1924 19.8076C55.6304 22.2456 57 25.5522 57 29V29ZM22 16C22.005 16.0866 22.005 16.1734 22 16.26C21.9217 16.3482 21.8382 16.4317 21.75 16.51C20.6126 17.5121 19.6435 18.6904 18.88 20C17.7693 21.8951 17.1249 24.027 17 26.22C14.7218 28.0199 11.9034 28.9993 9 29H7C7 25.5522 8.36964 22.2456 10.8076 19.8076C13.2456 17.3696 16.5522 16 20 16H22Z" fill="#BD7F00"/>
</svg>
