<svg width="64" height="64" viewBox="0 0 64 64" fill="none" xmlns="http://www.w3.org/2000/svg">
<path d="M57 41C57 48.39 51.26 52.62 44 53C43.67 53 43.34 53 43 53C41.2908 53.005 39.5955 52.693 38 52.08H37.93C34.119 50.5799 29.881 50.5799 26.07 52.08H26C24.4045 52.693 22.7092 53.005 21 53C20.66 53 20.33 53 20 53C12.74 52.65 7 48.42 7 41C7 35.82 9.81 33.3 14 30.88V24.5C13.9998 21.1406 14.9671 17.8523 16.7862 15.0281C18.6053 12.2038 21.1992 9.96325 24.258 8.57417C27.3167 7.18508 30.7108 6.70628 34.0344 7.19499C37.358 7.6837 40.4706 9.11925 43 11.33C43.3 11.59 43.58 11.85 43.86 12.13C44.9918 13.263 45.9641 14.5447 46.75 15.94C48.2278 18.5507 49.0031 21.5001 49 24.5V30.35C53.73 32.6 57 35.42 57 41Z" fill="#87868A"/>
<path d="M20.91 10.58C18.9826 12.0393 17.3817 13.8855 16.21 16C15.3737 15.9451 14.5694 15.6577 13.8877 15.1703C13.206 14.6828 12.6739 14.0147 12.3514 13.2412C12.029 12.4676 11.9289 11.6194 12.0626 10.792C12.1962 9.9647 12.5583 9.19112 13.1079 8.55846C13.6575 7.92579 14.3729 7.45919 15.1735 7.21121C15.974 6.96323 16.8279 6.94373 17.6389 7.15492C18.4499 7.3661 19.1859 7.79956 19.7638 8.40648C20.3418 9.0134 20.7387 9.76965 20.91 10.59V10.58Z" fill="#646467"/>
<path d="M52 11.5C51.9985 12.1531 51.8551 12.7981 51.5798 13.3904C51.3045 13.9827 50.9039 14.5081 50.4056 14.9303C49.9073 15.3526 49.3232 15.6615 48.6938 15.8359C48.0643 16.0102 47.4045 16.0457 46.76 15.94C45.9741 14.5447 45.0018 13.2629 43.87 12.13C43.59 11.85 43.31 11.59 43.01 11.33C43.0325 10.1365 43.5283 9.00088 44.3881 8.1729C45.248 7.34493 46.4015 6.89244 47.595 6.91499C48.7885 6.93753 49.9241 7.43326 50.7521 8.29311C51.5801 9.15297 52.0325 10.3065 52.01 11.5H52Z" fill="#646467"/>
<path d="M26 52.08V56C26 56.2652 25.8946 56.5196 25.7071 56.7071C25.5196 56.8947 25.2652 57 25 57H21C20.7348 57 20.4804 56.8947 20.2929 56.7071C20.1054 56.5196 20 56.2652 20 56V53C20.33 53 20.66 53 21 53C22.7092 53.005 24.4045 52.693 26 52.08V52.08ZM44 53V56C44 56.2652 43.8946 56.5196 43.7071 56.7071C43.5196 56.8947 43.2652 57 43 57H39C38.7348 57 38.4804 56.8947 38.2929 56.7071C38.1054 56.5196 38 56.2652 38 56V52.08C39.5955 52.693 41.2908 53.005 43 53C43.34 53 43.67 53 44 53Z" fill="#D8D9DD"/>
<path d="M18.5 44C19.8807 44 21 42.8807 21 41.5C21 40.1193 19.8807 39 18.5 39C17.1193 39 16 40.1193 16 41.5C16 42.8807 17.1193 44 18.5 44Z" fill="#434347"/>
<path d="M45.5 44C46.8807 44 48 42.8807 48 41.5C48 40.1193 46.8807 39 45.5 39C44.1193 39 43 40.1193 43 41.5C43 42.8807 44.1193 44 45.5 44Z" fill="#434347"/>
</svg>
