<svg width="64" height="64" viewBox="0 0 64 64" fill="none" xmlns="http://www.w3.org/2000/svg">
<path d="M21 51H43V55C43 56.5913 42.3679 58.1174 41.2426 59.2426C40.1174 60.3679 38.5913 61 37 61H27C25.4087 61 23.8826 60.3679 22.7574 59.2426C21.6321 58.1174 21 56.5913 21 55V51ZM24 11.91C20.9977 13.062 18.4835 15.2125 16.88 18C14.8544 16.2355 13.4517 13.8649 12.88 11.24L11 3C13.8109 3.00842 16.5542 3.86281 18.8729 5.45196C21.1915 7.04111 22.978 9.29142 24 11.91V11.91Z" fill="#703F00"/>
<path d="M49 25C49.0003 29.6411 48.2887 34.2547 46.89 38.68L43 51H21L17.11 38.68C15.7113 34.2547 14.9997 29.6411 15 25V25C14.9942 22.5412 15.6431 20.1251 16.88 18C18.4835 15.2125 20.9977 13.062 24 11.91C25.3455 11.3831 26.767 11.0759 28.21 11L29 15H35L35.79 11C37.2178 11.0705 38.6254 11.3676 39.96 11.88C42.9819 13.0318 45.5118 15.1943 47.12 18C48.3569 20.1251 49.0058 22.5412 49 25V25Z" fill="#965500"/>
<path d="M53 3L51.17 11.24C50.5848 13.8713 49.1641 16.2427 47.12 18C45.5165 15.2125 43.0023 13.062 40 11.91C41.022 9.29142 42.8085 7.04111 45.1271 5.45196C47.4458 3.86281 50.1891 3.00842 53 3V3Z" fill="#703F00"/>
<path d="M36.52 7.38997L35.79 11L35 15H29L28.21 11L27.48 7.35997C27.4216 7.06674 27.4298 6.76414 27.5038 6.47446C27.5778 6.18478 27.7158 5.91538 27.9077 5.68608C28.0996 5.45679 28.3405 5.27343 28.6125 5.1495C28.8846 5.02557 29.1811 4.96422 29.48 4.96997H34.6C34.8953 4.97519 35.1858 5.04575 35.4506 5.17657C35.7154 5.30739 35.9479 5.49523 36.1314 5.7266C36.315 5.95797 36.4451 6.22712 36.5122 6.51472C36.5794 6.80232 36.5821 7.10123 36.52 7.38997V7.38997ZM27 58C26.7348 58 26.4804 57.8946 26.2929 57.7071C26.1054 57.5195 26 57.2652 26 57V55C26 54.7348 26.1054 54.4804 26.2929 54.2929C26.4804 54.1053 26.7348 54 27 54C27.2652 54 27.5196 54.1053 27.7071 54.2929C27.8946 54.4804 28 54.7348 28 55V57C28 57.2652 27.8946 57.5195 27.7071 57.7071C27.5196 57.8946 27.2652 58 27 58ZM37 58C36.7348 58 36.4804 57.8946 36.2929 57.7071C36.1054 57.5195 36 57.2652 36 57V55C36 54.7348 36.1054 54.4804 36.2929 54.2929C36.4804 54.1053 36.7348 54 37 54C37.2652 54 37.5196 54.1053 37.7071 54.2929C37.8946 54.4804 38 54.7348 38 55V57C38 57.2652 37.8946 57.5195 37.7071 57.7071C37.5196 57.8946 37.2652 58 37 58Z" fill="#3E2C27"/>
</svg>
