<svg width="64" height="64" viewBox="0 0 64 64" fill="none" xmlns="http://www.w3.org/2000/svg">
<path d="M28.69 17.3C27.5217 17.4898 26.3758 17.7981 25.27 18.22L25 18.32C22.804 19.1581 20.7729 20.3768 19 21.92C16.9735 23.6648 15.2795 25.7619 14 28.11C12.3688 31.0632 11.3805 34.328 11.1 37.69C9.13509 36.7786 7.40846 35.4237 6.05593 33.7319C4.70339 32.0401 3.76185 30.0576 3.30537 27.9402C2.84889 25.8229 2.88992 23.6285 3.42524 21.5297C3.96056 19.4309 4.97556 17.4849 6.39039 15.8449C7.80522 14.2048 9.5813 12.9154 11.5789 12.0781C13.5765 11.2408 15.7412 10.8784 17.9025 11.0195C20.0639 11.1605 22.1631 11.8011 24.035 12.8909C25.9068 13.9807 27.5003 15.49 28.69 17.3V17.3Z" fill="#646467"/>
<path d="M53 39.91C53 40.26 53 40.6 53 40.91C52.8028 43.9657 51.5802 46.8655 49.53 49.14C48.4596 50.3471 47.1466 51.3148 45.6768 51.98C44.2069 52.6451 42.6133 52.9927 41 53H23C16.69 53 11.52 47.69 11 40.94C11 40.6 11 40.26 11 39.94C11 39.19 11 38.45 11.1 37.72C11.3764 34.3476 12.3648 31.0723 14 28.11C15.2795 25.7619 16.9735 23.6647 19 21.92C20.7729 20.3767 22.804 19.1581 25 18.32L25.27 18.22C26.3758 17.7981 27.5217 17.4898 28.69 17.3C29.12 17.22 29.56 17.16 30 17.11C31.3293 16.9633 32.6707 16.9633 34 17.11C34.44 17.16 34.88 17.22 35.31 17.3C36.4783 17.4898 37.6242 17.7981 38.73 18.22L39 18.32C41.196 19.1581 43.2271 20.3767 45 21.92C47.0265 23.6647 48.7205 25.7619 50 28.11C51.6312 31.0632 52.6195 34.3279 52.9 37.69C53 38.42 53 39.16 53 39.91Z" fill="#87868A"/>
<path d="M61 25C60.9988 27.667 60.2359 30.2783 58.8009 32.5264C57.3659 34.7745 55.3187 36.566 52.9 37.69C52.6195 34.3279 51.6312 31.0632 50 28.11C48.7205 25.7619 47.0265 23.6647 45 21.92C43.2271 20.3767 41.196 19.1581 39 18.32L38.73 18.22C37.6242 17.7981 36.4783 17.4898 35.31 17.3C36.9667 14.7859 39.3898 12.873 42.2197 11.8449C45.0495 10.8168 48.1354 10.7285 51.0195 11.5929C53.9036 12.4573 56.4321 14.2285 58.23 16.6436C60.0279 19.0588 60.9992 21.9891 61 25V25ZM33 48V53H31V48C31 47.7348 31.1054 47.4804 31.2929 47.2929C31.4804 47.1053 31.7348 47 32 47C32.2652 47 32.5196 47.1053 32.7071 47.2929C32.8946 47.4804 33 47.7348 33 48Z" fill="#646467"/>
<path d="M37 41C37 38.2386 34.7614 36 32 36C29.2386 36 27 38.2386 27 41V44C27 46.7614 29.2386 49 32 49C34.7614 49 37 46.7614 37 44V41Z" fill="#434347"/>
</svg>
