<svg width="64" height="64" viewBox="0 0 64 64" fill="none" xmlns="http://www.w3.org/2000/svg">
<path d="M57 35.39C56.9986 37.6979 56.3828 39.9639 55.2158 41.9551C54.0489 43.9462 52.3729 45.5909 50.36 46.72L32 57L13.64 46.72C12.148 45.8849 10.8354 44.7638 9.77732 43.4207C8.71925 42.0777 7.93651 40.5391 7.47392 38.8931C7.01133 37.2471 6.87798 35.526 7.08151 33.8284C7.28503 32.1308 7.82143 30.49 8.65999 29L13.19 21L15.63 16.65C16.8495 14.4732 18.4911 12.5617 20.4588 11.0275C22.4264 9.4933 24.6805 8.36724 27.0889 7.71531C29.4973 7.06338 32.0116 6.8987 34.4845 7.23091C36.9573 7.56312 39.339 8.38554 41.49 9.64998C42.2443 10.0913 42.9661 10.5859 43.65 11.13C45.5706 12.6501 47.1742 14.5323 48.37 16.67L50.81 21L55.34 29C56.434 30.9516 57.0058 33.1526 57 35.39V35.39Z" fill="#BD7F00"/>
<path d="M57 14C57.0116 15.7243 56.3863 17.3923 55.244 18.684C54.1017 19.9758 52.5228 20.8005 50.81 21L48.37 16.6C47.1743 14.4623 45.5706 12.5801 43.65 11.06C44.3208 9.61403 45.465 8.4403 46.8934 7.73288C48.3218 7.02547 49.9488 6.82674 51.5055 7.16956C53.0622 7.51237 54.4552 8.37621 55.4543 9.61821C56.4534 10.8602 56.9987 12.406 57 14ZM20.35 11.06C18.4294 12.5801 16.8258 14.4623 15.63 16.6L13.19 21C11.9767 20.8594 10.8213 20.4038 9.83855 19.6784C8.85584 18.953 8.08004 17.9831 7.58824 16.865C7.09643 15.747 6.90574 14.5197 7.0351 13.3051C7.16447 12.0906 7.60939 10.931 8.32567 9.9416C9.04194 8.95222 10.0046 8.16748 11.1181 7.66536C12.2315 7.16323 13.457 6.9612 14.6727 7.07933C15.8884 7.19746 17.0521 7.63164 18.048 8.33874C19.044 9.04583 19.8376 10.0012 20.35 11.11V11.06ZM44.57 34.14L38.74 45C38.0809 46.2119 37.1067 47.2232 35.9203 47.9273C34.734 48.6314 33.3795 49.002 32 49V49C30.6205 49.002 29.266 48.6314 28.0797 47.9273C26.8933 47.2232 25.9192 46.2119 25.26 45L19.43 34.14C18.7774 34.1401 18.1341 33.9851 17.5531 33.6879C16.9721 33.3907 16.47 32.9597 16.0882 32.4304C15.7064 31.9011 15.4558 31.2888 15.357 30.6437C15.2582 29.9986 15.3141 29.3393 15.52 28.72L18.13 20.9C18.2984 20.3927 18.5668 19.9243 18.9193 19.5225C19.2717 19.1207 19.7012 18.7936 20.1822 18.5606C20.6632 18.3275 21.1861 18.1932 21.7198 18.1657C22.2536 18.1381 22.7875 18.2178 23.29 18.4L32 21.57L40.71 18.4C41.2125 18.2178 41.7464 18.1381 42.2802 18.1657C42.814 18.1932 43.3368 18.3275 43.8178 18.5606C44.2988 18.7936 44.7283 19.1207 45.0807 19.5225C45.4332 19.9243 45.7016 20.3927 45.87 20.9L48.48 28.72C48.6859 29.3393 48.7418 29.9986 48.643 30.6437C48.5442 31.2888 48.2936 31.9011 47.9118 32.4304C47.53 32.9597 47.0279 33.3907 46.4469 33.6879C45.8659 33.9851 45.2226 34.1401 44.57 34.14V34.14Z" fill="#EFC589"/>
<path d="M32 42C31.7348 42 31.4804 41.8946 31.2929 41.7071C31.1054 41.5196 31 41.2652 31 41V36C31 35.7348 31.1054 35.4804 31.2929 35.2929C31.4804 35.1054 31.7348 35 32 35C32.2652 35 32.5196 35.1054 32.7071 35.2929C32.8946 35.4804 33 35.7348 33 36V41C33 41.2652 32.8946 41.5196 32.7071 41.7071C32.5196 41.8946 32.2652 42 32 42Z" fill="#3E2C27"/>
<path d="M29 44C28.7864 43.9983 28.5788 43.9283 28.4079 43.8001C28.2369 43.672 28.1115 43.4925 28.05 43.2878C27.9885 43.0832 27.9942 42.8643 28.0662 42.6631C28.1381 42.462 28.2727 42.2891 28.45 42.17L31.45 40.17C31.6696 40.0522 31.9252 40.0206 32.1668 40.0815C32.4084 40.1423 32.6187 40.2911 32.7563 40.4988C32.8939 40.7065 32.9491 40.9581 32.9109 41.2044C32.8727 41.4506 32.744 41.6737 32.55 41.83L29.55 43.83C29.389 43.9428 29.1966 44.0022 29 44V44Z" fill="#3E2C27"/>
<path d="M35 44C34.8034 44.0022 34.611 43.9428 34.45 43.83L31.45 41.83C31.256 41.6737 31.1273 41.4506 31.0891 41.2044C31.0509 40.9581 31.1061 40.7065 31.2437 40.4988C31.3813 40.2911 31.5916 40.1423 31.8332 40.0815C32.0748 40.0206 32.3304 40.0522 32.55 40.17L35.55 42.17C35.7273 42.2891 35.8619 42.462 35.9338 42.6631C36.0058 42.8643 36.0115 43.0832 35.95 43.2878C35.8885 43.4925 35.7631 43.672 35.5921 43.8001C35.4212 43.9283 35.2137 43.9983 35 44ZM32 37.38L29.77 36.26C29.537 36.1426 29.3414 35.9624 29.2054 35.7398C29.0693 35.5171 28.9982 35.2609 29 35V35C29 34.6313 29.1464 34.2778 29.4071 34.0171C29.6678 33.7564 30.0214 33.61 30.39 33.61H33.61C33.9787 33.61 34.3322 33.7564 34.5929 34.0171C34.8536 34.2778 35 34.6313 35 35C34.9981 35.2575 34.9252 35.5095 34.7894 35.7283C34.6535 35.947 34.46 36.1241 34.23 36.24L32 37.38Z" fill="#3E2C27"/>
</svg>
