<svg width="64" height="64" viewBox="0 0 64 64" fill="none" xmlns="http://www.w3.org/2000/svg">
<path d="M48 16.8C49.3133 19.3339 49.9992 22.146 50 25V37.3C48.5497 35.8512 46.8577 34.6668 45 33.8V22C44.9988 20.47 44.4963 18.9826 43.5695 17.7652C42.6427 16.5479 41.3426 15.6678 39.8682 15.2594C38.3937 14.8511 36.826 14.9371 35.405 15.5043C33.9841 16.0715 32.7881 17.0886 32 18.4C31.723 17.9109 31.3872 17.4575 31 17.05C30.0238 16.0536 28.7721 15.3715 27.4056 15.0914C26.0391 14.8113 24.62 14.9458 23.3305 15.4777C22.041 16.0096 20.9398 16.9147 20.1682 18.0768C19.3966 19.239 18.9898 20.6051 19 22V33.8C17.1423 34.6668 15.4503 35.8512 14 37.3V25C14.0103 20.968 15.3741 17.0562 17.8727 13.8916C20.3714 10.7271 23.8601 8.49313 27.7798 7.54781C31.6994 6.60248 35.823 7.00055 39.4894 8.6782C43.1559 10.3559 46.1529 13.2159 48 16.8V16.8Z" fill="#965500"/>
<path d="M53 44C53 51.18 43.6 57 32 57C20.4 57 11 51.18 11 44C11 43.78 11 43.55 11 43.33C11.0101 43.1689 11.0302 43.0086 11.06 42.85C11.0495 42.7837 11.0495 42.7163 11.06 42.65C11.0791 42.4808 11.1125 42.3135 11.16 42.15C11.16 42.02 11.22 41.89 11.26 41.76C11.3325 41.4658 11.4295 41.1781 11.55 40.9C12.1278 39.5626 12.9599 38.3501 14 37.33C15.4503 35.8812 17.1423 34.6968 19 33.83V22C18.9898 20.6051 19.3966 19.239 20.1682 18.0769C20.9398 16.9147 22.041 16.0097 23.3305 15.4777C24.62 14.9458 26.0391 14.8113 27.4056 15.0914C28.7721 15.3716 30.0238 16.0536 31 17.05C31.3872 17.4575 31.723 17.9109 32 18.4C32.7881 17.0886 33.9841 16.0715 35.405 15.5043C36.826 14.9371 38.3937 14.8511 39.8682 15.2594C41.3426 15.6678 42.6427 16.5479 43.5695 17.7652C44.4963 18.9826 44.9988 20.47 45 22V33.8C46.8577 34.6668 48.5497 35.8512 50 37.3V37.3C51.0186 38.3254 51.8301 39.5375 52.39 40.87C52.5105 41.1481 52.6075 41.4358 52.68 41.73C52.68 41.86 52.75 41.99 52.79 42.12C52.8297 42.2848 52.8597 42.4517 52.88 42.62C52.8905 42.6863 52.8905 42.7538 52.88 42.82C52.9098 42.9786 52.9299 43.1389 52.94 43.3C53 43.55 53 43.78 53 44Z" fill="#EFC589"/>
<path d="M16 16.8C14.6867 19.3339 14.0008 22.146 14 25V27.91C13.6701 27.9706 13.3354 28.0007 13 28C11.4087 28 9.88258 27.3679 8.75736 26.2426C7.63214 25.1174 7 23.5913 7 22C7 20.4087 7.63214 18.8826 8.75736 17.7574C9.88258 16.6321 11.4087 16 13 16C14.0536 15.9931 15.0897 16.2694 16 16.8V16.8ZM57 22C57 23.5913 56.3679 25.1174 55.2426 26.2426C54.1174 27.3679 52.5913 28 51 28C50.6646 28.0007 50.3299 27.9706 50 27.91V25C49.9992 22.146 49.3133 19.3339 48 16.8C48.9103 16.2694 49.9464 15.9931 51 16C52.5913 16 54.1174 16.6321 55.2426 17.7574C56.3679 18.8826 57 20.4087 57 22Z" fill="#703F00"/>
<path d="M30 38H29C28.7348 38 28.4804 37.8946 28.2929 37.7071C28.1054 37.5196 28 37.2652 28 37C28 36.7348 28.1054 36.4804 28.2929 36.2929C28.4804 36.1054 28.7348 36 29 36H30C30.2652 36 30.5196 36.1054 30.7071 36.2929C30.8946 36.4804 31 36.7348 31 37C31 37.2652 30.8946 37.5196 30.7071 37.7071C30.5196 37.8946 30.2652 38 30 38ZM35 38H34C33.7348 38 33.4804 37.8946 33.2929 37.7071C33.1054 37.5196 33 37.2652 33 37C33 36.7348 33.1054 36.4804 33.2929 36.2929C33.4804 36.1054 33.7348 36 34 36H35C35.2652 36 35.5196 36.1054 35.7071 36.2929C35.8946 36.4804 36 36.7348 36 37C36 37.2652 35.8946 37.5196 35.7071 37.7071C35.5196 37.8946 35.2652 38 35 38Z" fill="#3E2C27"/>
</svg>
