<svg width="64" height="64" viewBox="0 0 64 64" fill="none" xmlns="http://www.w3.org/2000/svg">
<path d="M57 38.33C57 50.76 45.81 57 32 57C18.19 57 7 50.76 7 38.33C7.16082 32.5097 9.19881 26.8974 12.81 22.33C15.6643 18.4983 19.4843 15.4927 23.88 13.62C26.4514 12.5419 29.2117 11.9866 32 11.9866C34.7883 11.9866 37.5486 12.5419 40.12 13.62C44.5157 15.4927 48.3357 18.4983 51.19 22.33C54.8012 26.8974 56.8392 32.5097 57 38.33Z" fill="#EAEAEA"/>
<path d="M23.88 13.63C19.4843 15.5027 15.6643 18.5083 12.81 22.34C11.5404 21.7882 10.4357 20.9164 9.60387 19.8098C8.77207 18.7032 8.24165 17.3998 8.06448 16.0268C7.88731 14.6538 8.06944 13.2584 8.59307 11.9769C9.1167 10.6954 9.9639 9.57175 11.0519 8.71574C12.1398 7.85972 13.4313 7.30067 14.8 7.09325C16.1687 6.88582 17.5678 7.03711 18.8605 7.53234C20.1533 8.02756 21.2954 8.84976 22.1752 9.91856C23.055 10.9874 23.6424 12.2662 23.88 13.63V13.63ZM56 15C56.0007 16.5591 55.5458 18.0843 54.6913 19.3884C53.8367 20.6924 52.6198 21.7183 51.19 22.34C48.3357 18.5083 44.5157 15.5027 40.12 13.63C40.4652 11.6591 41.5365 9.88912 43.1225 8.66921C44.7086 7.44929 46.6941 6.868 48.6876 7.03998C50.6811 7.21196 52.5378 8.12474 53.8914 9.59826C55.2451 11.0718 55.9974 12.9991 56 15V15ZM18.74 40C17.8742 40.0154 17.0165 39.8321 16.2327 39.464C15.4489 39.0958 14.7601 38.5528 14.2192 37.8767C13.6782 37.2005 13.2996 36.4092 13.1126 35.5638C12.9255 34.7183 12.9349 33.8412 13.14 33C14.14 28.17 20.69 25 24.35 25C31.48 25 27.4 40 18.74 40ZM45.26 40C46.1258 40.0154 46.9835 39.8321 47.7673 39.464C48.5511 39.0958 49.2399 38.5528 49.7808 37.8767C50.3218 37.2005 50.7003 36.4092 50.8874 35.5638C51.0745 34.7183 51.0651 33.8412 50.86 33C49.86 28.17 43.31 25 39.65 25C32.52 25 36.6 40 45.26 40Z" fill="#434347"/>
<path d="M32 50C31.7348 50 31.4804 49.8946 31.2929 49.7071C31.1054 49.5196 31 49.2652 31 49V43C31 42.7348 31.1054 42.4804 31.2929 42.2929C31.4804 42.1054 31.7348 42 32 42C32.2652 42 32.5196 42.1054 32.7071 42.2929C32.8946 42.4804 33 42.7348 33 43V49C33 49.2652 32.8946 49.5196 32.7071 49.7071C32.5196 49.8946 32.2652 50 32 50Z" fill="#434347"/>
<path d="M32 43.38L29.77 42.26C29.537 42.1426 29.3414 41.9624 29.2054 41.7398C29.0693 41.5171 28.9982 41.2609 29 41V41C29 40.6313 29.1464 40.2778 29.4071 40.0171C29.6678 39.7564 30.0214 39.61 30.39 39.61H33.61C33.9787 39.61 34.3322 39.7564 34.5929 40.0171C34.8536 40.2778 35 40.6313 35 41V41C34.9981 41.2575 34.9252 41.5095 34.7894 41.7283C34.6535 41.947 34.46 42.1241 34.23 42.24L32 43.38Z" fill="#3E2C27"/>
</svg>
