<svg width="64" height="64" viewBox="0 0 64 64" fill="none" xmlns="http://www.w3.org/2000/svg">
<path d="M55.9 49C55.1874 51.3123 53.7538 53.336 51.8089 54.7754C49.8639 56.2147 47.5096 56.9942 45.09 57H18.91C17.1078 56.9992 15.3319 56.5681 13.7299 55.7426C12.1279 54.9171 10.7461 53.721 9.69953 52.2538C8.65295 50.7866 7.9718 49.0908 7.71272 47.3073C7.45364 45.5239 7.62413 43.7043 8.21 42L15.85 19.86C18.1814 19.5061 20.3374 18.4123 22 16.74L27.78 11H36.09L41.83 16.74C43.5365 18.4519 45.7628 19.5493 48.16 19.86L55.79 42C56.5647 44.2632 56.6032 46.7136 55.9 49V49Z" fill="#D37B93"/>
<path d="M55.9 49C55.1874 51.3123 53.7538 53.336 51.8089 54.7754C49.8639 56.2147 47.5096 56.9942 45.09 57H18.91C17.1078 56.9992 15.3319 56.5681 13.7299 55.7426C12.1279 54.9171 10.7461 53.721 9.69953 52.2538C8.65295 50.7866 7.9718 49.0908 7.71272 47.3073C7.45364 45.5239 7.62413 43.7043 8.21 42L15.85 19.86C18.1814 19.5061 20.3374 18.4123 22 16.74L27.78 11H36.09L41.83 16.74C43.5365 18.4519 45.7628 19.5493 48.16 19.86L55.79 42C56.5647 44.2632 56.6032 46.7136 55.9 49V49Z" fill="#D37B93"/>
<path d="M28.39 10.39L27.78 11L22 16.74C20.9785 17.762 19.7656 18.5727 18.4307 19.1258C17.0958 19.679 15.665 19.9637 14.22 19.9637C12.775 19.9637 11.3442 19.679 10.0093 19.1258C8.67437 18.5727 7.46151 17.762 6.44 16.74L12.79 10.39C13.8122 9.36201 15.0276 8.54622 16.3662 7.98955C17.7048 7.43288 19.1403 7.1463 20.59 7.1463C22.0397 7.1463 23.4752 7.43288 24.8138 7.98955C26.1524 8.54622 27.3678 9.36201 28.39 10.39V10.39ZM57.39 16.74C56.3685 17.762 55.1556 18.5727 53.8207 19.1258C52.4858 19.679 51.055 19.9637 49.61 19.9637C48.165 19.9637 46.7342 19.679 45.3993 19.1258C44.0644 18.5727 42.8515 17.762 41.83 16.74L36.09 11L35.48 10.39C36.5015 9.36802 37.7144 8.55731 39.0493 8.00418C40.3842 7.45106 41.815 7.16636 43.26 7.16636C44.705 7.16636 46.1358 7.45106 47.4707 8.00418C48.8056 8.55731 50.0185 9.36802 51.04 10.39L57.39 16.74ZM27 38H37C38.5913 38 40.1174 38.6322 41.2426 39.7574C42.3679 40.8826 43 42.4087 43 44C43 46.387 42.0518 48.6761 40.364 50.364C38.6761 52.0518 36.387 53 34 53H30C27.6131 53 25.3239 52.0518 23.636 50.364C21.9482 48.6761 21 46.387 21 44V44C21 42.4087 21.6321 40.8826 22.7574 39.7574C23.8826 38.6322 25.4087 38 27 38V38Z" fill="#EDCAD4"/>
<path d="M27 48C28.1046 48 29 47.1046 29 46C29 44.8954 28.1046 44 27 44C25.8954 44 25 44.8954 25 46C25 47.1046 25.8954 48 27 48Z" fill="#9D5B6E"/>
<path d="M37 48C38.1046 48 39 47.1046 39 46C39 44.8954 38.1046 44 37 44C35.8954 44 35 44.8954 35 46C35 47.1046 35.8954 48 37 48Z" fill="#9D5B6E"/>
</svg>
