<svg width="64" height="64" viewBox="0 0 64 64" fill="none" xmlns="http://www.w3.org/2000/svg">
<path d="M30 13V26.1C26.7306 26.412 23.58 27.4865 20.8012 29.2371C18.0224 30.9877 15.693 33.3657 14 36.18V13C14 10.8783 14.8429 8.84344 16.3431 7.34315C17.8434 5.84285 19.8783 5 22 5C24.1217 5 26.1566 5.84285 27.6569 7.34315C29.1571 8.84344 30 10.8783 30 13V13Z" fill="#DBD9D9"/>
<path d="M50 13V36.18C48.307 33.3657 45.9776 30.9877 43.1988 29.2371C40.42 27.4865 37.2694 26.412 34 26.1V13C34 10.8783 34.8429 8.84344 36.3431 7.34315C37.8434 5.84285 39.8783 5 42 5C44.1217 5 46.1566 5.84285 47.6569 7.34315C49.1571 8.84344 50 10.8783 50 13V13Z" fill="#AEAEAF"/>
<path d="M50 13V36.18C48.307 33.3657 45.9776 30.9877 43.1988 29.2371C40.42 27.4865 37.2694 26.412 34 26.1V13C34 10.8783 34.8429 8.84344 36.3431 7.34315C37.8434 5.84285 39.8783 5 42 5C44.1217 5 46.1566 5.84285 47.6569 7.34315C49.1571 8.84344 50 10.8783 50 13V13Z" fill="#DBD9D9"/>
<path d="M25 13V27.21C22.8284 27.9643 20.7999 29.08 19 30.51V13C19 12.2044 19.3161 11.4413 19.8787 10.8787C20.4413 10.3161 21.2044 10 22 10C22.7956 10 23.5587 10.3161 24.1213 10.8787C24.6839 11.4413 25 12.2044 25 13V13Z" fill="#D37B93"/>
<path d="M53 47C53 50.1826 51.7357 53.2349 49.4853 55.4853C47.2348 57.7357 44.1826 59 41 59H23C19.8174 59 16.7652 57.7357 14.5147 55.4853C12.2643 53.2349 11 50.1826 11 47C10.996 43.8247 11.7141 40.6901 13.1001 37.8333C14.486 34.9764 16.5035 32.4722 19 30.51C20.7999 29.08 22.8284 27.9643 25 27.21C26.6144 26.6349 28.2939 26.2621 30 26.1C31.33 25.9663 32.67 25.9663 34 26.1C35.7061 26.2621 37.3856 26.6349 39 27.21C41.1716 27.9643 43.2001 29.08 45 30.51C47.4931 32.4752 49.5083 34.98 50.8939 37.8362C52.2796 40.6923 52.9996 43.8255 53 47V47Z" fill="#EAEAEA"/>
<path d="M28.5 57C27.3073 56.9974 26.1643 56.5224 25.3209 55.6791C24.4776 54.8357 24.0026 53.6927 24 52.5C24 52.2348 24.1054 51.9804 24.2929 51.7929C24.4804 51.6054 24.7348 51.5 25 51.5C25.2652 51.5 25.5196 51.6054 25.7071 51.7929C25.8946 51.9804 26 52.2348 26 52.5C26 53.163 26.2634 53.7989 26.7322 54.2678C27.2011 54.7366 27.837 55 28.5 55C29.163 55 29.7989 54.7366 30.2678 54.2678C30.7366 53.7989 31 53.163 31 52.5C31 52.2348 31.1054 51.9804 31.2929 51.7929C31.4804 51.6054 31.7348 51.5 32 51.5C32.2652 51.5 32.5196 51.6054 32.7071 51.7929C32.8946 51.9804 33 52.2348 33 52.5C32.9974 53.6927 32.5224 54.8357 31.6791 55.6791C30.8357 56.5224 29.6927 56.9974 28.5 57V57Z" fill="#DBD9D9"/>
<path d="M35.5 57C34.3073 56.9974 33.1643 56.5224 32.3209 55.6791C31.4776 54.8357 31.0026 53.6927 31 52.5C31 52.2348 31.1054 51.9804 31.2929 51.7929C31.4804 51.6054 31.7348 51.5 32 51.5C32.2652 51.5 32.5196 51.6054 32.7071 51.7929C32.8946 51.9804 33 52.2348 33 52.5C33 53.163 33.2634 53.7989 33.7322 54.2678C34.2011 54.7366 34.837 55 35.5 55C36.163 55 36.7989 54.7366 37.2678 54.2678C37.7366 53.7989 38 53.163 38 52.5C38 52.2348 38.1054 51.9804 38.2929 51.7929C38.4804 51.6054 38.7348 51.5 39 51.5C39.2652 51.5 39.5196 51.6054 39.7071 51.7929C39.8946 51.9804 40 52.2348 40 52.5C39.9974 53.6927 39.5224 54.8357 38.6791 55.6791C37.8357 56.5224 36.6927 56.9974 35.5 57V57Z" fill="#DBD9D9"/>
<path d="M45 13V30.51C43.2001 29.08 41.1716 27.9643 39 27.21V13C39 12.2044 39.3161 11.4413 39.8787 10.8787C40.4413 10.3161 41.2044 10 42 10C42.7956 10 43.5587 10.3161 44.1213 10.8787C44.6839 11.4413 45 12.2044 45 13V13Z" fill="#D37B93"/>
<path d="M33 50H31V53H33V50Z" fill="#DBD9D9"/>
<path d="M32 52L29.77 50.81C29.5329 50.6792 29.336 50.4863 29.2003 50.2519C29.0646 50.0176 28.9954 49.7507 29 49.48V49.48C28.9933 49.2914 29.0241 49.1033 29.0904 48.9266C29.1568 48.7499 29.2575 48.5881 29.3867 48.4505C29.516 48.3129 29.6711 48.2023 29.8433 48.1249C30.0155 48.0476 30.2013 48.0052 30.39 48H33.61C33.7987 48.0052 33.9845 48.0476 34.1567 48.1249C34.3289 48.2023 34.484 48.3129 34.6133 48.4505C34.7425 48.5881 34.8432 48.7499 34.9096 48.9266C34.9759 49.1033 35.0067 49.2914 35 49.48V49.48C35.0046 49.7507 34.9354 50.0176 34.7997 50.2519C34.664 50.4863 34.4671 50.6792 34.23 50.81L32 52Z" fill="#D37B93"/>
</svg>
