<svg width="64" height="64" viewBox="0 0 64 64" fill="none" xmlns="http://www.w3.org/2000/svg">
<path d="M53 43.22C52.9976 45.4077 52.2338 47.5263 50.8398 49.2123C49.4457 50.8984 47.5083 52.0466 45.36 52.46L32 57L18.64 52.46C16.4917 52.0466 14.5543 50.8984 13.1602 49.2123C11.7662 47.5263 11.0024 45.4077 11 43.22C11.0024 41.7549 11.3447 40.3103 12 39L13 37C15.6326 31.7198 17.002 25.9 17 20V20C17.0014 19.6153 17.0281 19.2311 17.08 18.85C17.3054 17.3 17.9808 15.8502 19.0225 14.6805C20.0642 13.5108 21.4263 12.6727 22.94 12.27C23.6116 12.0886 24.3044 11.9978 25 12H39C39.6956 11.9978 40.3884 12.0886 41.06 12.27C42.5737 12.6727 43.9358 13.5108 44.9775 14.6805C46.0192 15.8502 46.6946 17.3 46.92 18.85C46.9719 19.2311 46.9986 19.6153 47 20V20C46.998 25.9 48.3674 31.7198 51 37L52 39C52.6553 40.3103 52.9976 41.7549 53 43.22V43.22Z" fill="#87868A"/>
<path d="M32 47C31.2627 46.9985 30.5345 46.8366 29.866 46.5254C29.1976 46.2142 28.6049 45.7612 28.1291 45.1979C27.6533 44.6346 27.3059 43.9744 27.1109 43.2633C26.9159 42.5522 26.8781 41.8072 27 41.08L30.84 31C30.8809 30.7217 31.0206 30.4675 31.2336 30.2838C31.4467 30.1002 31.7187 29.9994 32 30C32.2813 29.9994 32.5533 30.1002 32.7664 30.2838C32.9794 30.4675 33.1191 30.7217 33.16 31L37 41.08C37.1219 41.8072 37.0841 42.5522 36.8891 43.2633C36.6941 43.9744 36.3467 44.6346 35.8709 45.1979C35.3951 45.7612 34.8024 46.2142 34.134 46.5254C33.4655 46.8366 32.7373 46.9985 32 47V47Z" fill="#EAEAEA"/>
<path d="M22.94 12.27C21.4263 12.6727 20.0642 13.5109 19.0225 14.6805C17.9808 15.8502 17.3054 17.3 17.08 18.85C14.2661 18.3939 11.7066 16.951 9.85958 14.7797C8.01262 12.6084 6.99891 9.85058 7 7H13C14.9614 6.99921 16.893 7.47918 18.6259 8.39792C20.3587 9.31665 21.84 10.6461 22.94 12.27V12.27ZM57 7C57.0011 9.85058 55.9874 12.6084 54.1404 14.7797C52.2935 16.951 49.7339 18.3939 46.92 18.85C46.6946 17.3 46.0192 15.8502 44.9775 14.6805C43.9358 13.5109 42.5737 12.6727 41.06 12.27C42.16 10.6461 43.6413 9.31665 45.3741 8.39792C47.107 7.47918 49.0386 6.99921 51 7H57ZM28 52C27.7348 52 27.4804 51.8946 27.2929 51.7071C27.1054 51.5196 27 51.2652 27 51V50C27 49.7348 27.1054 49.4804 27.2929 49.2929C27.4804 49.1054 27.7348 49 28 49C28.2652 49 28.5196 49.1054 28.7071 49.2929C28.8946 49.4804 29 49.7348 29 50V51C29 51.2652 28.8946 51.5196 28.7071 51.7071C28.5196 51.8946 28.2652 52 28 52ZM36 52C35.7348 52 35.4804 51.8946 35.2929 51.7071C35.1054 51.5196 35 51.2652 35 51V50C35 49.7348 35.1054 49.4804 35.2929 49.2929C35.4804 49.1054 35.7348 49 36 49C36.2652 49 36.5196 49.1054 36.7071 49.2929C36.8946 49.4804 37 49.7348 37 50V51C37 51.2652 36.8946 51.5196 36.7071 51.7071C36.5196 51.8946 36.2652 52 36 52Z" fill="#646467"/>
</svg>
