<svg width="64" height="64" viewBox="0 0 64 64" fill="none" xmlns="http://www.w3.org/2000/svg">
<path d="M57 47H55.56C52.9179 47.0008 50.3148 47.6373 47.9704 48.8556C45.626 50.0739 43.6091 51.8384 42.09 54C41.4466 54.924 40.5898 55.6792 39.5923 56.2015C38.5947 56.7237 37.486 56.9977 36.36 57H27.64C26.5155 56.9999 25.4076 56.7289 24.41 56.21C23.4105 55.6904 22.5524 54.9354 21.91 54.01C20.392 51.8465 18.3755 50.0801 16.0311 48.86C13.6866 47.6399 11.0829 47.002 8.44 47H7L7.44 43L7.67 41L8 38L8.22 36L8.55 33L8.68 31.87C8.68 31.58 8.75 31.29 8.79 31C9.58592 25.6026 12.2397 20.6519 16.2939 17.001C20.3482 13.3502 25.549 11.2279 31 11C31.66 11 32.33 11 33 11H33.33C35.9746 11.1602 38.5706 11.783 41 12.84C44.0864 14.1584 46.8526 16.1264 49.11 18.61C52.2879 22.0668 54.3963 26.3703 55.18 31C55.26 31.46 55.33 31.92 55.38 32.39L55.45 33L55.78 36L56 38L56.33 41L56.56 43L57 47Z" fill="#FFAB00"/>
<path d="M32 48C31.7348 48 31.4804 47.8946 31.2929 47.7071C31.1054 47.5196 31 47.2652 31 47V41C31 40.7348 31.1054 40.4804 31.2929 40.2929C31.4804 40.1054 31.7348 40 32 40C32.2652 40 32.5196 40.1054 32.7071 40.2929C32.8946 40.4804 33 40.7348 33 41V47C33 47.2652 32.8946 47.5196 32.7071 47.7071C32.5196 47.8946 32.2652 48 32 48Z" fill="#3E2C27"/>
<path d="M26 52C25.7864 51.9983 25.5788 51.9283 25.4079 51.8001C25.2369 51.672 25.1115 51.4925 25.05 51.2878C24.9885 51.0832 24.9942 50.8643 25.0662 50.6631C25.1381 50.462 25.2727 50.2891 25.45 50.17L31.45 46.17C31.6696 46.0522 31.9252 46.0206 32.1668 46.0815C32.4084 46.1423 32.6187 46.2911 32.7563 46.4988C32.8939 46.7065 32.9491 46.9581 32.9109 47.2044C32.8727 47.4506 32.744 47.6737 32.55 47.83L26.55 51.83C26.389 51.9428 26.1966 52.0022 26 52V52Z" fill="#3E2C27"/>
<path d="M38 52C37.8034 52.0022 37.611 51.9428 37.45 51.83L31.45 47.83C31.256 47.6737 31.1273 47.4506 31.0891 47.2044C31.0509 46.9581 31.1061 46.7065 31.2437 46.4988C31.3813 46.2911 31.5916 46.1423 31.8332 46.0815C32.0748 46.0206 32.3304 46.0522 32.55 46.17L38.55 50.17C38.7273 50.2891 38.8619 50.462 38.9338 50.6631C39.0058 50.8643 39.0115 51.0832 38.95 51.2878C38.8885 51.4925 38.7631 51.672 38.5921 51.8001C38.4212 51.9283 38.2137 51.9983 38 52ZM32 42.38L29.77 41.26C29.537 41.1426 29.3414 40.9624 29.2054 40.7398C29.0693 40.5171 28.9982 40.2609 29 40V40C29 39.6313 29.1464 39.2778 29.4071 39.0171C29.6678 38.7564 30.0214 38.61 30.39 38.61H33.61C33.9787 38.61 34.3322 38.7564 34.5929 39.0171C34.8536 39.2778 35 39.6313 35 40C34.9981 40.2575 34.9252 40.5095 34.7894 40.7283C34.6535 40.947 34.46 41.1241 34.23 41.24L32 42.38Z" fill="#3E2C27"/>
<path d="M23 12.8C19.8663 14.0964 17.0539 16.0623 14.76 18.56C13.7577 18.156 12.8831 17.4888 12.2286 16.6288C11.5742 15.7689 11.1641 14.7481 11.0417 13.6744C10.9194 12.6006 11.0893 11.5138 11.5336 10.5287C11.9778 9.54352 12.6799 8.69664 13.5656 8.07749C14.4513 7.45834 15.4878 7.0899 16.5656 7.0111C17.6434 6.93229 18.7225 7.14604 19.6889 7.62977C20.6553 8.11351 21.473 8.84926 22.0558 9.75931C22.6387 10.6694 22.9649 11.7199 23 12.8V12.8ZM53 13C52.9994 14.2185 52.6278 15.4079 51.9347 16.41C51.2416 17.4121 50.2599 18.1795 49.12 18.61C46.8597 16.1253 44.09 14.1572 41 12.84C41.0212 11.2487 41.6737 9.73103 42.8139 8.62082C43.3785 8.0711 44.0458 7.63796 44.7778 7.34614C45.5098 7.05431 46.2921 6.90952 47.08 6.92003C47.8679 6.93053 48.6461 7.09613 49.37 7.40737C50.0939 7.7186 50.7495 8.16938 51.2992 8.73396C51.8489 9.29854 52.2821 9.96586 52.5739 10.6978C52.8657 11.4298 53.0105 12.2121 53 13V13ZM55.45 33H48C47.7348 33 47.4804 32.8947 47.2929 32.7071C47.1054 32.5196 47 32.2652 47 32C47 31.7348 47.1054 31.4805 47.2929 31.2929C47.4804 31.1054 47.7348 31 48 31H55.18C55.26 31.46 55.33 31.92 55.38 32.39L55.45 33ZM56 38H47C46.7348 38 46.4804 37.8947 46.2929 37.7071C46.1054 37.5196 46 37.2652 46 37C46 36.7348 46.1054 36.4805 46.2929 36.2929C46.4804 36.1054 46.7348 36 47 36H55.78L56 38ZM56.56 43H46C45.7348 43 45.4804 42.8947 45.2929 42.7071C45.1054 42.5196 45 42.2652 45 42C45 41.7348 45.1054 41.4805 45.2929 41.2929C45.4804 41.1054 45.7348 41 46 41H56.33L56.56 43ZM17 32C17 32.2652 16.8946 32.5196 16.7071 32.7071C16.5196 32.8947 16.2652 33 16 33H8.55L8.68 31.87C8.68 31.58 8.75 31.29 8.79 31H16C16.2652 31 16.5196 31.1054 16.7071 31.2929C16.8946 31.4805 17 31.7348 17 32ZM18 37C18 37.2652 17.8946 37.5196 17.7071 37.7071C17.5196 37.8947 17.2652 38 17 38H8L8.22 36H17C17.2652 36 17.5196 36.1054 17.7071 36.2929C17.8946 36.4805 18 36.7348 18 37ZM19 42C19 42.2652 18.8946 42.5196 18.7071 42.7071C18.5196 42.8947 18.2652 43 18 43H7.44L7.67 41H18C18.2652 41 18.5196 41.1054 18.7071 41.2929C18.8946 41.4805 19 41.7348 19 42ZM37 17H27C26.7348 17 26.4804 16.8947 26.2929 16.7071C26.1054 16.5196 26 16.2652 26 16C26 15.7348 26.1054 15.4805 26.2929 15.2929C26.4804 15.1054 26.7348 15 27 15H37C37.2652 15 37.5196 15.1054 37.7071 15.2929C37.8946 15.4805 38 15.7348 38 16C38 16.2652 37.8946 16.5196 37.7071 16.7071C37.5196 16.8947 37.2652 17 37 17ZM37 22H27C26.7348 22 26.4804 21.8947 26.2929 21.7071C26.1054 21.5196 26 21.2652 26 21C26 20.7348 26.1054 20.4805 26.2929 20.2929C26.4804 20.1054 26.7348 20 27 20H37C37.2652 20 37.5196 20.1054 37.7071 20.2929C37.8946 20.4805 38 20.7348 38 21C38 21.2652 37.8946 21.5196 37.7071 21.7071C37.5196 21.8947 37.2652 22 37 22Z" fill="#BD7F00"/>
<path d="M33 11V21C33 21.2652 32.8946 21.5196 32.7071 21.7071C32.5196 21.8946 32.2652 22 32 22C31.7348 22 31.4804 21.8946 31.2929 21.7071C31.1054 21.5196 31 21.2652 31 21V11C31.66 11 32.33 11 33 11Z" fill="#BD7F00"/>
</svg>
