<svg width="64" height="64" viewBox="0 0 64 64" fill="none" xmlns="http://www.w3.org/2000/svg">
<path d="M32.18 59C29.4695 58.9996 26.788 58.4418 24.3021 57.3612C21.8162 56.2807 19.5791 54.7006 17.7297 52.7189C15.8804 50.7373 14.4582 48.3966 13.5517 45.8421C12.6451 43.2877 12.2735 40.5741 12.46 37.87L13.81 22.31C14.1318 17.6125 16.2251 13.2125 19.6667 9.99919C23.1083 6.78591 27.6415 4.99912 32.35 5V5C37.1133 5.00133 41.6943 6.83102 45.1479 10.1115C48.6015 13.392 50.664 17.8731 50.91 22.63L51.91 38.21C52.0483 40.8874 51.6406 43.565 50.7117 46.0799C49.7828 48.5948 48.3521 50.8945 46.5066 52.8391C44.6611 54.7838 42.4394 56.3328 39.9765 57.3919C37.5136 58.451 34.861 58.9981 32.18 59V59Z" fill="#703F00"/>
<path d="M27.72 37.81L26.15 53.54C26.1095 53.9467 25.9167 54.3231 25.6103 54.5937C25.3039 54.8642 24.9065 55.0089 24.4979 54.9988C24.0893 54.9887 23.6996 54.8245 23.4069 54.5391C23.1143 54.2537 22.9404 53.8682 22.92 53.46L22.1 37L27.72 37.81ZM36.28 37.81L37.85 53.54C37.8905 53.9467 38.0834 54.3231 38.3898 54.5937C38.6962 54.8642 39.0935 55.0089 39.5021 54.9988C39.9108 54.9887 40.3005 54.8245 40.5931 54.5391C40.8857 54.2537 41.0596 53.8682 41.08 53.46L41.9 37" fill="#EAEAEA"/>
<path d="M35 23C34.9981 23.2575 34.9252 23.5095 34.7894 23.7283C34.6535 23.9471 34.46 24.1241 34.23 24.24L32 25.38L29.77 24.26C29.537 24.1426 29.3414 23.9624 29.2054 23.7398C29.0693 23.5172 28.9982 23.2609 29 23C28.998 22.8602 29.0217 22.7212 29.07 22.59C29.1507 22.3021 29.3235 22.0486 29.5618 21.868C29.8001 21.6875 30.091 21.5898 30.39 21.59H33.61C33.909 21.5898 34.1999 21.6875 34.4382 21.868C34.6765 22.0486 34.8492 22.3021 34.93 22.59C34.9783 22.7212 35.002 22.8602 35 23Z" fill="#3E2C27"/>
<path d="M46 30C46 32.1217 45.1571 34.1566 43.6569 35.6568C42.1566 37.1571 40.1217 38 38 38C37.4213 38.0032 36.8441 37.9395 36.28 37.81C34.6221 37.4454 33.1232 36.5628 32 35.29C30.8768 36.5628 29.3779 37.4454 27.72 37.81C27.1559 37.9395 26.5787 38.0032 26 38C23.8783 38 21.8434 37.1571 20.3431 35.6568C18.8429 34.1566 18 32.1217 18 30C17.9996 28.6834 18.3241 27.387 18.9448 26.2259C19.5655 25.0648 20.4632 24.0749 21.5582 23.3439C22.6533 22.6129 23.9118 22.1634 25.2221 22.0354C26.5325 21.9074 27.8542 22.1048 29.07 22.61C29.0241 22.7349 29.0004 22.8669 29 23C29.0019 23.2575 29.0748 23.5095 29.2106 23.7283C29.3465 23.9471 29.54 24.1241 29.77 24.24L32 25.38L34.23 24.26C34.463 24.1426 34.6586 23.9624 34.7946 23.7398C34.9307 23.5171 35.0018 23.2609 35 23C35.002 22.8602 34.9783 22.7212 34.93 22.59C36.1474 22.0841 37.4709 21.8869 38.7829 22.0159C40.0948 22.1449 41.3546 22.5961 42.4501 23.3294C43.5456 24.0627 44.4429 25.0554 45.0623 26.2192C45.6816 27.3829 46.0037 28.6817 46 30V30Z" fill="#965500"/>
</svg>
