<svg width="36" height="36" viewBox="0 0 36 36" fill="none" xmlns="http://www.w3.org/2000/svg">
<path d="M7.5 24.516C7.30204 24.5164 7.1084 24.4581 6.94368 24.3482C6.77896 24.2384 6.65058 24.0822 6.57483 23.8993C6.49907 23.7164 6.47937 23.5151 6.51821 23.321C6.55706 23.1269 6.6527 22.9487 6.793 22.809L22.81 6.79301C22.9028 6.70016 23.0131 6.62651 23.1344 6.57627C23.2557 6.52602 23.3857 6.50016 23.517 6.50016C23.6483 6.50016 23.7783 6.52602 23.8996 6.57627C24.0209 6.62651 24.1312 6.70016 24.224 6.79301C24.3168 6.88585 24.3905 6.99607 24.4407 7.11738C24.491 7.23869 24.5168 7.3687 24.5168 7.50001C24.5168 7.63131 24.491 7.76132 24.4407 7.88263C24.3905 8.00394 24.3168 8.11416 24.224 8.20701L8.207 24.223C8.01951 24.4106 7.76519 24.5159 7.5 24.516ZM15.782 12.778C15.5942 12.7777 15.4103 12.7245 15.2512 12.6245C15.0922 12.5246 14.9645 12.3819 14.8827 12.2128C14.801 12.0438 14.7684 11.8551 14.7888 11.6684C14.8092 11.4817 14.8817 11.3045 14.998 11.157C15.111 11.013 17.569 7.79601 15.969 3.58501C15.9195 3.46172 15.8951 3.3298 15.8972 3.19697C15.8992 3.06413 15.9278 2.93304 15.981 2.81135C16.0343 2.68967 16.1114 2.57981 16.2076 2.48822C16.3038 2.39663 16.4173 2.32512 16.5415 2.27789C16.6657 2.23065 16.798 2.20863 16.9308 2.21311C17.0635 2.21759 17.1941 2.24848 17.3148 2.30398C17.4355 2.35947 17.5439 2.43846 17.6338 2.53634C17.7236 2.63421 17.793 2.749 17.838 2.87401C19.855 8.18101 16.699 12.231 16.564 12.401C16.4706 12.5188 16.3517 12.6139 16.2162 12.6792C16.0808 12.7445 15.9323 12.7783 15.782 12.778ZM19.672 16.666C19.4837 16.6668 19.299 16.6143 19.1393 16.5146C18.9796 16.4148 18.8514 16.2718 18.7696 16.1022C18.6878 15.9326 18.6557 15.7433 18.677 15.5562C18.6983 15.3691 18.7721 15.1919 18.89 15.045C19.028 14.873 22.325 10.848 28.213 12.319C28.3404 12.3508 28.4604 12.4074 28.5659 12.4856C28.6715 12.5638 28.7605 12.6621 28.8281 12.7747C28.8956 12.8874 28.9402 13.0123 28.9594 13.1422C28.9787 13.2722 28.972 13.4046 28.94 13.532C28.8753 13.7889 28.7114 14.0098 28.4843 14.1462C28.2572 14.2826 27.9852 14.3236 27.728 14.26C23.105 13.103 20.556 16.165 20.45 16.296C20.3561 16.4118 20.2375 16.5051 20.1029 16.5691C19.9683 16.6331 19.8211 16.6662 19.672 16.666ZM6.454 18.511C5.358 18.511 4.153 18.325 2.874 17.84C2.75121 17.7934 2.63881 17.723 2.54321 17.633C2.44761 17.5429 2.37069 17.4349 2.31683 17.3151C2.26297 17.1953 2.23324 17.0661 2.22932 16.9348C2.2254 16.8036 2.24738 16.6728 2.294 16.55C2.34062 16.4272 2.41097 16.3148 2.50103 16.2192C2.59108 16.1236 2.69909 16.0467 2.81888 15.9928C2.93867 15.939 3.06789 15.9092 3.19917 15.9053C3.33045 15.9014 3.46121 15.9234 3.584 15.97C7.803 17.574 11.023 15.104 11.158 14.998C11.3665 14.835 11.6309 14.761 11.8937 14.7921C12.1565 14.8232 12.3963 14.9569 12.561 15.164C12.7254 15.3708 12.801 15.6344 12.7712 15.8969C12.7414 16.1594 12.6086 16.3993 12.402 16.564C12.273 16.667 9.907 18.511 6.454 18.511ZM8.018 10.445C6.189 10.445 3.05 9.96301 0.476 7.11301C0.384419 7.01619 0.313114 6.90204 0.266277 6.77727C0.219439 6.6525 0.198014 6.51963 0.203259 6.38646C0.208505 6.25329 0.240316 6.12252 0.296822 6.00182C0.353329 5.88112 0.433391 5.77294 0.532305 5.68362C0.631218 5.59431 0.746986 5.52567 0.872805 5.48173C0.998625 5.43779 1.13196 5.41945 1.26497 5.42778C1.39798 5.4361 1.52798 5.47093 1.64734 5.53022C1.7667 5.58951 1.873 5.67205 1.96 5.77301C4.984 9.12201 8.976 8.39201 9.146 8.36001C9.40604 8.30802 9.67609 8.36147 9.89673 8.50859C10.1174 8.65572 10.2705 8.88446 10.3225 9.14451C10.3745 9.40455 10.321 9.67459 10.1739 9.89523C10.0268 10.1159 9.79805 10.269 9.538 10.321C9.03625 10.4092 8.52741 10.4507 8.018 10.445Z" fill="black"/>
<path d="M9.341 10.341C9.19305 10.3412 9.04689 10.3085 8.91308 10.2454C8.77927 10.1822 8.66114 10.0902 8.5672 9.97589C8.47327 9.86158 8.40587 9.72785 8.36986 9.58434C8.33386 9.44083 8.33015 9.29112 8.359 9.146C8.393 8.973 9.119 4.983 5.772 1.961C5.57521 1.78317 5.45712 1.53445 5.44372 1.26956C5.43708 1.1384 5.45634 1.00721 5.5004 0.883491C5.54446 0.759772 5.61245 0.645942 5.7005 0.548501C5.78855 0.451061 5.89494 0.371917 6.01357 0.315589C6.13221 0.259261 6.26078 0.226853 6.39195 0.220213C6.65684 0.206804 6.91621 0.299174 7.113 0.477001C11.327 4.283 10.364 9.326 10.32 9.539C10.2743 9.76507 10.1519 9.96841 9.97351 10.1146C9.7951 10.2607 9.57164 10.3407 9.341 10.341ZM13.289 28.971C13.0661 28.9707 12.8497 28.896 12.6741 28.7586C12.4986 28.6213 12.3739 28.4293 12.32 28.213C10.847 22.318 14.874 19.027 15.046 18.89C15.2538 18.7333 15.5145 18.6638 15.7727 18.6962C16.031 18.7286 16.2664 18.8604 16.429 19.0636C16.5916 19.2668 16.6685 19.5254 16.6435 19.7845C16.6185 20.0436 16.4935 20.2827 16.295 20.451C16.155 20.565 13.108 23.118 14.26 27.728C14.297 27.8755 14.2998 28.0296 14.2682 28.1783C14.2367 28.3271 14.1717 28.4668 14.078 28.5866C13.9844 28.7065 13.8647 28.8034 13.7279 28.87C13.5912 28.9366 13.4411 28.9712 13.289 28.971Z" fill="black"/>
<path d="M29.844 19.167C26.884 16.208 23.749 15.598 20.929 17.098C20.772 15.224 19.763 13.091 18.408 11.735C16.92 10.247 15.4 10.082 14.003 10.691C15.061 8.226 14.603 5.26099 13.177 3.83499C11.334 1.99199 8.583 3.42399 6.003 6.00299C3.423 8.58299 1.991 11.334 3.835 13.177C5.26 14.603 8.226 15.06 10.691 14.003C10.081 15.4 10.247 16.921 11.735 18.408C13.089 19.762 15.224 20.771 17.098 20.929C15.598 23.749 16.207 26.883 19.167 29.844C22.917 33.593 31.371 35.371 33.371 33.371C35.371 31.371 33.594 22.916 29.844 19.167Z" fill="black"/>
</svg>
