<svg width="36" height="36" viewBox="0 0 36 36" fill="none" xmlns="http://www.w3.org/2000/svg">
<path d="M12.0386 3.18672C13.9071 2.48483 15.8943 2.13388 18 2.13388C20.1057 2.13388 22.0929 2.48483 23.9614 3.18672C24.5491 2.11285 25.6895 1.38461 27 1.38461C28.9118 1.38461 30.4615 2.9344 30.4615 4.84615C30.4615 5.41491 30.3244 5.95162 30.0813 6.42503C30.9387 7.14479 31.527 9.38772 31.8462 13.1538C32.1191 15.2365 33.9143 21.5077 33.9231 22.8461C33.9593 28.3563 28.6516 32.2794 18 34.6154C7.38461 32.3352 2.07692 28.4121 2.07692 22.8461C2.10971 21.4249 3.80752 15.3006 4.15384 13.1538C4.57098 9.49237 5.17155 7.27271 5.95556 6.49487C5.68955 6.00469 5.53846 5.44306 5.53846 4.84615C5.53846 2.9344 7.08824 1.38461 9 1.38461C10.3105 1.38461 11.4509 2.11285 12.0386 3.18672ZM14.5163 15.7119C13.3003 16.0932 12.5015 17.2551 12.581 18.527L12.8515 22.8556C13.0215 25.5743 15.276 27.6923 18 27.6923C20.724 27.6923 22.9785 25.5743 23.1484 22.8556L23.4132 18.6199C23.4931 17.3417 22.6861 16.1755 21.4618 15.7998C20.2257 15.4204 18.99 15.2308 17.7546 15.2308C16.6185 15.2308 15.5391 15.3911 14.5163 15.7119ZM24.9231 15.9231C26.0701 15.9231 27 14.6832 27 13.1538C27 11.6244 26.0701 10.3846 24.9231 10.3846C23.776 10.3846 22.8462 11.6244 22.8462 13.1538C22.8462 14.6832 23.776 15.9231 24.9231 15.9231ZM11.0769 15.9231C12.224 15.9231 13.1538 14.6832 13.1538 13.1538C13.1538 11.6244 12.224 10.3846 11.0769 10.3846C9.92987 10.3846 9 11.6244 9 13.1538C9 14.6832 9.92987 15.9231 11.0769 15.9231ZM20.1279 19.1831C18.9041 20.5884 16.9268 20.5828 15.734 19.1706C14.5412 17.7584 15.5425 16.6086 17.9592 16.6154C20.3758 16.6222 21.3517 17.7777 20.1279 19.1831Z" fill="black"/>
</svg>
