<svg width="36" height="36" viewBox="0 0 36 36" fill="none" xmlns="http://www.w3.org/2000/svg">
<path d="M11.261 1.95229C13.3732 1.1919 15.6195 0.811707 17.9999 0.811707C20.3803 0.811707 22.6266 1.1919 24.7388 1.95229C25.4032 0.788926 26.6923 0 28.1737 0C30.3349 0 32.0868 1.67893 32.0868 3.75C32.0868 4.36615 31.9317 4.9476 31.6569 5.46045C32.6262 6.24019 33.2912 8.67004 33.652 12.75C33.9605 15.0062 35.9899 21.8 35.9998 23.25C36.0407 29.2194 30.0407 33.4694 17.9999 36C5.99997 33.5298 0 29.2798 0 23.25C0.0370667 21.7103 1.95632 15.0756 2.34781 12.75C2.81935 8.7834 3.49826 6.37877 4.38453 5.53611C4.08381 5.00508 3.91302 4.39665 3.91302 3.75C3.91302 1.67893 5.66494 0 7.82604 0C9.30746 0 10.5966 0.788926 11.261 1.95229ZM14.0618 15.5212C12.6872 15.9343 11.7843 17.193 11.8741 18.5709L12.1799 23.2602C12.372 26.2055 14.9206 28.5 17.9999 28.5C21.0792 28.5 23.6278 26.2055 23.8198 23.2602L24.1191 18.6715C24.2094 17.2868 23.2972 16.0234 21.9132 15.6164C20.5159 15.2055 19.119 15 17.7225 15C16.4383 15 15.218 15.1737 14.0618 15.5212ZM25.8259 15.75C27.1226 15.75 28.1737 14.4069 28.1737 12.75C28.1737 11.0931 27.1226 9.75 25.8259 9.75C24.5293 9.75 23.4781 11.0931 23.4781 12.75C23.4781 14.4069 24.5293 15.75 25.8259 15.75ZM10.1739 15.75C11.4705 15.75 12.5217 14.4069 12.5217 12.75C12.5217 11.0931 11.4705 9.75 10.1739 9.75C8.87719 9.75 7.82604 11.0931 7.82604 12.75C7.82604 14.4069 8.87719 15.75 10.1739 15.75ZM20.4053 19.2817C19.0219 20.8041 16.7868 20.798 15.4383 19.2681C14.09 17.7383 15.2219 16.4926 17.9537 16.5C20.6856 16.5074 21.7887 17.7592 20.4053 19.2817Z" fill="black"/>
</svg>
