<svg width="36" height="36" viewBox="0 0 36 36" fill="none" xmlns="http://www.w3.org/2000/svg">
<path d="M35.9865 28.5199C35.8492 27.1755 33.0175 24.5182 33.0175 24.5182C33.0175 24.5182 36.0033 22.7509 35.964 21.3547C34.9132 15.3472 26.4203 18.4759 26.4203 18.4759C26.4203 18.4759 27.1504 17.8571 29.6683 15.7252C33.3145 12.3154 28.1292 10.2229 27.6826 9.62549C27.2382 9.02812 26.8928 4.99274 24.2096 5.76337C22.6177 6.22237 23.7697 -1.27463 20.8154 1.07324C19.4608 2.34787 13.3283 9.55124 19.8265 19.0665C19.0457 18.621 18.7509 19.6166 18.509 19.494C18.2492 19.3612 18.0759 18.7065 18.0748 18.7009C18.0039 18.4151 17.8172 18.1339 17.5359 17.9257C17.1624 17.6456 16.7157 17.5714 16.3602 17.6827C15.9361 16.2619 15.5682 13.7925 15.539 11.6696C15.5288 10.9114 15.1632 10.3714 14.5107 10.1509C13.6658 9.86512 12.5261 10.2094 11.9715 10.9159C11.5383 11.475 11.5203 12.1579 11.9343 12.834C11.9681 12.9105 12.0153 12.9859 12.0896 13.0399C12.3157 13.2097 12.6375 13.1636 12.8074 12.9352C12.9761 12.7091 12.93 12.3885 12.7039 12.2175C12.5137 12.0757 12.2629 12.0949 12.0851 12.2344C11.9343 11.7607 12.0795 11.3985 12.2809 11.1589C12.7331 10.5806 13.6973 10.2915 14.3847 10.5232C14.7278 10.6402 15.1373 10.9327 15.1486 11.6764C15.1643 12.8261 15.4107 16.0425 16.0081 17.8909C15.9833 17.9167 15.9552 17.9404 15.9327 17.9685C13.9898 17.9246 10.8487 18.5962 9.7439 18.9056C9.02838 19.1047 8.63124 18.7942 8.42311 18.4995C8.00572 17.9066 8.01135 16.8997 8.43774 16.3024C8.60987 16.0425 8.917 15.7995 9.41202 15.8096C9.32989 16.02 9.38389 16.2652 9.5729 16.407C9.80015 16.5746 10.1208 16.5285 10.2918 16.3024C10.4605 16.0762 10.4144 15.7556 10.1872 15.5846C10.1152 15.5295 10.0297 15.5059 9.94528 15.4946C9.18026 15.2887 8.52999 15.5014 8.11823 16.074C7.59621 16.8052 7.58946 17.9955 8.10135 18.7245C8.49961 19.2892 9.11838 19.4861 9.85078 19.2814C11.8556 18.7189 14.2733 18.3757 15.764 18.3667C15.7043 18.7695 15.9102 19.2364 16.3242 19.5469C16.6044 19.7572 16.9261 19.8529 17.2198 19.8439C17.2231 19.8439 17.9229 19.8979 18.1108 20.1454C18.2098 20.2736 18.0725 20.4896 18.077 20.7821C6.54543 16.452 1.06876 24.7095 0.197979 26.4082C-1.24094 29.8969 5.64427 26.7131 5.64427 28.3702C5.64427 31.1591 9.61902 30.3761 10.3154 30.6382C11.0141 30.8992 14.46 35.3047 16.727 30.8565C18.0782 27.8471 18.4719 26.9752 18.4719 26.9752C18.4719 26.9752 17.8172 36.0022 23.88 35.3475C25.2311 34.9976 26.1064 31.6406 26.1064 31.6406C26.1064 31.6406 29.4421 33.6262 30.7708 33.3855C32.1017 33.1447 31.9048 32.2065 30.8574 31.9027C29.8112 31.5979 26.0389 31.4887 26.0603 30.8115C26.6667 29.6741 25.9658 27.189 25.4809 25.7794C26.8062 26.4836 28.0797 27.1699 28.8121 27.6322C28.343 27.2812 27.4733 26.4544 26.4979 25.4925C27.6455 25.587 31.1049 25.7737 32.2097 24.7027C32.8521 24.4935 34.0019 28.0901 34.5847 29.0092C35.1708 29.9362 36.1237 29.8642 35.9865 28.5199Z" fill="black"/>
</svg>
