<svg width="36" height="36" viewBox="0 0 36 36" fill="none" xmlns="http://www.w3.org/2000/svg">
<path d="M35.9862 28.8946C35.849 27.5024 33.0173 24.7508 33.0173 24.7508C33.0173 24.7508 36.0031 22.9206 35.9637 21.4748C34.913 15.2539 26.4201 18.4937 26.4201 18.4937C26.4201 18.4937 27.1502 17.8529 29.6681 15.6453C33.3143 12.1143 28.129 9.94741 27.6824 9.32881C27.238 8.7102 26.8926 4.53143 24.2094 5.32944C22.6175 5.80475 23.7695 -1.95865 20.8152 0.472657C19.4606 1.79258 13.328 9.25192 19.8262 19.1053C19.0455 18.644 18.7507 19.675 18.5088 19.548C18.2489 19.4105 18.0757 18.7325 18.0746 18.7267C18.0037 18.4308 17.8169 18.1395 17.5357 17.924C17.1622 17.6339 16.7155 17.557 16.36 17.6724C15.9359 16.201 15.568 13.6439 15.5387 11.4456C15.5286 10.6604 15.163 10.1012 14.5105 9.87285C13.6656 9.57695 12.5259 9.93343 11.9713 10.665C11.5381 11.244 11.5201 11.9512 11.9341 12.6513C11.9679 12.7305 12.0151 12.8086 12.0894 12.8645C12.3155 13.0404 12.6373 12.9927 12.8072 12.7562C12.9759 12.522 12.9298 12.19 12.7036 12.0129C12.5135 11.8661 12.2626 11.8859 12.0849 12.0304C11.9341 11.5399 12.0793 11.1648 12.2806 10.9167C12.7329 10.3179 13.6971 10.0185 14.3845 10.2585C14.7276 10.3796 15.1371 10.6825 15.1484 11.4526C15.1641 12.6432 15.4105 15.9738 16.0079 17.8879C15.9831 17.9147 15.955 17.9391 15.9325 17.9683C13.9896 17.9228 10.8485 18.6183 9.74368 18.9387C9.02816 19.1449 8.63102 18.8234 8.42289 18.5181C8.0055 17.9042 8.01113 16.8615 8.43752 16.2429C8.60965 15.9738 8.91678 15.7222 9.4118 15.7327C9.32967 15.9505 9.38367 16.2045 9.57268 16.3513C9.79993 16.5249 10.1206 16.4771 10.2916 16.2429C10.4603 16.0088 10.4142 15.6768 10.1869 15.4997C10.1149 15.4426 10.0294 15.4181 9.94506 15.4065C9.18004 15.1933 8.52977 15.4135 8.11801 16.0064C7.59599 16.7637 7.58924 17.9962 8.10113 18.7511C8.49939 19.336 9.11816 19.5398 9.85056 19.3278C11.8554 18.7453 14.2731 18.39 15.7637 18.3807C15.7041 18.7977 15.91 19.2812 16.324 19.6027C16.6041 19.8206 16.9259 19.9196 17.2195 19.9103C17.2229 19.9103 17.9227 19.9662 18.1106 20.2225C18.2096 20.3553 18.0723 20.579 18.0768 20.8819C6.54521 16.3979 1.06854 24.9488 0.19776 26.7079C-1.24116 30.3205 5.64405 27.0236 5.64405 28.7396C5.64405 31.6276 9.6188 30.8168 10.3152 31.0882C11.0138 31.3585 14.4598 35.9206 16.7268 31.3142C18.0779 28.1979 18.4717 27.2951 18.4717 27.2951C18.4717 27.2951 17.8169 36.6428 23.8797 35.9648C25.2309 35.6025 26.1062 32.1262 26.1062 32.1262C26.1062 32.1262 29.4419 34.1824 30.7706 33.9331C32.1015 33.6838 31.9046 32.7122 30.8572 32.3977C29.8109 32.082 26.0387 31.969 26.0601 31.2676C26.6665 30.0898 25.9656 27.5164 25.4807 26.0567C26.806 26.786 28.0795 27.4966 28.8119 27.9754C28.3428 27.6119 27.4731 26.7557 26.4977 25.7596C27.6452 25.8575 31.1047 26.0509 32.2095 24.9418C32.8519 24.7251 34.0017 28.4496 34.5845 29.4013C35.1706 30.3613 36.1235 30.2867 35.9862 28.8946Z" fill="black"/>
</svg>
