<svg width="36" height="36" viewBox="0 0 36 36" fill="none" xmlns="http://www.w3.org/2000/svg">
<path d="M18.0672 2.148L21.6 4.8H24L27.5352 2.1504C28.0548 1.76096 28.8 2.13226 28.8 2.7816V10.8C28.8 12.5328 27.5472 13.6416 26.4 14.5752V24L28.32 29.76L30.0144 30.6072C30.7414 30.9709 31.2004 31.7143 31.2 32.5272C31.2 33.12 30.72 33.6 30.1272 33.6H10.2C7.2408 33.6 4.8 31.2 4.8 28.1112C4.8 22.9019 5.8874 19.0321 6.588 16.428C6.9386 15.1249 7.2847 14.1471 7.5312 13.4736C7.66945 13.0959 7.80787 12.7466 7.992 12.396C9.06922 10.3451 12.1785 11.8935 11.2128 13.9992C11.0957 14.2545 10.9868 14.5229 10.8936 14.76C10.6746 15.3171 10.38 16.1832 10.0632 17.3616C9.47281 19.5576 8.8176 22.8504 8.5392 27.2808C9.4224 22.3368 14.352 17.3736 18.324 13.8192C17.496 13.0368 16.8024 12.0912 16.8024 10.8V2.7792C16.8024 2.12986 17.5479 1.75817 18.0672 2.148Z" fill="black"/>
</svg>
