<svg width="36" height="36" viewBox="0 0 36 36" fill="none" xmlns="http://www.w3.org/2000/svg">
<path d="M26.8269 24.9663C26.9667 24.6454 27.0877 24.3158 27.1851 23.9774L31.4999 22.8733L36 26.155L31.4999 19.5915L27.4324 20.7781C27.3933 20.4668 27.3356 20.1607 27.2613 19.8602L30.6563 17.9508L33.3007 12.7514H33.2977C34.4173 10.5411 33.34 6.3083 30.8201 3.14832C29.1973 1.1116 27.3579 0.00604244 25.9024 0L29.2494 9.77333L23.561 5.57071C23.9814 7.36344 24.904 9.30577 26.2203 10.9547C27.2776 12.2811 28.4251 13.2123 29.4994 13.703L28.6876 16.3102L26.4566 17.8356C25.3764 15.9122 23.5321 14.405 21.2866 13.6499C21.4289 13.3946 21.5143 13.0694 21.5143 12.715C21.5143 11.8955 21.0587 11.231 20.4969 11.231C19.935 11.231 19.4794 11.8955 19.4794 12.715C19.4794 12.8975 19.5031 13.0712 19.5444 13.2327C19.0419 13.1577 18.5266 13.1171 18.0007 13.1171C17.4749 13.1171 16.9596 13.1577 16.457 13.2327C16.4983 13.0712 16.522 12.8973 16.522 12.715C16.522 11.8955 16.0664 11.231 15.5046 11.231C14.9427 11.231 14.4871 11.8955 14.4871 12.715C14.4871 13.0696 14.5726 13.3946 14.7149 13.6499C12.4691 14.405 10.6249 15.9124 9.54457 17.836L7.313 16.3104L6.50143 13.7045C7.57543 13.214 8.72257 12.2836 9.77929 10.9585C11.0956 9.30931 12.0181 7.3649 12.44 5.57029L6.75014 9.77291L10.0957 0.00145851C8.63871 0.00979291 6.80214 1.11327 5.17786 3.15207C2.658 6.31164 1.58114 10.5472 2.70214 12.7564L5.34386 17.9506L8.73943 19.8604C8.665 20.1609 8.60743 20.4668 8.56829 20.7783L4.50014 19.5917L0 26.155L4.50014 22.8733L8.81571 23.9776C8.91314 24.316 9.03414 24.6454 9.17386 24.9663L4.50014 26.1552L2.25014 31.488L6.05243 27.964L10.5479 27.3962L11.155 28.3982L9.28157 29.0266L6.75014 32.7183L9.55743 35.9938C9.55771 35.9944 9.55814 35.9952 9.55857 35.9958C9.55857 35.9956 9.55872 35.9954 9.55872 35.9952L9.56272 36L9.56086 35.989C9.69586 35.6352 9.77371 35.2287 9.77371 34.7951C9.77371 33.9287 9.46614 33.1684 9.00229 32.7298L9.00029 32.7183L10.266 31.0775H12.7786L13.1007 31.6092C13.3324 31.9918 13.6656 32.2108 14.0157 32.2108H21.9364C22.2864 32.2108 22.6196 31.9918 22.8513 31.6092L23.1734 31.0775H25.7344L27.0001 32.7183L26.9981 32.7298C26.5343 33.1684 26.2267 33.9287 26.2267 34.7951C26.2267 35.2287 26.3046 35.6352 26.4396 35.989L26.4377 36L26.4417 35.9952C26.4419 35.9954 26.4419 35.9956 26.4419 35.9958C26.4423 35.9952 26.4426 35.9944 26.443 35.9938L29.2501 32.7183L26.7189 29.0264L24.8053 28.3844L25.4077 27.3904L29.948 27.9638L33.7503 31.4878L31.5003 26.155L26.8269 24.9663Z" fill="black"/>
</svg>
