<svg width="36" height="36" viewBox="0 0 36 36" fill="none" xmlns="http://www.w3.org/2000/svg">
<path d="M32.425 16.0828H14.7705L11.4161 12L10.6217 13.5266L10.401 14.6627C10.2686 15.3373 9.60656 15.8698 8.85624 15.8698H6.56116C6.34048 15.8698 6.1198 15.8343 5.94325 15.7633C5.94325 17.9645 5.94325 20.4852 5.94325 20.5207L1.44136 24.1775C1.13241 24.426 1 24.7456 1 25.0651C1 25.3846 1.13241 25.7041 1.44136 25.9527L4.88398 28.7219C5.50189 29.2189 6.47289 29.2189 7.04666 28.7219C7.66457 28.2249 7.66457 27.4438 7.04666 26.9822L4.70744 25.1006L7.17907 23.1124C7.79697 23.6805 8.59142 24.142 9.47415 24.3905V34.7574C9.47415 35.432 10.1803 36 11.0189 36C11.8575 36 12.5637 35.432 12.5637 34.7574V24.6035H19.8903L24.0832 27.9763L19.7137 34.0828C19.2724 34.6864 19.5372 35.432 20.2875 35.787C21.0378 36.142 21.9647 35.929 22.4061 35.3254L26.9521 29.0059C27.0845 28.8284 27.1286 28.6154 27.1728 28.4024V24.7456L31.145 27.9408V34.7219C31.145 35.3965 31.8512 35.9645 32.6898 35.9645C33.5284 35.9645 34.2346 35.3965 34.2346 34.7219V18.9231C35.2055 18.9231 36 18.284 36 17.503V13.2426L32.425 16.0828Z" fill="black"/>
<path d="M15 0.802139C15 0.360963 14.625 0 14.1667 0C13.7083 0 13.3333 0.360963 13.3333 0.802139C13.3333 2.00535 12.9583 3.12834 12.25 4.09091C11.5833 3.12834 11.2083 2.00535 11.2083 0.842246C11.2083 0.40107 10.8333 0.0401071 10.375 0.0401071C9.91667 0.0401071 9.54167 0.40107 9.54167 0.842246C9.54167 2.48663 10.0833 4.0508 11.125 5.29412C10.125 6.09626 8.83333 6.53743 7.45833 6.57754C6.08333 6.53743 4.83333 6.05615 3.83333 5.29412C4.875 4.01069 5.41667 2.44652 5.41667 0.802139C5.41667 0.360963 5.04167 0 4.58333 0C4.125 0 3.75 0.360963 3.75 0.802139C3.75 1.96524 3.375 3.12834 2.70833 4.0508C2.04167 3.12834 1.66667 2.00535 1.66667 0.802139C1.66667 0.360963 1.29167 0 0.833333 0C0.375 0 0 0.360963 0 0.802139C0 3.12834 1.125 5.2139 2.91667 6.53743H0.833333C0.833333 7.70053 1.83333 8.6631 3.04167 8.6631H3.66667L5.54167 12.9144L5.75 14.3182C5.79167 14.6791 6.08333 15 6.375 15H8.54167C8.83333 15 9.125 14.7193 9.16667 14.3182L9.375 12.9144L11.25 8.6631H11.875C13.0833 8.6631 14.0833 7.70053 14.0833 6.53743H12C13.875 5.2139 15 3.12834 15 0.802139Z" fill="black"/>
</svg>
