<svg width="36" height="36" viewBox="0 0 36 36" fill="none" xmlns="http://www.w3.org/2000/svg">
<path d="M27.2841 13.7362C26.037 12.7419 24.7603 12.0001 23.464 11.5114L23.7331 10.3328L26.8599 9.73333L28.0401 13.2913L27.6496 14.0358C27.5296 13.9347 27.4079 13.8347 27.2841 13.7362ZM22.5879 11.2191L22.8663 9.99738L19.8026 7L16.6843 9.99721L16.9903 11.2256C17.8811 10.9476 18.7857 10.8089 19.7113 10.8089C20.677 10.8089 21.6371 10.9463 22.5879 11.2191ZM10.9874 15.3791L10.4777 14.5934L7.71943 15.0603L7.40657 18.5359L7.90786 19.0511C8.89543 17.7924 9.90872 16.5269 10.9874 15.3791ZM16.1103 11.5479L15.8111 10.3781L12.4914 9.8017L11.1807 13.8607L11.7077 14.6417C12.0509 14.3044 12.401 13.9809 12.7596 13.675C13.8681 12.7291 14.98 12.0233 16.1103 11.5479ZM31.11 17.7465L31.4461 17.3473L31.1629 14.2425L28.7654 14.0203L28.3486 14.6541C29.4741 15.6983 30.402 16.8007 31.11 17.7465ZM2.40643 20.1746C1.75657 20.5705 1.16871 21.7312 1.16871 22.6781C1.16871 23.9532 1.90514 25.0242 3.06943 25.0242C4.72643 25.0242 6.05329 22.9087 7.71243 20.7919C11.0897 16.4828 14.5291 11.8391 19.7114 11.8391C25.264 11.8391 29.3354 16.7243 31.074 19.2593C31.6927 20.1612 32.4836 20.5993 33.4341 20.5993C33.472 20.5993 33.5101 20.5986 33.5483 20.5972L35.704 22.1287C35.8874 22.2592 36 22.4986 36 22.7578C36 23.1598 35.733 23.486 35.4036 23.486L28.7459 23.4858L29.5619 26.6741L30.3764 28H28.0386L26.617 23.4858H25.552L24.3883 25.0028L24.8054 26.6741L25.6201 28H23.2823L22.1757 24.2769L22.7277 23.4856H19.061L19.4683 24.2692L18.4769 26.6741L18.6466 28H16.1473L17.0241 25.0028L16.202 23.4856H15.6789L14.1213 26.6747L14.29 28H11.629L13.2783 23.4854H12.9597C11.494 23.4854 10.4069 24.4954 8.07414 26.0702C5.90414 27.535 4.97257 28 3.26086 28C1.71157 27.9998 0 26.5249 0 24.019C0 21.6261 1.54514 20.3904 2.40643 20.1746ZM33.3809 21.6836C33.3809 21.9159 33.535 22.1041 33.7253 22.1041C33.9034 22.1041 34.0483 21.9384 34.0661 21.7267L33.5251 21.3425C33.4381 21.4189 33.3809 21.5429 33.3809 21.6836Z" fill="black"/>
</svg>
