<svg width="36" height="36" viewBox="0 0 36 36" fill="none" xmlns="http://www.w3.org/2000/svg">
<path d="M16.3132 12.9916C16.8949 13.3156 17.5856 13.4997 18.369 13.4997C19.6398 13.4997 20.702 13.0395 21.4389 12.2344C22.1613 11.4451 22.494 10.4096 22.494 9.375C22.494 8.75368 21.9903 8.25 21.369 8.25C20.7477 8.25 20.244 8.75368 20.244 9.375C20.244 9.94035 20.0634 10.4047 19.7792 10.7153C19.5093 11.01 19.0716 11.2497 18.369 11.2497C17.6961 11.2497 17.2732 11.0066 16.998 10.6938C16.721 10.3791 16.5419 9.93115 16.5 9.4344V6.37503C16.5 4.51194 18.0089 3.00005 19.8736 3.00003L24.6519 3C25.4157 3 26.163 3.21204 26.8128 3.61191L30.9647 6.16689C31.2974 6.37164 31.5 6.73432 31.5 7.125V9.375C31.5 11.239 29.9889 12.75 28.125 12.75H27.75V27.0494C29.1291 27.1822 30.1775 27.5989 30.8207 28.4963C31.2057 29.0335 31.3612 29.6362 31.4322 30.1885C31.5001 30.7167 31.5 31.293 31.5 31.8243V31.875C31.5 32.4963 30.9963 33 30.375 33H25.4975V31.8384C25.4979 30.9811 25.4994 28.5267 23.2474 27.0858V22.879C23.2474 22.2577 22.7437 21.754 22.1224 21.754C21.501 21.754 20.9974 22.2577 20.9974 22.879V26.2784C20.7537 26.2518 20.5032 26.2395 20.2474 26.2395C20.1372 26.2395 20.0292 26.2425 19.9515 26.2455C19.9121 26.2468 19.8787 26.2483 19.8549 26.2494L19.8264 26.2509L19.818 26.2514L19.8139 26.2515C19.1936 26.2852 18.7179 26.8155 18.7516 27.4359C18.7854 28.0563 19.3161 28.5319 19.9365 28.4982L19.9407 28.4979L19.9604 28.497L20.0343 28.4938C20.0973 28.4916 20.1754 28.4895 20.2474 28.4895C20.895 28.4895 21.3201 28.5989 21.5985 28.7454C21.6147 28.754 21.6311 28.7621 21.6475 28.7697C23.2064 29.4954 23.2474 30.9282 23.2474 31.8749V33H8.75C5.57436 33 3 30.4257 3 27.25C3 25.1529 4.12337 23.3193 5.79578 22.3161C6.32861 21.9966 7.01962 22.1694 7.33921 22.7022C7.6588 23.235 7.48593 23.926 6.95311 24.2457C5.93038 24.859 5.25 25.9757 5.25 27.25C5.25 29.183 6.81701 30.75 8.75 30.75C9.22782 30.75 9.52495 30.6252 9.72243 30.4863C9.93123 30.3393 10.0944 30.129 10.2202 29.8752C10.347 29.6196 10.4201 29.3506 10.4603 29.1364C10.4799 29.0319 10.4904 28.9472 10.4958 28.8927C10.4981 28.869 10.4995 28.8515 10.5002 28.841L10.5009 28.7887C10.5017 28.7379 10.5034 28.6656 10.5065 28.5739C10.5129 28.3909 10.5254 28.1302 10.5502 27.8095C10.5997 27.1698 10.6985 26.2834 10.897 25.294C11.2856 23.356 12.0908 20.8417 13.8242 19.0848C15.0961 17.7957 15.7875 15.9067 16.1451 14.0389C16.2135 13.6817 16.2687 13.3309 16.3132 12.9916Z" fill="#212121"/>
</svg>
