<svg width="36" height="36" viewBox="0 0 36 36" fill="none" xmlns="http://www.w3.org/2000/svg">
<path d="M26.6889 24.8003C26.8266 24.4871 26.9457 24.1653 27.0416 23.835L31.2889 22.7573L35.7187 25.9607L31.2889 19.5537L27.285 20.712C27.2465 20.4081 27.1897 20.1093 27.1166 19.8161L30.4585 17.9522L33.0616 12.8768H33.0587C34.1608 10.7193 33.1003 6.58739 30.6198 3.50278C29.0223 1.51465 27.2116 0.435464 25.779 0.429565L29.0737 9.96976L23.4741 5.86739C23.888 7.61735 24.7961 9.51335 26.0918 11.123C27.1326 12.4178 28.2622 13.3267 29.3197 13.8057L28.5206 16.3507L26.3244 17.8397C25.2612 15.9622 23.4457 14.4909 21.2352 13.7538C21.3753 13.5047 21.4594 13.1872 21.4594 12.8412C21.4594 12.0413 21.0109 11.3927 20.4578 11.3927C19.9048 11.3927 19.4563 12.0413 19.4563 12.8412C19.4563 13.0194 19.4797 13.189 19.5203 13.3466C19.0256 13.2734 18.5183 13.2338 18.0007 13.2338C17.4831 13.2338 16.9758 13.2734 16.4811 13.3466C16.5217 13.189 16.5451 13.0192 16.5451 12.8412C16.5451 12.0413 16.0966 11.3927 15.5436 11.3927C14.9905 11.3927 14.542 12.0413 14.542 12.8412C14.542 13.1874 14.6261 13.5047 14.7662 13.7538C12.5556 14.4909 10.7401 15.9624 9.67669 17.8401L7.47998 16.3509L6.68109 13.8071C7.73831 13.3283 8.86753 12.4202 9.90773 11.1266C11.2035 9.51681 12.1116 7.61878 12.5269 5.86698L6.92592 9.96935L10.2192 0.430989C8.78498 0.439125 6.97711 1.51628 5.3782 3.50644C2.89772 6.59064 1.83769 10.7251 2.94117 12.8817L5.54161 17.952L8.88412 19.8163C8.81086 20.1095 8.75419 20.4081 8.71566 20.7122L4.71108 19.5539L0.28125 25.9607L4.71108 22.7573L8.95922 23.8352C9.05512 24.1655 9.17423 24.4871 9.31177 24.8003L4.71108 25.9609L2.49623 31.1664L6.23911 27.7265L10.6643 27.1723L11.262 28.1504L9.4178 28.7638L6.92592 32.3674L9.68934 35.5647C9.68962 35.5653 9.69005 35.5661 9.69047 35.5668C9.69047 35.5665 9.69061 35.5663 9.69061 35.5661L9.69455 35.5708L9.69272 35.56C9.82561 35.2147 9.90225 34.8179 9.90225 34.3946C9.90225 33.5489 9.59948 32.8068 9.14287 32.3786L9.14091 32.3674L10.3868 30.7657H12.8602L13.1773 31.2848C13.4054 31.6582 13.7333 31.872 14.078 31.872H21.8749C22.2194 31.872 22.5474 31.6582 22.7755 31.2848L23.0926 30.7657H25.6136L26.8595 32.3674L26.8575 32.3786C26.4009 32.8068 26.0982 33.5489 26.0982 34.3946C26.0982 34.8179 26.1748 35.2147 26.3077 35.56L26.3059 35.5708L26.3098 35.5661C26.3099 35.5663 26.31 35.5665 26.31 35.5668C26.3104 35.5661 26.3107 35.5653 26.3111 35.5647L29.0744 32.3674L26.5826 28.7636L24.6989 28.1369L25.292 27.1666L29.7613 27.7263L33.5042 31.1662L31.2893 25.9607L26.6889 24.8003Z" fill="black"/>
</svg>
