<svg width="36" height="36" viewBox="0 0 36 36" fill="none" xmlns="http://www.w3.org/2000/svg">
<g clip-path="url(#clip0_31_579)">
<path d="M28.7719 0.196869C26.4938 0.196869 24.1312 1.77187 22.95 2.75624C21.7687 1.40624 20.0531 0.590619 18.1406 0.590619C16.2281 0.590619 14.5125 1.40624 13.3031 2.75624C12.1219 1.77187 9.75938 0.196869 7.48125 0.196869C4.24688 0.196869 0.984375 3.45937 0.984375 3.45937C0.984375 3.45937 2.16563 6.72187 4.24688 9.95624C6.32813 13.1906 9.08437 16.4531 9.08437 16.4531L10.8281 15.3281V34.3687C10.3781 34.3687 10.0125 34.7344 10.0125 35.1844V36H15.6937V23.2594L16.9031 36H19.35L20.5594 23.2594V36H26.2406V35.1844C26.2406 34.7344 25.875 34.3687 25.425 34.3687V15.3281L27.1687 16.4531C27.1687 16.4531 29.925 13.1906 32.0063 9.95624C34.0875 6.72187 35.2688 3.45937 35.2688 3.45937C35.2688 3.45937 32.0344 0.196869 28.7719 0.196869ZM14.0906 8.74687C14.5406 8.74687 14.9062 9.11249 14.9062 9.56249C14.9062 10.0125 14.5406 10.3781 14.0906 10.3781C13.6406 10.3781 13.275 10.0125 13.275 9.56249C13.275 9.11249 13.6406 8.74687 14.0906 8.74687ZM15.7219 19.3219C15.7219 20.9531 14.5125 22.3312 12.9656 22.5281C12.9656 22.5281 12.9375 22.5281 12.8812 22.5281C12.6281 22.5281 12.4875 22.3594 12.4875 22.1344C12.4875 21.9656 12.6 21.7969 12.7688 21.7687C13.5844 21.4031 14.1188 20.6437 14.1188 19.6875V15.2437H15.75V19.3219H15.7219ZM22.2188 8.74687C22.6688 8.74687 23.0344 9.11249 23.0344 9.56249C23.0344 10.0125 22.6688 10.3781 22.2188 10.3781C21.7687 10.3781 21.4031 10.0125 21.4031 9.56249C21.4031 9.11249 21.7687 8.74687 22.2188 8.74687ZM23.4563 22.5281H23.3719C21.7969 22.3312 20.6156 20.9531 20.6156 19.3219V15.2437H22.2188V19.6875C22.2188 20.6156 22.7813 21.4312 23.5688 21.7687C23.7375 21.7969 23.85 21.9656 23.85 22.1344C23.85 22.3594 23.6531 22.5281 23.4563 22.5281Z" fill="black"/>
</g>
<defs>
<clipPath id="clip0_31_579">
<rect width="36" height="36" fill="white"/>
</clipPath>
</defs>
</svg>
