<svg width="36" height="36" viewBox="0 0 36 36" fill="none" xmlns="http://www.w3.org/2000/svg">
<path d="M35.9747 9.26775L35.9283 9.44098C35.584 10.7397 34.7399 11.6132 33.8809 11.6132H31.4909V12.5421C31.4909 17.1872 30.2849 22.823 26.9939 24.5138L26.4355 34.3111C26.8443 34.5755 27.1343 35.2311 27.1343 36H25.4258L24.7428 23.8988L19.1714 22.3019C17.635 25.3986 15.2893 27.842 12.8021 28.5677L12.2743 34.3192C12.6759 34.5891 12.9593 35.2393 12.9593 35.9998H11.251L11.2511 25.4571C12.7389 23.9389 13.9436 21.4027 14.2364 18.439C14.2364 18.439 7.96917 28.3593 6.13533 30.2235C5.41933 30.9513 4.61976 31.3271 3.83234 31.3271C2.88635 31.3271 1.95764 30.7852 1.21121 29.6609C-0.16792 27.5835 -0.399062 24.1378 0.671217 21.6118L0.77436 21.3676C1.48964 22.6002 2.45506 23.2363 3.43477 23.2363C4.0692 23.2363 4.70976 22.9694 5.29233 22.4249C7.13203 20.7056 10.1159 17.3307 11.2904 16.1634C12.0849 15.374 13.206 14.7249 14.1087 14.3742C16.3603 13.4996 23.8054 12.3516 23.8054 12.3516L31.4906 0V3.89718C31.4899 3.89718 31.4892 3.89694 31.4887 3.89694C31.4849 3.89694 31.4906 3.89978 31.4906 3.89978V3.89718C31.5019 3.8986 31.5493 3.9111 31.7214 3.96751C32.42 4.19714 33.043 4.84616 33.4681 5.79019L34.2804 7.59375L35.815 8.61826C35.97 8.72187 36.0421 9.01569 35.9747 9.26775ZM21.3835 24.3502L19.4991 23.8102C18.8952 24.9214 18.2038 25.9216 17.4561 26.7835L19.4461 36H21.1547C21.1547 35.0215 20.6855 34.2259 20.0987 34.1891L19.2968 27.7131C20.0868 26.7731 20.7741 25.6223 21.3835 24.3502ZM30.553 34.2066L29.5665 23.7442C29.0499 24.5228 28.391 25.1706 27.7846 25.5449L29.784 36H31.4926C31.4924 35.0871 31.0842 34.334 30.553 34.2066Z" fill="black"/>
</svg>
