<svg width="36" height="36" viewBox="0 0 36 36" fill="none" xmlns="http://www.w3.org/2000/svg">
<g clip-path="url(#clip0_64_269)">
<path d="M27.9081 8.08938C27.4794 5.76437 25.4494 4 23 4C20.5481 4 18.5175 5.76813 18.0912 8.09625C7.92187 9.06 -0.0312498 17.6325 2.22433e-07 28.0613C0.00687522 30.2438 1.8175 32 4 32H23C23.5525 32 24 31.5525 24 31C24 29.8956 23.1044 29 22 29H17.0319L19.2694 25.9794C20.7781 23.715 19.9162 20.4619 17.1625 19.3169C15.6694 18.6963 13.9406 19.0263 12.6475 19.9969L10.6 21.5338C10.1587 21.8656 9.53187 21.7781 9.19937 21.3344C8.86812 20.8919 8.95687 20.265 9.39875 19.9338L11.5725 18.3031C13.875 16.5744 17.09 16.5769 19.3931 18.3031C20.0725 18.8125 22.26 20.7444 21.9431 24.1287L29.3512 32H35C35.5525 32 36 31.5525 36 31C36 29.8956 35.1044 29 34 29H30.6481L24.4906 22.4575L34.1431 17.0419C34.7064 16.726 35.1753 16.2657 35.5017 15.7085C35.828 15.1512 36 14.517 36 13.8713C36 12.5338 35.2675 11.3119 34.095 10.6694C31.56 9.28063 27.9081 8.08938 27.9081 8.08938ZM23 10.5C22.1712 10.5 21.5 9.82812 21.5 9C21.5 8.17125 22.1712 7.5 23 7.5C23.8281 7.5 24.5 8.17125 24.5 9C24.5 9.82812 23.8281 10.5 23 10.5Z" fill="black"/>
</g>
<defs>
<clipPath id="clip0_64_269">
<rect width="36" height="36" fill="white"/>
</clipPath>
</defs>
</svg>
