<svg width="36" height="36" viewBox="0 0 36 36" fill="none" xmlns="http://www.w3.org/2000/svg">
<path d="M15.5089 25.4672C14.9464 24.6234 14.4643 23.8922 14.4643 22.3453C14.4643 20.7984 14.9464 20.0672 15.5089 19.2234C16.0232 18.4641 16.5857 17.6063 16.7625 16.2C16.7786 16.0875 16.7625 15.9609 16.7304 15.8625H14.8339C14.8179 15.9047 14.8018 15.9609 14.8018 16.0172C14.6732 17.0578 14.2554 17.6766 13.8054 18.3656C13.1946 19.2938 12.4875 20.3484 12.4875 22.3594C12.4875 24.3703 13.1946 25.425 13.8054 26.3531C14.2554 27.0422 14.6571 27.6469 14.8018 28.6734C14.8339 29.1234 15.2518 29.4891 15.7821 29.4891C16.3286 29.4891 16.7625 29.0953 16.7625 28.6313C16.7625 28.6172 16.7625 28.575 16.7625 28.575C16.6018 27.0984 16.0232 26.2406 15.5089 25.4672Z" fill="black"/>
<path d="M8.96786 21.6C8.96786 20.0531 9.45 19.3219 10.0125 18.4781C10.4786 17.7891 10.9768 17.0297 11.2018 15.8625H9.19286C9 16.5656 8.67857 17.0578 8.30893 17.6063C7.69822 18.5344 6.99107 19.5891 6.99107 21.5859C6.99107 23.5969 7.69822 24.6516 8.30893 25.5656C8.87143 26.4094 9.35357 27.1406 9.35357 28.6875C9.35357 30.2344 8.87143 30.9656 8.30893 31.8094C7.85893 32.4844 7.36072 33.2297 7.13572 34.3688C7.02322 34.9031 7.48929 35.3953 8.1 35.3953C8.58214 35.3953 8.98393 35.0859 9.06429 34.6781C9.24107 33.8484 9.59464 33.3 10.0125 32.6813C10.6232 31.7531 11.3304 30.6984 11.3304 28.6875C11.3304 26.6766 10.6232 25.6219 10.0125 24.7078C9.45 23.8641 8.96786 23.1328 8.96786 21.6Z" fill="black"/>
<path d="M23.3357 17.1C23.3357 16.6359 23.2875 16.2281 23.2071 15.8625H21.1821V15.8766C21.2946 16.2281 21.3589 16.6219 21.3589 17.1C21.3589 18.5906 20.7482 19.3078 20.0411 20.1375C19.2375 21.0797 18.3375 22.1484 18.3375 24.2016C18.3375 26.2688 19.2375 27.3234 20.0411 28.2656C20.6036 28.9406 21.1179 29.5313 21.2946 30.5297C21.375 30.9516 21.7768 31.275 22.275 31.275C22.8857 31.275 23.3357 30.7969 23.2554 30.2766C23.0143 28.8563 22.2911 28.0125 21.6482 27.2391C20.9411 26.4094 20.3304 25.6922 20.3304 24.2016C20.3304 22.7109 20.9411 21.9938 21.6482 21.1641C22.4357 20.2219 23.3357 19.1531 23.3357 17.1Z" fill="black"/>
<path d="M18.4018 0.492188C11.1375 0.492188 5.23929 4.89375 5.23929 10.3219C5.23929 11.2219 5.4 12.0938 5.70536 12.9094C5.99465 13.7109 6.83036 14.2594 7.79465 14.2594H29.0411C29.9893 14.2594 30.825 13.7109 31.1304 12.9094C31.4357 12.0797 31.5964 11.2078 31.5964 10.3219C31.5643 4.89375 25.6661 0.492188 18.4018 0.492188Z" fill="black"/>
<path d="M30.2143 21.6C30.2143 19.5328 29.3143 18.4781 28.5107 17.5359C28.0607 17.0156 27.6589 16.5234 27.4179 15.8625H25.3929C25.6821 17.0719 26.3411 17.8594 26.9357 18.5625C27.6429 19.3922 28.2536 20.1094 28.2536 21.6C28.2536 23.0906 27.6429 23.8078 26.9357 24.6375C26.1321 25.5797 25.2321 26.6484 25.2321 28.7016C25.2321 30.7688 26.1321 31.8234 26.9357 32.7656C27.45 33.3703 27.9 33.9047 28.1089 34.7203C28.2054 35.1141 28.6071 35.3953 29.0732 35.3953C29.7161 35.3953 30.1821 34.875 30.0375 34.3266C29.7321 33.1734 29.1054 32.4141 28.5107 31.7391C27.8036 30.9094 27.1929 30.1922 27.1929 28.7016C27.1929 27.2109 27.8036 26.4938 28.5107 25.6641C29.3143 24.7219 30.2143 23.6531 30.2143 21.6Z" fill="black"/>
</svg>
