<svg width="36" height="36" viewBox="0 0 36 36" fill="none" xmlns="http://www.w3.org/2000/svg">
<path d="M35.4128 10.238L35.3671 10.392C35.0282 11.5464 34.1973 12.3228 33.3517 12.3228H30.999V13.1485C30.999 17.2775 29.8119 22.2871 26.5723 23.79L26.0226 32.4988C26.4251 32.7337 26.7105 33.3165 26.7105 34H25.0287L24.3563 23.2433L18.872 21.8239C17.3595 24.5765 15.0505 26.7484 12.6022 27.3935L12.0826 32.5059C12.4779 32.7459 12.7569 33.3239 12.7569 33.9998H11.0753L11.0754 24.6285C12.5399 23.279 13.7258 21.0247 14.0141 18.3902C14.0141 18.3902 7.8447 27.2083 6.0395 28.8653C5.33469 29.5123 4.54761 29.8463 3.77248 29.8463C2.84127 29.8463 1.92706 29.3646 1.1923 28.3652C-0.165297 26.5187 -0.392829 23.4558 0.660734 21.2105L0.762265 20.9934C1.46637 22.0891 2.41672 22.6545 3.38112 22.6545C4.00564 22.6545 4.6362 22.4172 5.20967 21.9332C7.02064 20.405 9.95787 17.4051 11.1141 16.3675C11.8961 15.6657 12.9997 15.0888 13.8883 14.7771C16.1047 13.9996 23.4335 12.9792 23.4335 12.9792L30.9988 2V5.46416C30.998 5.46416 30.9973 5.46395 30.9969 5.46395C30.9931 5.46395 30.9988 5.46647 30.9988 5.46647V5.46416C31.0099 5.46542 31.0565 5.47654 31.226 5.52668C31.9137 5.73079 32.5269 6.3077 32.9454 7.14684L33.745 8.75L35.2556 9.66067C35.4082 9.75277 35.4792 10.014 35.4128 10.238ZM21.0495 23.6446L19.1945 23.1647C18.6001 24.1523 17.9195 25.0414 17.1835 25.8075L19.1424 34H20.8242C20.8242 33.1302 20.3624 32.4231 19.7847 32.3903L18.9954 26.6339C19.7731 25.7983 20.4496 24.7754 21.0495 23.6446ZM30.0758 32.4059L29.1047 23.1059C28.5962 23.798 27.9476 24.3739 27.3507 24.7066L29.3188 34H31.0007C31.0006 33.1886 30.5987 32.5191 30.0758 32.4059Z" fill="black"/>
</svg>
