<svg width="36" height="36" viewBox="0 0 36 36" fill="none" xmlns="http://www.w3.org/2000/svg">
<path d="M14.0268 25.7599C13.2585 24.8896 12.6 24.1354 12.6 22.5399C12.6 20.9444 13.2585 20.1902 14.0268 19.3199C14.7293 18.5367 15.4976 17.6519 15.739 16.2015C15.761 16.0854 15.739 15.9549 15.6951 15.8533H13.1049C13.0829 15.8969 13.061 15.9549 13.061 16.0129C12.8854 17.0862 12.3146 17.7244 11.7 18.4351C10.8659 19.3924 9.90001 20.4803 9.90001 22.5544C9.90001 24.6285 10.8659 25.7164 11.7 26.6737C12.3146 27.3844 12.8634 28.0081 13.061 29.0669C13.1049 29.531 13.6756 29.9081 14.4 29.9081C15.1464 29.9081 15.739 29.502 15.739 29.0234C15.739 29.0089 15.739 28.9654 15.739 28.9654C15.5195 27.4424 14.7293 26.5576 14.0268 25.7599Z" fill="black"/>
<path d="M5.09268 21.7712C5.09268 20.1757 5.75122 19.4214 6.51951 18.5512C7.1561 17.8405 7.83659 17.0572 8.1439 15.8533H5.4C5.13659 16.5786 4.69756 17.0862 4.19269 17.6519C3.35854 18.6092 2.39268 19.697 2.39268 21.7567C2.39268 23.8308 3.35854 24.9186 4.19269 25.8614C4.96098 26.7317 5.61951 27.4859 5.61951 29.0814C5.61951 30.6769 4.96098 31.4311 4.19269 32.3014C3.57805 32.9976 2.89756 33.7663 2.59025 34.9412C2.43659 35.4923 3.07317 36 3.90732 36C4.56586 36 5.11464 35.6809 5.22439 35.2603C5.46586 34.4045 5.94878 33.8388 6.51951 33.2006C7.35366 32.2434 8.31951 31.1555 8.31951 29.0814C8.31951 27.0073 7.35366 25.9194 6.51951 24.9766C5.75122 24.1064 5.09268 23.3521 5.09268 21.7712Z" fill="black"/>
<path d="M24.7171 17.1297C24.7171 16.6511 24.6512 16.2305 24.5415 15.8533H21.7756V15.8679C21.9293 16.2305 22.0171 16.6366 22.0171 17.1297C22.0171 18.6672 21.1829 19.4069 20.2171 20.2627C19.1195 21.2345 17.8902 22.3368 17.8902 24.4545C17.8902 26.5866 19.1195 27.6745 20.2171 28.6463C20.9854 29.3425 21.6878 29.9517 21.9293 30.9815C22.039 31.4166 22.5878 31.7502 23.2683 31.7502C24.1024 31.7502 24.7171 31.2571 24.6073 30.7204C24.278 29.2554 23.2902 28.3852 22.4122 27.5874C21.4463 26.7317 20.6122 25.9919 20.6122 24.4545C20.6122 22.917 21.4463 22.1773 22.4122 21.3215C23.4878 20.3497 24.7171 19.2474 24.7171 17.1297Z" fill="black"/>
<path d="M17.978 0C8.0561 0 0 4.53989 0 10.1386C0 11.0669 0.219513 11.9662 0.636586 12.8074C1.03171 13.6342 2.17317 14.1998 3.49024 14.1998H32.5098C33.8049 14.1998 34.9463 13.6342 35.3634 12.8074C35.7805 11.9517 36 11.0524 36 10.1386C35.9561 4.53989 27.9 0 17.978 0Z" fill="black"/>
<path d="M34.1122 21.7712C34.1122 19.639 32.883 18.5512 31.7854 17.5794C31.1708 17.0427 30.622 16.5351 30.2927 15.8533H27.5269C27.922 17.1007 28.822 17.913 29.6342 18.6382C30.6 19.494 31.4342 20.2337 31.4342 21.7712C31.4342 23.3086 30.6 24.0484 29.6342 24.9041C28.5366 25.8759 27.3073 26.9782 27.3073 29.0959C27.3073 31.228 28.5366 32.3159 29.6342 33.2877C30.3366 33.9114 30.9512 34.4625 31.2366 35.3038C31.3683 35.7099 31.9171 36 32.5537 36C33.4317 36 34.0683 35.4633 33.8708 34.8977C33.4537 33.7083 32.5976 32.9251 31.7854 32.2288C30.8195 31.3731 29.9854 30.6334 29.9854 29.0959C29.9854 27.5584 30.8195 26.8187 31.7854 25.9629C32.883 24.9911 34.1122 23.8888 34.1122 21.7712Z" fill="black"/>
</svg>
