<svg width="36" height="36" viewBox="0 0 36 36" fill="none" xmlns="http://www.w3.org/2000/svg">
<path d="M12.6201 21.464L15.904 22.8008C14.4831 24.9601 12.2295 26.909 12.2295 26.909L12.7354 30.0909C13.6588 30.0909 14.4129 30.9387 14.4333 31.9995V32H11.1111L10.0963 25.0089C11.0115 23.902 11.8564 22.7201 12.6201 21.464ZM27.2962 24.2241L29.4851 31.9997H32.669C32.669 30.9455 31.9252 30.0905 31.0078 30.0905L29.9161 23.1899C28.5666 24.1066 27.2962 24.2241 27.2962 24.2241ZM32.669 8.45458V7.85806L31.0078 7.18186C31.0269 5.44903 29.8163 4.02877 28.3084 4.01503L26.6473 4C22.9395 4 19.9336 7.45451 19.9336 11.7158V12.909H8.23345H8.22319C5.35964 12.909 2.91712 15.3694 2.5418 18.6321L1.81898 24.9174C1.69875 25.9621 0.916875 26.7498 0 26.7498V29.4543C0 29.4543 2.82052 28.7184 3.19134 25.1259L3.91416 18.8406C4.12664 16.9931 5.21311 15.4854 6.65367 14.8396L5.28848 23.3153L4.61644 24.141C4.49873 24.2858 4.44628 24.4851 4.47469 24.6805L5.53711 31.9998H8.85938C8.85938 30.9456 8.11561 30.0907 7.19817 30.0907H7.0598L6.6555 26.9088L6.74044 26.8308C8.86233 24.8804 10.6992 22.5525 12.1816 19.9355L18.874 22.6593C19.5753 22.9448 20.3137 23.0907 21.0578 23.0907H23.2559V31.9997H26.5781V31.6815C26.5781 30.8028 25.9584 30.0905 25.1938 30.0905L26.3012 23.0905L27.3864 22.9268C29.8637 22.392 31.1593 20.5451 31.7697 18.9876C32.3879 17.4108 32.6694 15.8816 32.669 14.2528C32.6689 13.5201 32.6689 12.9088 32.6689 12.9088H33.8753C34.4617 12.9088 34.9665 12.4332 35.0816 11.7724L35.4375 9.72729L32.669 8.45458Z" fill="black"/>
</svg>
