<svg width="36" height="36" viewBox="0 0 36 36" fill="none" xmlns="http://www.w3.org/2000/svg">
<path d="M12.8204 22.4538L16.1564 24.1724C14.713 26.9487 12.4236 29.4544 12.4236 29.4544L12.9376 33.5454C13.8756 33.5454 14.6417 34.6354 14.6624 35.9994V36H11.2874L10.2566 27.0114C11.1863 25.5883 12.0446 24.0687 12.8204 22.4538ZM27.7294 26.0024L29.9531 35.9996H33.1876C33.1876 34.6442 32.432 33.545 31.5 33.545L30.391 24.6728C29.02 25.8513 27.7294 26.0024 27.7294 26.0024ZM33.1876 5.72731V4.96036L31.5 4.09097C31.5194 1.86304 30.2896 0.0369866 28.7577 0.0193244L27.0703 0C23.3036 0 20.25 4.44151 20.25 9.9203V11.4544H8.36414H8.35371C5.44471 11.4544 2.96343 14.6178 2.58214 18.8127L1.84786 26.8938C1.72571 28.237 0.931429 29.2497 0 29.2497V32.7269C0 32.7269 2.86529 31.7808 3.242 27.1619L3.97629 19.0807C4.19214 16.7055 5.29586 14.767 6.75929 13.9367L5.37243 24.834L4.68971 25.8956C4.57014 26.0818 4.51686 26.338 4.54571 26.5892L5.625 35.9998H9C9 34.6444 8.24443 33.5452 7.31243 33.5452H7.17186L6.76114 29.4542L6.84743 29.3538C9.003 26.8462 10.869 23.8532 12.375 20.4885L19.1736 23.9906C19.886 24.3575 20.6361 24.5452 21.392 24.5452H23.625V35.9996H27V35.5904C27 34.4607 26.3704 33.545 25.5937 33.545L26.7187 24.545L27.8211 24.3345C30.3377 23.6469 31.6539 21.2723 32.274 19.2698C32.902 17.2424 33.188 15.2763 33.1876 13.1822C33.1874 12.2401 33.1874 11.4542 33.1874 11.4542H34.413C35.0087 11.4542 35.5216 10.8427 35.6384 9.99303L36 7.36366L33.1876 5.72731Z" fill="black"/>
</svg>
