<svg width="36" height="36" viewBox="0 0 36 36" fill="none" xmlns="http://www.w3.org/2000/svg">
<g clip-path="url(#clip0_31_558)">
<path d="M3.48407 16.6022C3.52819 16.6856 3.56746 16.7715 3.61767 16.878C3.63643 16.9178 3.62096 16.9323 3.58269 16.9104C3.19731 16.6902 2.84065 16.4863 2.48572 16.2832C2.44744 16.2614 2.39164 16.2693 2.36101 16.301C2.35063 16.3116 2.34044 16.3223 2.33007 16.3329C2.29937 16.3646 2.29353 16.4204 2.31664 16.4579C2.48876 16.7386 2.64367 17.0339 2.85158 17.2849C3.0521 17.5267 3.30183 17.741 3.56423 17.9159C4.3727 18.4547 5.18042 18.9987 6.02461 19.4771C6.37121 19.6733 6.80903 19.7098 7.20677 19.8138C10.236 20.6063 9.47371 20.2783 11.4605 22.2082C11.6286 22.3715 11.7478 22.621 11.8033 22.8512C11.8413 23.0089 11.763 23.2208 11.6783 23.377C11.2474 24.172 10.5391 24.7094 9.87077 25.284C9.82311 25.325 9.82236 25.4279 9.81192 25.5037C9.73842 26.0399 9.6413 26.5749 9.60681 27.1136C9.58705 27.4236 9.62738 27.7535 9.71816 28.0506C9.84057 28.4506 10.0282 28.8322 10.2059 29.2132C10.3943 29.6168 10.6009 29.7238 11.0583 29.649C11.1016 29.6419 11.1348 29.5993 11.1341 29.5552C11.1226 28.7118 11.6548 28.1548 12.2222 27.596C12.8382 26.9894 13.5585 26.9589 14.319 27.072C14.3627 27.0785 14.4098 27.1179 14.4232 27.1597C14.7315 28.1185 14.4937 29.0829 14.4706 30.0432C14.4585 30.5467 14.4352 31.0527 14.4686 31.5541C14.5165 32.2693 14.3094 32.8889 13.8774 33.4444C13.6477 33.7395 13.4276 33.7719 13.1962 33.4821C12.9946 33.2297 12.8486 32.9257 12.7163 32.6273C12.566 32.2883 12.3776 32.2034 12.1628 32.4075C12.1309 32.4379 12.1415 32.4777 12.1816 32.496C12.4161 32.604 12.4972 32.7515 12.3066 33.0339C12.2496 33.1183 12.3048 33.3571 12.3905 33.4446C12.5978 33.6556 12.844 33.8284 13.0998 34.0292C13.1343 34.0563 13.1272 34.086 13.0839 34.0931C12.4688 34.1947 11.9433 34.0096 11.4469 33.7001C10.952 33.3916 10.5038 33.5748 10.4145 34.0984C10.4072 34.1417 10.4351 34.1595 10.4731 34.1374C10.6029 34.0621 10.7395 33.9828 10.877 33.903C10.915 33.8809 10.969 33.8748 10.9976 33.8893C11.0263 33.9039 11.0392 33.9501 11.0311 33.9932C10.9733 34.3035 11.1635 34.3658 11.4175 34.4006C11.652 34.4326 11.8776 34.5256 12.1109 34.5738C12.3076 34.6146 12.5084 34.6364 12.7242 34.7198C12.7652 34.7356 12.7637 34.7609 12.7216 34.7735C12.588 34.8144 12.4549 34.8559 12.3205 34.8948C11.9907 34.9903 11.6502 35.059 11.333 35.1858C11.0689 35.2915 10.8861 35.4865 10.9069 35.79C10.9099 35.8338 10.9419 35.8944 10.9731 35.9256C10.9918 35.9444 11.0106 35.9631 11.0294 35.9818C11.0606 36.013 11.0905 36.0029 11.096 35.959C11.1257 35.721 11.1448 35.6084 11.5795 35.6609C12.1096 35.725 12.745 35.4335 13.2391 35.1376C13.7568 34.8279 14.2255 34.6968 14.7982 34.8636C15.0893 34.9483 15.3948 34.9858 15.6954 35.0337C15.7694 35.0454 15.8813 35.0431 15.9236 34.998C16.2849 34.6144 16.5346 34.7909 16.7661 35.1526C16.7899 35.1896 16.8191 35.1866 16.8284 35.1435C16.909 34.7754 16.6991 34.584 16.4464 34.494C16.1971 34.4052 15.8838 34.3583 15.6374 34.4285C15.1811 34.5587 14.8647 34.4149 14.599 34.155C14.5675 34.1244 14.5625 34.0681 14.586 34.0308C15.1651 33.1235 15.7289 32.2403 16.2924 31.3575C16.3163 31.3204 16.3156 31.2698 16.2907 31.2447C16.2661 31.2196 16.2788 31.2135 16.3189 31.2315C16.3929 31.2647 16.4733 31.3007 16.5785 31.3479C16.6187 31.3659 16.6502 31.3448 16.6492 31.3007C16.6441 31.1068 16.6395 30.9379 16.6349 30.763C16.6336 30.7189 16.6613 30.7047 16.6965 30.7311C16.7784 30.7927 16.8557 30.8507 16.9321 30.9083C16.9673 30.9346 17.0307 30.9488 17.0738 30.94C17.0753 30.9397 17.0769 30.9392 17.0784 30.9389C17.1215 30.9299 17.1519 30.887 17.1466 30.8434C17.1167 30.6036 17.0867 30.3635 17.0566 30.1206C17.0513 30.077 17.0822 30.0458 17.1263 30.0468C17.4836 30.0549 17.6955 29.8326 17.6124 29.5177C17.478 29.0109 17.2896 28.5186 17.1535 28.0122C17.102 27.8214 17.1094 27.6147 17.0987 27.4046C17.0964 27.3607 17.1279 27.3357 17.1699 27.3486C17.2062 27.3598 17.2414 27.3706 17.2799 27.3823C17.3221 27.3952 17.3466 27.3711 17.3352 27.3288C17.3167 27.2611 17.2997 27.1995 17.283 27.1386C17.2714 27.096 17.2977 27.0628 17.3416 27.0644C17.5459 27.0708 17.7404 27.0768 17.9548 27.0835C17.9989 27.0847 18.0443 27.1202 18.056 27.1627C18.4679 28.6352 18.8183 30.1018 17.6485 31.469C17.6199 31.5025 17.5669 31.5084 17.5311 31.4827C17.376 31.372 17.1937 31.2419 16.9531 31.0703C16.9174 31.0447 16.8897 31.0596 16.8915 31.1035C16.8971 31.2535 16.896 31.3078 16.9047 31.36C16.931 31.5159 17.0319 31.773 16.9807 31.8072C16.8443 31.8985 16.6651 31.9254 16.4945 31.9657C16.4517 31.9758 16.4136 31.9497 16.4093 31.9058C16.4068 31.8822 16.4045 31.8587 16.4022 31.8351C16.3977 31.7913 16.3703 31.7821 16.3409 31.8148C16.2724 31.8906 16.2007 31.9702 16.1137 32.0663C16.0843 32.099 16.0952 32.1338 16.1378 32.1439C16.3161 32.1863 16.4646 32.2212 16.6317 32.261C16.6745 32.2711 16.684 32.3049 16.6469 32.3287C16.3097 32.5437 15.7378 32.203 15.6128 32.8401C15.6044 32.8831 15.6361 32.9159 15.68 32.9133C16.0344 32.8936 16.3985 32.9192 16.7222 32.8167C17.4029 32.6015 17.9198 32.7556 18.3726 33.2911C18.5552 33.5069 18.7334 33.8179 19.1631 33.6194C19.2032 33.6009 19.2321 33.6188 19.2295 33.6627C19.2211 33.8108 19.2141 33.9312 19.2082 34.0376C19.2057 34.0815 19.2366 34.1031 19.2737 34.0792C19.5064 33.93 19.5809 33.6249 19.3733 33.3397C19.2412 33.1585 19.0186 33.039 18.826 32.9077C18.6855 32.8122 18.509 32.7648 18.3802 32.6578C17.9292 32.2829 17.9541 32.1627 18.3686 31.7644C18.7851 31.3641 19.154 30.9143 19.5497 30.4918C19.6045 30.4333 19.6815 30.3957 19.8019 30.3207C19.8393 30.2973 19.8765 30.2428 19.8856 30.1997C19.9107 30.0819 19.9444 29.9214 19.9812 29.7482C19.9903 29.7051 20.0248 29.6934 20.0583 29.7221C20.1316 29.7852 20.199 29.8433 20.2747 29.9084C20.3082 29.937 20.3432 29.9256 20.3552 29.8833C20.3716 29.8255 20.3855 29.7814 20.3823 29.7383C20.3542 29.3707 20.5298 29.089 20.737 28.8102C20.7793 28.7531 20.7474 28.6289 20.728 28.5401C20.6746 28.2932 20.612 28.0483 20.5483 27.7869C20.5379 27.7441 20.563 27.7218 20.6043 27.7369C20.6621 27.7583 20.7217 27.7801 20.7964 27.8075C20.8378 27.8227 20.8609 27.8006 20.8482 27.7586C20.762 27.4744 20.6864 27.2257 20.6025 26.9495C20.5896 26.9074 20.6076 26.8953 20.6421 26.9224C20.686 26.9566 20.7228 26.9855 20.7567 27.0121C20.7915 27.0393 20.8396 27.0544 20.8644 27.0458C20.8893 27.0375 20.901 26.9956 20.8906 26.953C20.8447 26.7624 20.7986 26.5714 20.7524 26.3798C20.742 26.337 20.7635 26.2828 20.8008 26.2594C21.0921 26.0794 21.4199 25.9382 21.5202 25.529C21.5415 25.4423 21.7786 25.2874 21.8684 25.2413C22.4644 24.9345 23.0971 24.6916 23.735 24.4787C23.9044 24.4222 24.1386 24.5253 24.3334 24.586C24.9877 24.79 25.6267 25.0552 26.2925 25.2054C26.8091 25.322 27.3129 25.1564 27.757 24.8347C28.3029 24.4395 28.8809 24.0871 29.414 23.6761C30.0494 23.1863 30.6509 22.6527 31.2691 22.1406C31.6431 21.8305 32.0277 21.5331 32.3947 21.2152C32.7608 20.898 33.1172 20.569 33.4643 20.231C33.5845 20.1142 33.6624 19.9542 33.7625 19.8157C33.8647 19.6741 33.9615 19.5272 34.0763 19.3962C34.2059 19.2484 34.3843 19.1345 34.4812 18.9703C34.5414 18.8683 34.5324 18.7258 34.5056 18.5852C34.4972 18.5419 34.5059 18.4757 34.5259 18.4363C34.7188 18.0553 34.6557 17.9838 34.2655 17.6727C33.8543 17.345 33.4563 17.3348 33.0081 17.527C31.4109 18.211 29.8117 18.8899 28.2158 19.577C26.1524 20.4651 26.1511 20.517 23.9275 20.4123C22.6371 20.3515 21.3566 20.356 20.0791 20.4749C20.0352 20.479 20.0302 20.464 20.0676 20.4409C20.2923 20.3028 20.5123 20.1573 20.7278 20.0044C20.7638 19.9788 20.8254 19.944 20.8657 19.9263C21.2397 19.7628 21.6085 19.5859 21.9835 19.4238C22.1004 19.3734 22.2342 19.3556 22.3622 19.3381C22.9629 19.2567 23.4448 19.0081 23.7049 18.4245C23.7327 18.3621 23.8052 18.318 23.861 18.2701C23.9711 18.1756 24.1341 18.1058 24.1851 17.9872C24.2999 17.7187 24.4051 17.4758 24.6804 17.313C24.7456 17.2748 24.7129 17.0707 24.7081 16.8841C24.7068 16.84 24.7421 16.7931 24.7819 16.7743C24.9781 16.6815 25.0549 16.5215 24.9811 16.1953C24.9302 15.9699 25.2077 15.6887 25.2549 15.418C25.33 14.9867 25.5206 14.5606 25.3087 14.0984C25.2105 13.8839 25.2384 13.6122 25.2055 13.367C25.1299 12.806 25.0891 12.2361 24.9578 11.6882C24.9053 11.4694 24.7109 11.2843 24.5798 11.1224C24.5522 11.0882 24.5567 11.0337 24.5877 11.0027C24.6985 10.8919 24.8134 10.7771 24.9286 10.6617C24.9598 10.6305 24.9598 10.5801 24.9286 10.5489C24.8014 10.4214 24.6726 10.2929 24.5349 10.155C24.5037 10.1238 24.5083 10.0787 24.5453 10.0551C24.6567 9.9841 24.7932 9.9022 24.9099 9.798C24.9882 9.72803 25.0569 9.60202 25.0536 9.50391C25.0516 9.44761 24.903 9.3764 24.8094 9.34745C24.6695 9.30383 24.523 9.28102 24.3567 9.24908C24.3133 9.24076 24.3075 9.21261 24.3429 9.18676C24.6186 8.98724 24.8715 8.80418 25.1226 8.62243C25.1583 8.59652 25.1854 8.54128 25.1831 8.49897C25.1808 8.45665 25.1446 8.41328 25.102 8.40209C24.865 8.33996 24.6264 8.27738 24.3726 8.21071C24.33 8.19953 24.3224 8.16709 24.3562 8.13869C24.5359 7.98602 24.7243 7.83342 24.8997 7.66714C25.1334 7.44556 25.1058 7.27064 24.7935 7.19055C24.5579 7.12996 24.2895 7.11474 24.0521 7.1624C23.5904 7.25492 23.1387 7.39796 22.6492 7.53305C22.6068 7.54473 22.6008 7.53255 22.6357 7.50589C24.8099 5.85473 24.9285 5.76071 24.9612 5.32258C24.9646 5.27872 24.9344 5.25846 24.8946 5.27747C23.7289 5.83472 22.5513 6.39774 21.3735 6.96083C21.3337 6.97984 21.3266 6.9699 21.358 6.93902C22.513 5.7906 23.8017 4.77851 24.5572 3.25131C24.5767 3.21173 24.563 3.20036 24.527 3.22571C23.3048 4.09426 22.1213 4.93491 20.939 5.77538C20.903 5.80098 20.8575 5.80731 20.8373 5.7893C20.817 5.77152 20.8226 5.72896 20.8497 5.69423C21.181 5.27082 21.52 4.85326 21.8387 4.42054C22.3165 3.77177 22.7975 3.12356 23.2376 2.44918C23.3996 2.20095 23.4721 1.89474 23.5751 1.60797C23.59 1.56665 23.5776 1.50812 23.5464 1.47693C23.5153 1.44573 23.465 1.44623 23.4344 1.47798C22.3557 2.59017 21.2769 3.70261 20.1982 4.8148C20.1675 4.84649 20.1391 4.86321 20.1343 4.85258C20.1298 4.84195 20.1442 4.80262 20.167 4.76484C20.7301 3.82428 21.3063 2.89135 21.8484 1.93892C22.1726 1.36949 22.1343 0.736999 22.0322 0.111529C22.0271 0.0800872 22.0023 0.0516906 21.9554 0.0139113C21.9211 -0.0137396 21.8887 0.00123538 21.8837 0.0448555C21.6877 1.72243 20.415 2.68524 19.4125 3.83906C19.3836 3.87225 19.3746 3.86665 19.3918 3.82614C19.8633 2.7142 20.2514 1.59691 19.9158 0.448C19.9034 0.405623 19.8796 0.404877 19.8641 0.446198C19.6068 1.12461 19.3789 1.87709 19.0262 2.56513C18.667 3.2661 18.1835 3.90369 17.7191 4.55675C17.6935 4.59279 17.675 4.58614 17.6778 4.54233C17.7568 3.30338 17.9564 2.06139 17.2006 0.942362C17.176 0.905826 17.158 0.912474 17.1621 0.956281C17.1842 1.19837 17.2146 1.44051 17.2184 1.68285C17.2346 2.70581 17.0055 3.67018 16.6297 4.62696C16.107 5.95868 15.6063 7.30687 15.46 8.75068C15.4422 8.9251 15.3941 9.09623 15.3477 9.30488C15.338 9.34794 15.3122 9.35229 15.2894 9.31476C15.1793 9.13425 15.0815 8.97351 14.956 8.76771C14.9332 8.73018 14.902 8.73297 14.8848 8.77355C14.8191 8.92665 14.7497 9.03744 14.7578 9.1419C14.7925 9.59767 14.8158 10.0626 14.9272 10.5028C15.1082 11.2172 15.3619 11.9131 15.5703 12.6209C15.602 12.7286 15.6165 12.8369 15.6705 12.9173C15.6951 12.9538 15.7121 13.0053 15.6974 13.0415C15.6827 13.0777 15.6708 13.1069 15.6708 13.1069C15.6571 13.149 15.6434 13.1911 15.6294 13.2334C15.6158 13.2752 15.5714 13.2966 15.5303 13.2808C15.4609 13.2542 15.3919 13.2273 15.3265 13.1977C15.2041 13.142 15.0091 13.1435 14.9561 13.0542C14.6691 12.5695 14.283 12.5935 13.8282 12.7744C13.7874 12.7906 13.7605 12.7695 13.7684 12.7262C13.8262 12.4068 13.8951 12.1135 13.9137 11.8171C13.9233 11.6627 13.8604 11.5037 13.8155 11.346C13.8034 11.3037 13.7613 11.2801 13.7192 11.293C13.5613 11.3422 13.4013 11.3863 13.2512 11.4533C13.1668 11.4908 13.0973 11.5628 12.9997 11.6477C12.9666 11.6766 12.9376 11.6632 12.9389 11.6193C12.9536 11.0679 13.2355 10.5416 12.9136 10.0057C12.8908 9.96788 12.8426 9.9613 12.8084 9.98895C12.6669 10.1038 12.5394 10.2075 12.3982 10.3223C12.364 10.3502 12.3358 10.337 12.3353 10.2929C12.331 9.90624 12.327 9.54852 12.3229 9.1926C12.3224 9.14848 12.2909 9.10082 12.2527 9.0861C12.2144 9.07143 12.1583 9.08461 12.1272 9.1158C11.8678 9.37516 11.6082 9.63452 11.3489 9.89406C11.3177 9.92526 11.2804 9.93843 11.2657 9.92377C11.2511 9.9091 11.2465 9.86219 11.2559 9.81907C11.3588 9.34266 11.4617 8.86632 11.5649 8.38998C11.5743 8.34692 11.5513 8.29366 11.5135 8.27086C11.5003 8.26303 11.4871 8.25489 11.4739 8.247C11.4361 8.2242 11.3788 8.22929 11.3448 8.25738C11.1666 8.4057 10.9739 8.54159 10.8292 8.71725C10.4101 9.22628 10.0149 9.75463 9.61128 10.2761C9.58438 10.3109 9.53572 10.325 9.50304 10.3073C9.47036 10.2896 9.45644 10.2422 9.4716 10.2008C9.53597 10.0267 9.59556 9.8502 9.67236 9.68187C9.93651 9.10511 10.2184 8.53619 10.4724 7.95514C10.5213 7.84311 10.5087 7.70417 10.477 7.55535C10.4678 7.51223 10.4296 7.49781 10.3938 7.52366C9.42841 8.22364 9.04814 9.38373 8.18716 10.195C8.15523 10.2251 8.13795 10.2145 8.14864 10.1719C8.20748 9.93967 8.2516 9.70113 8.34232 9.48203C8.65717 8.72247 9.00327 7.9759 9.31557 7.21559C9.37721 7.06546 9.37162 6.88806 9.35056 6.70805C9.34546 6.66443 9.30824 6.64418 9.26916 6.66468C8.6929 6.9704 8.39986 7.50484 8.05407 7.98043C7.71511 8.4464 7.42356 8.9466 7.114 9.43413C7.09045 9.47141 7.05037 9.49322 7.02477 9.48309C6.99917 9.4729 6.98873 9.43034 7.00122 9.38827C7.3559 8.19294 7.71057 6.99761 8.06525 5.80228C8.07793 5.75997 8.05512 5.71156 8.01505 5.69379C8.00237 5.6882 7.98944 5.68261 7.97677 5.67701C7.93644 5.65924 7.87586 5.66713 7.84212 5.69553C6.72713 6.6328 6.47032 8.13037 5.58375 9.26381C5.55659 9.29854 5.53559 9.2904 5.53609 9.24629C5.53864 9.01886 5.51987 8.78666 5.57107 8.57092C5.78557 7.66689 6.04089 6.77249 6.25278 5.86815C6.30578 5.64228 6.28117 5.39833 6.28092 5.16003C6.28092 5.11592 6.24824 5.06851 6.20661 5.05403C6.20537 5.05353 6.20388 5.05303 6.20232 5.05254C6.16075 5.03812 6.10371 5.05328 6.07382 5.08578C5.93768 5.23379 5.78812 5.37354 5.68441 5.54155C4.99258 6.66263 4.66176 7.92488 4.29714 9.17272C4.22997 9.40293 4.18231 9.63893 4.11259 9.93682C4.10246 9.97969 4.0791 9.98217 4.06139 9.94191C3.78482 9.31091 3.73915 8.72856 3.82869 8.12826C3.93214 7.43207 4.03834 6.73645 4.14509 6.04076C4.1669 5.89934 4.193 5.75835 4.21835 5.61742C4.22618 5.57405 4.19778 5.52969 4.15522 5.51832C4.14683 5.51602 4.13875 5.51403 4.13036 5.51173C4.08774 5.5003 4.031 5.51912 4.00186 5.55206C3.88473 5.68391 3.74654 5.80787 3.68751 5.96197C3.42355 6.65281 3.1696 7.34949 2.95759 8.05761C2.79075 8.61535 2.6835 9.1908 2.5537 9.75948C2.54382 9.80229 2.51088 9.84187 2.47994 9.84765C2.449 9.85349 2.41805 9.82304 2.41072 9.77948C2.25681 8.86477 2.1032 7.95011 1.94935 7.03539C1.94202 6.99202 1.90039 6.95399 1.85658 6.9507C1.84894 6.9502 1.84136 6.9497 1.83378 6.94896C1.78991 6.94566 1.74225 6.97661 1.72653 7.01762C1.64513 7.22957 1.54453 7.43798 1.50594 7.65726C1.30139 8.82065 1.33637 9.98963 1.54248 11.1462C1.88591 13.0707 2.57116 14.8783 3.48407 16.6022Z" fill="black"/>
</g>
<defs>
<clipPath id="clip0_31_558">
<rect width="36" height="36" fill="white"/>
</clipPath>
</defs>
</svg>
