<svg width="36" height="36" viewBox="0 0 36 36" fill="none" xmlns="http://www.w3.org/2000/svg">
<path d="M16.0298 17.6768L13.8628 21.4301L16.0574 25.2312H20.3639L22.5107 21.5128L20.2958 17.6768H16.0298Z" fill="black"/>
<path d="M18.2109 10.2206C12.6956 10.2206 8.20969 15.2578 8.20969 21.4481C8.20969 27.6384 12.6956 32.6728 18.2109 32.6728C23.7262 32.6728 28.2094 27.6384 28.2094 21.4481C28.2094 15.2578 23.7234 10.2206 18.2109 10.2206ZM27.3867 21.7468H23.0527L20.8786 25.5125L23.0662 29.3015H24.9815C24.8034 29.4964 24.6195 29.6848 24.4285 29.864H23.0527L22.1245 31.4716C21.8318 31.6171 21.5313 31.7466 21.2245 31.8594L22.5391 29.5813L20.3507 25.7937H16.0709L13.8836 29.5827L15.1982 31.8608C14.8914 31.748 14.5909 31.6185 14.2982 31.473L13.3701 29.8654H11.9928C11.8018 29.6862 11.6182 29.4978 11.4398 29.3029H13.3552L15.5427 25.5139L13.3689 21.7468H9.03487L8.54522 22.5951C8.51372 22.2536 8.49769 21.9074 8.49487 21.5573L8.52047 21.5128L8.49234 21.4647V21.454C8.49234 21.1042 8.50837 20.7582 8.53706 20.4168L8.96681 21.1613H13.3284L15.4941 17.408L13.3003 13.6069H11.4398C11.6179 13.412 11.8018 13.2235 11.9928 13.0444H13.2865L14.1809 11.4955C14.4659 11.3488 14.7586 11.2174 15.0576 11.1018L13.7942 13.2899L15.9879 17.091H20.2961L22.4899 13.2899L21.1882 11.0354C21.4804 11.1411 21.7669 11.2618 22.0466 11.3971L22.9975 13.0441H24.428C24.6189 13.2233 24.8026 13.4117 24.9809 13.6066H22.984L20.8378 17.325L23.0527 21.161H27.3187L27.8651 20.2143C27.8989 20.5518 27.9185 20.8928 27.9239 21.2372L27.8328 21.395L27.9264 21.557C27.9236 21.9068 27.9076 22.2533 27.8761 22.5948L27.3867 21.7468Z" fill="black"/>
<path d="M15.5402 5.81175C15.7645 5.81175 15.9463 5.62992 15.9463 5.40562C15.9463 5.18132 15.7645 4.9995 15.5402 4.9995C15.3159 4.9995 15.1341 5.18132 15.1341 5.40562C15.1341 5.62992 15.3159 5.81175 15.5402 5.81175Z" fill="black"/>
<path d="M35.3109 16.1072L32.3297 10.6537C31.9771 10.0077 31.5006 9.4374 30.9275 8.9755C30.3545 8.5136 29.696 8.16913 28.9898 7.96175C28.2836 7.75438 27.5434 7.68816 26.8116 7.7669C26.0798 7.84563 25.3706 8.06777 24.7247 8.42062L22.2778 9.75937C22.0444 9.65531 21.8081 9.56249 21.5719 9.48093V6.88471C21.8952 6.73527 22.1608 6.4841 22.3279 6.16955C22.4951 5.85501 22.5548 5.49439 22.4977 5.14277C22.4407 4.79116 22.2701 4.46787 22.0121 4.2223C21.7541 3.97673 21.4227 3.82238 21.0687 3.78281C21.0372 3.7319 21.0023 3.67931 20.9616 3.62249C20.9587 3.61968 20.9587 3.61968 20.9587 3.61687H20.9559C20.8474 3.45915 20.725 3.31138 20.5903 3.17531C20.2447 2.82923 19.8276 2.56289 19.3682 2.39494C18.9088 2.22698 18.4183 2.16148 17.9309 2.20301C17.4436 2.24453 16.9712 2.39209 16.5468 2.63535C16.1225 2.8786 15.7565 3.21168 15.4744 3.61124C15.4716 3.61406 15.4716 3.61406 15.4716 3.61687C15.4708 3.61687 15.4701 3.61717 15.4696 3.61769C15.469 3.61822 15.4688 3.61894 15.4688 3.61968C15.4277 3.67424 15.3917 3.72909 15.3585 3.78224C15.0041 3.82109 14.6721 3.97499 14.4135 4.22039C14.1548 4.46579 13.9837 4.78918 13.9263 5.14108C13.8688 5.49297 13.9283 5.85399 14.0955 6.16888C14.2628 6.48378 14.5286 6.73521 14.8522 6.88471V9.47812C14.616 9.56249 14.3882 9.65249 14.1688 9.74812L11.7416 8.42062C11.0957 8.06777 10.3865 7.84563 9.65472 7.7669C8.9229 7.68816 8.18274 7.75438 7.47652 7.96175C6.77029 8.16913 6.11184 8.5136 5.53877 8.9755C4.96571 9.4374 4.48925 10.0077 4.13662 10.6537L1.15594 16.1072C0.540622 17.2382 0.39847 18.5669 0.7606 19.8025C1.12273 21.038 1.95964 22.0798 3.08812 22.6997C3.23898 22.7825 3.40823 22.826 3.58031 22.8262C3.76464 22.8251 3.94536 22.775 4.10399 22.6812C4.26261 22.5873 4.39345 22.4529 4.48312 22.2919L9.68625 12.7659C9.80747 12.5488 9.97905 12.3639 10.1866 12.2269C10.3941 12.0899 10.6315 12.0047 10.8787 11.9784C8.42906 14.3662 7.03687 17.7778 7.03687 21.4481C7.03323 23.1752 7.35377 24.8877 7.98187 26.4966L6.93562 27.6778C6.56164 28.0982 6.27425 28.5882 6.08991 29.1199C5.90556 29.6515 5.82789 30.2142 5.86133 30.7759C5.89477 31.3376 6.03867 31.8872 6.28478 32.3932C6.5309 32.8991 6.8744 33.3516 7.29562 33.7247C7.4907 33.8987 7.74298 33.9948 8.00437 33.9947C8.15732 33.9946 8.30854 33.9623 8.44812 33.8998C8.58771 33.8373 8.71251 33.746 8.81437 33.6319L11.07 31.095C12.9879 32.9597 15.5591 34.0004 18.2341 33.9946C20.9091 33.9888 23.4758 32.9371 25.3856 31.0641L27.6694 33.6319C27.7629 33.7376 27.8764 33.8239 28.0033 33.8857C28.1302 33.9475 28.2681 33.9836 28.4091 33.9919C28.4316 33.9919 28.4541 33.9947 28.4766 33.9947C28.7379 33.9946 28.9902 33.8985 29.1853 33.7247C29.6063 33.3516 29.9497 32.8991 30.1958 32.3932C30.4418 31.8874 30.5859 31.338 30.6195 30.7764C30.6532 30.2149 30.576 29.6522 30.3921 29.1205C30.2083 28.5888 29.9215 28.0986 29.5481 27.6778L28.4597 26.4544C29.0762 24.8575 29.39 23.1598 29.385 21.4481C29.385 17.7778 27.99 14.3606 25.5375 11.9728C25.7942 11.9916 26.0422 12.0739 26.2592 12.2124C26.4762 12.3508 26.6554 12.541 26.7806 12.7659L31.9837 22.2919C32.0482 22.4103 32.1354 22.5148 32.2403 22.5994C32.3452 22.684 32.4658 22.747 32.5951 22.7849C32.7245 22.8228 32.8601 22.8348 32.994 22.8202C33.128 22.8055 33.2578 22.7646 33.3759 22.6997C34.5053 22.0806 35.3432 21.0391 35.7059 19.8033C36.0686 18.5676 35.9266 17.2384 35.3109 16.1072ZM20.8828 4.33406C21.167 4.33406 21.4396 4.44695 21.6405 4.64791C21.8415 4.84887 21.9544 5.12142 21.9544 5.40562C21.9544 5.68982 21.8415 5.96237 21.6405 6.16333C21.4396 6.36429 21.167 6.47718 20.8828 6.47718C20.5986 6.47718 20.3261 6.36429 20.1251 6.16333C19.9241 5.96237 19.8113 5.68982 19.8113 5.40562C19.8113 5.12142 19.9241 4.84887 20.1251 4.64791C20.3261 4.44695 20.5986 4.33406 20.8828 4.33406ZM14.4675 5.40562C14.4672 5.19329 14.5299 4.98565 14.6477 4.80898C14.7655 4.63232 14.9331 4.49457 15.1292 4.41319C15.3253 4.3318 15.5412 4.31044 15.7494 4.35179C15.9577 4.39315 16.149 4.49537 16.2992 4.64551C16.4493 4.79565 16.5515 4.98697 16.5929 5.19523C16.6342 5.4035 16.6129 5.61935 16.5315 5.81547C16.4501 6.01159 16.3124 6.17915 16.1357 6.29694C15.959 6.41473 15.7514 6.47746 15.5391 6.47718C15.255 6.47681 14.9826 6.36379 14.7818 6.16292C14.5809 5.96204 14.4679 5.6897 14.4675 5.40562ZM28.8225 21.4481C28.8281 23.1423 28.5083 24.8218 27.8803 26.3953C27.8749 26.4049 27.8711 26.4154 27.8691 26.4262C27.5099 27.3039 27.0523 28.138 26.505 28.9125C26.4628 28.9716 26.4234 29.0334 26.3813 29.0925C26.3644 29.115 26.3447 29.1375 26.3278 29.16C26.2237 29.3006 26.1197 29.4384 26.01 29.5706C26.0072 29.5734 26.0072 29.5734 26.0072 29.5762C25.7512 29.8856 25.4841 30.18 25.2056 30.4594C24.3019 31.3967 23.2191 32.1429 22.0214 32.6536C20.8237 33.1643 19.5356 33.4291 18.2336 33.4322C16.9315 33.4354 15.6421 33.1768 14.442 32.6719C13.2418 32.167 12.1554 31.4261 11.2472 30.4931C10.9621 30.212 10.6917 29.9163 10.4372 29.6072C9.6594 28.6538 9.02896 27.5891 8.56687 26.4487C7.92262 24.8605 7.594 23.162 7.59937 21.4481C7.59937 17.7103 9.10125 14.2566 11.7197 11.9672C12.4828 11.2939 13.3415 10.7376 14.2678 10.3162C14.5789 10.1749 14.8971 10.0501 15.2212 9.94218C15.2381 9.93656 15.2522 9.93374 15.2691 9.92812C17.5414 9.19279 20.0068 9.33528 22.1794 10.3275C23.1002 10.7498 23.9541 11.3051 24.7134 11.9756C27.3263 14.265 28.8225 17.7187 28.8225 21.4481Z" fill="black"/>
<path d="M20.8848 5.81175C21.1091 5.81175 21.2909 5.62992 21.2909 5.40562C21.2909 5.18132 21.1091 4.9995 20.8848 4.9995C20.6605 4.9995 20.4787 5.18132 20.4787 5.40562C20.4787 5.62992 20.6605 5.81175 20.8848 5.81175Z" fill="black"/>
</svg>
