<svg width="36" height="36" viewBox="0 0 36 36" fill="none" xmlns="http://www.w3.org/2000/svg">
<path d="M5.04638 6.83688V16.7353C5.04638 19.173 5.74243 21.3891 6.92572 23.2728C6.6821 23.5682 6.47328 23.9745 6.26447 24.4547C5.67282 25.8582 5.98605 27.4464 6.89092 28.4805L11.6589 33.7253C11.7285 33.8361 11.8677 33.9469 12.0069 34.0207C12.4245 34.2054 12.877 34.0207 13.051 33.5775C13.1206 33.3928 13.1554 33.1712 13.0858 33.0235L12.0765 27.668C13.3294 28.1851 14.6867 28.4805 16.1136 28.4805H26.8328C23.979 30.5489 23.979 34.6117 23.979 34.6856C24.0138 34.981 24.0138 35.1657 24.1182 35.4242C24.2226 35.7567 24.4314 36.0891 24.8839 35.9783L31.392 30.475C34.385 28.222 36.9256 24.4547 35.6727 20.5765C34.8026 17.9542 32.3316 16.8831 29.9302 16.4029L16.3572 13.522L10.4408 2.22006C9.70993 0.890418 7.83059 -0.0698811 6.54289 0.0039881C5.25519 0.114792 4.35033 0.484137 3.44546 1.2967L0.522038 1.96152C0.208815 1.99846 -8.60351e-07 2.257 -8.60351e-07 2.58941L0.313223 3.84518C0.417631 4.14066 0.556842 4.32533 0.80046 4.51001L5.04638 6.83688Z" fill="black"/>
</svg>
