<svg width="36" height="36" viewBox="0 0 36 36" fill="none" xmlns="http://www.w3.org/2000/svg">
<path d="M34.2524 22.4583C32.8544 22.4583 31.4563 21.7059 30.4078 20.3518C28.6602 18.0948 28.6602 14.1827 30.4078 11.9258C30.8738 11.3239 31.5728 11.3239 32.0388 11.9258C32.5049 12.5276 32.5049 13.4304 32.0388 14.0323C31.1068 15.236 31.1068 17.0416 32.0388 18.2453C33.0874 19.5994 34.835 19.7499 36 18.6967C36 18.2453 36 17.7939 36 17.3425C36 10.2707 31.5728 4.55306 26.0971 4.55306H17.0097C14.4466 1.69424 11.068 0.0391401 7.57282 0.0391401H6.99029C6.52427 -0.111324 6.17476 0.189604 5.94175 0.640996C5.82524 1.09239 5.82524 1.69424 5.94175 2.14563L8.15534 6.96048C6.75728 8.31465 5.82524 10.2707 5.24272 12.3772L4.66019 14.6341C4.19417 16.2892 2.79612 17.192 1.51456 16.7406C1.16505 16.4397 0.815534 16.4397 0.466019 16.7406C0.23301 17.0416 0 17.4929 0 17.9443V23.9629C0 24.5647 0.349515 25.1666 0.815534 25.3171L6.99029 28.0254V34.4954C6.99029 35.3981 7.45631 36 8.15534 36H11.6505C12.1165 36 12.5825 35.5486 12.699 34.9468L13.0485 33.4421C15.0291 34.044 17.0097 34.4954 19.1068 34.4954C21.9029 34.4954 24.5825 33.8935 27.0291 32.6898L27.9612 35.0972C28.1942 35.5486 28.5437 36 29.0097 36H32.5049C33.2039 36 33.6699 35.3981 33.6699 34.4954V30.2824C34.6019 27.7245 35.301 24.8657 35.6505 22.1573C35.301 22.3078 34.835 22.4583 34.2524 22.4583ZM11.6505 18.2453C11.6505 18.3957 11.6505 18.3957 11.534 18.5462C11.534 18.6967 11.4175 18.6967 11.4175 18.8471L11.301 18.9976C11.068 19.2985 10.835 19.449 10.4854 19.449C10.3689 19.449 10.3689 19.449 10.2524 19.449C10.1359 19.449 10.1359 19.449 10.0194 19.2985C9.90291 19.2985 9.90291 19.148 9.78641 19.148C9.6699 19.148 9.6699 18.9976 9.6699 18.9976C9.6699 18.8471 9.5534 18.8471 9.5534 18.8471C9.5534 18.6967 9.43689 18.6967 9.43689 18.5462C9.43689 18.3957 9.43689 18.3957 9.32039 18.2453C9.32039 18.0948 9.32039 18.0948 9.32039 17.9443C9.32039 17.4929 9.43689 17.192 9.6699 16.8911L9.78641 16.7406C9.90291 16.7406 9.90291 16.5902 10.0194 16.5902C10.1359 16.5902 10.1359 16.5902 10.2524 16.4397C10.4854 16.4397 10.7184 16.4397 10.9515 16.5902C11.068 16.7406 11.1845 16.7406 11.301 16.8911C11.4175 17.0416 11.534 17.192 11.534 17.3425C11.534 17.4929 11.6505 17.7939 11.6505 17.9443C11.6505 18.0948 11.6505 18.0948 11.6505 18.2453Z" fill="black"/>
</svg>
