<svg width="36" height="36" viewBox="0 0 36 36" fill="none" xmlns="http://www.w3.org/2000/svg">
<path d="M30.2019 29.8401C29.6968 29.7019 29.4443 29.2637 29.6315 28.9051C29.8465 28.411 30.5574 27.7721 30.7276 27.6048C33.5183 24.8769 33.3314 22.534 32.3194 21.2151C31.6385 20.3319 30.6022 19.531 27.1157 18.4831C24.7664 17.7752 23.8032 17.1483 23.5281 16.5825C25.1067 16.5559 26.3748 15.6422 26.3748 14.5146C26.3748 13.7841 25.84 13.1439 25.0356 12.7748C25.7966 11.2237 26.2399 10.0109 26.2399 8.51545C26.2399 4.83414 22.7496 2 18.5876 2C13.9701 2 10.7418 5.07929 10.7418 8.51559C10.7418 9.94372 10.9793 11.229 11.9875 12.7869C11.1963 13.1574 10.6746 13.7923 10.6746 14.5148C10.6746 15.576 11.7987 16.4487 13.2464 16.5694C13.1305 17.5362 12.3636 18.9042 9.33898 19.2708C5.06695 19.7887 3.18146 21.4583 3.18146 23.5978C3.18146 25.509 5.03502 26.0628 5.02191 27.6606C5.01621 28.3817 4.25313 29.0883 3 29.0233C3 29.0233 3.21509 29.4257 3.91282 29.5253C5.67669 29.775 6.78579 28.751 6.75026 27.5796C6.6847 25.3656 4.55239 24.1823 6.466 22.4185C8.08205 20.9269 11.0504 21.4755 13.9403 20.1899C12.7769 21.0969 11.301 22.6283 11.301 24.5728C11.301 26.0089 12.4164 27.2822 13.4525 28.4589C14.5276 29.6798 16.0209 31.1422 15.8227 32.6625C15.6842 33.725 14.4258 34.5657 12.9133 34.5657C11.3421 34.5657 10.0646 33.6904 9.98426 32.5893C8.97054 32.855 9.6981 36 13.5213 36C16.6001 36 18.2853 34.122 18.2853 32.4578C18.2853 28.5597 14.2508 26.9474 14.8531 23.886C15.1319 22.4769 17.3951 20.6347 18.6296 18.9999C18.9906 19.8924 19.6676 20.6201 20.3391 21.2949C21.0125 21.9696 21.6783 22.5937 22.0207 23.2778C23.2946 25.8358 19.0448 28.1998 20.139 31.1496C21.4914 34.8007 26.463 33.7753 26.5977 33.7461C24.877 33.4872 23.4386 32.5761 22.8756 31.3953C22.2453 30.0698 22.9617 28.6435 23.8521 27.4653C24.5441 26.5529 25.1989 25.6258 25.1989 24.5647C25.1989 22.8102 24.2131 21.6242 23.0236 20.1247C22.8309 19.8817 22.6795 19.6347 22.556 19.389C24.8698 20.3612 28.3506 20.1792 29.8844 22.198C30.9841 23.6483 29.3495 25.8146 28.6816 26.735C28.2569 27.3207 27.4134 28.1575 27.4228 29.2638C27.4266 29.8468 28.1355 30.6451 29.5121 30.6451C30.0732 30.6451 30.6231 30.5097 30.9954 30.2029C31.1618 30.0647 31.3881 29.831 31.3919 29.6438C31.1557 29.783 30.6638 29.965 30.2019 29.8401ZM13.5886 15.6356C12.717 15.6356 12.01 15.1336 12.01 14.5147C12.01 14.1667 12.2325 13.8559 12.5823 13.6515L14.2301 15.5387C14.0338 15.6011 13.8168 15.6356 13.5886 15.6356ZM22.7743 15.5242L24.4185 13.6249C24.7962 13.8281 25.0394 14.1508 25.0394 14.5147C25.0394 15.1336 24.3324 15.6356 23.4608 15.6356C23.2157 15.6356 22.982 15.5958 22.7743 15.5242Z" fill="black"/>
</svg>
