<svg width="36" height="36" viewBox="0 0 36 36" fill="none" xmlns="http://www.w3.org/2000/svg">
<path d="M34.2 22.5C32.85 22.5 31.5 21.9375 30.4875 20.925C28.8 19.2375 28.8 16.3125 30.4875 14.625C30.9375 14.175 31.6125 14.175 32.0625 14.625C32.5125 15.075 32.5125 15.75 32.0625 16.2C31.1625 17.1 31.1625 18.45 32.0625 19.35C33.075 20.3625 34.7625 20.475 35.8875 19.6875C35.8875 19.35 35.8875 19.0125 35.8875 18.675C35.8875 13.3875 31.6125 9.1125 26.325 9.1125H17.55C15.075 6.975 11.8125 5.7375 8.4375 5.7375H7.875C7.425 5.625 7.0875 5.85 6.8625 6.1875C6.75 6.525 6.75 6.975 6.8625 7.3125L9 10.9125C7.65 11.925 6.75 13.3875 6.1875 14.9625L5.625 16.65C5.175 17.8875 3.825 18.5625 2.5875 18.225C2.25 18 1.9125 18 1.575 18.225C1.35 18.45 1.125 18.7875 1.125 19.125V23.625C1.125 24.075 1.4625 24.525 1.9125 24.6375L7.875 26.6625V31.5C7.875 32.175 8.325 32.625 9 32.625H12.375C12.825 32.625 13.275 32.2875 13.3875 31.8375L13.725 30.7125C15.6375 31.1625 17.55 31.5 19.575 31.5C22.275 31.5 24.8625 31.05 27.225 30.15L28.125 31.95C28.35 32.2875 28.6875 32.625 29.1375 32.625H32.5125C33.1875 32.625 33.6375 32.175 33.6375 31.5V28.35C34.5375 26.4375 35.2125 24.3 35.55 22.275C35.2125 22.3875 34.7625 22.5 34.2 22.5ZM12.375 19.35C12.375 19.4625 12.375 19.4625 12.2625 19.575C12.2625 19.6875 12.15 19.6875 12.15 19.8L12.0375 19.9125C11.8125 20.1375 11.5875 20.25 11.25 20.25C11.1375 20.25 11.1375 20.25 11.025 20.25C10.9125 20.25 10.9125 20.25 10.8 20.1375C10.6875 20.1375 10.6875 20.025 10.575 20.025C10.4625 20.025 10.4625 19.9125 10.4625 19.9125C10.4625 19.8 10.35 19.8 10.35 19.8C10.35 19.6875 10.2375 19.6875 10.2375 19.575C10.2375 19.4625 10.2375 19.4625 10.125 19.35C10.125 19.2375 10.125 19.2375 10.125 19.125C10.125 18.7875 10.2375 18.5625 10.4625 18.3375L10.575 18.225C10.6875 18.225 10.6875 18.1125 10.8 18.1125C10.9125 18.1125 10.9125 18.1125 11.025 18C11.25 18 11.475 18 11.7 18.1125C11.8125 18.225 11.925 18.225 12.0375 18.3375C12.15 18.45 12.2625 18.5625 12.2625 18.675C12.2625 18.7875 12.375 19.0125 12.375 19.125C12.375 19.2375 12.375 19.2375 12.375 19.35Z" fill="black"/>
</svg>
