<svg width="36" height="36" viewBox="0 0 36 36" fill="none" xmlns="http://www.w3.org/2000/svg">
<path d="M35.6776 12.7433V15.805C35.6776 16.5704 34.9555 17.1968 34.0727 17.1968H23.561C23.0736 17.1968 22.6784 17.5395 22.6784 17.9622C22.6784 18.3849 23.0736 18.7276 23.561 18.7276H33.1099C33.9076 18.7276 34.5543 19.2884 34.5543 19.9801C34.5543 20.6719 33.9076 21.2327 33.1099 21.2327H12.5679C10.5379 21.2536 8.84335 22.6564 8.84335 24.4194C8.84335 26.1824 10.3774 27.6137 12.4074 27.6345H14.5667V26.268C14.5667 24.6826 15.7385 23.2755 17.4743 22.7773L19.8623 22.0916L19.2057 25.9141C19.0231 26.9775 18.3461 27.9295 17.3325 28.5487L16.7488 28.9053L17.3325 29.2618C18.3462 29.881 19.0231 30.833 19.2057 31.8964L19.8621 35.7188L17.4741 35.0331C15.7385 34.5348 14.5665 33.1279 14.5665 31.5422V30.1395H12.2468V30.1355C5.61681 30.041 0.32238 25.4046 0.32238 19.632C0.32238 14.7191 4.19189 10.59 9.43184 9.4102L24.7455 5.61937C30.1925 4.27106 35.6776 7.83099 35.6776 12.7433ZM16.8282 0.28125C16.1484 0.28125 15.5972 0.759094 15.5972 1.34873C15.5972 1.55672 15.667 1.75008 15.7855 1.91419L18.0243 6.61978C18.0243 6.61978 18.0243 1.33692 18.0243 1.3313C18.0243 0.741797 17.508 0.28125 16.8282 0.28125ZM21.2369 2.76286C21.2369 2.22455 20.7337 1.78819 20.113 1.78819C19.4922 1.78819 18.989 2.22455 18.989 2.76286C18.989 2.76806 18.9889 6.12647 18.9889 6.12647L21.0293 3.32578C21.1597 3.16659 21.2369 2.97267 21.2369 2.76286Z" fill="black"/>
</svg>
