<svg width="36" height="36" viewBox="0 0 36 36" fill="none" xmlns="http://www.w3.org/2000/svg">
<path d="M16.0047 18L14 21.9747L16.0302 26H20.014L22 22.0622L19.9511 18H16.0047Z" fill="black"/>
<path d="M18.0014 9C12.486 9 8 14.8331 8 22.0016C8 29.1701 12.486 35 18.0014 35C23.5168 35 28 29.1701 28 22.0016C28 14.8331 23.514 9 18.0014 9ZM27.1773 22.3475H22.8432L20.6691 26.7082L22.8567 31.0959H24.772C24.594 31.3216 24.4101 31.5398 24.2191 31.7473H22.8432L21.9151 33.609C21.6223 33.7775 21.3219 33.9274 21.015 34.0581L22.3296 31.42L20.1412 27.0339H15.8613L13.674 31.4216L14.9886 34.0597C14.6818 33.929 14.3813 33.7791 14.0886 33.6106L13.1605 31.7489H11.7832C11.5922 31.5415 11.4085 31.3233 11.2302 31.0976H13.1455L15.3331 26.7098L13.1593 22.3475H8.8252L8.33554 23.3298C8.30404 22.9344 8.288 22.5335 8.28519 22.128L8.31079 22.0765L8.28266 22.0208V22.0085C8.28266 21.6033 8.29869 21.2027 8.32738 20.8073L8.75714 21.6694H13.1188L15.2845 17.3231L13.0907 12.9213H11.2302C11.4082 12.6956 11.5922 12.4774 11.7832 12.2699H13.0769L13.9713 10.4764C14.2564 10.3065 14.549 10.1543 14.848 10.0204L13.5846 12.5543L15.7784 16.956H20.0866L22.2804 12.5543L20.9788 9.94353C21.271 10.0659 21.5575 10.2057 21.8372 10.3624L22.7881 12.2696H24.2185C24.4095 12.4771 24.5932 12.6953 24.7715 12.921H22.7746L20.6283 17.227L22.8432 21.6691H27.1093L27.6557 20.5728C27.6895 20.9636 27.7091 21.3585 27.7145 21.7574L27.6234 21.9401L27.7171 22.1277C27.7142 22.5328 27.6982 22.9341 27.6667 23.3295L27.1773 22.3475Z" fill="black"/>
<path d="M15.5 4C15.7761 4 16 3.77614 16 3.5C16 3.22386 15.7761 3 15.5 3C15.2239 3 15 3.22386 15 3.5C15 3.77614 15.2239 4 15.5 4Z" fill="black"/>
<path d="M35.397 15.7524L32.36 9.57945C32.0008 8.84813 31.5154 8.20262 30.9316 7.67978C30.3478 7.15693 29.677 6.76701 28.9576 6.53227C28.2382 6.29754 27.4842 6.22259 26.7386 6.31171C25.9931 6.40083 25.2707 6.65228 24.6127 7.05168L22.12 8.56707C21.8822 8.44928 21.6416 8.34422 21.4009 8.25189V5.31313C21.7303 5.14397 22.0008 4.85966 22.1711 4.50361C22.3414 4.14757 22.4022 3.73937 22.344 3.34136C22.2859 2.94335 22.1122 2.57741 21.8493 2.29944C21.5865 2.02147 21.2489 1.84675 20.8883 1.80196C20.8562 1.74433 20.8207 1.6848 20.7791 1.62049C20.7763 1.61731 20.7763 1.61731 20.7763 1.61413H20.7734C20.6628 1.4356 20.5382 1.26833 20.401 1.1143C20.0488 0.722565 19.6239 0.421084 19.156 0.230971C18.688 0.0408583 18.1883 -0.0332903 17.6918 0.0137169C17.1953 0.0607241 16.7141 0.227751 16.2818 0.503102C15.8495 0.778453 15.4767 1.15547 15.1893 1.60776C15.1864 1.61094 15.1864 1.61094 15.1864 1.61413C15.1857 1.61413 15.1849 1.61446 15.1844 1.61506C15.1839 1.61566 15.1836 1.61647 15.1836 1.61731C15.1417 1.67907 15.105 1.74115 15.0712 1.80132C14.7102 1.84529 14.372 2.0195 14.1085 2.29728C13.845 2.57506 13.6707 2.94112 13.6122 3.33944C13.5537 3.73776 13.6143 4.14641 13.7846 4.50285C13.955 4.8593 14.2258 5.14391 14.5555 5.31313V8.24871C14.3148 8.34422 14.0828 8.44609 13.8593 8.55434L11.3867 7.05168C10.7286 6.65228 10.0062 6.40083 9.26073 6.31171C8.51522 6.22259 7.76121 6.29754 7.04177 6.53227C6.32233 6.76701 5.65155 7.15693 5.06776 7.67978C4.48397 8.20262 3.9986 8.84813 3.63938 9.57945L0.602914 15.7524C-0.0239157 17.0326 -0.168727 18.5367 0.200179 19.9352C0.569086 21.3338 1.42166 22.513 2.57126 23.2147C2.72493 23.3085 2.89735 23.3577 3.07265 23.358C3.26043 23.3567 3.44453 23.3 3.60613 23.1938C3.76772 23.0875 3.90101 22.9354 3.99236 22.7531L9.29285 11.9703C9.41634 11.7245 9.59113 11.5153 9.80252 11.3602C10.0139 11.2051 10.2557 11.1086 10.5077 11.0789C8.01214 13.7818 6.5939 17.6435 6.5939 21.798C6.59018 23.753 6.91673 25.6914 7.55658 27.5126L6.49075 28.8497C6.10977 29.3255 5.817 29.8802 5.62921 30.482C5.44142 31.0838 5.36229 31.7208 5.39635 32.3566C5.43042 32.9923 5.57701 33.6144 5.82773 34.1872C6.07845 34.7599 6.42839 35.2721 6.85749 35.6944C7.05622 35.8913 7.31322 36.0001 7.5795 36C7.73531 36 7.88936 35.9634 8.03155 35.8926C8.17375 35.8218 8.30089 35.7185 8.40466 35.5893L10.7025 32.7177C12.6563 34.8285 15.2756 36.0065 18.0007 35.9999C20.7257 35.9934 23.3404 34.8028 25.286 32.6827L27.6125 35.5893C27.7077 35.709 27.8233 35.8067 27.9526 35.8766C28.082 35.9465 28.2224 35.9874 28.366 35.9968C28.3889 35.9968 28.4119 36 28.4348 36C28.701 35.9999 28.958 35.8912 29.1568 35.6944C29.5857 35.272 29.9354 34.7599 30.1861 34.1873C30.4368 33.6146 30.5835 32.9928 30.6179 32.3571C30.6522 31.7215 30.5735 31.0846 30.3862 30.4827C30.1989 29.8809 29.9067 29.326 29.5264 28.8497L28.4176 27.4648C29.0457 25.6573 29.3653 23.7356 29.3602 21.798C29.3602 17.6435 27.9391 13.7754 25.4407 11.0725C25.7022 11.0938 25.9549 11.187 26.176 11.3437C26.397 11.5004 26.5795 11.7158 26.7071 11.9703L32.0076 22.7531C32.0732 22.8871 32.162 23.0054 32.2689 23.1012C32.3758 23.197 32.4987 23.2683 32.6304 23.3112C32.7622 23.3541 32.9003 23.3677 33.0368 23.3511C33.1733 23.3345 33.3055 23.2882 33.4258 23.2147C34.5763 22.514 35.4299 21.335 35.7994 19.9362C36.1689 18.5374 36.0242 17.0329 35.397 15.7524V15.7524ZM20.6989 2.42594C20.9884 2.42594 21.2661 2.55373 21.4708 2.7812C21.6755 3.00867 21.7905 3.31719 21.7905 3.63888C21.7905 3.96058 21.6755 4.2691 21.4708 4.49657C21.2661 4.72404 20.9884 4.85183 20.6989 4.85183C20.4094 4.85183 20.1318 4.72404 19.927 4.49657C19.7223 4.2691 19.6073 3.96058 19.6073 3.63888C19.6073 3.31719 19.7223 3.00867 19.927 2.7812C20.1318 2.55373 20.4094 2.42594 20.6989 2.42594V2.42594ZM14.1636 3.63888C14.1633 3.39854 14.2272 3.1635 14.3472 2.96353C14.4672 2.76355 14.6379 2.60764 14.8377 2.51551C15.0374 2.42339 15.2573 2.3992 15.4695 2.44602C15.6817 2.49283 15.8766 2.60853 16.0295 2.77849C16.1825 2.94844 16.2866 3.16499 16.3287 3.40074C16.3709 3.63648 16.3491 3.88082 16.2662 4.10281C16.1833 4.3248 16.043 4.51447 15.863 4.64781C15.683 4.78114 15.4715 4.85214 15.2552 4.85183C14.9658 4.85141 14.6883 4.72348 14.4837 4.4961C14.2791 4.26872 14.1639 3.96045 14.1636 3.63888V3.63888ZM28.7872 21.798C28.7929 23.7158 28.4671 25.6168 27.8274 27.398C27.8218 27.4089 27.818 27.4207 27.8159 27.433C27.45 28.4265 26.9839 29.3706 26.4263 30.2473C26.3833 30.3141 26.3432 30.3842 26.3003 30.451C26.2831 30.4765 26.263 30.502 26.2458 30.5274C26.1398 30.6866 26.0338 30.8426 25.9221 30.9922C25.9192 30.9954 25.9192 30.9954 25.9192 30.9986C25.6585 31.3488 25.3863 31.682 25.1026 31.9982C24.182 33.0593 23.0789 33.9039 21.8588 34.482C20.6387 35.06 19.3265 35.3598 18.0001 35.3633C16.6737 35.3669 15.3602 35.0742 14.1376 34.5027C12.915 33.9312 11.8082 33.0925 10.883 32.0364C10.5925 31.7182 10.3171 31.3835 10.0578 31.0336C9.2655 29.9544 8.62326 28.7493 8.15253 27.4584C7.49622 25.6607 7.16145 23.7381 7.16692 21.798C7.16692 17.5671 8.6969 13.6576 11.3643 11.0662C12.1417 10.3041 13.0165 9.67434 13.9601 9.19742C14.277 9.03747 14.6012 8.89613 14.9314 8.774C14.9486 8.76764 14.9629 8.76445 14.9801 8.75808C17.295 7.92574 19.8066 8.08703 22.0197 9.21015C22.9579 9.68813 23.8276 10.3167 24.6012 11.0757C27.2629 13.6672 28.7872 17.5766 28.7872 21.798V21.798Z" fill="black"/>
<path d="M20.5 4C20.7761 4 21 3.77614 21 3.5C21 3.22386 20.7761 3 20.5 3C20.2239 3 20 3.22386 20 3.5C20 3.77614 20.2239 4 20.5 4Z" fill="black"/>
</svg>
