<svg width="36" height="36" viewBox="0 0 36 36" fill="none" xmlns="http://www.w3.org/2000/svg">
<path d="M32.6422 29.4777C32.0362 29.3314 31.7331 28.8674 31.9577 28.4877C32.2159 27.9646 33.0689 27.2881 33.2732 27.111C36.622 24.2226 36.3976 21.7419 35.1832 20.3454C34.3662 19.4103 33.1227 18.5623 28.9388 17.4527C26.1197 16.7031 24.9639 16.0394 24.6337 15.4403C26.528 15.4121 28.0498 14.4447 28.0498 13.2507C28.0498 12.4773 27.408 11.7994 26.4428 11.4086C27.356 9.76629 27.8879 8.48214 27.8879 6.89871C27.8879 3.00086 23.6995 0 18.7051 0C13.1642 0 9.2902 3.26043 9.2902 6.89886C9.2902 8.411 9.57522 9.77186 10.7851 11.4214C9.83561 11.8137 9.20948 12.486 9.20948 13.251C9.20948 14.3746 10.5584 15.2986 12.2956 15.4264C12.1566 16.4501 11.2363 17.8986 7.60677 18.2867C2.48034 18.8351 0.217753 20.6029 0.217753 22.8683C0.217753 24.8919 2.44203 25.4783 2.4263 27.17C2.41946 27.9336 1.50375 28.6817 0 28.6129C0 28.6129 0.258112 29.039 1.09538 29.1444C3.21203 29.4089 4.54295 28.3246 4.50031 27.0843C4.42165 24.74 1.86287 23.4871 4.1592 21.6196C6.09846 20.0403 9.66049 20.6211 13.1284 19.2599C11.7322 20.2203 9.96124 21.8417 9.96124 23.9006C9.96124 25.4211 11.2997 26.7694 12.543 28.0153C13.8331 29.308 15.6251 30.8564 15.3873 32.4661C15.2211 33.5911 13.7109 34.4813 11.8959 34.4813C10.0105 34.4813 8.47756 33.5546 8.38111 32.3887C7.16465 32.67 8.03772 36 12.6256 36C16.3201 36 18.3424 34.0116 18.3424 32.2494C18.3424 28.122 13.5009 26.4149 14.2237 23.1734C14.5582 21.6814 17.2741 19.7309 18.7555 17.9999C19.1887 18.9449 20.0012 19.7154 20.807 20.4299C21.615 21.1443 22.414 21.8051 22.8249 22.5294C24.3535 25.2379 19.2537 27.741 20.5669 30.8643C22.1896 34.7301 28.1556 33.6444 28.3173 33.6136C26.2524 33.3394 24.5263 32.3747 23.8507 31.1244C23.0944 29.721 23.954 28.2107 25.0225 26.9633C25.8529 25.9971 26.6386 25.0156 26.6386 23.892C26.6386 22.0343 25.4557 20.7786 24.0283 19.1909C23.7971 18.9336 23.6154 18.672 23.4672 18.4119C26.2437 19.4413 30.4207 19.2486 32.2612 21.3861C33.581 22.9217 31.6194 25.2154 30.8179 26.19C30.3083 26.8101 29.2961 27.6961 29.3073 28.8676C29.3119 29.4849 30.1626 30.3301 31.8146 30.3301C32.4879 30.3301 33.1477 30.1867 33.5944 29.8619C33.7942 29.7156 34.0657 29.4681 34.0703 29.2699C33.7869 29.4173 33.1965 29.61 32.6422 29.4777ZM12.7063 14.4377C11.6604 14.4377 10.812 13.9061 10.812 13.2509C10.812 12.8824 11.079 12.5533 11.4987 12.3369L13.4761 14.3351C13.2405 14.4011 12.9801 14.4377 12.7063 14.4377ZM23.7292 14.3197L25.7022 12.3087C26.1555 12.5239 26.4473 12.8656 26.4473 13.2509C26.4473 13.9061 25.5989 14.4377 24.553 14.4377C24.2589 14.4377 23.9784 14.3956 23.7292 14.3197Z" fill="black"/>
</svg>
