<svg width="36" height="36" viewBox="0 0 36 36" fill="none" xmlns="http://www.w3.org/2000/svg">
<path d="M35.5856 14.0561C35.0908 14.5548 34.3619 14.5548 34.1223 14.5548C33.6781 14.5548 33.1288 14.4848 32.3417 14.3278C31.7235 14.2045 31.1911 14.0816 30.7217 13.9733C29.7982 13.76 29.1308 13.6058 28.5026 13.6058C28.1484 13.6058 27.5023 13.7517 26.8181 13.9062C25.7528 14.1469 24.4271 14.4462 23.1447 14.4462C21.8501 14.4462 20.4874 14.3505 19.6288 14.2767C19.3436 15.2932 18.6651 16.9694 17.1251 18.1693C15.0313 19.8004 13.479 20.5281 13.4139 20.5582C13.0162 20.7426 12.5381 20.646 12.2539 20.3236C11.9698 20.0014 11.9528 19.5367 12.213 19.1967C12.2216 19.1851 13.268 17.7785 13.2278 16.1977C13.2119 15.5689 13.1879 15.0761 13.1634 14.7008C11.8592 15.0663 9.63869 15.8835 8.49324 17.4217C6.75806 19.7515 6.04622 23.3384 6.23689 24.5151C6.43539 25.7411 6.45915 25.7411 7.07097 25.7411C8.40401 25.7411 9.5239 25.793 10.7853 26.446C11.9011 27.0233 12.5156 27.655 12.5819 27.7252C12.8321 27.9895 12.8987 28.3678 12.7528 28.6951C12.6068 29.0226 12.2746 29.2401 11.9008 29.2528C11.5403 29.2656 10.4493 29.352 9.74809 29.594C9.37573 29.7226 9.05499 29.873 8.74478 30.0185C8.24852 30.2513 7.77973 30.4712 7.23288 30.5326C7.05505 30.5527 6.87246 30.5624 6.69964 30.5594C6.49805 31.0046 6.15497 31.5353 5.57794 31.9564C5.13625 32.2789 4.68685 32.4777 4.29036 32.6531C3.80347 32.8686 3.41879 33.0387 3.12347 33.3869C2.34948 34.2995 2.08973 35.2891 2.08729 35.299C1.98611 35.6942 1.62223 35.9806 1.19491 35.999C1.18015 35.9998 1.16525 36 1.15049 36C0.740768 36 0.373161 35.7544 0.239498 35.3827C0.179278 35.2158 -0.328283 33.6862 0.347224 31.4472C0.588743 30.6468 0.962898 29.9539 1.3246 29.2837C1.91318 28.1935 2.42151 27.2521 2.20824 26.0985C1.2057 20.6764 1.27491 16.2678 2.41381 12.9956C4.18469 7.90645 8.47167 5.07095 9.31307 4.55439C9.7305 4.29788 10.1062 4.07226 10.4228 3.88473C10.1292 3.66229 9.75592 3.42861 9.31217 3.24926C8.30219 2.841 7.8777 2.72941 7.76009 2.7028C7.75251 2.70304 7.74519 2.70304 7.73787 2.70304C7.31865 2.70316 6.99637 2.43994 6.87375 2.05121C6.74638 1.64758 6.98301 1.21429 7.36449 1.00003C7.43703 0.959127 9.17209 0 11.4587 0C11.9306 0 12.3994 0.0411438 12.852 0.122333C14.2622 0.375422 15.2588 0.75353 16.2226 1.11906C17.1636 1.47605 18.0526 1.81326 19.3797 2.07905C20.0244 2.20822 20.6181 2.30784 21.1922 2.40429C23.1673 2.73588 24.8731 3.0223 27.4235 4.26065C30.7521 5.8771 32.6238 7.64567 32.6939 9.24027C32.7087 9.57638 32.701 9.87672 32.6707 10.1407C32.9822 10.2888 33.3607 10.4759 33.743 10.6827C35.2996 11.5245 35.9524 12.155 35.9959 12.8586C36.0261 13.3482 35.8881 13.751 35.5856 14.0561Z" fill="black"/>
</svg>
