<svg width="36" height="36" viewBox="0 0 36 36" fill="none" xmlns="http://www.w3.org/2000/svg">
<path d="M34.7214 14.0561C34.251 14.5548 33.5579 14.5548 33.3301 14.5548C32.9076 14.5548 32.3853 14.4848 31.6369 14.3278C31.0491 14.2045 30.5429 14.0816 30.0965 13.9733C29.2185 13.76 28.5839 13.6058 27.9865 13.6058C27.6498 13.6058 27.0354 13.7517 26.3848 13.9062C25.3718 14.1469 24.1113 14.4462 22.892 14.4462C21.661 14.4462 20.3652 14.3505 19.5488 14.2767C19.2777 15.2932 18.6325 16.9694 17.1682 18.1693C15.1773 19.8004 13.7013 20.5281 13.6394 20.5582C13.2613 20.7426 12.8066 20.646 12.5364 20.3236C12.2662 20.0014 12.2501 19.5367 12.4975 19.1967C12.5057 19.1851 13.5007 17.7785 13.4625 16.1977C13.4473 15.5688 13.4245 15.0761 13.4012 14.7008C12.1611 15.0663 10.0497 15.8835 8.96057 17.4217C7.31066 19.7515 6.6338 23.3384 6.8151 24.5151C7.00385 25.7411 7.02644 25.7411 7.60819 25.7411C8.87571 25.7411 9.94057 25.793 11.14 26.446C12.2009 27.0233 12.7852 27.655 12.8482 27.7252C13.0862 27.9895 13.1495 28.3678 13.0107 28.6951C12.8719 29.0226 12.5561 29.2401 12.2007 29.2528C11.8578 29.2656 10.8205 29.352 10.1537 29.594C9.79968 29.7226 9.4947 29.873 9.19974 30.0185C8.72786 30.2513 8.28212 30.4712 7.76214 30.5326C7.59305 30.5527 7.41944 30.5624 7.25511 30.5594C7.06343 31.0046 6.73721 31.5353 6.18854 31.9564C5.76856 32.2789 5.34125 32.4777 4.96424 32.6531C4.50128 32.8685 4.1355 33.0387 3.8547 33.3869C3.11875 34.2995 2.87177 35.2891 2.86945 35.299C2.77324 35.6942 2.42724 35.9806 2.02093 35.999C2.00689 35.9998 1.99273 36 1.97869 36C1.5891 36 1.23956 35.7544 1.11247 35.3827C1.05521 35.2158 0.572594 33.6862 1.2149 31.4472C1.44455 30.6468 1.80032 29.9539 2.14424 29.2837C2.70389 28.1935 3.18724 27.2521 2.98445 26.0985C2.03119 20.6764 2.09699 16.2678 3.17992 12.9956C4.86376 7.90645 8.94005 5.07095 9.7401 4.55439C10.137 4.29788 10.4942 4.07226 10.7953 3.88473C10.5161 3.66229 10.1612 3.42861 9.73925 3.24926C8.7789 2.841 8.37527 2.72941 8.26344 2.7028C8.25624 2.70304 8.24928 2.70304 8.24232 2.70304C7.8437 2.70316 7.53726 2.43994 7.42066 2.05121C7.29955 1.64758 7.52456 1.21429 7.88728 1.00003C7.95626 0.959127 9.60605 0 11.7803 0C12.229 0 12.6747 0.0411438 13.1051 0.122333C14.446 0.375422 15.3937 0.75353 16.3101 1.11906C17.2048 1.47605 18.0501 1.81326 19.312 2.07905C19.925 2.20821 20.4895 2.30784 21.0354 2.40429C22.9135 2.73588 24.5354 3.0223 26.9604 4.26064C30.1255 5.8771 31.9052 7.64567 31.9718 9.24027C31.9859 9.57638 31.9785 9.87672 31.9497 10.1407C32.2459 10.2888 32.6058 10.4759 32.9694 10.6827C34.4495 11.5245 35.0702 12.155 35.1116 12.8586C35.1403 13.3482 35.009 13.751 34.7214 14.0561Z" fill="black"/>
</svg>
