<svg width="36" height="36" viewBox="0 0 36 36" fill="none" xmlns="http://www.w3.org/2000/svg">
<path d="M9.44809 11.7672L11.0687 12.3754H11.3606L11.6868 10.5388C11.7318 10.2871 11.7993 10.0059 11.8875 9.70987L10.6193 6.85664L12.1068 1.83711C12.2812 1.2479 11.9987 0.610877 11.4743 0.414005L10.5262 0.0582294C10.0025 -0.138642 9.43559 0.179868 9.26121 0.769781L7.64309 6.23157C7.47551 6.79765 7.5144 7.41541 7.75121 7.94928L9.44809 11.7672V11.7672ZM35.8318 24.566L32.535 19.0029C32.3524 18.6948 32.105 18.4421 31.8147 18.2673C31.5245 18.0926 31.2004 18.0011 30.8712 18.001H26L30.3118 16.2882C30.7338 16.1298 31.0969 15.8179 31.3437 15.4016L34.6937 9.74784C35 9.23105 34.8756 8.53216 34.4162 8.18763L33.5843 7.56327C33.125 7.21874 32.5037 7.35866 32.1975 7.87545L29.0375 13.2072L25.2562 14.6253H23L22.3518 10.9797C22.215 10.2084 21.2662 6.75047 18 6.75047C14.7337 6.75047 13.785 10.2084 13.6481 10.9797L13 14.6253H10.7437L6.96309 13.2072L3.80246 7.87545C3.49621 7.35866 2.87559 7.21874 2.41559 7.56327L1.58371 8.18763C1.12434 8.53216 0.999962 9.23035 1.30621 9.74784L4.65621 15.4016C4.90305 15.8179 5.26612 16.1298 5.68809 16.2882L9.99996 18.0003H5.12871C4.79943 18.0004 4.47525 18.0918 4.18492 18.2666C3.89459 18.4414 3.64708 18.6941 3.46434 19.0022L0.168087 24.566C-0.138163 25.0828 -0.0144133 25.7816 0.445587 26.1262L1.27746 26.7505C1.73684 27.0951 2.35809 26.9551 2.66434 26.4384L5.66434 21.3759H8.60559L4.80371 28.2193C4.6051 28.5769 4.49985 28.9902 4.49996 29.4118V34.875C4.49996 35.4966 4.94746 36 5.49996 36H6.49996C7.05246 36 7.49996 35.4966 7.49996 34.875V29.7346L12.13 21.4005C12.0668 22.3884 12 23.377 12 24.3684C12 28.0998 14.5475 31.5001 18 31.5001C21.4525 31.5001 24 28.0998 24 24.3684C24 23.377 23.9325 22.3884 23.87 21.4005L28.5 29.7346V34.875C28.5 35.4966 28.9475 36 29.5 36H30.5C31.0525 36 31.5 35.4966 31.5 34.875V29.4111C31.5 28.9893 31.3943 28.5758 31.1962 28.2186L27.3943 21.3752H30.3356L33.3356 26.4377C33.6418 26.9544 34.2631 27.0944 34.7225 26.7498L35.5543 26.1255C36.0143 25.7809 36.1381 25.0828 35.8318 24.566V24.566ZM25.3806 6.85664L24.1125 9.70987C24.2006 10.0059 24.2681 10.2871 24.3131 10.5388L24.6393 12.3754H24.9312L26.5518 11.7672L28.2487 7.94928C28.3661 7.68498 28.4361 7.39725 28.4547 7.10252C28.4732 6.80779 28.44 6.51184 28.3568 6.23157L26.7387 0.769781C26.5643 0.180571 25.9975 -0.138642 25.4737 0.0582294L24.5256 0.414005C24.0018 0.610877 23.7187 1.2479 23.8931 1.83711L25.3806 6.85664V6.85664Z" fill="black"/>
</svg>
