<svg width="36" height="36" viewBox="0 0 36 36" fill="none" xmlns="http://www.w3.org/2000/svg">
<path d="M15.4094 16.3282L19.8307 20.6396C19.8979 21.0328 19.7513 21.4918 19.4012 21.8418C18.9864 22.2565 18.417 22.3902 17.9878 22.2148C16.9132 23.5132 16.3142 25.0099 16.2377 26.3983L16.2363 26.3969L16.0904 28.1303C16.0424 29.7419 15.1947 31.2237 13.8295 32.0823L11.1408 33.7732C10.9314 33.9049 10.7669 34.0973 10.6695 34.3249C10.4368 34.8681 10.6279 35.5001 11.1227 35.8234L11.3927 36L11.2096 35.96C10.2538 35.7516 9.65839 34.796 9.8923 33.8466C9.98246 33.4804 10.1892 33.1536 10.4814 32.9154L12.75 31.0653C13.6201 30.3559 14.1416 29.3056 14.1813 28.1837L14.2949 24.9605C13.5878 26.583 12.4387 27.9787 10.9718 28.9827L8.80608 30.4649C7.46337 31.3839 6.57834 32.8337 6.37487 34.448L6.34372 34.6943C5.95564 32.7324 6.62678 30.7109 8.11079 29.3702L10.1969 27.4855C11.2681 26.5178 12.1033 25.3175 12.6381 23.9766L13.0278 23.0271L12.0702 23.409C10.7292 23.9438 9.52851 24.7788 8.5606 25.8498L6.6755 27.9355C5.33437 29.4193 3.31253 30.0902 1.35027 29.7022L1.59661 29.671C3.21122 29.4676 4.66123 28.5827 5.58056 27.2403L7.06329 25.0752C8.03435 23.6569 9.37119 22.5343 10.9258 21.8225L7.81788 21.9321C6.69579 21.9718 5.64529 22.4933 4.93572 23.3631L3.0852 25.6312C2.84701 25.9233 2.52008 26.13 2.15387 26.2202C1.20425 26.454 0.248479 25.8588 0.0400081 24.9032L0 24.72L0.17675 24.9902C0.500102 25.4849 1.13223 25.6759 1.67563 25.4433C1.9031 25.3459 2.09557 25.1815 2.22745 24.972L3.91865 22.2839C4.7774 20.9191 6.25956 20.0715 7.87146 20.0235L9.9936 19.9603C11.3242 19.8186 12.7316 19.2126 13.9556 18.1764C13.7868 17.7485 13.9217 17.1856 14.3329 16.7744C14.6458 16.4611 15.0468 16.3091 15.4094 16.3282ZM35.638 0.801424C35.5984 0.565997 35.4151 0.390569 35.1767 0.359997C32.7495 0.0489985 30.7171 -0.0562868 29.7963 0.0278557C29.5061 0.0542842 29.2851 0.297283 29.2851 0.588711V3.06342C25.3447 5.31169 21.8079 8.23082 18.8417 11.7047C18.8417 11.7047 17.1599 13.5555 16.0638 15.3932L20.7911 20.0029C22.0909 19.1961 24.2912 17.1529 24.2912 17.1529C27.7685 14.1852 30.6902 10.6458 32.9397 6.70254H35.3745C35.658 6.70254 35.896 6.49212 35.933 6.21097C36.0556 5.27955 36.0383 3.17841 35.638 0.801424Z" fill="black"/>
</svg>
