<svg width="36" height="36" viewBox="0 0 36 36" fill="none" xmlns="http://www.w3.org/2000/svg">
<path d="M10.4478 18.206C12.4149 18.7592 14.7219 16.6742 15.604 13.5495C16.4834 10.4232 16.3794 8.25127 14.4139 7.69656C12.4467 7.14297 8.58813 8.53331 7.70793 11.6588C6.82659 14.7831 8.48223 17.6506 10.4478 18.206Z" fill="black"/>
<path d="M9.00977 22.2722C8.62534 22.2722 8.31307 21.9595 8.31307 21.5756C8.31307 21.4406 8.3623 21.3203 8.42908 21.2141C8.42596 21.2141 8.4221 21.2133 8.41898 21.2133C7.77311 21.2133 7.24789 21.7377 7.24789 22.3839C7.24789 23.0302 7.77238 23.5546 8.41898 23.5546C9.06558 23.5546 9.59046 23.031 9.59046 22.3839C9.59046 22.259 9.56601 22.1411 9.52954 22.0278C9.40157 22.1744 9.21886 22.2722 9.00977 22.2722Z" fill="black"/>
<path d="M35.1763 17.4469C34.7419 16.82 34.2484 16.1101 34.0716 15.2225C33.9133 14.4211 34.0622 12.7104 35.7598 11.9764L35.4448 11.2479C33.5665 12.0606 33.0118 13.9587 33.2934 15.3772C33.5013 16.4277 34.0684 17.2443 34.5239 17.9007C34.9421 18.5031 35.2726 18.9787 35.1934 19.379C35.1361 19.6714 34.8381 19.9919 34.3105 20.3301C32.8163 21.2883 30.945 21.0803 29.6206 20.7607C29.6663 20.4627 29.695 20.161 29.695 19.8537C29.695 15.302 24.5279 11.6116 18.1541 11.6116C17.6456 11.6116 17.1467 11.6384 16.6556 11.6838C16.5295 12.5116 16.322 13.2506 16.1959 13.6994C15.3313 16.7612 13.176 18.9824 11.0708 18.9824C10.8023 18.9824 10.5362 18.946 10.2802 18.8746C9.02724 18.5201 7.91356 17.3714 7.31692 15.8427L1.61179 26.1677C1.47525 26.1126 1.32749 26.0808 1.17035 26.0808C0.524483 26.0808 0 26.6045 0 27.2515C0 27.8978 0.524483 28.4222 1.17109 28.4222C1.64355 28.4222 2.04817 28.1413 2.234 27.7387L17.4621 28.0707C17.6917 28.0801 17.9199 28.0956 18.1533 28.0956C18.2104 28.0956 18.267 28.0894 18.3236 28.0887L18.6045 28.0956L18.5905 28.0793C23.9585 27.9358 28.3877 25.18 29.4491 21.5367C30.0946 21.6926 30.8643 21.8237 31.6758 21.8237C32.6922 21.8237 33.7713 21.6189 34.7372 20.9982C35.4743 20.5257 35.8669 20.061 35.9724 19.5342C36.1183 18.8035 35.6605 18.1448 35.1763 17.4469ZM8.59664 24.1667C7.52016 24.1667 6.6466 23.2932 6.6466 22.2163C6.6466 21.1387 7.52016 20.2659 8.59664 20.2659C9.67311 20.2659 10.5471 21.1388 10.5471 22.2163C10.5471 23.2932 9.67391 24.1667 8.59664 24.1667Z" fill="black"/>
</svg>
