<svg width="36" height="36" viewBox="0 0 36 36" fill="none" xmlns="http://www.w3.org/2000/svg">
<path d="M32.9625 11.3625C32.5125 11.25 32.0625 11.3625 31.725 11.7L28.125 16.2C26.2125 13.95 21.4875 9 15.75 9C15.525 9 15.4125 9 15.1875 9C16.7625 11.7 17.55 14.7375 17.55 18C17.55 21.15 16.7625 24.3 15.1875 27C15.4125 27 15.525 27 15.75 27C21.4875 27 26.2125 22.1625 28.125 19.8L31.725 24.3C31.95 24.525 32.2875 24.75 32.625 24.75C32.7375 24.75 32.85 24.75 32.9625 24.6375C33.4125 24.525 33.75 24.075 33.75 23.625V12.375C33.75 11.925 33.4125 11.475 32.9625 11.3625Z" fill="black"/>
<path d="M12.825 9.45C6.975 11.1375 2.7 17.1 2.475 17.325C2.25 17.6625 2.25 18.225 2.475 18.675C2.7 19.0125 6.975 24.975 12.825 26.55C14.5125 23.9625 15.3 21.0375 15.3 18C15.3 14.9625 14.4 11.925 12.825 9.45ZM11.25 18C11.25 18.675 10.8 19.125 10.125 19.125C9.45 19.125 9 18.675 9 18V15.75C9 15.075 9.45 14.625 10.125 14.625C10.8 14.625 11.25 15.075 11.25 15.75V18Z" fill="black"/>
</svg>
