<svg width="36" height="36" viewBox="0 0 36 36" fill="none" xmlns="http://www.w3.org/2000/svg">
<path d="M11.3441 27.254L4.07207 31.7212L4.32668 34.0575H4.80557C5.88499 34.0575 6.8432 34.7266 7.18461 35.7188H2.61203L1.78186 30.7966C1.70841 30.3614 1.90858 29.9254 2.29123 29.6868L7.67671 26.3284C7.85903 26.2149 7.97836 26.0274 8.00144 25.8188L8.15037 24.4761C9.05894 25.4724 10.1478 26.421 11.3441 27.254ZM27.4754 27.8284L30.3333 34.0577L31.7622 35.7188H34.6201C34.2566 35.0044 33.6109 34.462 32.8294 34.2146L32.3338 34.0577L30.4762 27.8284L30.0729 25.1128C29.1922 25.7068 28.2314 26.1955 27.2082 26.5582L27.4754 27.8284ZM35.5414 17.8927L34.6201 17.4462V16.6157L35.1917 15.7852L31.0202 13.9891C30.4431 13.7406 29.7659 13.8885 29.3549 14.3532L26.6181 17.4464C26.6181 17.4464 15.66 15.3526 13.9066 14.9673C10.2401 14.1615 7.29436 13.2495 5.25774 11.7432C3.13389 10.172 2.05157 8.17003 2.04054 5.79291C2.05476 3.66736 3.84402 1.94231 6.04147 1.94231C8.24763 1.94231 10.0424 3.681 10.0424 5.81836C10.0424 6.27708 10.4262 6.64889 10.8997 6.64889C11.3732 6.64889 11.757 6.27708 11.757 5.81836C11.7572 2.76511 9.19321 0.28125 6.04147 0.28125C3.29545 0.28125 0.907552 2.26716 0.407036 4.88433C-0.126722 7.67573 1.3021 11.5978 5.65926 13.9932C6.8519 14.6489 8.96719 15.4853 9.46974 15.6669C8.09173 16.5655 7.18447 18.0896 7.18447 19.8198C7.18447 20.7754 7.44953 21.675 7.9425 22.4262C9.50647 24.8089 12.752 26.856 12.752 26.856C12.7537 26.8571 12.7555 26.8584 12.7572 26.8595L10.0423 34.0578L11.7572 35.7188H15.7583C15.4169 34.7268 14.4586 34.0575 13.3792 34.0575H12.6145L16.5867 27.3876C16.7827 27.0586 16.791 26.6556 16.6086 26.3194L14.7898 22.9636C14.7898 22.9636 17.2716 25.6634 21.626 26.1153L19.7592 34.0577L20.9024 35.7188H23.7603C23.3907 35.0028 22.7759 34.4336 22.0208 34.1085L21.9027 34.0577L24.4748 27.8284L26.6121 25.5869C29.2989 24.6864 31.5309 22.8431 32.8793 20.5573L34.6995 19.8519C35.0117 19.731 35.253 19.4829 35.3594 19.1739L35.6848 18.228C35.7298 18.0972 35.6686 17.9543 35.5414 17.8927Z" fill="black"/>
</svg>
