<svg width="36" height="36" viewBox="0 0 36 36" fill="none" xmlns="http://www.w3.org/2000/svg">
<path d="M32.2704 29.2984C31.6798 29.1544 31.3844 28.6976 31.6033 28.3238C31.8549 27.8089 32.6862 27.143 32.8853 26.9686C36.1491 24.1253 35.9304 21.6834 34.7469 20.3088C33.9507 19.3882 32.7387 18.5535 28.6611 17.4613C25.9136 16.7234 24.7871 16.0701 24.4653 15.4803C26.3116 15.4526 27.7947 14.5003 27.7947 13.3249C27.7947 12.5636 27.1691 11.8963 26.2284 11.5116C27.1184 9.89494 27.6369 8.63086 27.6369 7.07217C27.6369 3.23522 23.5549 0.28125 18.6873 0.28125C13.2871 0.28125 9.51156 3.49073 9.51156 7.07231C9.51156 8.56083 9.78934 9.90042 10.9684 11.5242C10.0431 11.9104 9.43289 12.5722 9.43289 13.3252C9.43289 14.4312 10.7476 15.3408 12.4407 15.4666C12.3051 16.4744 11.4082 17.9002 7.87089 18.2822C2.87467 18.8221 0.669559 20.5622 0.669559 22.7922C0.669559 24.7842 2.83734 25.3614 2.822 27.0267C2.81534 27.7784 1.92289 28.5148 0.457336 28.447C0.457336 28.447 0.708892 28.8665 1.52489 28.9703C3.58778 29.2306 4.88489 28.1632 4.84334 26.9423C4.76667 24.6347 2.27289 23.4014 4.51089 21.563C6.40089 20.0084 9.87245 20.5802 13.2522 19.2402C11.8916 20.1856 10.1656 21.7817 10.1656 23.8084C10.1656 25.3052 11.47 26.6324 12.6818 27.8588C13.9391 29.1313 15.6856 30.6555 15.4538 32.2401C15.2918 33.3475 13.82 34.2238 12.0511 34.2238C10.2136 34.2238 8.71956 33.3115 8.62556 32.1639C7.44 32.4408 8.29089 35.7188 12.7622 35.7188C16.3629 35.7188 18.3338 33.7614 18.3338 32.0268C18.3338 27.9638 13.6153 26.2834 14.3198 23.0926C14.6458 21.6239 17.2927 19.7038 18.7364 17.9999C19.1587 18.9301 19.9504 19.6886 20.7358 20.3919C21.5233 21.0952 22.302 21.7457 22.7024 22.4587C24.1922 25.1248 19.222 27.5888 20.5018 30.6633C22.0833 34.4687 27.8978 33.4 28.0553 33.3696C26.0429 33.0997 24.3607 32.1501 23.7022 30.9194C22.9651 29.5379 23.8029 28.0512 24.8442 26.8232C25.6536 25.8722 26.4193 24.906 26.4193 23.7999C26.4193 21.9713 25.2664 20.7352 23.8753 19.1722C23.65 18.919 23.4729 18.6615 23.3284 18.4054C26.0344 19.4188 30.1053 19.2291 31.8991 21.3332C33.1853 22.8448 31.2736 25.1027 30.4924 26.062C29.9958 26.6725 29.0093 27.5446 29.0202 28.6978C29.0247 29.3054 29.8538 30.1375 31.4638 30.1375C32.12 30.1375 32.7631 29.9963 33.1984 29.6765C33.3931 29.5325 33.6578 29.289 33.6622 29.0938C33.386 29.2389 32.8107 29.4286 32.2704 29.2984ZM12.8409 14.4934C11.8216 14.4934 10.9947 13.9701 10.9947 13.3251C10.9947 12.9624 11.2549 12.6384 11.664 12.4253L13.5911 14.3924C13.3616 14.4574 13.1078 14.4934 12.8409 14.4934ZM23.5838 14.3772L25.5067 12.3976C25.9484 12.6094 26.2329 12.9458 26.2329 13.3251C26.2329 13.9701 25.406 14.4934 24.3867 14.4934C24.1 14.4934 23.8267 14.4519 23.5838 14.3772Z" fill="black"/>
</svg>
