<svg width="36" height="36" viewBox="0 0 36 36" fill="none" xmlns="http://www.w3.org/2000/svg">
<path d="M15.4505 16.3544L19.8018 20.5985C19.8679 20.9855 19.7236 21.4373 19.3791 21.7818C18.9709 22.1901 18.4105 22.3217 17.988 22.149C16.9304 23.4271 16.3409 24.9005 16.2657 26.2672L16.2643 26.2658L16.1207 27.9721C16.0734 29.5585 15.2391 31.0172 13.8956 31.8624L11.2494 33.5268C11.0433 33.6565 10.8814 33.8459 10.7855 34.0699C10.5566 34.6047 10.7446 35.2268 11.2316 35.5451L11.4974 35.7189L11.3171 35.6795C10.3764 35.4743 9.79045 34.5337 10.0207 33.5991C10.1094 33.2387 10.3129 32.9169 10.6005 32.6825L12.8332 30.8613C13.6894 30.1629 14.2027 29.1291 14.2418 28.0247L14.3536 24.8518C13.6576 26.449 12.5267 27.8229 11.0831 28.8112L8.95162 30.2702C7.63017 31.1749 6.75914 32.6021 6.55889 34.1911L6.52823 34.4336C6.1463 32.5024 6.80681 30.5124 8.26734 29.1926L10.3205 27.3374C11.3747 26.3848 12.1967 25.2032 12.723 23.8833L13.1065 22.9486L12.1641 23.3246C10.8443 23.851 9.66262 24.6729 8.71003 25.7272L6.85477 27.7803C5.53486 29.241 3.54502 29.9014 1.61381 29.5194L1.85625 29.4888C3.44531 29.2885 4.87238 28.4175 5.77716 27.096L7.23642 24.9647C8.19211 23.5686 9.5078 22.4636 11.0378 21.7628L7.97906 21.8707C6.87473 21.9098 5.84086 22.4232 5.14252 23.2793L3.32128 25.512C3.08686 25.7996 2.76511 26.0031 2.40469 26.0918C1.47009 26.322 0.529453 25.7361 0.324281 24.7954L0.284906 24.6151L0.45886 24.8811C0.777094 25.368 1.39922 25.5561 1.93402 25.3271C2.15789 25.2312 2.34731 25.0694 2.47711 24.8632L4.14155 22.2171C4.9867 20.8735 6.44541 20.0392 8.0318 19.9919L10.1204 19.9298C11.4299 19.7903 12.815 19.1938 14.0196 18.1737C13.8535 17.7525 13.9863 17.1984 14.391 16.7936C14.699 16.4852 15.0936 16.3356 15.4505 16.3544ZM35.3589 1.07015C35.3199 0.838405 35.1395 0.665717 34.905 0.635624C32.5162 0.329483 30.5159 0.225842 29.6097 0.308671C29.3241 0.334686 29.1066 0.573889 29.1066 0.860764V3.29681C25.2285 5.50997 21.7477 8.3835 18.8284 11.8031C18.8284 11.8031 17.1733 13.625 16.0945 15.434L20.747 19.9717C22.0262 19.1774 24.1917 17.1662 24.1917 17.1662C27.614 14.2449 30.4895 10.7608 32.7033 6.87909H35.0996C35.3786 6.87909 35.6129 6.67195 35.6493 6.3952C35.7699 5.47833 35.7529 3.41001 35.3589 1.07015Z" fill="black"/>
</svg>
